<svg id="Capa_1" xmlns="http://www.w3.org/2000/svg" viewBox="0 0 496 496"><style>.st0{fill:#009b55}.st1{fill:#1f402f}</style><circle class="st0" cx="248" cy="152" r="120"/><path class="st1" d="M459.1 387.8c-7.5-35.7-35.6-62.7-71.6-68.7L304 305.2v-12c56.2-22.4 96-77.2 96-141.2C400 68.2 331.8 0 248 0S96 68.2 96 152c0 64 39.8 118.8 96 141.2v12l-83.4 13.9c-36 6-64.1 33-71.6 68.7L14.1 496h467.7l-22.7-108.2zm-15.7 3.3l18.7 88.9h-47l-7.2-64.9-15.9 1.8 7 63.1H286l-13.2-46.4 18.7-24.9 24.3 21.3 33.6-101 35.4 5.9c29.5 4.9 52.5 27 58.6 56.2zm-207.1-31.5L187.8 402l-25.2-75.7 34.7-5.8 39 39.1zm62.4-39l34.7 5.8-25.2 75.7-48.5-42.4 39-39.1zM247.6 371l.4.4.4-.4 31 27.2-24.2 32.3 14.2 49.6h-42.8l14.2-49.6-24.2-32.3 31-27.2zM112 152c0-75 61-136 136-136s136 61 136 136-61 136-136 136-136-61-136-136zm136 152c13.9 0 27.2-2 40-5.5v10.2l-40 40-40-40v-10.2c12.8 3.5 26.1 5.5 40 5.5zM52.6 391.1c6.2-29.2 29.2-51.3 58.6-56.2l35.4-5.9 33.6 101 24.3-21.3 18.7 24.9L210 480H97l7-63.1-15.9-1.8-7.3 64.9h-47l18.8-88.9z"/><path class="st1" d="M244 64c15.4 0 28 12.6 28 28v5.1c0 7.5-2.9 14.5-8.2 19.8L240 140.7V184h16v-36.7l19.1-19.1c8.3-8.3 12.9-19.4 12.9-31.1V92c0-24.3-19.7-44-44-44s-44 19.7-44 44v4h16v-4c0-15.4 12.6-28 28-28zM272 232c0-13.2-10.8-24-24-24s-24 10.8-24 24 10.8 24 24 24 24-10.8 24-24zm-32 0c0-4.4 3.6-8 8-8s8 3.6 8 8-3.6 8-8 8-8-3.6-8-8z"/></svg>