<svg id="Capa_1" xmlns="http://www.w3.org/2000/svg" viewBox="0 0 496 496"><style>.st0{fill:#1f402f}.st1{fill:#009b55}</style><path class="st0" d="M104 16h264v281.3h16V0H92.5L0 100.9V432h296v-16H16V112h16v32h320V32H104V16zM88 28.6V96H26.2L88 28.6zM336 48v80H48v-16h56V48h232z"/><path class="st0" d="M32 400h128V288H32v112zm16-96h96v80H48v-80z"/><circle class="st1" cx="392" cy="392" r="104"/><path class="st0" d="M176 384h96v16h-96zM176 352h96v16h-96zM176 320h96v16h-96zM176 288h128v16H176zM64 160h288v16H64zM32 256h288v16H32zM32 192h320v16H32zM32 224h320v16H32zM32 160h16v16H32zM336 256h16v16h-16zM392 352c8.8 0 16 7.2 16 16h16c0-14.9-10.2-27.3-24-30.9V320h-16v17.1c-13.8 3.6-24 16-24 30.9 0 17.6 14.4 32 32 32 8.8 0 16 7.2 16 16s-7.2 16-16 16-16-7.2-16-16h-16c0 14.9 10.2 27.3 24 30.9V464h16v-17.1c13.8-3.6 24-16 24-30.9 0-17.6-14.4-32-32-32-8.8 0-16-7.2-16-16s7.2-16 16-16zM448 384h16v16h-16zM320 384h16v16h-16z"/></svg>