<svg id="Layer_1" xmlns="http://www.w3.org/2000/svg" viewBox="0 0 300.2 300.2"><style>.st0{fill:#1f402f}.st1{fill:#009b55}</style><path class="st0" d="M285.6 198.5h-4.8V92c0-8-6.5-14.5-14.5-14.5h-4.8V53.3h-9.7v24.2h-9.7V53.3h-9.7v24.2H121v9.7h130.7v29H48.4v-29h19.4v-9.7H33.9c-8 0-14.5 6.5-14.5 14.5v106.5h-4.8C6.5 198.5 0 205 0 213v72.6c0 8 6.5 14.5 14.5 14.5h271.1c8 0 14.5-6.5 14.5-14.5V213c.1-8-6.5-14.5-14.5-14.5zM29 92c0-2.7 2.2-4.8 4.8-4.8h4.8v38.7h222.7V87.1h4.8c2.7 0 4.8 2.2 4.8 4.8v106.5H29V92zm261.5 193.6c0 2.7-2.2 4.8-4.8 4.8H14.5c-2.7 0-4.8-2.2-4.8-4.8V213c0-2.7 2.2-4.8 4.8-4.8h271c2.7 0 4.8 2.2 4.8 4.8l.2 72.6z"/><path class="st1" d="M251.7 58.1h-77.5c-16 0-29-13-29-29s13-29 29-29h77.5c16 0 29 13 29 29s-12.9 29-29 29zM125.9 106.5h-63V29h62.9l.1 77.5z"/><path class="st0" d="M193.7 43.6h9.6V14.5h-14.5v9.7h4.9zM227.5 33.9h-7.6l7.6-7.7V14.5h-19.3v9.7h7.7l-7.7 7.7v11.7h19.3zM256.6 14.5h-24.2v29h24.2v-29zm-9.7 19.4h-4.8v-9.7h4.8v9.7zM58.1 96.8h72.6v9.7H58.1zM77.5 48.4h33.9v9.7H77.5zM87.1 62.9h24.2v9.7H87.1zM19.4 280.8h261.4v-62.9H19.4v62.9zm9.6-53.3h242.1v43.6H29v-43.6z"/><path class="st0" d="M150.1 232.4c-9.3 0-16.9 7.6-16.9 16.9s7.6 16.9 16.9 16.9c9.3 0 16.9-7.6 16.9-16.9s-7.6-16.9-16.9-16.9zm-7.3 16.9c0-2.1.9-4 2.4-5.4v10.7c-1.4-1.2-2.4-3.1-2.4-5.3zm12.1 5.4V244c1.5 1.3 2.4 3.2 2.4 5.4 0 2.1-.9 4-2.4 5.3zM38.7 159.8h33.9v-24.2H38.7v24.2zm9.7-14.6h14.5v4.8H48.4v-4.8zM38.7 188.8h33.9v-24.2H38.7v24.2zm9.7-14.5h14.5v4.8H48.4v-4.8zM82.3 159.8h33.9v-24.2H82.3v24.2zm9.7-14.6h14.5v4.8H92v-4.8zM82.3 188.8h33.9v-24.2H82.3v24.2zm9.7-14.5h14.5v4.8H92v-4.8zM125.9 159.8h33.9v-24.2h-33.9v24.2zm9.7-14.6h14.5v4.8h-14.5v-4.8zM125.9 188.8h33.9v-24.2h-33.9v24.2zm9.7-14.5h14.5v4.8h-14.5v-4.8zM169.4 188.8h92v-53.3h-92v53.3zm9.7-43.6h72.6v33.9h-72.6v-33.9z"/></svg>