<svg id="Capa_1" xmlns="http://www.w3.org/2000/svg" viewBox="0 0 496 496"><style>.st0{fill:#009b55}.st1{fill:#1f402f}</style><path class="st0" d="M296 168h9.6c11.7-17.9 16.6-39 13.5-60.8-5.3-37.2-34.7-67.6-71.7-73.9-59.2-10.1-110.2 39.4-102.6 98.2 4.7 36.9 33.4 67.1 69.8 74.6 17.1 3.6 33.8 1.7 49.4-4.4V200c0-17.7 14.3-32 32-32zM16 320h48v168H16zM96 368h48v120H96zM176 336h48v152h-48z"/><path class="st1" d="M232 96c4.4 0 8 3.6 8 8h16c0-10.4-6.7-19.2-16-22.5V64h-16v17.5c-9.3 3.3-16 12.1-16 22.5 0 13.2 10.8 24 24 24 4.4 0 8 3.6 8 8s-3.6 8-8 8-8-3.6-8-8h-16c0 10.4 6.7 19.2 16 22.5V176h16v-17.5c9.3-3.3 16-12.1 16-22.5 0-13.2-10.8-24-24-24-4.4 0-8-3.6-8-8s3.6-8 8-8zM32 80h16V48h32V32H32zM48 160H32v48h48v-16H48zM416 80h16V32h-48v16h32z"/><path class="st1" d="M464 160.8V0H0v240h256v216c0 22.1 17.9 40 40 40h160c22.1 0 40-17.9 40-40V200c0-19.3-13.8-35.5-32-39.2zM256 200v24H16V16h432v144H296c-22.1 0-40 17.9-40 40zm224 256c0 13.2-10.8 24-24 24H296c-13.2 0-24-10.8-24-24V200c0-13.2 10.8-24 24-24h160c13.2 0 24 10.8 24 24v256z"/><path class="st1" d="M416 464h48V352h-48v112zm16-96h16v80h-16v-80zM352 464h48v-48h-48v48zm16-32h16v16h-16v-16zM288 464h48v-48h-48v48zm16-32h16v16h-16v-16zM352 400h48v-48h-48v48zm16-32h16v16h-16v-16zM288 400h48v-48h-48v48zm16-32h16v16h-16v-16zM352 336h48v-48h-48v48zm16-32h16v16h-16v-16zM416 336h48v-48h-48v48zm16-32h16v16h-16v-16zM288 336h48v-48h-48v48zm16-32h16v16h-16v-16zM288 272h176v-80H288v80zm16-64h144v48H304v-48zM40 256c-13.2 0-24 10.8-24 24s10.8 24 24 24c5.8 0 11-2.1 15.2-5.6l41.3 24.8c-.3 1.5-.5 3.1-.5 4.8 0 13.2 10.8 24 24 24s24-10.8 24-24c0-.3-.1-.6-.1-.9l38.2-15.3c4.4 5 10.8 8.2 17.9 8.2 13.2 0 24-10.8 24-24s-10.8-24-24-24-24 10.8-24 24c0 .3.1.6.1.9l-38.2 15.3c-4.4-5-10.8-8.2-17.9-8.2-5.8 0-11 2.1-15.2 5.6l-41.3-24.8c.3-1.6.5-3.1.5-4.8 0-13.2-10.8-24-24-24zm160 32c4.4 0 8 3.6 8 8s-3.6 8-8 8-8-3.6-8-8 3.6-8 8-8zm-160 0c-4.4 0-8-3.6-8-8s3.6-8 8-8 8 3.6 8 8-3.6 8-8 8zm88 40c0 4.4-3.6 8-8 8s-8-3.6-8-8 3.6-8 8-8 8 3.6 8 8zM0 480h240v16H0zM272 112h16v16h-16zM176 112h16v16h-16z"/></svg>