<svg xmlns="http://www.w3.org/2000/svg" viewBox="0 0 496 496" width="512" height="512"><path data-original="#FFCB57" data-old_color="#ffffff" fill="#fff" d="M264 200h224v288H264zM96 88h64v64H96z"/><path data-original="#E56565" class="active-path" data-old_color="#E56565" fill="#009b5d" d="M184 80h192v16H184zM392 80h16v16h-16zM184 112h224v16H184zM184 144h224v16H184zM96 256h112v16H96zM224 256h16v16h-16zM96 192h112v16H96zM224 192h16v16h-16zM96 224h144v16H96z"/><g><path d="M256 192v304h240V192H256zm224 288H272V208h208v272zM16 352v-24h144v-16H0v40c0 22.056 17.944 40 40 40h200v-16H40c-13.232 0-24-10.768-24-24z" data-original="#3F3A34" data-old_color="#3F3A34" fill="#1a4334"/><path d="M176 336c0 13.232 10.768 24 24 24h40v-16h-40c-4.416 0-8-3.592-8-8v-8h48v-16h-64v24zM32 40c0-13.232 10.768-24 24-24h384c13.232 0 24 10.768 24 24v136h16V40c0-22.056-17.944-40-40-40H56C33.944 0 16 17.944 16 40v256h16V40z" data-original="#3F3A34" data-old_color="#3F3A34" fill="#1a4334"/><path d="M448 176V48c0-8.824-7.176-16-16-16H64c-8.824 0-16 7.176-16 16v248h16V48h368v128h16z" data-original="#3F3A34" data-old_color="#3F3A34" fill="#1a4334"/><path d="M168 160V80H88v80h80zm-64-64h48v48h-48V96zM416 296h-16v24h-64v-64h64v-16h-80v96h96z" data-original="#3F3A34" data-old_color="#3F3A34" fill="#1a4334"/><path data-original="#3F3A34" data-old_color="#3F3A34" fill="#1a4334" d="M357.656 266.344l-11.312 11.312 28.992 29 77.576-60.336-9.824-12.64-66.424 51.664zM416 408h-16v24h-64v-64h64v-16h-80v96h96z"/><path data-original="#3F3A34" data-old_color="#3F3A34" fill="#1a4334" d="M357.656 378.344l-11.312 11.312 28.992 29 77.576-60.336-9.824-12.64-66.424 51.664z"/></g></svg>