<svg xmlns="http://www.w3.org/2000/svg" height="512" viewBox="0 0 496 496" width="512"><path d="M376 272c-48.52 0-88-39.48-88-88s39.48-88 88-88 88 39.48 88 88-39.48 88-88 88zm0 0" fill="#009b55" data-original="#F0BC5E" class="active-path" data-old_color="#F0BC5E"/><path d="M384 456a8 8 0 1 1-16 0 8 8 0 0 1 16 0zm0 0" data-original="#000000" data-old_color="#000000" fill="#1f402f"/><path d="M160 400H32V288h128zm0 0M160 248H32V136h128zm0 0" fill="#009b55" data-original="#F0BC5E" class="active-path" data-old_color="#F0BC5E"/><path d="M496 184c0-63.473-49.559-115.45-112-119.594V0H0v432h336v24c0 22.055 17.945 40 40 40s40-17.945 40-40V336h-16v-34.414c54.703-11.152 96-59.633 96-117.586zm-16 0c0 57.344-46.656 104-104 104s-104-46.656-104-104S318.656 80 376 80s104 46.656 104 104zM336 336v80H16V16h352v48.406C305.559 68.551 256 120.527 256 184c0 57.953 41.297 106.434 96 117.586V336zm64 120c0 13.23-10.77 24-24 24s-24-10.77-24-24V352h48zm-16-120h-16v-32.406c2.656.176 5.297.406 8 .406s5.344-.23 8-.406zm0 0" data-original="#000000" data-old_color="#000000" fill="#1f402f"/><path d="M348.441 201.344l-8.882 13.312 31.546 21.024 44.055-88.106-14.32-7.148-35.945 71.894zm0 0M93.207 345.895l-15.55-15.551-11.313 11.312 32.449 32.45 44.59-107.028-14.766-6.156zm0 0M93.207 193.895l-15.55-15.551-11.313 11.312 32.449 32.45 44.59-107.028-14.766-6.156zm0 0M224 64h16v16h-16zm0 0M32 64h176v16H32zm0 0M176 288h96v16h-96zm0 0M176 320h96v16h-96zm0 0M176 352h96v16h-96zm0 0M176 384h96v16h-96zm0 0M176 136h64v16h-64zm0 0M176 168h64v16h-64zm0 0M176 200h64v16h-64zm0 0M176 232h64v16h-64zm0 0M32 32h208v16H32zm0 0" data-original="#000000" data-old_color="#000000" fill="#1f402f"/></svg>