<svg xmlns="http://www.w3.org/2000/svg" viewBox="0 0 150 150"><defs><style>.cls-1{fill:#f0f0f0}.cls-2{fill:#009b55}.cls-3{fill:#1f402f}</style></defs><title>Asset 7</title><g id="Layer_2" data-name="Layer 2"><g id="Layer_1-2" data-name="Layer 1"><circle class="cls-1" cx="75" cy="75" r="75"/><path class="cls-2" d="M32.49 55.38h26.16V75H32.49zM91.35 63.56h26.16v19.62H91.35z"/><path class="cls-3" d="M75 39a6.54 6.54 0 1 0-6.54-6.54A6.55 6.55 0 0 0 75 39zm0-9.81a3.27 3.27 0 1 1-3.27 3.27A3.27 3.27 0 0 1 75 29.22zM89.71 68.46A14.71 14.71 0 1 0 75 83.17a14.73 14.73 0 0 0 14.71-14.71zM75 57a11.45 11.45 0 0 1 11.31 9.81h-.76a2.82 2.82 0 0 1-2.34-1.25l-2.85-4.28-4.69 3.13a4.6 4.6 0 0 1-2.56.78H64A11.46 11.46 0 0 1 75 57zm0 22.9a11.46 11.46 0 0 1-11.44-11.44h9.55a7.86 7.86 0 0 0 4.38-1.33l2-1.31 1 1.56a6.07 6.07 0 0 0 5.06 2.71h.76A11.45 11.45 0 0 1 75 79.9zM37.4 60.29h16.35v3.27H37.4zM37.4 66.83h16.35v3.27H37.4zM96.25 68.46h16.35v3.27H96.25zM109.33 75h3.27v3.27h-3.27zM96.25 75h9.81v3.27h-9.81z"/><path class="cls-3" d="M117.51 43.94h-32.7v-2.83a13.08 13.08 0 1 0-19.62 0v2.82h-32.7a8.18 8.18 0 0 0-8.17 8.17v50.68a8.18 8.18 0 0 0 8.17 8.22h19.62v6.54h-6.54v3.27h58.86v-3.27h-6.54V111h19.62a8.18 8.18 0 0 0 8.17-8.17V52.11a8.18 8.18 0 0 0-8.17-8.17zm-49-.13a13 13 0 0 0 13.08 0v3.4H68.46zM75 22.68a9.81 9.81 0 1 1-9.81 9.81A9.82 9.82 0 0 1 75 22.68zM32.49 47.21h32.7v3.27h19.62v-3.27h32.7a4.91 4.91 0 0 1 4.9 4.9v45.78H97.89v-3.27a11.46 11.46 0 0 0-11.45-11.45H63.56a11.46 11.46 0 0 0-11.45 11.45v3.27H27.59V52.11a4.91 4.91 0 0 1 4.9-4.9zm54 44.14v6.54H63.56v-6.54h-3.27v6.54h-4.9v-3.27a8.18 8.18 0 0 1 8.17-8.17h22.88a8.18 8.18 0 0 1 8.17 8.17v3.27h-4.9v-6.54zm8.17 26.16H55.38V111h39.24zm22.89-9.81h-85a4.91 4.91 0 0 1-4.9-4.9v-1.63h94.83v1.63a4.91 4.91 0 0 1-4.97 4.9z"/></g></g></svg>