<svg xmlns="http://www.w3.org/2000/svg" viewBox="0 0 150 150"><defs><style>.cls-1{fill:#f0f0f0}.cls-2{fill:#1f402f}.cls-3{fill:#009b55}</style></defs><title>Asset 5</title><g id="Layer_2" data-name="Layer 2"><g id="Layer_1-2" data-name="Layer 1"><circle class="cls-1" cx="75" cy="75" r="75"/><path class="cls-2" d="M75 76.63a36 36 0 0 0-36 36v8.17h72v-8.2a36 36 0 0 0-36-36zm14.47 6.69C84.82 93.39 78 108 75.09 113.89L60.53 83.32a32.32 32.32 0 0 1 28.94 0zm2.44 2.51L96 103.61l-17 9.72c2.22-4.51 6.06-12.68 12.9-27.49zM71.28 113.5L54 103.61l4.09-17.81zm-29-.9A32.63 32.63 0 0 1 54.4 87.24l-4.16 18L71.7 117.5H42.3zm65.4 4.9H78.29l21.46-12.26-4.16-18a32.63 32.63 0 0 1 12.1 25.36zm0 0"/><path class="cls-2" d="M95.39 66.83h4.14a4.91 4.91 0 0 0 4.91-4.9V57h-3.27v4.91a1.64 1.64 0 0 1-1.63 1.63h-1.9a26.12 26.12 0 1 0-2.23 3.27zM52.11 50.47a22.89 22.89 0 1 1 41.65 13.08H82.87a4.9 4.9 0 0 0-4.6-3.27h-6.54a4.9 4.9 0 1 0 0 9.81h6.54a4.9 4.9 0 0 0 4.6-3.27H91a22.87 22.87 0 0 1-38.89-16.35zM79.9 65.19a1.64 1.64 0 0 1-1.63 1.63h-6.54a1.64 1.64 0 0 1 0-3.27h6.54a1.64 1.64 0 0 1 1.63 1.64zm0 0"/><path class="cls-2" d="M75 22.68a27.82 27.82 0 0 1 26.25 18.64l3.09-1.07a31.08 31.08 0 0 0-58.68 0l3.09 1.08A27.82 27.82 0 0 1 75 22.68zm0 0"/><path class="cls-3" d="M48.84 61.92h-1.63a11.44 11.44 0 1 1 0-22.89h1.63zm0 0M102.79 61.92h-1.64V39h1.64a11.44 11.44 0 0 1 0 22.89zm0 0"/></g></g></svg>