<svg xmlns="http://www.w3.org/2000/svg" viewBox="0 0 150 150"><defs><style>.cls-1{fill:#f0f0f0}.cls-2{fill:#009b55}.cls-3{fill:#1f402f}</style></defs><title>Financial Config</title><g id="Layer_2" data-name="Layer 2"><g id="Layer_1-2" data-name="Layer 1"><circle class="cls-1" cx="75" cy="75" r="75"/><path class="cls-2" d="M82.75 52.77A13.95 13.95 0 1 1 96.7 38.82a14 14 0 0 1-13.95 13.95zm0 0"/><path class="cls-3" d="M84.3 37.27h-3.1a1.55 1.55 0 0 1 0-3.1h3.1a1.55 1.55 0 0 1 1.55 1.55h3.1a4.66 4.66 0 0 0-4.65-4.65v-1.55h-3.1v1.55a4.65 4.65 0 0 0 0 9.3h3.1a1.55 1.55 0 1 1 0 3.1h-3.1a1.55 1.55 0 0 1-1.55-1.55h-3.1a4.65 4.65 0 0 0 4.65 4.65v1.55h3.1v-1.55a4.65 4.65 0 1 0 0-9.3zm0 0M104.45 57.42a14 14 0 0 0-13.91 13.09l-6.24 4.16V51.22h-3.1v15.7L75 62.76a13.9 13.9 0 0 0-4.6-9.51v-2a4.64 4.64 0 0 0-9-1.53h-1.9v1.55a14.14 14.14 0 0 0 .09 1.53h-.09a1.55 1.55 0 0 1-1.5-1.58 4.65 4.65 0 0 0-9.3 0 1.55 1.55 0 1 1-3.1 0 4.65 4.65 0 0 0-9.3 0v3.1a16.86 16.86 0 0 0 4 10.92 4.61 4.61 0 0 0-2.37 8.06A26.33 26.33 0 0 0 53.3 121a25.83 25.83 0 0 0 4.65-.44v.44h40.3v-3.1h-12.4v-3.1h3.1v-3.1h-6.2v-3.1h3.1v-3.1H81.2v-3.1h3.1v-6.2h1.55V90h3.1v-3.1H84.3v-8.5l8.26-5.51A14 14 0 0 0 106 59v-1.58zm-32.68 4.52a10.87 10.87 0 0 1-9-9 10.87 10.87 0 0 1 9 9zm-7.18-11.8a1.55 1.55 0 0 1 2.65 1 13.92 13.92 0 0 0-2.63-1zm-25.24 1.08a1.55 1.55 0 0 1 3.1 0 4.65 4.65 0 1 0 9.3 0 1.55 1.55 0 0 1 3.1 0 4.65 4.65 0 0 0 4.65 4.65 4.57 4.57 0 0 0 .77-.07 14 14 0 0 0 4.5 6.3 14.17 14.17 0 0 1-2.77 3H44.56a13.82 13.82 0 0 1-5.21-10.85zm1.55 17h24.8a1.55 1.55 0 0 1 0 3.1H40.9a1.55 1.55 0 0 1 0-3.1zm12.4 49.59a23.24 23.24 0 0 1-11.59-43.34h23.18a23.38 23.38 0 0 1 10.31 12.4H63.49a7.77 7.77 0 0 0-7.09-4.65h-1.55v-4.65h-3.1v4.65H50.2a7.75 7.75 0 1 0 0 15.5h6.2v4.65h3.1v3.43a4.64 4.64 0 0 1-3.1 1.2h-6.2a4.65 4.65 0 0 1-4.65-4.65v-1.55h-3.1v1.55a7.76 7.76 0 0 0 7.75 7.75h1.55v4.65h3.1v-4.65h1.55a7.76 7.76 0 0 0 4.6-1.54v3.1h-3v5.68a23.1 23.1 0 0 1-4.65.52zm3.1-32.55a4.65 4.65 0 0 1 3.45 1.55H58v6.2h-1.6v1.55h-6.2a4.65 4.65 0 0 1 0-9.3zm9.3 13.95v-3.1h3.1v3.1zm1.55-6.2V90h3.1v3.1zm-3.1 0h-3.1V90h3.1zm-4.65 3.1h3.1v3.1h-3.1zm6.2 6.2v3.1h-3.1v-3.1zm-1.55 6.2h3.1v3.1h-3.1zm6.2 6.2v3.1h-3.1v-3.1zm3.1 0h3.1v3.1h-3.1zm-3.1-3.1v-3.1h3.1v3.1zm-1.55-6.2v-3.1h3.1v3.1zm3.1-6.2v-3.1H75v3.1zm1.55-6.2V90h3.1v3.1zm-12.4 21.7h3.1v3.1h-3.1zm21.7 3.1h-3.1v-3.1h3.1zm-3.1-6.2h-3.1v-3.1h3.1zm-1.55-6.2H75v-3.1h3.1zm3.1-6.2h-3.1v-3.1h3.1zm1.55-6.2h-3.1V90h3.1zm-4.31-6.2a26.48 26.48 0 0 0-9.7-13.56 4.61 4.61 0 0 0-2.4-8.07 17.3 17.3 0 0 0 1.09-1.45 13.83 13.83 0 0 0 5.51 1.36l8.26 5.51v16.27zm15.29-17.12a10.87 10.87 0 0 1 9-9 10.87 10.87 0 0 1-9 9zm0 0"/><path class="cls-2" d="M102.9 121a20.15 20.15 0 1 1 20.1-20.19A20.17 20.17 0 0 1 102.9 121zm0 0"/><path class="cls-3" d="M113.74 96.16v-.78a7 7 0 0 0-7-7h-2.32v-3.1h-3.1v3.1H99a7 7 0 0 0 0 13.95h7.75a3.87 3.87 0 0 1 0 7.75H99a3.88 3.88 0 0 1-3.88-3.88v-.77H92v.77a7 7 0 0 0 7 7h2.32v3.1h3.1v-3.1h2.32a7 7 0 1 0 0-13.95H99a3.87 3.87 0 1 1 0-7.75h7.75a3.88 3.88 0 0 1 3.88 3.88v.78zm0 0"/></g></g></svg>