<svg xmlns="http://www.w3.org/2000/svg" viewBox="0 0 150 150"><defs><style>.cls-1{fill:#f0f0f0}.cls-2{fill:#1f402f}.cls-3{fill:#009b55}</style></defs><title>Asset 1</title><g id="Layer_2" data-name="Layer 2"><g id="Layer_1-2" data-name="Layer 1"><g id="Layer_2-2" data-name="Layer 2"><g id="Layer_1-2-2" data-name="Layer 1-2"><g id="Layer_2-2-2" data-name="Layer 2-2"><g id="Layer_1-2-2-2" data-name="Layer 1-2-2"><circle class="cls-1" cx="75" cy="75" r="75"/><g id="Layer_2-3" data-name="Layer 2"><g id="Layer_1-2-3" data-name="Layer 1-2"><path class="cls-2" d="M45.7 50.95a8.58 8.58 0 1 0-8.58 8.58 8.59 8.59 0 0 0 8.58-8.58zM37.12 56a5.06 5.06 0 1 1 5.06-5.06 5.15 5.15 0 0 1-5.06 5.15zM49.13 85.27a1.69 1.69 0 1 1-3.38 0V68.1h-3.38v48a1.69 1.69 0 0 1-3.38 0v-24h-3.37v24a1.69 1.69 0 0 1-3.38 0v-48h-3.37v17.17a1.69 1.69 0 1 1-3.38 0V69.06a6.09 6.09 0 0 1 6.1-6.06H43.4v-3.41H31.59a9.52 9.52 0 0 0-9.9 9.12v16.54a5.15 5.15 0 0 0 5.06 5.06 5.06 5.06 0 0 0 1.68-.31v26.15A5.06 5.06 0 0 0 37 120a5.06 5.06 0 0 0 8.58-3.82v-26a5.06 5.06 0 0 0 1.69.32 5.15 5.15 0 0 0 5.06-5.06v-9.88H49zM121.17 50.95a8.58 8.58 0 1 0-8.58 8.58 8.59 8.59 0 0 0 8.58-8.58zM112.6 56a5.06 5.06 0 1 1 5.06-5.06 5.15 5.15 0 0 1-5.08 5.15zM123 90.4a5.15 5.15 0 0 0 5-5.06V69.13a9.52 9.52 0 0 0-9.52-9.52h-11.79a9.52 9.52 0 0 0-9.52 9.52V74l-1.69-1.69L93 74.72l6 6-4.81 4.81-6.11-6.25-2.43 2.43 1.13 1.13v2.35a1.69 1.69 0 1 1-3.38 0v-1.66h-3.3v32.61a1.69 1.69 0 0 1-3.38 0v-24h-3.37v24a1.69 1.69 0 0 1-3.38 0V83.55H66.6v1.69a1.69 1.69 0 1 1-3.38 0v-1.69h-3.38v1.69a5.15 5.15 0 0 0 5.06 5.06 5.06 5.06 0 0 0 1.7-.3v26.16a5.06 5.06 0 0 0 8.57 3.84 5.06 5.06 0 0 0 8.58-3.82v-26a5.06 5.06 0 0 0 1.69.32 5.15 5.15 0 0 0 5.06-4.17l1.55 1.55-3.61 3.61 2.43 2.43 2.4-2.4 11 11v13.66a5.06 5.06 0 0 0 8.58 3.82 5.06 5.06 0 0 0 8.58-3.82v-1.89a8.52 8.52 0 0 0 4.36-14.4l-4.36-4.36V90.1a5.06 5.06 0 0 0 1.57.3zm-13.81 27.45a1.69 1.69 0 0 1-1.69-1.69v-10.25l3.38 3.38V116a1.69 1.69 0 0 1-1.57 1.8zm6.85 0a1.69 1.69 0 0 1-1.69-1.69v-3.54a8.44 8.44 0 0 0 3.38 1.69v1.91a1.69 1.69 0 0 1-1.67 1.64zm8.64-12a5.06 5.06 0 0 1-8.71 3.61L95.39 89l7.22-7.22 20.48 20.49a5.06 5.06 0 0 1 1.56 3.61zm-17.2-24.12V68.1h-3.38v7.43l-2.62 2.62-.83-.83V69a6.09 6.09 0 0 1 6.07-6h11.82a6.09 6.09 0 0 1 6.11 6v16.25a1.69 1.69 0 0 1-3.38 0V68.1h-3.37v24z"/><path class="cls-3" d="M91.77 37.11a29 29 0 1 0 0 41 29 29 0 0 0 0-41zm-7.25 33.76a18.75 18.75 0 1 1 0-26.52 18.75 18.75 0 0 1 0 26.52z"/><path class="cls-2" d="M85.74 72.13a20.49 20.49 0 1 0-14.48 6 20.49 20.49 0 0 0 14.48-6zM59.2 45.55a17 17 0 1 1 0 24.11 17 17 0 0 1-.09-24z"/><path class="cls-2" d="M73.13 71.54v-1.68a6.86 6.86 0 0 0 0-13.72h-3.38a3.43 3.43 0 0 1 0-6.85h3.38a3.38 3.38 0 0 1 3.38 3.38v1.69h3.38v-1.71A6.87 6.87 0 0 0 73 45.8v-1.69h-3.35v1.69a6.86 6.86 0 0 0 0 13.72H73a3.43 3.43 0 1 1 0 6.85h-3.35A3.38 3.38 0 0 1 66.28 63v-1.69H62.9V63a6.87 6.87 0 0 0 6.85 6.85v1.69z"/></g></g></g></g></g></g></g></g></svg>