<svg xmlns="http://www.w3.org/2000/svg" viewBox="0 0 150 150"><defs><style>.cls-1{fill:#f0f0f0}.cls-2{fill:#1f402f}.cls-3{fill:#009b55}</style></defs><title>Asset 6</title><g id="Layer_2" data-name="Layer 2"><g id="Layer_1-2" data-name="Layer 1"><circle class="cls-1" cx="75" cy="75" r="75"/><path class="cls-2" d="M23.57 120.78H48.1v-3.27H26.84v-54H48.1v-3.22H23.57zm0 0M100.42 60.29v3.27h21.25v54h-21.25v3.27h24.52V60.29zm0 0"/><path class="cls-2" d="M41.56 68.46h-9.81v9.81h9.81zM38.29 75H35v-3.27h3.27zm0 0M41.56 83.17h-9.81V93h9.81zm-3.27 6.54H35v-3.27h3.27zm0 0M31.75 107.7h9.81v-9.81h-9.81zm3.25-6.54h3.27v3.27H35zm0 0M116.76 68.46H107v9.81h9.81zM113.5 75h-3.27v-3.27h3.27zm0 0M107 93h9.81v-9.83H107zm3.27-6.54h3.27v3.27h-3.27zm0 0M107 107.7h9.81v-9.81H107zm3.27-6.54h3.27v3.27h-3.27zm0 0"/><path class="cls-3" d="M102 120.78H46.46V32.49h55.59zm0 0"/><path class="cls-2" d="M100.42 22.68v-3.27H48.1v3.27h3.27v11.45h3.27V22.68h39.24v11.45h3.27V22.68zm0 0M64.45 40.67h-9.81v9.81h9.81zm-3.27 6.54h-3.27v-3.28h3.27zm0 0M79.16 40.67h-9.81v9.81h9.81zm-3.27 6.54h-3.27v-3.28h3.27zm0 0M93.88 40.67h-9.81v9.81h9.81zm-3.27 6.54h-3.27v-3.28h3.27zm0 0M90.61 91.35H53v3.27h3.27v26.16h36V94.62h3.27v-3.27zm-31.07 3.27h13.08v6.54H71a4.91 4.91 0 0 0 0 9.84h1.63v6.54H59.54zm13.08 13.08H71a1.64 1.64 0 0 1 0-3.27h1.63zm3.27-3.27h1.63a1.64 1.64 0 0 1 0 3.27h-1.63zM89 117.51H75.89V111h1.63a4.9 4.9 0 1 0 0-9.81h-1.63v-6.57H89zm0 0M54.64 65.19h9.81v-9.81h-9.81zm3.27-6.54h3.27v3.27h-3.27zm0 0M69.35 65.19h9.81v-9.81h-9.81zm3.27-6.54h3.27v3.27h-3.27zm0 0M84.07 65.19h9.81v-9.81h-9.81zm3.27-6.54h3.27v3.27h-3.27zm0 0M54.64 79.9h9.81v-9.81h-9.81zm3.27-6.54h3.27v3.27h-3.27zm0 0M69.35 79.9h9.81v-9.81h-9.81zm3.27-6.54h3.27v3.27h-3.27zm0 0M84.07 79.9h9.81v-9.81h-9.81zm3.27-6.54h3.27v3.27h-3.27zm0 0M53 84.81h35.97v3.27H53zM92.24 84.81h3.27v3.27h-3.27z"/></g></g></svg>