<svg xmlns="http://www.w3.org/2000/svg" viewBox="0 0 150 150"><defs><style>.cls-1{fill:#f0f0f0}.cls-2{fill:#009b55}.cls-3{fill:#1f402f}</style></defs><title>General Config</title><g id="Layer_2" data-name="Layer 2"><g id="Layer_1-2" data-name="Layer 1"><circle class="cls-1" cx="75" cy="75" r="75"/><path class="cls-2" d="M106.53 83.76V74.4h-6.7A24.8 24.8 0 0 0 96 65.05l4.73-4.73-6.62-6.62-4.73 4.73A24.85 24.85 0 0 0 80 54.57v-6.69h-9.36v6.69a24.8 24.8 0 0 0-9.35 3.86l-4.73-4.73-6.62 6.62 4.73 4.73a24.85 24.85 0 0 0-3.86 9.35h-6.69v9.36h6.69a24.8 24.8 0 0 0 3.86 9.35l-4.73 4.73 6.62 6.62 4.73-4.73a24.85 24.85 0 0 0 9.35 3.86v6.69H80v-6.69a24.8 24.8 0 0 0 9.35-3.86l4.73 4.73 6.62-6.62-4.7-4.73a24.85 24.85 0 0 0 3.86-9.35h6.69z"/><path class="cls-3" d="M27 24.48v96.73h96.73V24.48zm93.61 3.12V37H30.08v-9.4zm-90.53 90.49v-78h90.49v78z"/><path class="cls-3" d="M33.2 30.72h3.12v3.12H33.2zM39.44 30.72h3.12v3.12h-3.12zM45.68 30.72h3.12v3.12h-3.12zM55 79.08h3.12a17.3 17.3 0 0 1 .24-2.86l-3.08-.52a20.66 20.66 0 0 0-.28 3.38zM75.32 58.8a20.32 20.32 0 0 0-19.13 13.52l2.94 1a17.19 17.19 0 0 1 16.19-11.4zM75.32 68.16a10.92 10.92 0 1 0 10.92 10.92 10.93 10.93 0 0 0-10.92-10.92zm0 18.72a7.8 7.8 0 1 1 7.8-7.8 7.81 7.81 0 0 1-7.8 7.8zM33.2 60.36h3.12V46.32h14.04V43.2H33.2v17.16zM100.28 46.32h14.05v14.04h3.12V43.2h-17.17v3.12zM36.32 97.8H33.2v17.17h17.16v-3.12H36.32V97.8zM114.33 111.85h-14.05v3.12h17.17V97.8h-3.12v14.05z"/></g></g></svg>