<svg id="Layer_1" xmlns="http://www.w3.org/2000/svg" viewBox="0 0 447.8 489.9"><style>.st0{fill:#0076a5}</style><title>Asset 1</title><g id="Layer_2"><g id="Layer_1-2"><g id="Layer_2-2"><g id="Capa_1"><path class="st0" d="M91.2 97.3c72.3-65.4 180.5-66.4 253.8-6.7l-58.1 2.2c-7.5.1-13.4 6.3-13.3 13.8s6.3 13.4 13.8 13.3h.5l89.2-3.3c7.3-.3 13-6.2 13-13.5v-1.6l-3.3-88.2C386.4 5.7 380 0 372.6.4c-7.2.4-12.8 6.3-12.8 13.5v.3l2.1 55.3C266.7-7.8 126.9 6.8 49.6 102 5.9 155.8-10.1 227 6.3 294.4c1.5 6.1 6.9 10.3 13.1 10.3 1.1 0 2.2-.1 3.2-.4 7.2-1.8 11.6-9.1 9.9-16.3-16.9-69.6 5.6-142.7 58.7-190.7zm350.3 98.4c-1.5-7.3-8.7-12-15.9-10.5-7.3 1.5-12 8.7-10.5 15.9v.2c.1.2.1.5.2.7 25.4 104.7-39 210.1-143.7 235.5-59.8 14.5-123-.1-170.4-39.4l58.8-5.3c7.4-.8 12.8-7.5 11.9-14.9-.8-7.2-7.2-12.5-14.4-12l-88.9 8c-7.4.7-12.9 7.2-12.2 14.7l8 88.9c.6 6.9 6.4 12.3 13.4 12.3.4 0 .8 0 1.2-.1 7.4-.7 12.9-7.2 12.2-14.7l-4.8-54c36.5 29.5 81.4 46.7 128.3 48.9 3.8.2 7.6.3 11.3.3 122.7-.2 221.9-99.7 221.8-222.4-.1-17.5-2.2-35-6.3-52.1z"/><path class="st0" d="M109.2 178.2h-9.5c-18.3 0-33.3 16.9-33.3 37.4s15 37.4 33.3 37.4h9.5c7.9 0 14.2 7.3 14.2 16s-6.5 16-14.2 16h-9.5c-7.9 0-14.2-7.3-14.2-16v-5.2H66.4v5.2c0 20.5 15 37.4 33.3 37.4h9.5c18.3 0 33.3-16.9 33.3-37.4s-15-37.4-33.3-37.4h-9.5c-7.9 0-14.2-7.3-14.2-16 0-8.9 6.5-16 14.2-16h9.5c7.9 0 14.2 7.3 14.2 16v5.2h19.1v-5.2c0-20.5-14.8-37.4-33.3-37.4zm81 0c-20.9 0-38.2 19.1-38.2 42.9v85.5h19.1v-42.9h38.2v42.9h19.1v-85.5c-.2-23.7-17.3-42.9-38.2-42.9zm-19.1 64.1v-21.4c0-11.9 8.5-21.4 19.1-21.4s19.1 9.6 19.1 21.4v21.4h-38.2zm95.3-64.1h-19.1v128.4h57.1v-21.4h-38v-107zM383.1 199.7v-21.4h-66.6v128.4h66.6v-21.4h-47.5V253h47.5v-21.4h-47.5v-31.9h47.5z"/></g></g></g></g></svg>