<svg xmlns="http://www.w3.org/2000/svg" viewBox="0 0 63 54.86"><defs><style>.cls-1{fill:#1f402f}.cls-2{fill:#009b55}</style></defs><title>Asset 4</title><g id="Layer_2" data-name="Layer 2"><g id="Layer_1-2" data-name="Layer 1"><path class="cls-1" d="M14.23 13.2a5.08 5.08 0 1 0-5.08 5.08 5.09 5.09 0 0 0 5.08-5.08zm-5.08 3a3 3 0 1 1 3-3 3.05 3.05 0 0 1-3 3.05zM16.26 33.53a1 1 0 0 1-2 0V23.36h-2v28.46a1 1 0 0 1-2 0V37.59h-2v14.23a1 1 0 0 1-2 0V23.36h-2v10.17a1 1 0 0 1-2 0v-9.6a3.61 3.61 0 0 1 3.61-3.61h7v-2h-7A5.64 5.64 0 0 0 0 23.92v9.6a3.05 3.05 0 0 0 3 3 3 3 0 0 0 1-.19v15.49a3 3 0 0 0 5.08 2.26 3 3 0 0 0 5.08-2.26V36.39a3 3 0 0 0 1 .19 3.05 3.05 0 0 0 3-3v-5.8h-2zM58.94 13.2a5.08 5.08 0 1 0-5.08 5.08 5.09 5.09 0 0 0 5.08-5.08zm-5.08 3a3 3 0 1 1 3-3 3.05 3.05 0 0 1-3.01 3.05zM60 36.57a3.05 3.05 0 0 0 3-3v-9.6a5.64 5.64 0 0 0-5.64-5.64h-7a5.64 5.64 0 0 0-5.64 5.64v2.87l-1-1-1.44 1.44 3.57 3.57L43 33.7 39.38 30l-1.44 1.44.67.67v1.39a1 1 0 0 1-2 0v-1h-2v19.32a1 1 0 0 1-2 0V37.59h-2v14.23a1 1 0 0 1-2 0V32.51h-2v1a1 1 0 0 1-2 0v-1h-2v1a3.05 3.05 0 0 0 3 3 3 3 0 0 0 1-.19v15.5a3 3 0 0 0 5.08 2.26 3 3 0 0 0 5.08-2.26V36.39a3 3 0 0 0 1 .19 3.05 3.05 0 0 0 3-2.47l.92.92-2.14 2.14 1.44 1.44 1.42-1.42 6.54 6.54v8.09a3 3 0 0 0 5.08 2.26 3 3 0 0 0 5.08-2.26V50.7a5.05 5.05 0 0 0 2.58-8.53l-2.58-2.58v-3.2a3 3 0 0 0 .89.18zm-8.18 16.26a1 1 0 0 1-1-1v-6.07l2 2v4a1 1 0 0 1-1 1.07zm4.06 0a1 1 0 0 1-1-1v-2.1a5 5 0 0 0 2 1v1.13a1 1 0 0 1-.99.97zM61 45.74a3 3 0 0 1-5.16 2.14L43.67 35.74l4.28-4.28L60.08 43.6a3 3 0 0 1 .92 2.14zM50.81 31.45v-8.09h-2v4.4l-1.55 1.55-.49-.49v-4.9a3.61 3.61 0 0 1 3.61-3.61h7A3.61 3.61 0 0 1 61 23.92v9.6a1 1 0 0 1-2 0V23.36h-2v14.19z"/><path class="cls-2" d="M41.52 5a17.17 17.17 0 1 0 0 24.29 17.2 17.2 0 0 0 0-24.29zm-4.29 20a11.11 11.11 0 1 1 0-15.71 11.11 11.11 0 0 1 0 15.71z"/><path class="cls-1" d="M37.95 25.75a12.14 12.14 0 1 0-8.58 3.55 12.14 12.14 0 0 0 8.58-3.55zM22.23 10a10.1 10.1 0 1 1 0 14.28 10.06 10.06 0 0 1 0-14.28z"/><path class="cls-1" d="M30.48 25.4v-1a4.06 4.06 0 0 0 0-8.13h-2a2 2 0 0 1 0-4.06h2a2 2 0 0 1 2 2v1h2v-1a4.07 4.07 0 0 0-4.06-4.06v-1h-2v1a4.06 4.06 0 0 0 0 8.13h2a2 2 0 0 1 0 4.06h-2a2 2 0 0 1-2-2v-1h-2v1a4.07 4.07 0 0 0 4.06 4.06v1z"/></g></g></svg>