<svg xmlns="http://www.w3.org/2000/svg" viewBox="0 0 47.33 46.57"><defs><style>.cls-1{fill:#1f402f}.cls-2{fill:#009b55}</style></defs><title>Asset 3</title><g id="Layer_2" data-name="Layer 2"><g id="Layer_1-2" data-name="Layer 1"><path class="cls-1" d="M44.28 9.92H39.7v1.53h4.58A1.53 1.53 0 0 1 45.81 13v22.9H1.53V13a1.53 1.53 0 0 1 1.53-1.53h4.57V9.92H3.05A3.06 3.06 0 0 0 0 13v26a3.06 3.06 0 0 0 3.05 3h10.69v3H9.16v1.53h29V45h-4.57v-3h10.69a3.06 3.06 0 0 0 3.05-3.05V13a3.06 3.06 0 0 0-3.05-3.05zM32.06 45H15.27v-3h16.8zm12.22-4.58H3.05a1.53 1.53 0 0 1-1.53-1.53v-1.48h44.29v1.53a1.53 1.53 0 0 1-1.53 1.53zm0 0"/><path class="cls-2" d="M23.67 0a18.32 18.32 0 0 0-12.12 32.06h24.23A18.32 18.32 0 0 0 23.67 0zm0 0"/><path class="cls-1" d="M22.9 2.29h1.53v2.29H22.9zM16.83 3.8l1.41-.58.88 2.12-1.41.58zm0 0M11.79 7.52l1.08-1.08 1.62 1.62-1.08 1.08zm0 0M8.56 12.89l.58-1.41 2.12.88-.58 1.41zm0 0M7.63 17.56h2.29v1.53H7.63zM8.56 23.75l2.12-.88.58 1.41-2.12.88zm0 0M11.79 29.12l1.62-1.62 1.08 1.08-1.62 1.62zm0 0M32.84 28.58l1.08-1.08 1.62 1.62-1.08 1.08zm0 0M36.07 24.29l.58-1.41 2.12.88-.58 1.41zm0 0M37.41 17.56h2.29v1.53h-2.29zM36.07 12.36l2.12-.88.58 1.41-2.12.88zm0 0M32.84 8.07l1.62-1.62 1.08 1.08-1.62 1.62zm0 0M28.22 5.33l.88-2.12 1.41.58-.88 2.12zm0 0M20.61 18.32a3.05 3.05 0 1 0 3.05-3.05 3 3 0 0 0-1.54.43l-6.31-6.32-1.08 1.08L21 16.78a3 3 0 0 0-.43 1.54zm4.58 0a1.53 1.53 0 1 1-1.53-1.53 1.53 1.53 0 0 1 1.53 1.53zm0 0"/></g></g></svg>