<svg xmlns="http://www.w3.org/2000/svg" viewBox="0 0 37.77 37.77"><defs><style>.cls-1{fill:#009b55}.cls-2{fill:#1f402f}</style></defs><title>Asset 10</title><g id="Layer_2" data-name="Layer 2"><g id="Layer_1-2" data-name="Layer 1"><path class="cls-1" d="M24.69 15.54l7.88-4.63a15.91 15.91 0 0 0-5.71-5.71l-4.63 7.88a6.73 6.73 0 0 1 2.46 2.46zM15.54 13.08L10.91 5.2a15.91 15.91 0 0 0-5.71 5.71l7.88 4.63a6.73 6.73 0 0 1 2.46-2.46zM13.08 22.23L5.2 26.86a15.91 15.91 0 0 0 5.71 5.71l4.63-7.88a6.73 6.73 0 0 1-2.46-2.46zM22.23 24.69l4.63 7.88a15.91 15.91 0 0 0 5.71-5.71l-7.88-4.63a6.73 6.73 0 0 1-2.46 2.46z"/><path class="cls-2" d="M37.77 18.89a2.43 2.43 0 0 0-1.22-2.1V8.65a7.44 7.44 0 0 0-7.43-7.43H21a2.42 2.42 0 0 0-4.2 0H8.65a7.44 7.44 0 0 0-7.43 7.43v8.14a2.42 2.42 0 0 0 0 4.2v8.14a7.44 7.44 0 0 0 7.43 7.43h8.14a2.42 2.42 0 0 0 4.2 0h8.14a7.44 7.44 0 0 0 7.43-7.43V21a2.43 2.43 0 0 0 1.21-2.11zM29.12 2.44a6.22 6.22 0 0 1 6.21 6.21v7.8h-.18A16.48 16.48 0 0 0 21.32 2.62v-.18zM18.89 34.11a15.23 15.23 0 1 1 15.22-15.22 15.25 15.25 0 0 1-15.22 15.22zm0-32.9a1.22 1.22 0 0 1 1.21 1.23h-2.43a1.22 1.22 0 0 1 1.22-1.22zM2.44 8.65a6.22 6.22 0 0 1 6.21-6.21h7.8v.18A16.48 16.48 0 0 0 2.62 16.45h-.18zm0 9v2.45a1.22 1.22 0 0 1 0-2.44zm6.21 17.68a6.22 6.22 0 0 1-6.21-6.21v-7.8h.18a16.48 16.48 0 0 0 13.83 13.83v.18zm10.23 1.22a1.22 1.22 0 0 1-1.22-1.22h2.44a1.22 1.22 0 0 1-1.21 1.22zm16.45-7.43a6.22 6.22 0 0 1-6.21 6.21h-7.8v-.18a16.48 16.48 0 0 0 13.83-13.83h.18zm0-9v-2.45a1.22 1.22 0 0 1 0 2.44z"/><path class="cls-2" d="M18.89 11.57a7.31 7.31 0 1 0 7.31 7.31 7.32 7.32 0 0 0-7.31-7.31zm0 13.4A6.09 6.09 0 1 1 25 18.89 6.1 6.1 0 0 1 18.89 25z"/></g></g></svg>