<svg id="Layer_1" xmlns="http://www.w3.org/2000/svg" viewBox="0 0 496 496"><style>.st0{fill:#009b55}.st1{fill:#1f402f}</style><path class="st0" d="M445.3 416H50.7V276h394.6v140z"/><path class="st1" d="M0 448h496V48H84.7L0 132.7V448zM80 75.3V128H27.3L80 75.3zM16 432V144h80V64h384v368H16z"/><path class="st1" d="M445.3 291.6h-41.5V276h41.5v15.6zM383.1 291.6H51.4V276h331.7v15.6zM445.3 322.7H51.4v-15.6h393.9v15.6zM445.3 353.8h-82.9v-15.6h82.9v15.6zM341.6 353.8H51.4v-15.6h290.3v15.6zM175.8 384.9H51.4v-15.6h124.4v15.6zM445.3 384.9H196.5v-15.6h248.8v15.6zM445.3 416H92.8v-15.6h352.5V416zM72.1 416H51.4v-15.6h20.7V416z"/><circle class="st0" cx="257.8" cy="160.2" r="87.8"/><path class="st1" d="M223.7 175.7h-12v13.2h7.9l-7.6 24.4 12.6 3.9 8.8-28.3h48.8l8.9 28.3 12.6-3.9-7.6-24.4h7.9v-13.2h-12l-22.7-72.5h-22.9l-22.7 72.5zm13.8 0l18.5-59.3h3.5l18.5 59.3h-40.5z"/></svg>