<svg xmlns="http://www.w3.org/2000/svg" viewBox="0 0 283.5 283.5"><g fill="#AEACAC"><path d="M141.7 283.5c78.1 0 141.7-63.6 141.7-141.7S219.9 0 141.7 0C63.6 0 0 63.6 0 141.7c0 78.2 63.6 141.8 141.7 141.8zm0-272.6c72.1 0 130.8 58.7 130.8 130.8s-58.7 130.8-130.8 130.8S10.9 213.9 10.9 141.7 69.6 10.9 141.7 10.9z"/><path d="M141.7 228.9c3 0 5.5-2.4 5.5-5.5V103.6c0-3-2.4-5.5-5.5-5.5s-5.5 2.4-5.5 5.5v119.9c.1 3 2.5 5.4 5.5 5.4zM141.7 81.8c3 0 5.5-2.4 5.5-5.5V65.4c0-3-2.4-5.5-5.5-5.5s-5.5 2.4-5.5 5.5v10.9c.1 3 2.5 5.5 5.5 5.5z"/></g></svg>