<svg xmlns="http://www.w3.org/2000/svg" viewBox="0 0 90.73 90.73"><defs><style>.cls-1{fill:#e6e6e6}.cls-2{fill:#1f402f}.cls-3{fill:#009b55}.cls-4{fill:#fff}</style></defs><title>mablagh_factor</title><g id="Layer_2" data-name="Layer 2"><g id="Layer_1-2" data-name="Layer 1"><circle class="cls-1" cx="45.37" cy="45.37" r="45.37"/><circle class="cls-2" cx="25.85" cy="63.11" r=".89"/><path class="cls-2" d="M69.09 31.5l2.72.54.34-1.74-5.15-1-2 5.12 1.64.66 1-2.56A25.71 25.71 0 0 1 29.2 65.37l-1.12 1.38a27.48 27.48 0 0 0 41-35.25zM61.53 25.36L62.65 24a27.5 27.5 0 0 0-44.78 21.37 27.27 27.27 0 0 0 3.77 13.86l-2.71-.54-.35 1.74 5.16 1 2.05-5.12-1.65-.66-1 2.57a25.72 25.72 0 0 1 38.39-32.86z"/><circle class="cls-2" cx="64.88" cy="27.63" r=".89"/><path class="cls-2" d="M29.4 53.35h.89v1.78h-1.78v5.32h23.07v-1.78h-7.1V56.9h1.77v-1.77h-3.54v-1.78h1.77v-1.77h-2.66V49.8h1.77v-3.55h.89v-3.54h1.77v-1.78h-.88v-1.77h1.77V40h1.78v-.88h3.54v-1.74h-1.77v-1.77h.89v-5.32H28.51v3.55h-.88v5.32h1.77v1.77h-.89v3.55h-.88v5.32h1.77zm6.21 3.55v1.77h-1.77V56.9zm1.77 0h1.78v1.77h-1.78zm-1.77-1.77v-1.78h1.77v1.78zm-.89-3.55V49.8h1.78v1.78zM36.5 48v-1.75h1.77V48zm.88-3.55v-1.74h1.78v1.77zm.89-3.55v-1.74H40v1.77zm0-5.32v1.77H36.5v-1.74zm3.55 0v1.77H40v-1.74zm1.77 0h1.78v1.77h-1.78zm.89-1.77v-1.75h1.77v1.78zm-1.77 0h-1.78v-1.75h1.78zm-3.55 0h-1.78v-1.75h1.78zm-3.55 0h-1.77v-1.75h1.77zm-.89 1.77v1.77H33v-1.74zm1.78 3.55v1.77h-1.78v-1.74zm-.89 3.55v1.77h-1.77v-1.74zm-.89 3.54V48H33v-1.75zM33 49.8v1.78h-1.83V49.8zm-.89 3.55h1.78v1.78h-1.83zm-1.82 3.55h1.77v1.77h-1.77zm12.42 1.77h-1.78V56.9h1.78zm-1.78-3.54h-1.77v-1.78h1.77zM40 51.58h-1.73V49.8H40zM41.82 48H40v-1.75h1.78zm.89-3.55h-1.78v-1.74h1.78zm.88-3.55h-1.77v-1.74h1.77zm5.33-3.55h-1.78v-1.74h1.78zm.88-3.54H48v-1.75h1.8zm-19.51-1.75h1.77v1.78h-1.77zm-.89 3.55h1.77v1.77H29.4zm1.77 3.55H33v1.77h-1.83zm-.88 3.55h1.77v1.77h-1.77zm-.89 3.54h1.77V48H29.4z"/><path class="cls-3" d="M54.24 60.45a11.54 11.54 0 1 1 11.53-11.53 11.55 11.55 0 0 1-11.53 11.53z"/><path class="cls-4" d="M60.45 46.25v-.44a4 4 0 0 0-4-4h-1.32V40h-1.78v1.78H52a4 4 0 0 0 0 8h4.44a2.22 2.22 0 0 1 0 4.44H52A2.23 2.23 0 0 1 49.8 52v-.44H48V52a4 4 0 0 0 4 4h1.33v1.78h1.78V56h1.33a4 4 0 0 0 0-8H52a2.22 2.22 0 0 1 0-4.44h4.44a2.22 2.22 0 0 1 2.21 2.22v.44z"/></g></g></svg>