<svg id="Layer_1" xmlns="http://www.w3.org/2000/svg" viewBox="0 0 166.9 34.8"><style>.st0{fill:#009b55}.st1{fill:#1f402f}.st2{fill:none;stroke:#1f402f;stroke-linecap:round;stroke-miterlimit:10}</style><title>Asset 1</title><g id="Layer_2"><g id="Layer_1-2"><g id="_Group_"><g id="_Group_2"><path id="_Path_" class="st0" d="M15.6 14.4c-.9 3.6 1.2 7.2 4.8 8.1.6.1 1.1.2 1.7.2h.1c3 0 5.7-2.1 6.4-5l3.2-12.1c.5-1.8 2.1-3 3.9-3H41l-2.4 9.1c-.2.7.2 1.4.9 1.6.7.2 1.4-.2 1.6-.9L44.5 0h-8.7c-3 0-5.7 2.1-6.5 5l-3.2 12.1c-.5 1.8-2.1 3-3.9 3h-.1c-2.2 0-4-1.8-4.1-4 0-.3 0-.7.1-1 .2-.7-.2-1.4-.9-1.6-.7-.1-1.4.3-1.6.9z"/><path id="_Path_2" class="st0" d="M5.1 12.1l-2.4 9c-.9 3.6 1.2 7.2 4.7 8.1.6.1 1.1.2 1.7.2h22.5c3 0 5.7-2.1 6.4-5l5.2-19.9c.2-.7-.2-1.4-.9-1.6-.7-.2-1.4.2-1.6.9l-5.2 20c-.5 1.8-2.1 3-3.9 3H9.2c-2.2 0-4-1.8-4.1-4 0-.3.1-.7.1-1l2.4-9c.2-.7-.2-1.4-.9-1.6s-1.4.2-1.6.9z"/></g><circle id="_Path_3" class="st1" cx="13.3" cy="6.6" r="6.6"/></g><g id="_Group_3"><path id="_Compound_Path_" class="st1" d="M69.3 12c0 .9 0 2.3-.1 4.1-.1 1.8-.1 3.2-.1 4.1 0 .9 0 2.2.1 4s.1 3.1.1 4c0 .3-.2.6-.5.6-1 .2-2 .2-3 .2-.9 0-1.9 0-2.8-.1-.2 0-.4-.2-.5-.5l-.1-1.1c-.1-.6-.1-.9-.3-.9.2 0-.5.4-1.9 1.3-1.2.8-2.5 1.2-3.9 1.3-3.3 0-5.2-1.5-5.8-4.4-.3-2-.5-4-.4-6-.1-2.2.2-4.5.7-6.6.1-.5.4-.8.8-.8h5.2c.4 0 .6.2.6.5v.4c-.3 1.7-.4 3.4-.4 5.2 0 1.5 0 3 .2 4.4.1 1.2 1.2 2.1 2.4 2 .6 0 1.2-.3 1.7-.7.5-.3.9-.9 1-1.5v-9.3c0-.2 0-.5.1-.7.1-.1.3-.2.7-.2h5.4c.4 0 .6.1.7.3.1.1.1.2.1.4z"/><path id="_Compound_Path_2" class="st1" d="M92.9 20c.1 2.4-.8 4.8-2.3 6.6-1.6 1.8-3.9 2.8-6.3 2.7-1.1 0-2.1-.3-3.1-.7-.5-.2-1-.4-1.5-.7-.2 0-.2.2-.2.6 0 .6 0 1.6.1 2.9.1 1.3.1 2.2.1 2.8 0 .3-.2.6-.4.6h-4c-.6 0-1.1 0-1.7-.1-.3 0-.6-.3-.6-.7V19.7c0-2.5-.2-4.9-.7-7.3v-.3c0-.2.1-.3.2-.4.9-.3 1.8-.5 2.8-.6 1-.2 1.9-.3 2.9-.3.5 0 .8.3.8 1 .1.7.1 1 .3 1-.1 0 .4-.3 1.6-1 1-.6 2.1-1 3.2-1 2.4-.1 4.8.9 6.4 2.7 1.7 1.7 2.5 4.1 2.4 6.5zM86 20c0-.9-.3-1.9-.9-2.6-.6-.7-1.5-1.2-2.4-1.2-.9 0-1.8.4-2.4 1.2-.5.8-.8 1.7-.8 2.6 0 .9.3 1.9.8 2.6.6.8 1.5 1.2 2.4 1.1 2.2 0 3.3-1.3 3.3-3.7z"/><path id="_Compound_Path_3" class="st0" d="M115.8 20c.1 2.4-.8 4.8-2.3 6.6-1.6 1.8-3.9 2.8-6.3 2.7-1.1 0-2.1-.3-3.1-.7-.5-.2-1-.4-1.5-.7-.2 0-.2.2-.2.6 0 .6 0 1.6.1 2.9.1 1.3.1 2.2.1 2.8 0 .3-.2.6-.4.6h-4c-.6 0-1.1 0-1.7-.1-.3 0-.6-.3-.6-.7V19.6c0-2.5-.2-4.9-.7-7.3V12c0-.2.1-.3.2-.4.9-.3 1.8-.5 2.8-.6 1-.2 1.9-.3 2.9-.3.5 0 .8.3.8 1 .1.7.2 1 .3 1-.1 0 .4-.3 1.6-1 1-.6 2.1-1 3.2-1 2.4-.1 4.8.9 6.4 2.7 1.7 1.8 2.5 4.2 2.4 6.6zm-6.9 0c0-.9-.3-1.9-.9-2.6-.6-.7-1.5-1.2-2.4-1.2-.9 0-1.8.4-2.4 1.2-.5.8-.8 1.7-.8 2.6 0 .9.3 1.9.8 2.6.6.8 1.5 1.2 2.4 1.1 2.2 0 3.3-1.3 3.3-3.7z"/><path id="_Compound_Path_4" class="st0" d="M136.1 19.8c.1 2.5-.8 5-2.6 6.9-3.8 3.5-9.7 3.5-13.6 0-1.8-1.8-2.7-4.2-2.6-6.7-.1-2.6.8-5.1 2.5-7 1.8-1.8 4.3-2.8 6.8-2.7 2.5-.1 5 .8 6.8 2.6 1.9 1.9 2.9 4.3 2.7 6.9zm-6.1 0c0-.9-.3-1.9-.9-2.6-.6-.7-1.4-1.1-2.4-1.1-.9 0-1.8.4-2.4 1.1-1.2 1.5-1.2 3.6 0 5.1 1.1 1.3 3 1.5 4.3.5.2-.1.3-.3.5-.5.6-.7.9-1.6.9-2.5z"/><path id="_Compound_Path_5" class="st0" d="M150.7 17.3c0 .5-.3.7-.8.7h-2c-.7-.1-1.5.1-2.1.5-.5.6-.7 1.3-.6 2v4.8c0 .4 0 .9.1 1.6 0 .7.1 1.2.1 1.6 0 .3-.2.5-.6.5-.6 0-1.5.1-2.7.1-.9 0-1.9 0-2.8-.1-.4 0-.6-.3-.6-.6v-4.5-4.5c.1-2.4-.2-4.8-.8-7.2v-.3c0-.2.1-.3.3-.4.7-.1 1.7-.2 3-.4l3-.6c.2 0 .4.4.4 1.2.1.8.2 1.2.3 1.2-.2 0 .3-.3 1.5-1 1-.6 2.2-1 3.4-1 .7 0 1 .2 1 .4 0 .5 0 1-.1 1.5-.1.7-.1 1.2-.1 1.5v1.4c.1 1 .1 1.4.1 1.6z"/><path id="_Compound_Path_6" class="st0" d="M166.9 23.5c0 .6-.1 1.1-.1 1.7-.1.6-.1 1.1-.1 1.7 0 .2 0 .5-.1.7-.2.2-.4.3-.6.4-1.6.9-3.5 1.3-5.3 1.3-3.6 0-5.4-1.4-5.4-4.1 0-.8 0-2 .1-3.7s.1-2.9.1-3.7c0-.5-.3-.8-.9-.8h-.4c-.5 0-.7-.2-.7-.5v-.9-.9-1.2-1.2c0-.2.4-.4 1.2-.4.4 0 .7-.1.7-.4.1-.7.1-1.5.1-2.2 0-1.6-.1-2.4-.1-2.3 0-1.4.1-2.2.4-2.2.5 0 1 .1 1.5.2l1.5.3 2.9.3c.3 0 .5.1.5.3 0 .5 0 1.2-.1 2.3s-.1 1.8-.1 2.3c0 .6.2.9.5.9.4 0 1 0 2-.1.9 0 1.5-.1 2-.1.3 0 .4.1.4.3s0 .6-.1 1.3c-.1.6-.1 1-.1 1.3v2.6c0 .3-.2.4-.5.4h-4c-.2 0-.3.3-.3.8v2.6c0 .7.1 1.5.4 2.2.5.6 1.2.9 2 .8.4 0 .9-.1 1.3-.2s.8-.2 1.2-.2c0 0 .1.1.1.4z"/></g><path class="st2" d="M38.5 4.6h-2.8c-.9 0-1.8.6-2 1.5l-3.1 12.1c-1 3.8-4.4 6.5-8.4 6.5h-.1c-4.8 0-8.7-3.9-8.7-8.7"/><path class="st2" d="M45.2 5.1L40 25c-1 3.8-4.4 6.5-8.4 6.5H9.2c-4.8 0-8.6-3.9-8.7-8.6 0-.7.1-1.5.3-2.2l2.4-9"/></g></g></svg>