<svg xmlns="http://www.w3.org/2000/svg" viewBox="0 0 290.626 290.626" width="512" height="512"><path d="M257.813 243.75a4.69 4.69 0 0 1-4.688 4.688H14.063a4.69 4.69 0 0 1-4.688-4.688V107.813h248.438v60.937h9.375V75c0-7.753-6.309-14.063-14.063-14.063h-18.75V46.875c0-7.753-6.309-14.063-14.063-14.063-7.753 0-14.063 6.309-14.063 14.063v14.063H60.938V46.875c0-7.753-6.309-14.063-14.063-14.063s-14.063 6.309-14.063 14.063v14.063h-18.75C6.309 60.938 0 67.247 0 75v168.75c0 7.753 6.309 14.063 14.063 14.063h239.063c7.753 0 14.063-6.309 14.063-14.063v-9.375h-9.375v9.375h-.001zM215.625 46.875c0-2.583 2.1-4.688 4.688-4.688S225 44.292 225 46.875v18.75c0 2.583-2.1 4.688-4.688 4.688s-4.688-2.105-4.688-4.688v-18.75h.001zm-173.437 0c0-2.583 2.1-4.688 4.688-4.688s4.688 2.105 4.688 4.688v18.75c0 2.583-2.1 4.688-4.688 4.688s-4.688-2.105-4.688-4.688v-18.75zM14.063 70.313h19.613c1.941 5.442 7.097 9.375 13.2 9.375s11.259-3.933 13.2-9.375h147.042c1.941 5.442 7.097 9.375 13.2 9.375s11.259-3.933 13.2-9.375h19.608a4.693 4.693 0 0 1 4.688 4.688V98.44H9.375V75c0-2.583 2.1-4.687 4.688-4.687z" data-original="#333333" class="active-path" data-old_color="#333333" fill="#1f402f"/><path d="M250.782 239.063c-21.97 0-39.844-17.873-39.844-39.844s17.873-39.844 39.844-39.844 39.844 17.873 39.844 39.844-17.874 39.844-39.844 39.844z" data-original="#F9BA48" data-old_color="#009c55" fill="#009c55"/><path data-original="#333333" class="active-path" data-old_color="#333333" fill="#1f402f" d="M232.289 197.663l-5.203 7.8 17.602 11.733 44.878-54.854-7.256-5.934-39.497 48.272zM56.25 121.875H23.438V150H56.25v-28.125zm-9.375 18.75H32.813v-9.375h14.063l-.001 9.375zM103.125 121.875H70.313V150h32.813v-28.125h-.001zm-9.375 18.75H79.688v-9.375H93.75v9.375zM150 121.875h-32.813V150H150v-28.125zm-9.375 18.75h-14.063v-9.375h14.063v9.375zM196.875 121.875h-32.813V150h32.813v-28.125zm-9.375 18.75h-14.063v-9.375H187.5v9.375zM243.75 121.875h-32.813V150h32.813v-28.125zm-9.375 18.75h-14.063v-9.375h14.063v9.375zM56.25 164.063H23.438v28.125H56.25v-28.125zm-9.375 18.75H32.813v-9.375h14.063l-.001 9.375zM103.125 164.063H70.313v28.125h32.813v-28.125h-.001zm-9.375 18.75H79.688v-9.375H93.75v9.375zM150 164.063h-32.813v28.125H150v-28.125zm-9.375 18.75h-14.063v-9.375h14.063v9.375zM196.875 164.063h-32.813v28.125h32.813v-28.125zm-9.375 18.75h-14.063v-9.375H187.5v9.375zM23.438 234.375H56.25V206.25H23.438v28.125zm9.375-18.75h14.063V225H32.813v-9.375zM70.313 234.375h32.813V206.25H70.313v28.125zm9.375-18.75H93.75V225H79.688v-9.375zM117.188 234.375H150V206.25h-32.813v28.125h.001zm9.375-18.75h14.063V225h-14.063v-9.375zM164.063 234.375h32.813V206.25h-32.813v28.125zm9.375-18.75H187.5V225h-14.063v-9.375h.001z"/></svg>