<svg xmlns="http://www.w3.org/2000/svg" viewBox="0 0 290.626 290.626" width="512" height="512"><path d="M248.438 60.989v-.028l-6.291-.652C240.098 35.723 234.731 0 220.195 0c-1.5 0-2.845.427-4.172 1.158l-35.255 11.761a113.19 113.19 0 0 1-35.911 5.831h-46.42c-41.353 0-75 33.647-75 75 0 33.67 22.308 62.222 52.922 71.672L49.866 187.5H4.688v9.375H53.26l27.52-22.936 28.992 8.283 9.862 12.328a7.605 7.605 0 0 1 1.622 5.747 7.59 7.59 0 0 1-3 5.156c-3.028 2.269-7.331 1.959-10.008-.708l-9.464-9.459-26.714 21.37 5.859 7.322 11.133-8.906v38.053H57.356l-9.375-4.688H4.688v9.375h41.081l9.375 4.688h33.919v4.688c0 12.923 10.514 23.438 23.438 23.438s23.438-10.514 23.438-23.438V262.5c7.753 0 14.063-6.309 14.063-14.063 0-3.614-1.411-6.881-3.656-9.375 2.25-2.494 3.656-5.761 3.656-9.375s-1.411-6.881-3.656-9.375c2.25-2.494 3.656-5.761 3.656-9.375s-1.411-6.881-3.656-9.375c2.25-2.494 3.656-5.761 3.656-9.375 0-7.753-6.309-14.063-14.063-14.063v-9.375h8.916c12.239 0 24.333 1.959 35.944 5.831l35.283 11.761c1.327.731 2.733 1.158 4.233 1.158 14.536 0 19.786-35.723 21.834-60.309l6.291-.652v-.028c9.375-.53 13.598-16.702 13.598-32.761s-4.225-32.23-13.6-32.76zm-41.26 60.3c-.581-8.358-.928-17.541-.928-27.539s.347-19.181.928-27.539l31.364 3.136c-2.831 6.309-4.167 15.37-4.167 24.403s1.336 18.094 4.167 24.403l-31.364 3.136zm25.711-61.931l-24.919-2.494c2.667-27.117 7.861-43.505 11.339-46.903l1.2-.398c2.982 1.903 9.385 16.125 12.38 49.795zM123.881 212.953c2.358-1.767 4.097-4.092 5.255-6.703h6.802c2.587 0 4.688 2.105 4.688 4.688s-2.1 4.688-4.688 4.688h-17.414a16.974 16.974 0 0 0 5.357-2.673zm16.744 16.735c0 2.583-2.1 4.688-4.688 4.688h-18.75c-2.588 0-4.688-2.105-4.688-4.688s2.1-4.688 4.688-4.688h18.75a4.693 4.693 0 0 1 4.688 4.688zm-14.062 37.5c0 7.753-6.309 14.063-14.063 14.063s-14.063-6.309-14.063-14.063v-58.997l3.183 3.178c.525.53 1.111.961 1.692 1.406a13.927 13.927 0 0 0 3.473 7.538c-2.25 2.494-3.656 5.761-3.656 9.375s1.411 6.881 3.656 9.375c-2.25 2.494-3.656 5.761-3.656 9.375 0 7.753 6.309 14.063 14.063 14.063h9.375v4.687h-.004zm9.375-14.063h-18.75c-2.588 0-4.688-2.105-4.688-4.688s2.1-4.688 4.688-4.688h18.75c2.587 0 4.688 2.105 4.688 4.688s-2.101 4.688-4.688 4.688zm4.687-60.937c0 2.583-2.1 4.688-4.688 4.688h-5.498c-.427-2.958-1.561-5.78-3.483-8.184l-.952-1.191h9.933a4.691 4.691 0 0 1 4.688 4.687zm-14.062-14.063h-8.058l-3.277-4.097-18.834-5.381c.684.019 1.355.103 2.044.103h28.125v9.375zm18.29-18.75H98.438c-36.187 0-65.625-29.438-65.625-65.625S62.25 28.125 98.438 28.125h46.42c13.247 0 26.334-2.123 38.906-6.314l23.175-7.725c-7.673 19.612-10.064 55.458-10.064 79.664s2.391 60.052 10.064 79.664l-23.175-7.725a122.793 122.793 0 0 0-38.911-6.314zm75.835 18.623l-.881-.295c-3.666-2.859-9.089-19.322-11.831-47.072l24.914-2.494c-3.029 34.055-9.526 48.216-12.202 49.861zm27.75-61.237c-1.734-2.203-4.688-10.059-4.688-23.011s2.953-20.808 4.688-23.011c1.734 2.203 4.688 10.059 4.688 23.011s-2.954 20.808-4.688 23.011zM271.875 89.063h14.063v9.375h-14.063zM265.697 37.734l14.06-4.69 2.967 8.893-14.06 4.69zM265.7 149.75l2.964-8.893 14.062 4.687-2.964 8.894z" data-original="#333333" fill="#333"/><path data-original="#F9BA48" class="active-path" data-old_color="#009b55" fill="#009b55" d="M126.563 18.75h18.75v150h-18.75z"/></svg>