<svg xmlns="http://www.w3.org/2000/svg" viewBox="0 0 496 496"><defs><style>.cls-1{fill:#1f402f}.cls-2{fill:#009c55}</style></defs><title>Asset 1</title><g id="Layer_2" data-name="Layer 2"><g id="Layer_1-2" data-name="Layer 1"><path class="cls-1" d="M480 136v248H16V168a24 24 0 0 1 24-24h208v-16H40a40 40 0 0 0-40 40v240a40 40 0 0 0 40 40h104v32h-32v16h272v-16h-32v-32h104a40 40 0 0 0 40-40V136zM336 480H160v-32h176zm120-48H40a24 24 0 0 1-24-24v-8h464v8a24 24 0 0 1-24 24z"/><path class="cls-2" d="M96 184h152v160H96zM476.33 99.67a110.44 110.44 0 0 0-11.73-28.2l9.3-18.58-30.78-30.79-18.58 9.3a110.72 110.72 0 0 0-28.2-11.73L389.77 0h-43.53l-6.56 19.67a110.44 110.44 0 0 0-28.2 11.73l-18.6-9.3-30.78 30.78 9.3 18.58a110.72 110.72 0 0 0-11.73 28.2L240 106.23v43.53l19.67 6.56a110.44 110.44 0 0 0 11.73 28.2l-9.3 18.58 30.78 30.78 18.58-9.3a110.72 110.72 0 0 0 28.2 11.73l6.57 19.69h43.53l6.56-19.67a110.44 110.44 0 0 0 28.2-11.73l18.58 9.3 30.78-30.78-9.3-18.58a110.72 110.72 0 0 0 11.73-28.2l19.69-6.57v-43.53zM368 152a24 24 0 1 1 24-24 24 24 0 0 1-24 24z"/><path class="cls-1" d="M368 208a80 80 0 1 1 80-80 80.09 80.09 0 0 1-80 80zm0-144a64 64 0 1 0 64 64 64.07 64.07 0 0 0-64-64z"/><path class="cls-1" d="M368 160a32 32 0 1 1 32-32 32 32 0 0 1-32 32zm0-48a16 16 0 1 0 16 16 16 16 0 0 0-16-16zM80 280h-8a24 24 0 0 1-24-24v-8a16 16 0 0 0-16-16v-16a16 16 0 0 0 16-16v-8a24 24 0 0 1 24-24h8v16h-8a8 8 0 0 0-8 8v8a31.92 31.92 0 0 1-10.86 24A31.92 31.92 0 0 1 64 248v8a8 8 0 0 0 8 8h8zM272 352h-8v-16h8a8 8 0 0 0 8-8v-8a31.92 31.92 0 0 1 10.86-24A31.92 31.92 0 0 1 280 272v-8a8 8 0 0 0-8-8h-8v-16h8a24 24 0 0 1 24 24v8a16 16 0 0 0 16 16v16a16 16 0 0 0-16 16v8a24 24 0 0 1-24 24zM96 176h152v16H96zM128 208h120v16H128zM96 208h16v16H96zM96 240h152v16H96zM96 272h152v16H96zM232 304h16v16h-16zM96 304h120v16H96zM96 336h152v16H96z"/></g></g></svg>