<svg xmlns="http://www.w3.org/2000/svg" height="512" viewBox="-15 0 494 494.944" width="512"><path d="M232.473 494.945c-127.922 0-232-104.082-232-232 0-125.25 99.765-227.632 224-231.867V0l94.422 62.945-94.422 62.942V95.129c-88.938 4.191-160 77.863-160 167.816 0 92.63 75.367 168 168 168 92.632 0 168-75.37 168-168v-8h64v8c0 127.918-104.082 232-232 232zm0 0" fill="#009b55" data-original="#F0BC5E" data-old_color="#F0BC5E"/><path d="M296.473 142.945h-128c-8.825 0-16 7.176-16 16v16c0 8.825 7.175 16 16 16v18.352c0 24.605 14.398 47.32 36.687 57.855 2.04.97 3.313 2.871 3.313 4.961 0 2.102-1.274 4-3.313 4.965-22.289 10.54-36.687 33.25-36.687 57.867v16c-8.825 0-16 7.176-16 16v16c0 8.825 7.175 16 16 16h128c8.824 0 16-7.175 16-16v-16c0-8.824-7.176-16-16-16v-16c0-24.617-14.403-47.328-36.688-57.855-2.043-.977-3.312-2.875-3.312-4.977 0-2.097 1.27-3.992 3.32-4.96 22.277-10.536 36.68-33.25 36.68-57.856v-18.352c8.824 0 16-7.175 16-16v-16c0-8.824-7.176-16-16-16zm.015 240H168.473v-16h128zm-16.015-173.648c0 18.457-10.809 35.488-27.512 43.39-7.594 3.579-12.488 11.2-12.488 19.426 0 8.223 4.894 15.856 12.488 19.438 16.703 7.898 27.512 24.93 27.512 43.394v16h-96v-16c0-18.465 10.808-35.496 27.511-43.394 7.59-3.574 12.489-11.207 12.489-19.438 0-8.234-4.899-15.847-12.48-19.433-16.72-7.903-27.52-24.938-27.52-43.39v-18.345h96zm-112-34.352v-16h128l.015 16zm0 0M392.66 211.738l15.453-4.14 4.14 15.453-15.452 4.14zm0 0M373.977 172.027l13.855-8 8 13.86-13.86 7.996zm0 0M345.61 138.488l11.312-11.312 11.312 11.312-11.312 11.313zm0 0M309.54 113.438l7.995-13.856 13.86 7.996-8 13.86zm0 0M442.754 212.953l15.683-3.117 3.118 15.684-15.684 3.117zm0 0M428.957 172.914l14.79-6.125 6.12 14.781-14.789 6.125zm0 0M407.605 136.29l13.301-8.892 8.887 13.297-13.305 8.89zm0 0M379.547 104.555l11.312-11.317 11.313 11.317-11.313 11.312zm0 0M345.816 78.898l8.895-13.3 13.293 8.89-8.89 13.301zm0 0" data-original="#000000" class="active-path" data-old_color="#000000" fill="#1f402f"/></svg>