<svg xmlns="http://www.w3.org/2000/svg" viewBox="0 0 90.73 90.73"><defs><style>.cls-1{fill:#e6e6e6}.cls-2{fill:#1f402f}.cls-3{fill:#009b55}</style></defs><title>quote-circle</title><g id="Layer_2" data-name="Layer 2"><g id="Layer_1-2" data-name="Layer 1"><circle class="cls-1" cx="45.37" cy="45.37" r="45.37"/><path class="cls-2" d="M65.8 24.69a2.47 2.47 0 0 1 2.46 2.46h1.48a4 4 0 0 0-3.94-3.93v1.47zM62.65 29.61V66H28.47V26.94a2.16 2.16 0 0 1 .7-1.61 2.61 2.61 0 0 1 1.76-.64 2.47 2.47 0 0 1 2.46 2.46h1.48a3.93 3.93 0 0 0-3.94-3.93 4 4 0 0 0-2.75 1A3.6 3.6 0 0 0 27 26.94v40.57h37.12v-37.9z"/><path class="cls-2" d="M65.8 23.22H30.93v1.47H65.8M33.4 27.16v2.52h36.33v-2.52h-1.47v1.05H34.87v-1.05H33.4zM60.3 33.34H30.57v1.47H60.3M60.3 36.96H30.57v1.47H60.3M60.3 40.59H30.57v1.47H60.3M60.3 44.21H30.57v1.47H60.3"/><path class="cls-3" d="M60.3 34.81H30.57v1.47H60.3M60.3 38.43H30.57v1.48H60.3M60.3 42.06H30.57v1.47H60.3M60.3 45.68H30.57v1.48H60.3"/><path class="cls-2" d="M60.3 47.96H30.57v1.47H60.3"/><path class="cls-3" d="M60.3 49.43H30.57v1.48H60.3"/><path class="cls-2" d="M60.3 51.73H30.57v1.47H60.3"/><path class="cls-3" d="M60.3 53.2H30.57v1.47H60.3"/></g></g></svg>