<svg xmlns="http://www.w3.org/2000/svg" viewBox="0 0 209.1 209.1"><defs><style>.cls-1{fill:#009b55}.cls-2{fill:#1f402f}</style></defs><title>Asset 1</title><g id="Layer_2" data-name="Layer 2"><g id="Layer_1-2" data-name="Layer 1"><path class="cls-1" d="M111.3 40.47v-6.74a30.2 30.2 0 0 1 7.77-20.24H33.73V54h80.76a30.15 30.15 0 0 1-3.19-13.53z"/><path class="cls-2" d="M192.24 54h-19.7a33.49 33.49 0 0 0 2.84-13.49v-6.78A33.76 33.76 0 0 0 141.65 0H20.24v54h-3.38A16.88 16.88 0 0 0 0 70.83V172a16.88 16.88 0 0 0 16.86 16.86H54v13.49H40.47v6.75h128.16v-6.75h-13.49v-13.48h37.1A16.88 16.88 0 0 0 209.1 172V70.83A16.88 16.88 0 0 0 192.24 54zm0 6.75a10.13 10.13 0 0 1 10.12 10.12v34.62l-2.64-9.51a30.4 30.4 0 0 0-24.53-21.86l-16.84-2.65.07-1.73a33.92 33.92 0 0 0 10.14-9h23.67zm-7.35 54l-2.83-14.15-6.61 1.33 2.55 12.74h-23.47L152 101.89l3.38-5.07 5 2 7.61-19 6.13 1a23.64 23.64 0 0 1 19.07 17l4.71 16.93zm-83.64-14.15l-2.83 14.15h-13l4.71-16.6a23.77 23.77 0 0 1 18.53-16.79l6.75-1.21 7.51 18.78 5-2.05 3.4 5.1-2.56 12.79h-23.47l2.57-12.83zm26.08-22.59l9.33 8-10 4.1-4.47-11.17zm19.26 19.88h-9.88l-2.41-3.63 7-2.86 7.66 3zm10-7.73l-11-4.3 10.08-7.94 5.48.86zM141 80.8l-9.51-8.15a33.5 33.5 0 0 0 19.65.16zm-3.37 23.76h8l2 10.12h-12zm31-70.83v6.75a27 27 0 0 1-54 0v-6.75a27 27 0 1 1 54 0zM27 6.75h94.5a33.66 33.66 0 0 0-13.58 27v6.75a33.72 33.72 0 0 0 16.86 29.16v1.9l-17.33 3.11a30.55 30.55 0 0 0-23.82 21.55l-7.15 25.19h51.68v20.24H27zm-10.12 54h3.37v87.65h114.66v-27h67.45v40.47H6.75V70.83a10.13 10.13 0 0 1 10.11-10.12zM148.4 202.36H60.71v-13.49h87.69zm43.84-20.24H16.86A10.13 10.13 0 0 1 6.75 172v-3.37h195.61V172a10.13 10.13 0 0 1-10.12 10.12z"/><path class="cls-2" d="M33.73 60.71h6.75v6.75h-6.75zM47.22 60.71h23.61v6.75H47.22zM33.73 74.2h37.1v6.75h-37.1zM33.73 87.69h37.1v6.75h-37.1zM33.73 101.18h37.1v6.75h-37.1zM114.67 128.16h6.75v6.75h-6.75zM33.73 128.16h74.2v6.75h-74.2zM33.73 114.67h37.1v6.75h-37.1z"/></g></g></svg>