<svg id="Capa_1" xmlns="http://www.w3.org/2000/svg" viewBox="0 0 496 496"><style>.st0{fill:#009b55}.st1{fill:#1f402f}</style><switch><g><path class="st0" d="M104 169.7h48v144h-48zm80-88h48v232h-48zm80 152h48v80h-48zm80-224h48v304h-48zM80 337.7h336v16H80zm352 0h16v16h-16zm-384 0h16v16H48z"/><path class="st1" d="M0 409.7c0 22.1 17.9 40 40 40h104v32h-32v16h272v-16h-32v-32h104c22.1 0 40-17.9 40-40v-24H0v24zm336 72H160v-32h176v32zm-320-80h464v8c0 13.2-10.8 24-24 24H40c-13.2 0-24-10.8-24-24v-8zm440-328h-40v16h40c13.2 0 24 10.8 24 24v256h16v-256c0-22-17.9-40-40-40zm-440 40c0-13.2 10.8-24 24-24h120v-16H40c-22.1 0-40 17.9-40 40v256h16v-256z"/><path class="st1" d="M160 305.7v-144H96v144H48v16h400v-16h-48V1.7h-64v304h-16v-80h-64v80h-16v-232h-64v232h-16zm-48-128h32v128h-32v-128zm240-160h32v288h-32v-288zm-80 224h32v64h-32v-64zm-80-152h32v216h-32v-216z"/><path class="st1" d="M256 73.7h64v16h-64z"/></g></switch></svg>