<svg id="Layer_1" xmlns="http://www.w3.org/2000/svg" viewBox="0 0 90.7 90.7"><style>.st0{fill:#e6e6e6}.st1{fill:#009b55}.st2{fill:#1f402f}</style><title>mablagh_pish_factor</title><g id="Layer_2"><g id="Layer_1-2"><circle class="st0" cx="45.4" cy="45.4" r="45.4"/><path class="st1" d="M64.4 51.6H34.7l5.5-6.2V34.8c0-1.2.9-2.2 2-2.2h22.2c1.1 0 2 1 2 2.2v14.6c-.1 1.2-1 2.2-2 2.2z"/><path class="st2" d="M59.8 41.4c-.7 0-1.3-.7-1.3-1.5s.6-1.5 1.3-1.5c.7 0 1.3.7 1.3 1.5h1.3c0-1.6-1.2-2.9-2.6-2.9-1.4 0-2.6 1.3-2.6 2.9 0 1.6 1.2 2.9 2.6 2.9.7 0 1.3.7 1.3 1.5s-.6 1.5-1.3 1.5c-.7 0-1.3-.7-1.3-1.5h-1.3c0 1.6 1.2 2.9 2.6 2.9 1.4 0 2.6-1.3 2.6-2.9 0-1.6-1.2-2.9-2.6-2.9zM46.8 38.4c.7 0 1.3.7 1.3 1.5h1.3c0-1.6-1.2-2.9-2.6-2.9s-2.6 1.3-2.6 2.9c0 1.6 1.2 2.9 2.6 2.9.7 0 1.3.7 1.3 1.5s-.6 1.5-1.3 1.5-1.3-.7-1.3-1.5h-1.3c0 1.6 1.2 2.9 2.6 2.9s2.6-1.3 2.6-2.9c0-1.6-1.2-2.9-2.6-2.9-.7 0-1.3-.7-1.3-1.5-.1-.8.5-1.5 1.3-1.5zM53.3 40.5l-.8-3.5h-1.8v9.5H52v-5.8l1.3 5.9 1.3-5.9v5.8h1.3V37h-1.8z"/><path class="st2" d="M46.1 22.3h-17c-1.8 0-3.3 1.6-3.3 3.7v38c0 2 1.5 3.7 3.3 3.7h17c1.8 0 3.3-1.6 3.3-3.7V53h-1.3v7.3H27.2V29.7h20.9v2.9h1.3V26c0-2-1.5-3.7-3.3-3.7zm2 39.5V64c0 1.2-.9 2.2-2 2.2h-17c-1.1 0-2-1-2-2.2v-2.2h21zM27.2 28.2V26c0-1.2.9-2.2 2-2.2h17c1.1 0 2 1 2 2.2v2.2h-21z"/><path class="st2" d="M35 63.3h5.2v1.5H35zM45.4 53.1h1.3v1.5h-1.3zM42.8 53.1h1.3v1.5h-1.3zM40.2 53.1h1.3v1.5h-1.3zM37.6 53.1h1.3v1.5h-1.3z"/></g></g></svg>