<svg xmlns="http://www.w3.org/2000/svg" viewBox="0 0 128.09 125.64"><defs><style>.cls-1{fill:#009b55}.cls-2{fill:#1f402f}</style></defs><title>Asset 1</title><g id="Layer_2" data-name="Layer 2"><g id="Layer_1-2" data-name="Layer 1"><path class="cls-1" d="M66.5 16.42h49.27v20.53H66.5z"/><path class="cls-2" d="M128.09 8.21H62.4v.18a24.53 24.53 0 0 0-36.79-.18H9V59.3a14.28 14.28 0 0 0-1.83 3.59L0 84.17h9v26.69h75.29L82 117h8l5.75 8.62 7.67-21.09 7.67 21.09 5.75-8.62h8l-2.24-6.16h5.47zm-84.17-4.1a20.55 20.55 0 0 1 20.53 20.53v4.11a20.53 20.53 0 0 1-41.06 0v-4.11A20.55 20.55 0 0 1 43.92 4.11zm25 76l-1.59-10.68-4.06.6 1.48 10h-13l-1.56-7.78L52.42 69l2.89 2.31 4.49-15.74 9.25 1.85a10.29 10.29 0 0 1 7.71 6.78l5.36 15.87zM33.2 54.54l7.3 5.11-5.72 4.57-2.7-9.46zm10.72 7.63l5.28 4.23-2.27 3.4h-6l-2.27-3.41zM41.5 73.91h4.85l1.23 6.16h-7.31zm11.56-9.69l-5.72-4.57 7.3-5.11 1.12.22zM44 57l-.08-.07-.08.07-6.42-4.5a24 24 0 0 0 13 0zM22.62 12.32a24.45 24.45 0 0 0-3.33 12.32v4.11A24.63 24.63 0 0 0 31.6 50v.62L18 53.4a14.3 14.3 0 0 0-4.86 2V12.32zM11.08 64.2a10.29 10.29 0 0 1 7.71-6.78L28 55.57l4.49 15.71L35.42 69l2.21 3.32-1.56 7.78h-13l1.48-10-4.06-.6-1.54 10.57H5.72zM124 106.76h-2.86L117 95.37l-2.76 4.42 4.76 13.12h-4.33l-2.46 3.7-5.83-16h-5.86l-5.82 16-2.46-3.7h-4.33l4.77-13.13-2.76-4.42-4.14 11.39H13.13V84.17h74.71l-7.19-21.28a14.41 14.41 0 0 0-10.79-9.49l-14.43-2.89a24.65 24.65 0 0 0 13.13-21.77v-4.1a24.45 24.45 0 0 0-3.33-12.32H124z"/><path class="cls-2" d="M70.61 41.06h4.11v4.11h-4.11zM78.82 41.06h36.95v4.11H78.82zM70.61 49.27h45.17v4.11H70.61zM84.98 57.48h22.58v4.11H84.98zM111.67 57.48h4.11v4.11h-4.11z"/><path class="cls-1" d="M113.72 100.6H93.19L82.93 84.17l10.26-16.42h20.53L124 84.17z"/><path class="cls-2" d="M103.46 76a8.21 8.21 0 1 0 8.21 8.21 8.22 8.22 0 0 0-8.21-8.21zm0 12.32a4.11 4.11 0 1 1 4.11-4.11 4.11 4.11 0 0 1-4.11 4.07z"/></g></g></svg>