<svg xmlns="http://www.w3.org/2000/svg" viewBox="0 0 33.92 43.82"><defs><style>.cls-1{fill:#1f402f}.cls-2{fill:#009b55}</style></defs><title>Asset 6</title><g id="Layer_2" data-name="Layer 2"><g id="Layer_1-2" data-name="Layer 1"><path class="cls-1" d="M17 24.74A15.57 15.57 0 0 0 1.41 40.28v3.53h31.1v-3.53A15.57 15.57 0 0 0 17 24.74zm6.26 2.89c-2 4.35-5 10.64-6.22 13.21l-6.33-13.21a14 14 0 0 1 12.51 0zm1.06 1.08L26 36.4l-7.3 4.2c1-2 2.62-5.48 5.58-11.88zm-8.92 12L7.87 36.4l1.78-7.7zm-12.57-.43a14.11 14.11 0 0 1 5.23-11l-1.8 7.82 9.28 5.3H2.83zM31.1 42.4H18.39l9.28-5.3-1.8-7.78a14.11 14.11 0 0 1 5.23 11zm0 0"/><path class="cls-1" d="M25.77 20.49h1.79a2.12 2.12 0 0 0 2.12-2.12v-2.12h-1.41v2.12a.71.71 0 0 1-.71.71h-.82a11.29 11.29 0 1 0-1 1.41zm-18.7-7.06a9.89 9.89 0 1 1 18 5.65h-4.71a2.12 2.12 0 0 0-2-1.41h-2.81a2.12 2.12 0 1 0 0 4.24h2.83a2.12 2.12 0 0 0 2-1.41h3.51a9.89 9.89 0 0 1-16.82-7.07zm12 6.36a.71.71 0 0 1-.71.71h-2.81a.71.71 0 0 1 0-1.41h2.83a.71.71 0 0 1 .71.71zm0 0"/><path class="cls-1" d="M17 1.41a12 12 0 0 1 11.31 8.06L29.64 9A13.43 13.43 0 0 0 4.28 9l1.33.47A12 12 0 0 1 17 1.41zm0 0"/><path class="cls-2" d="M5.65 18.37h-.7a4.95 4.95 0 1 1 0-9.89h.71zm0 0M29 18.37h-.71V8.48H29a4.95 4.95 0 0 1 0 9.89zm0 0"/></g></g></svg>