<svg id="Layer_1" xmlns="http://www.w3.org/2000/svg" viewBox="0 0 496 496"><style>.st0{fill:#1f402f}.st1{fill:#009b55}</style><path class="st0" d="M280 192h16v24h-16zM168 56c-23.7 0-43.4 17.3-47.3 40H50.1C22.5 96 0 118.5 0 146.1V212c0 15.4 12.6 28 28 28 4.3 0 8.4-1.1 12-2.8V356c0 15.4 12.6 28 28 28 7.8 0 14.9-3.3 20-8.5 5.1 5.2 12.2 8.5 20 8.5 4.3 0 8.4-1.1 12-2.8V412c0 15.4 12.6 28 28 28 7.8 0 14.9-3.3 20-8.5 5.1 5.2 12.2 8.5 20 8.5 15.4 0 28-12.6 28-28h-16c0 6.6-5.4 12-12 12s-12-5.4-12-12V304h-16v108c0 6.6-5.4 12-12 12s-12-5.4-12-12V192h-16v76c0 6.6-5.4 12-12 12s-12-5.4-12-12v-65.9c0-18.8 15.3-34.1 34.1-34.1h75.8v-16H136v-12.3c8.5 7.6 19.7 12.3 32 12.3 26.5 0 48-21.5 48-48s-21.5-48-48-48zm-60 240c4.3 0 8.4-1.1 12-2.8V356c0 6.6-5.4 12-12 12s-12-5.4-12-12v-62.8c3.6 1.7 7.7 2.8 12 2.8zm-28-93.9V356c0 6.6-5.4 12-12 12s-12-5.4-12-12V136H40v76c0 6.6-5.4 12-12 12s-12-5.4-12-12v-65.9c0-18.8 15.3-34.1 34.1-34.1h70.6c1.5 9.1 5.7 17.4 11.6 24H120v17c-22.8 4.7-40 24.9-40 49.1zm88-66.1c-17.6 0-32-14.4-32-32s14.4-32 32-32 32 14.4 32 32-14.4 32-32 32z"/><path class="st0" d="M200 192h16v24h-16zM136 48c0-26.5-21.5-48-48-48S40 21.5 40 48s21.5 48 48 48 48-21.5 48-48zM88 80c-17.6 0-32-14.4-32-32s14.4-32 32-32 32 14.4 32 32-14.4 32-32 32zM456 48c0-26.5-21.5-48-48-48s-48 21.5-48 48 21.5 48 48 48 48-21.5 48-48zm-48 32c-17.6 0-32-14.4-32-32s14.4-32 32-32 32 14.4 32 32-14.4 32-32 32z"/><path class="st0" d="M445.9 96h-70.6c-3.8-22.7-23.5-40-47.3-40-26.5 0-48 21.5-48 48s21.5 48 48 48c12.3 0 23.5-4.7 32-12.3V152h-69.9v16h75.8c18.8 0 34.1 15.3 34.1 34.1V268c0 6.6-5.4 12-12 12s-12-5.4-12-12v-76h-16v220c0 6.6-5.4 12-12 12s-12-5.4-12-12V304h-16v108c0 6.6-5.4 12-12 12s-12-5.4-12-12h-16c0 15.4 12.6 28 28 28 7.8 0 14.9-3.3 20-8.5 5.1 5.2 12.2 8.5 20 8.5 15.4 0 28-12.6 28-28v-30.8c3.6 1.7 7.7 2.8 12 2.8 7.8 0 14.9-3.3 20-8.5 5.1 5.2 12.2 8.5 20 8.5 15.4 0 28-12.6 28-28V237.2c3.6 1.7 7.7 2.8 12 2.8 15.4 0 28-12.6 28-28v-65.9c0-27.6-22.5-50.1-50.1-50.1zM328 136c-17.6 0-32-14.4-32-32s14.4-32 32-32 32 14.4 32 32-14.4 32-32 32zm60 232c-6.6 0-12-5.4-12-12v-62.8c3.6 1.7 7.7 2.8 12 2.8s8.4-1.1 12-2.8V356c0 6.6-5.4 12-12 12zm92-156c0 6.6-5.4 12-12 12s-12-5.4-12-12v-76h-16v220c0 6.6-5.4 12-12 12s-12-5.4-12-12V202.1c0-24.2-17.2-44.4-40-49.1v-17h-12.3c5.9-6.6 10.1-14.9 11.6-24h70.6c18.8 0 34.1 15.3 34.1 34.1V212z"/><g><path class="st1" d="M296 160c0-26.5-21.5-48-48-48s-48 21.5-48 48 21.5 48 48 48 48-21.5 48-48zM285.9 208h-75.8c-27.6 0-50.1 22.5-50.1 50.1V324c0 15.4 12.6 28 28 28 4.3 0 8.4-1.1 12-2.8V468c0 15.4 12.6 28 28 28 7.8 0 14.9-3.3 20-8.5 5.1 5.2 12.2 8.5 20 8.5 15.4 0 28-12.6 28-28V349.2c3.6 1.7 7.7 2.8 12 2.8 15.4 0 28-12.6 28-28v-65.9c0-27.6-22.5-50.1-50.1-50.1z"/></g></svg>