<svg id="Layer_1" xmlns="http://www.w3.org/2000/svg" viewBox="0 0 90.7 90.7"><style>.st0{fill:#e6e6e6}.st1{fill:#1f402f}.st2{fill:#009b55}</style><title>mablagh_pish_factor</title><g id="Layer_2"><g id="Layer_1-2"><circle class="st0" cx="45.4" cy="45.4" r="45.4"/><path class="st1" d="M48.2 39.2h1.4v2.2h-1.4zM38.3 26.8c-2.1 0-3.8 1.6-4.2 3.6H27.9c-2.4 0-4.4 2-4.4 4.5v6c0 1.4 1.1 2.5 2.5 2.5.4 0 .7-.1 1.1-.3v10.8c0 1.4 1.1 2.5 2.5 2.5.7 0 1.3-.3 1.8-.8.4.5 1.1.8 1.8.8.4 0 .7-.1 1.1-.3v2.8c0 1.4 1.1 2.5 2.5 2.5.7 0 1.3-.3 1.8-.8.4.5 1.1.8 1.8.8 1.4 0 2.5-1.1 2.5-2.5h-1.4c0 .6-.5 1.1-1.1 1.1-.6 0-1.1-.5-1.1-1.1v-9.8h-1.4v9.8c0 .6-.5 1.1-1.1 1.1s-1.1-.5-1.1-1.1V39.2h-1.4v6.9c0 .6-.5 1.1-1.1 1.1-.6 0-1.1-.5-1.1-1.1v-6c0-1.7 1.3-3.1 3-3.1h6.7v-1.5h-6.1v-1.1c.7.7 1.7 1.1 2.8 1.1 2.3 0 4.2-2 4.2-4.4s-2.1-4.3-4.4-4.3zM33 48.6c.4 0 .7-.1 1.1-.3V54c0 .6-.5 1.1-1.1 1.1-.6 0-1.1-.5-1.1-1.1v-5.7c.4.2.7.3 1.1.3zm-2.5-8.5v14c0 .6-.5 1.1-1.1 1.1-.6 0-1.1-.5-1.1-1.1v-20H27V41c0 .6-.5 1.1-1.1 1.1-.6 0-1.1-.5-1.1-1.1v-6c0-1.7 1.3-3.1 3-3.1H34c.1.8.5 1.6 1 2.2h-1.1v1.5c-1.8.5-3.4 2.3-3.4 4.5zm7.8-6c-1.6 0-2.8-1.3-2.8-2.9s1.3-2.9 2.8-2.9c1.6 0 2.8 1.3 2.8 2.9s-1.2 2.9-2.8 2.9z"/><path class="st1" d="M41.1 39.2h1.4v2.2h-1.4zM35.5 26.1c0-2.4-1.9-4.4-4.2-4.4s-4.2 2-4.2 4.4 1.9 4.4 4.2 4.4 4.2-2 4.2-4.4zM31.3 29c-1.6 0-2.8-1.3-2.8-2.9 0-1.6 1.3-2.9 2.8-2.9 1.6 0 2.8 1.3 2.8 2.9 0 1.6-1.3 2.9-2.8 2.9zM63.7 26.1c0-2.4-1.9-4.4-4.2-4.4s-4.2 2-4.2 4.4 1.9 4.4 4.2 4.4 4.2-2 4.2-4.4zM59.5 29c-1.6 0-2.8-1.3-2.8-2.9 0-1.6 1.3-2.9 2.8-2.9 1.6 0 2.8 1.3 2.8 2.9 0 1.6-1.3 2.9-2.8 2.9z"/><path class="st1" d="M62.8 30.5H56.6c-.3-2.1-2.1-3.6-4.2-3.6-2.3 0-4.2 2-4.2 4.4s1.9 4.4 4.2 4.4c1.1 0 2.1-.4 2.8-1.1v1.1h-6.1V37h6.7c1.7 0 3 1.4 3 3.1v6c0 .6-.5 1.1-1.1 1.1-.6 0-1.1-.5-1.1-1.1v-6.9h-1.4v20c0 .6-.5 1.1-1.1 1.1s-1.1-.5-1.1-1.1v-9.8h-1.4v9.8c0 .6-.5 1.1-1.1 1.1-.6 0-1.1-.5-1.1-1.1H48c0 1.4 1.1 2.5 2.5 2.5.7 0 1.3-.3 1.8-.8.4.5 1.1.8 1.8.8 1.4 0 2.5-1.1 2.5-2.5v-2.8c.3.2.7.3 1.1.3.7 0 1.3-.3 1.8-.8.4.5 1.1.8 1.8.8 1.4 0 2.5-1.1 2.5-2.5V43.3c.3.2.7.3 1.1.3 1.4 0 2.5-1.1 2.5-2.5v-6c-.1-2.6-2.1-4.6-4.6-4.6zm-10.4 3.6c-1.6 0-2.8-1.3-2.8-2.9s1.3-2.9 2.8-2.9c1.6 0 2.8 1.3 2.8 2.9s-1.2 2.9-2.8 2.9zm5.3 21.1c-.6 0-1.1-.5-1.1-1.1v-5.7c.3.2.7.3 1.1.3.4 0 .7-.1 1.1-.3v5.7c0 .6-.5 1.1-1.1 1.1zM65.8 41c0 .6-.5 1.1-1.1 1.1-.6 0-1.1-.5-1.1-1.1v-6.9h-1.4v20c0 .6-.5 1.1-1.1 1.1-.6 0-1.1-.5-1.1-1.1v-14c0-2.2-1.5-4-3.5-4.5v-1.5h-1.1c.5-.6.9-1.4 1-2.2h6.2c1.7 0 3 1.4 3 3.1v6h.2z"/><g><path class="st2" d="M49.6 36.3c0-2.4-1.9-4.4-4.2-4.4s-4.2 2-4.2 4.4c0 2.4 1.9 4.4 4.2 4.4s4.2-2 4.2-4.4z"/><path class="st2" d="M48.7 40.6H42c-2.4 0-4.4 2-4.4 4.5v6c0 1.4 1.1 2.5 2.5 2.5.4 0 .7-.1 1.1-.3v10.8c0 1.4 1.1 2.5 2.5 2.5.7 0 1.3-.3 1.8-.8.4.5 1.1.8 1.8.8 1.4 0 2.5-1.1 2.5-2.5V53.5c.3.2.7.3 1.1.3 1.4 0 2.5-1.1 2.5-2.5v-6c-.3-2.6-2.3-4.7-4.7-4.7z"/></g></g></g></svg>