<svg xmlns="http://www.w3.org/2000/svg" viewBox="0 0 187.17 34.77"><defs><style>.cls-1{fill:#009b55}.cls-2{fill:#1f402f}.cls-3{fill:none;stroke:#1f402f;stroke-linecap:round;stroke-miterlimit:10}</style></defs><title>upporto</title><g id="Layer_2" data-name="Layer 2"><g id="Layer_1-2" data-name="Layer 1"><g id="_Group_" data-name="&lt;Group&gt;"><g id="_Group_2" data-name="&lt;Group&gt;"><path id="_Path_" data-name="&lt;Path&gt;" class="cls-1" d="M15.62 14.44a6.66 6.66 0 0 0 6.45 8.35h.13a6.67 6.67 0 0 0 6.45-5l3.17-12.12a4.06 4.06 0 0 1 3.93-3h5.35l-2.37 9.1a1.3 1.3 0 0 0 2.53.66L44.48 0h-8.74a6.67 6.67 0 0 0-6.45 5l-3.15 12.14a4.06 4.06 0 0 1-3.93 3h-.13a4.06 4.06 0 0 1-4.06-4 4.09 4.09 0 0 1 .13-1 1.3 1.3 0 0 0-2.53-.65z"/><path id="_Path_2" data-name="&lt;Path&gt;" class="cls-1" d="M5.09 12.14l-2.37 9a6.66 6.66 0 0 0 6.45 8.36h22.45a6.67 6.67 0 0 0 6.45-5l5.22-19.92a1.3 1.3 0 0 0-2.52-.66l-5.22 20a4.06 4.06 0 0 1-3.93 3H9.17a4.06 4.06 0 0 1-4.06-4 4.09 4.09 0 0 1 .14-1l2.37-9a1.3 1.3 0 0 0-2.52-.67z"/></g><circle id="_Path_3" data-name="&lt;Path&gt;" class="cls-2" cx="13.3" cy="6.64" r="6.64"/></g><g id="_Group_3" data-name="&lt;Group&gt;"><path id="_Compound_Path_" data-name="&lt;Compound Path&gt;" class="cls-2" d="M69.33 12q0 1.38-.13 4.13t-.13 4.13q0 1.34.09 4t.09 4a.59.59 0 0 1-.46.63 14.83 14.83 0 0 1-3 .19A23.86 23.86 0 0 1 63 29a.53.53 0 0 1-.45-.45l-.11-1.12q-.09-.86-.26-.86.26 0-1.88 1.26a7.79 7.79 0 0 1-3.89 1.26q-4.93 0-5.84-4.44a32.94 32.94 0 0 1-.41-6 25.81 25.81 0 0 1 .67-6.65q.2-.76.76-.76h5.2q.58 0 .58.48a3 3 0 0 1 0 .39 33.59 33.59 0 0 0-.37 5.16 31.13 31.13 0 0 0 .2 4.43 2.21 2.21 0 0 0 2.44 2 3 3 0 0 0 1.73-.7 2.11 2.11 0 0 0 1-1.51v-9.33a1.54 1.54 0 0 1 .09-.73q.11-.19.67-.19h5.48q.56 0 .65.28a2 2 0 0 1 .07.48z"/><path id="_Compound_Path_2" data-name="&lt;Compound Path&gt;" class="cls-2" d="M92.91 20a9.54 9.54 0 0 1-2.34 6.6 8.08 8.08 0 0 1-6.34 2.71 7.77 7.77 0 0 1-3.07-.71 7 7 0 0 1-1.49-.71q-.24 0-.24.56 0 .95.09 2.85t.09 2.85a.53.53 0 0 1-.61.6h-3.79a8.87 8.87 0 0 1-1.65-.09A.65.65 0 0 1 73 34V19.68a34.85 34.85 0 0 0-.65-7.31 1.63 1.63 0 0 1 0-.32.36.36 0 0 1 .22-.37 15.83 15.83 0 0 1 2.77-.6 20.83 20.83 0 0 1 2.88-.32q.73 0 .83 1t.25 1q-.19 0 1.59-1a6.63 6.63 0 0 1 3.23-1 8.3 8.3 0 0 1 6.45 2.66A9.52 9.52 0 0 1 92.91 20zm-6.9 0a4 4 0 0 0-.91-2.6 3.06 3.06 0 0 0-2.44-1.17 2.84 2.84 0 0 0-2.38 1.17 4.27 4.27 0 0 0-.78 2.6 4.11 4.11 0 0 0 .82 2.62 2.88 2.88 0 0 0 2.42 1.13Q86 23.7 86 19.95z"/><path id="_Compound_Path_3" data-name="&lt;Compound Path&gt;" class="cls-1" d="M115.84 20a9.54 9.54 0 0 1-2.34 6.6 8.08 8.08 0 0 1-6.34 2.71 7.77 7.77 0 0 1-3.07-.71 7 7 0 0 1-1.49-.71q-.24 0-.24.56 0 .95.09 2.85t.09 2.85a.53.53 0 0 1-.61.6h-3.79a8.87 8.87 0 0 1-1.65-.09.65.65 0 0 1-.56-.69V19.65a34.85 34.85 0 0 0-.65-7.31 1.62 1.62 0 0 1 0-.32.36.36 0 0 1 .22-.37 15.83 15.83 0 0 1 2.77-.6 20.83 20.83 0 0 1 2.88-.32q.73 0 .83 1t.25 1q-.19 0 1.59-1a6.63 6.63 0 0 1 3.23-1 8.3 8.3 0 0 1 6.45 2.66 9.52 9.52 0 0 1 2.34 6.61zm-6.9 0a4 4 0 0 0-.91-2.6 3.06 3.06 0 0 0-2.44-1.17 2.84 2.84 0 0 0-2.38 1.17 4.27 4.27 0 0 0-.78 2.6 4.11 4.11 0 0 0 .82 2.62 2.88 2.88 0 0 0 2.42 1.13q3.27-.05 3.27-3.8z"/><path id="_Compound_Path_4" data-name="&lt;Compound Path&gt;" class="cls-1" d="M136.15 19.78a9.4 9.4 0 0 1-2.59 6.88 10.06 10.06 0 0 1-13.55 0 9 9 0 0 1-2.65-6.66 9.8 9.8 0 0 1 2.53-7 9 9 0 0 1 6.84-2.69 9.15 9.15 0 0 1 6.81 2.63 9.3 9.3 0 0 1 2.61 6.84zm-6.1 0a4 4 0 0 0-.91-2.59 2.9 2.9 0 0 0-2.36-1.12 3 3 0 0 0-2.42 1.15 4.16 4.16 0 0 0 0 5.15 3.09 3.09 0 0 0 4.82 0 4 4 0 0 0 .82-2.59z"/><path id="_Compound_Path_5" data-name="&lt;Compound Path&gt;" class="cls-1" d="M150.72 17.34q0 .73-.8.73h-2a3.32 3.32 0 0 0-2.1.48 2.57 2.57 0 0 0-.56 2v4.86q0 .54.07 1.61t.07 1.59q0 .45-.61.5-.89.07-2.73.07a28.27 28.27 0 0 1-2.83-.11q-.61-.07-.61-.61v-4.45-4.45a27 27 0 0 0-.8-7.2 1.32 1.32 0 0 1 0-.28.36.36 0 0 1 .28-.37q1-.11 3-.41 2.94-.58 3-.58.33 0 .43 1.17t.33 1.17q-.26 0 1.52-1a7.17 7.17 0 0 1 3.44-1q1 0 1 .45a14.52 14.52 0 0 1-.11 1.52q-.11 1.06-.13 1.52t0 1.43q.14 1.02.14 1.36z"/><path id="_Compound_Path_6" data-name="&lt;Compound Path&gt;" class="cls-1" d="M166.86 23.48a15.29 15.29 0 0 1-.14 1.69 15.23 15.23 0 0 0-.14 1.66 1.31 1.31 0 0 1-.11.68 2.25 2.25 0 0 1-.61.43 10.84 10.84 0 0 1-5.32 1.32q-5.37 0-5.37-4.11 0-1.23.09-3.69t.09-3.69q0-.82-.95-.82h-.48q-.71 0-.71-.5v-.91-.91-1.19-1.19q0-.37 1.19-.41.67 0 .73-.37a13.74 13.74 0 0 0 .07-2.23q-.07-2.4-.07-2.29 0-2.16.41-2.16A6.64 6.64 0 0 1 157 5a13.33 13.33 0 0 0 1.47.28l2.86.35q.46 0 .46.32 0 .74-.12 2.25t-.12 2.27q0 .91.54.91t2-.06 2-.06q.41 0 .41.28t-.09 1.28-.09 1.28 0 1.3v1.3q0 .44-.54.39H161.89q-.28 0-.28.82v2.64a4.6 4.6 0 0 0 .39 2.15 2.15 2.15 0 0 0 2 .8 6 6 0 0 0 1.33-.21 6 6 0 0 1 1.22-.21q.31-.01.31.4z"/><path id="_Compound_Path_7" data-name="&lt;Compound Path&gt;" class="cls-1" d="M187.17 19.78a9.4 9.4 0 0 1-2.59 6.88 10.06 10.06 0 0 1-13.55 0 9 9 0 0 1-2.64-6.66 9.8 9.8 0 0 1 2.53-7 9 9 0 0 1 6.84-2.69 9.15 9.15 0 0 1 6.81 2.63 9.3 9.3 0 0 1 2.6 6.84zm-6.1 0a4 4 0 0 0-.91-2.59 2.9 2.9 0 0 0-2.36-1.12 3 3 0 0 0-2.42 1.15 4.16 4.16 0 0 0 0 5.15 3.09 3.09 0 0 0 4.82 0 4 4 0 0 0 .87-2.59z"/></g><path class="cls-3" d="M38.51 4.63h-2.77a2.06 2.06 0 0 0-2 1.54L30.6 18.3a8.67 8.67 0 0 1-8.38 6.49h-.15a8.67 8.67 0 0 1-8.66-8.66"/><path class="cls-3" d="M45.22 5.08L40 25a8.67 8.67 0 0 1-8.39 6.47H9.17A8.67 8.67 0 0 1 .5 22.84a8.7 8.7 0 0 1 .29-2.21l2.37-9"/></g></g></svg>