<?xml version="1.0" standalone="no"?>
<!DOCTYPE svg PUBLIC "-//W3C//DTD SVG 1.1//EN" "http://www.w3.org/Graphics/SVG/1.1/DTD/svg11.dtd" >
<svg xmlns="http://www.w3.org/2000/svg" xmlns:xlink="http://www.w3.org/1999/xlink" version="1.1">
<metadata>
Created by FontForge 20161013 at Wed Dec  2 03:47:24 2015
 By ,,,
Copyright (c) 2015 by www.fontiran.com (Moslem Ebrahimi). All rights reserved.
</metadata>
<defs>
<font id="IRANSansWeb-UltraLight" horiz-adv-x="0" >
  <font-face 
    font-family="IRANSansWeb UltraLight"
    font-weight="200"
    font-stretch="normal"
    units-per-em="2300"
    panose-1="2 4 5 3 5 2 1 2 2 3"
    ascent="1840"
    descent="-460"
    x-height="1189"
    cap-height="1641"
    bbox="-1183 -1126 2950 2263"
    underline-thickness="100"
    underline-position="-750"
    unicode-range="U+0020-FEFC"
  />
<missing-glyph horiz-adv-x="1229" 
d="M102 1444h1024v-1806h-1024v1806zM1012 -248v1577h-795v-1577h795z" />
    <glyph glyph-name="uniFDF2" unicode="&#xfedf;&#xfee0;&#x651;&#xfeea;" horiz-adv-x="1922" arabic-form="isolated" 
d="M948 40q-51 8 -76 27q-73 36 -131 129q-148 -22 -240 -22q-237 0 -328 111q-45 55 -45 129q0 47 18 89v-1q112 230 473 369l-15 163q15 1 117 11q51 -601 101 -744q53 -141 156 -146q24 -1 68 -1q38 0 53 1q52 4 92.5 32t61.5 72q8 22 8 76q0 127 -40 754q24 2 65.5 6.5
t61.5 6.5q7 -94 13.5 -219t11.5 -196q7 -99 11 -193t4.5 -127t7 -70.5t16.5 -55.5t34 -49q32 -43 96 -45q46 -1 79.5 2t67 14.5t53 32t30.5 57t7 87.5q0 2 -7.5 93.5t-25 308.5t-38.5 468q12 2 114 26q65 -871 65 -961q-2 -66 -29 -114t-73.5 -73.5t-100 -37t-119.5 -11.5
q-156 0 -227 97q-30 -34 -66 -55.5t-75 -30t-64 -11t-58 -2.5h-112zM639 754q-122 -48 -229 -123.5t-156 -174.5q-7 -19 -7 -40q0 -36 21 -61q39 -42 125 -56q56 -7 115 -7q58 0 192 15zM1152 1268q-46 0 -79 36v-1q-37 51 -33 148q1 48 8 76q13 -2 31.5 -7t27.5 -7l-2 -23
q-3 -39 -3 -42v-1q-4 -70 19 -104q13 -13 31 -13q52 0 86 94q8 23 23 99q12 -1 32.5 -1h31.5q0 -16 3 -33q7 -42 14 -66q10 -36 28.5 -63t42.5 -27q21 0 34 10q23 32 23 94q0 37 -16.5 83.5t-33.5 76.5l53 30q59 -109 59 -190q0 -94 -43 -137q-29 -29 -76 -29q-51 0 -91 47
q-13 18 -34 66q-55 -116 -136 -116zM1230 1662q16 63 16 136q0 77 -16 137l60 17q15 -67 15 -140q0 -82 -17 -166z" />
    <glyph glyph-name="uniFDFC" unicode="&#x631;&#xfef3;&#xfe8e;&#x644;" horiz-adv-x="2998" arabic-form="isolated" 
d="M1211 137q0 -150 -36 -253q-39 -109 -127 -191.5t-199.5 -124t-230.5 -41.5q-175 0 -307 89q-104 76 -165.5 180.5t-61.5 222.5q0 274 109 441l61 -52l29 -24q-79 -128 -79 -334q0 -53 3 -76q9 -124 105.5 -210.5t228.5 -109.5q40 -7 76 -7q102 0 203 43t165 116
q62 69 83.5 152.5t21.5 193.5v33l-31 909l-14 421q7 0 60 4l61 4l26 -745l2 -67zM2193 935q55 -125 85 -229.5t30 -212.5q0 -147 -95 -248q-117 -100 -352 -100l-72 1q-121 9 -208 70t-104 172q-4 25 4 556q0 98 -21.5 292t-38.5 274l130 22q1 -19 9.5 -65.5t14.5 -98.5
q17 -194 24 -306.5t6.5 -269.5t-15.5 -303q1 -23 2.5 -40t8 -41t16.5 -42t28.5 -37t43.5 -31.5t63 -21.5t85 -11q332 -12 351 199q4 167 -117 431q20 0 87 31v-1l28 13zM2703 367q-23 147 -92 348l116 37q4 -14 12.5 -39.5t10.5 -33.5q3 -8 10 -34q23 -77 36 -123.5t26 -119
t13 -130.5q0 -37 -4 -65q-14 -105 -69 -205.5t-137 -183t-173.5 -148.5t-193.5 -119l-52 107q266 136 406 328q98 138 98 289q0 38 -7 92zM1731 -236l-135 132l131 131l135 -132zM2064 -239l-134 134l132 132l132 -135z" />
    <glyph glyph-name="uniFEF5" unicode="&#xfedf;&#xfe82;" horiz-adv-x="1350" arabic-form="isolated" 
d="M1272 579v-14t1 -13q12 -113 -36 -229.5t-125 -185.5q-97 -91 -364 -155l1 1q-82 -16 -188 -20.5t-187 5.5q1 7 21 114q190 -15 367 24q19 46 20 103.5t-13 117.5t-40 127.5t-59 131.5t-72.5 131t-79 125.5t-79.5 116t-72 100t-60 80.5t-39 56l98 69q19 -26 66 -91.5
t75 -105t76 -109.5t78 -119t70 -119t64 -123.5t48 -119.5t33.5 -119.5t10 -110t-12.5 -105.5q133 45 214.5 166.5t66.5 264.5l-44 455q-7 66 -27 211t-28 224l119 13q73 -513 97 -895v-2zM1 1345q15 44 36 81q60 93 147 110q13 3 39 3q58 0 138 -33q70 -29 119 -30
q71 -3 147 89q16 -9 83 -53q-13 -18 -31.5 -37.5t-49 -44t-71.5 -40t-83 -14.5q-52 1 -133 30l-15 6q-81 33 -129 25h1q-34 -5 -61.5 -42.5t-43.5 -79.5z" />
    <glyph glyph-name="uniFEF6" unicode="&#xfee0;&#xfe82;" horiz-adv-x="1470" arabic-form="final" 
d="M1297 203q42 -30 77 -38.5t87 -8.5h9q24 0 41.5 -17t17.5 -41t-17.5 -41t-41.5 -17h-49q-14 0 -29 1.5t-50 12t-66.5 29t-71 57.5t-71.5 92q-80 -117 -270 -182.5t-529 -73.5q1 7 21 114q204 0 349 33q25 102 -4.5 230t-104.5 266.5t-172.5 274.5t-222.5 280q21 15 54 39
t43 31q63 -83 99 -131t90 -121.5t84.5 -119t72 -110.5t64 -109.5t49.5 -101.5t39 -102t22 -95.5t9 -97.5t-10 -93q277 101 266 303q-8 171 -23.5 349.5t-35 374.5t-26.5 280l-1 2v2q25 2 63 6.5t56 6.5q2 -4 18 -176t37 -437.5t34 -469.5q6 -75 25.5 -121t67.5 -80z
M-51 1348q15 44 36 81q60 93 147 110q13 3 39 3q58 0 138 -33q70 -29 119 -30q71 -3 147 89q16 -9 83 -53q-13 -18 -31.5 -37.5t-49 -44t-71.5 -40t-83 -14.5q-52 1 -133 30l-15 6q-81 33 -129 25h1q-34 -5 -61.5 -42.5t-43.5 -79.5z" />
    <glyph glyph-name="uniFEF7" unicode="&#xfedf;&#xfe84;" horiz-adv-x="1247" arabic-form="isolated" 
d="M1170 579v-14t1 -13q12 -113 -36 -229.5t-125 -185.5q-97 -91 -364 -155l1 1q-82 -16 -188 -20.5t-187 5.5q1 7 21 114q190 -15 367 24q19 46 20 103.5t-13 117.5t-40 127.5t-59 131.5t-72.5 131t-79 125.5t-79.5 116t-72 100t-60 80.5t-39 56l98 69q19 -26 66 -91.5
t75 -105t76 -109.5t78 -119t70 -119t64 -123.5t48 -119.5t33.5 -119.5t10 -110t-12.5 -105.5q133 45 214.5 166.5t66.5 264.5l-44 455q-7 66 -27 211t-28 224l119 13q73 -513 97 -895v-2zM303 1677q-5 0 -27 3t-36 3q-32 0 -60 -11v2q-31 -13 -50 -39.5t-19 -57.5
q0 -12 8 -33l-1 1q14 -34 48.5 -55t75.5 -21q23 0 41 6q46 15 92 43q24 14 42 27l57 -72q-53 -37 -234 -132l-220 -117l-46 81l173 92q-78 30 -117 112q-13 32 -13 68q0 58 35.5 107.5t92.5 71.5q43 18 95 18q32 0 79 -9l37 -9l-27 -85z" />
    <glyph glyph-name="uniFEF8" unicode="&#xfee0;&#xfe84;" horiz-adv-x="1470" arabic-form="final" 
d="M1297 203q42 -30 77 -38.5t87 -8.5h9q24 0 41.5 -17t17.5 -41t-17.5 -41t-41.5 -17h-49q-14 0 -29 1.5t-50 12t-66.5 29t-71 57.5t-71.5 92q-80 -117 -270 -182.5t-529 -73.5q1 7 21 114q204 0 349 33q25 102 -4.5 230t-104.5 266.5t-172.5 274.5t-222.5 280q21 15 54 39
t43 31q63 -83 99 -131t90 -121.5t84.5 -119t72 -110.5t64 -109.5t49.5 -101.5t39 -102t22 -95.5t9 -97.5t-10 -93q277 101 266 303q-8 171 -23.5 349.5t-35 374.5t-26.5 280l-1 2v2q25 2 63 6.5t56 6.5q2 -4 18 -176t37 -437.5t34 -469.5q6 -75 25.5 -121t67.5 -80z
M363 1678q-5 0 -27 3t-36 3q-32 0 -60 -11v2q-31 -13 -50 -39.5t-19 -57.5q0 -12 8 -33l-1 1q14 -34 48.5 -55t75.5 -21q23 0 41 6q46 15 92 43q24 13 42 27l57 -72q-53 -37 -234 -132l-220 -117l-46 81l173 92q-78 30 -117 112q-13 32 -13 68q0 58 35.5 107.5t92.5 71.5
q43 18 95 18q32 0 79 -9l37 -9l-27 -85z" />
    <glyph glyph-name="uniFEF9" unicode="&#xfedf;&#xfe88;" horiz-adv-x="1247" arabic-form="isolated" 
d="M1170 579v-14t1 -13q12 -113 -36 -229.5t-125 -185.5q-97 -91 -364 -155l1 1q-82 -16 -188 -20.5t-187 5.5q1 7 21 114q190 -15 367 24q19 46 20 103.5t-13 117.5t-40 127.5t-59 131.5t-72.5 131t-79 125.5t-79.5 116t-72 100t-60 80.5t-39 56l98 69q19 -26 66 -91.5
t75 -105t76 -109.5t78 -119t70 -119t64 -123.5t48 -119.5t33.5 -119.5t10 -110t-12.5 -105.5q133 45 214.5 166.5t66.5 264.5l-44 455q-7 66 -27 211t-28 224l119 13q73 -513 97 -895v-2zM669 -233q-5 0 -27 3t-36 3q-32 0 -60 -11v2q-31 -13 -50 -39.5t-19 -57.5
q0 -12 8 -33l-1 1q14 -34 48.5 -55t75.5 -21q23 0 41 6q46 15 92 43q24 14 42 27l57 -72q-53 -37 -234 -132l-220 -117l-46 81l173 92q-78 30 -117 112q-13 32 -13 68q0 58 35.5 107.5t92.5 71.5q43 18 95 18q32 0 79 -9l37 -9l-27 -85z" />
    <glyph glyph-name="uniFEFA" unicode="&#xfee0;&#xfe88;" horiz-adv-x="1470" arabic-form="final" 
d="M1297 203q42 -30 77 -38.5t87 -8.5h9q24 0 41.5 -17t17.5 -41t-17.5 -41t-41.5 -17h-49q-14 0 -29 1.5t-50 12t-66.5 29t-71 57.5t-71.5 92q-80 -117 -270 -182.5t-529 -73.5q1 7 21 114q204 0 349 33q25 102 -4.5 230t-104.5 266.5t-172.5 274.5t-222.5 280q21 15 54 39
t43 31q63 -83 99 -131t90 -121.5t84.5 -119t72 -110.5t64 -109.5t49.5 -101.5t39 -102t22 -95.5t9 -97.5t-10 -93q277 101 266 303q-8 171 -23.5 349.5t-35 374.5t-26.5 280l-1 2v2q25 2 63 6.5t56 6.5q2 -4 18 -176t37 -437.5t34 -469.5q6 -75 25.5 -121t67.5 -80z
M717 -198q-5 0 -27 3t-36 3q-32 0 -60 -11v2q-31 -13 -50 -39.5t-19 -57.5q0 -12 8 -33l-1 1q14 -34 48.5 -55t75.5 -21q23 0 41 6q46 15 92 43q24 13 42 27l57 -72q-53 -37 -234 -132l-220 -117l-46 81l173 92q-78 30 -117 112q-13 32 -13 68q0 58 35.5 107.5t92.5 71.5
q43 18 95 18q32 0 79 -9l37 -9l-27 -85z" />
    <glyph glyph-name="uniFEFB" unicode="&#xfedf;&#xfe8e;" horiz-adv-x="1247" arabic-form="isolated" 
d="M1170 579v-14t1 -13q12 -113 -36 -229.5t-125 -185.5q-97 -91 -364 -155l1 1q-82 -16 -188 -20.5t-187 5.5q1 7 21 114q190 -15 367 24q19 46 20 103.5t-13 117.5t-40 127.5t-59 131.5t-72.5 131t-79 125.5t-79.5 116t-72 100t-60 80.5t-39 56l98 69q19 -26 66 -91.5
t75 -105t76 -109.5t78 -119t70 -119t64 -123.5t48 -119.5t33.5 -119.5t10 -110t-12.5 -105.5q133 45 214.5 166.5t66.5 264.5l-44 455q-7 66 -27 211t-28 224l119 13q73 -513 97 -895v-2z" />
    <glyph glyph-name="uniFEFC" unicode="&#xfee0;&#xfe8e;" horiz-adv-x="1461" arabic-form="final" 
d="M1297 203q42 -30 77 -38.5t87 -8.5h9q24 0 41.5 -17t17.5 -41t-17.5 -41t-41.5 -17h-49q-14 0 -29 1.5t-50 12t-66.5 29t-71 57.5t-71.5 92q-80 -117 -270 -182.5t-529 -73.5q1 7 21 114q204 0 349 33q25 102 -4.5 230t-104.5 266.5t-172.5 274.5t-222.5 280q21 15 54 39
t43 31q63 -83 99 -131t90 -121.5t84.5 -119t72 -110.5t64 -109.5t49.5 -101.5t39 -102t22 -95.5t9 -97.5t-10 -93q277 101 266 303q-8 171 -23.5 349.5t-35 374.5t-26.5 280l-1 2v2q25 2 63 6.5t56 6.5q2 -4 18 -176t37 -437.5t34 -469.5q6 -75 25.5 -121t67.5 -80z" />
    <glyph glyph-name="uni06440671.isol" unicode="&#xfedf;&#xfb51;" horiz-adv-x="1247" 
d="M1170 579v-14t1 -13q12 -113 -36 -229.5t-125 -185.5q-97 -91 -364 -155l1 1q-82 -16 -188 -20.5t-187 5.5q1 7 21 114q190 -15 367 24q19 46 20 103.5t-13 117.5t-40 127.5t-59 131.5t-72.5 131t-79 125.5t-79.5 116t-72 100t-60 80.5t-39 56l98 69q19 -26 66 -91.5
t75 -105t76 -109.5t78 -119t70 -119t64 -123.5t48 -119.5t33.5 -119.5t10 -110t-12.5 -105.5q133 45 214.5 166.5t66.5 264.5l-44 455q-7 66 -27 211t-28 224l119 13q73 -513 97 -895v-2zM-25 1460q28 15 50 21q54 18 78 14q26 -5 58 -33l18 -19q50 92 95 137q60 58 135 69
h-1q13 4 35 4q61 0 101 -43q39 -39 34 -89q-3 -57 -51 -101q-69 -57 -222 -57q-129 0 -185 62h1l-4 3v-1q-3 2 -9 6.5t-10 6.5t-9 2q-35 0 -108 -35l-9 47zM307 1420q123 0 184 46q28 25 31 59q0 31 -16 42q-33 37 -89 27q-61 -12 -105 -56q-45 -45 -79 -113z" />
    <glyph glyph-name="uni06440671.fina" unicode="&#xfee0;&#xfb51;" horiz-adv-x="1470" 
d="M1297 203q42 -30 77 -38.5t87 -8.5h9q24 0 41.5 -17t17.5 -41t-17.5 -41t-41.5 -17h-49q-14 0 -29 1.5t-50 12t-66.5 29t-71 57.5t-71.5 92q-80 -117 -270 -182.5t-529 -73.5q1 7 21 114q204 0 349 33q25 102 -4.5 230t-104.5 266.5t-172.5 274.5t-222.5 280q21 15 54 39
t43 31q63 -83 99 -131t90 -121.5t84.5 -119t72 -110.5t64 -109.5t49.5 -101.5t39 -102t22 -95.5t9 -97.5t-10 -93q277 101 266 303q-8 171 -23.5 349.5t-35 374.5t-26.5 280l-1 2v2q25 2 63 6.5t56 6.5q2 -4 18 -176t37 -437.5t34 -469.5q6 -75 25.5 -121t67.5 -80zM1 1457
q28 15 50 21q54 18 78 14q26 -5 58 -33l18 -19q50 92 95 137q60 58 135 69h-1q13 4 35 4q61 0 101 -43q39 -39 34 -89q-3 -57 -51 -101q-69 -57 -222 -57q-129 0 -185 62h1l-4 3v-1q-3 2 -9 6.5t-10 6.5t-9 2q-35 0 -108 -35l-9 47zM333 1417q123 0 184 46q28 25 31 59
q0 31 -16 42q-33 37 -89 27q-61 -12 -105 -56q-45 -45 -79 -113z" />
    <glyph glyph-name="uni0621" unicode="&#x621;" horiz-adv-x="1019" arabic-form="isolated" 
d="M770 575q-8 3 -40 14q-50 15 -77 20q-23 3 -49 3q-33 0 -58 -5q-63 -19 -100.5 -66.5t-37.5 -110.5q0 -72 55.5 -129t132.5 -72q18 -2 35 -2q95 0 243 73l47 -88q-11 -6 -22 -11.5t-27.5 -12.5t-31 -13t-41.5 -16.5t-49 -19t-64 -24t-76 -28t-95 -35t-111 -41.5l-184 -68
q-4 11 -16.5 44t-19.5 54l302 115q-67 42 -113 98t-61 112q-7 25 -7 60q0 123 93 206t216 83q21 0 53 -5q84 -15 148 -43z" />
    <glyph glyph-name="uni0622" unicode="&#x622;" horiz-adv-x="681" arabic-form="isolated" 
d="M315 41q18 266 18 494q0 62 -2 200q-6 190 -13 258l-4 55q-13 171 -28 286q38 6 70 6q30 2 45 5q29 -223 44 -511q5 -140 5 -280q0 -256 -18 -518zM-28 1440q15 44 36 81q60 93 147 110q13 3 39 3q58 0 138 -33q70 -29 119 -30q71 -3 147 89q16 -9 83 -53
q-13 -18 -31.5 -37.5t-49 -44t-71.5 -40t-83 -14.5q-52 1 -133 30l-15 6q-81 33 -129 25h1q-34 -5 -61.5 -42.5t-43.5 -79.5z" />
    <glyph glyph-name="uni0623" unicode="&#x623;" horiz-adv-x="525" arabic-form="isolated" 
d="M242 41q18 266 18 494q0 62 -2 200q-6 190 -13 258l-4 55q-13 171 -28 286q38 6 70 6q30 2 45 5q29 -223 44 -511q5 -140 5 -280q0 -256 -18 -518zM353 1863q-5 0 -27 3t-36 3q-32 0 -60 -11v2q-31 -13 -50 -39.5t-19 -57.5q0 -12 8 -33l-1 1q14 -34 48.5 -55t75.5 -21
q23 0 41 6q46 15 92 43q24 14 42 27l57 -72q-53 -37 -234 -132l-220 -117l-46 81l173 92q-78 30 -117 112q-13 32 -13 68q0 58 35.5 107.5t92.5 71.5q43 18 95 18q32 0 79 -9l37 -9l-27 -85z" />
    <glyph glyph-name="uni0624" unicode="&#x624;" horiz-adv-x="1043" arabic-form="isolated" 
d="M518 690q-52 0 -104.5 -54t-84.5 -130.5t-32 -143.5q0 -73 40 -118q16 -17 36.5 -31t36 -23t43 -15.5t40 -9.5t46 -5t40.5 -2h44h38q90 0 150 6q-6 144 -48.5 260t-102.5 188q-71 78 -142 78zM124 -541q146 34 270.5 97.5t210 142t138 166.5t64.5 175h-101q-16 -1 -48 -1
q-126 0 -237.5 32.5t-162.5 103.5q-62 88 -62 188q2 63 25 138t62 144t101.5 115.5t133.5 46.5q124 0 231 -116v1q84 -91 131.5 -230t47.5 -292q0 -158 -63.5 -301t-170.5 -248.5t-247 -177.5t-294 -99zM475 1344q-40 7 -65 7q-34 0 -62 -12v2q-32 -14 -51.5 -42.5
t-19.5 -61.5q0 -14 8 -36l-1 1q14 -36 50 -59t78 -23q27 0 42 7q39 12 96 46q20 11 43 29l59 -78q-37 -28 -242 -142l-227 -126l-48 87l179 100q-83 34 -121 120q-14 37 -14 74q0 62 36.5 115.5t96.5 77.5q44 19 98 19q36 0 82 -10l38 -9l-28 -92z" />
    <glyph glyph-name="uni0625" unicode="&#x625;" horiz-adv-x="525" arabic-form="isolated" 
d="M223 41q18 266 18 494q0 62 -2 200q-6 190 -13 258l-4 55q-13 171 -28 286q38 6 70 6q30 2 45 5q29 -223 44 -511q5 -140 5 -280q0 -256 -18 -518zM417 -187q-5 0 -27 3t-36 3q-32 0 -60 -11v2q-31 -13 -50 -39.5t-19 -57.5q0 -12 8 -33l-1 1q14 -34 48.5 -55t75.5 -21
q23 0 41 6q46 15 92 43q24 14 42 27l57 -72q-53 -37 -234 -132l-220 -117l-46 81l173 92q-78 30 -117 112q-13 32 -13 68q0 58 35.5 107.5t92.5 71.5q43 18 95 18q32 0 79 -9l37 -9l-27 -85z" />
    <glyph glyph-name="uni0626" unicode="&#x626;" horiz-adv-x="1723" arabic-form="isolated" 
d="M1379 792q51 11 100 11q96 0 191 -33q-5 -12 -19.5 -39.5t-34.5 -71.5q-40 13 -101 18.5t-110 -5.5h2q-81 -8 -170 -74.5t-149.5 -164t-60.5 -186.5q0 -39 11 -73q11 -33 36 -58t65.5 -42t72.5 -26.5t87 -22.5h-1l58 -14.5t55 -17t53.5 -22t44.5 -28t37.5 -37.5
t22.5 -47.5t9 -60.5q0 -25 -6 -61v1q-36 -183 -252 -291q-215 -110 -535 -110q-360 0 -543 200v-1q-127 152 -127 364q0 46 6 95v-1q34 246 138 562l116 -43q-92 -283 -131 -532q-5 -38 -5 -81q0 -72 24 -147.5t72 -133.5q151 -157 450 -157q289 0 471 90t195 212
q5 51 -50 83t-147 54q-40 11 -58.5 16.5t-58.5 18.5t-62 24t-54 29.5t-50 38t-34.5 46.5t-22.5 58q-10 44 -10 96q0 194 139.5 358t335.5 206zM665 1132q-40 7 -65 7q-34 0 -62 -12v2q-32 -14 -51.5 -42.5t-19.5 -61.5q0 -14 8 -36l-1 1q14 -36 50 -59t78 -23q27 0 42 7
q39 12 96 46q20 11 43 29l59 -78q-37 -28 -242 -142l-227 -126l-48 87l179 100q-83 34 -121 120q-14 37 -14 74q0 62 36.5 115.5t96.5 77.5q44 19 98 19q36 0 82 -10l38 -9l-28 -92z" />
    <glyph glyph-name="uni0627" unicode="&#x627;" horiz-adv-x="482" arabic-form="isolated" 
d="M275 1530q0 -10 6.5 -141.5t12.5 -265.5t11 -318.5t4.5 -331.5t-10 -271.5t-28.5 -169.5l-115 25q25 57 30.5 326.5t-3 568.5t-23.5 554z" />
    <glyph glyph-name="uni0628" unicode="&#x628;" horiz-adv-x="1975" arabic-form="isolated" 
d="M998 40q-338 4 -561 81q-91 38 -159.5 92.5t-98.5 116.5q-38 68 -38 160q0 79 37 182q28 73 62 126l52.5 -40t40.5 -31q-1 -1 -48 -101q-29 -73 -29 -135q0 -54 25 -107q61 -106 248.5 -166t468.5 -60q186 0 396 44t383 138q-7 80 -40.5 174.5t-63.5 151.5t-62 109l99 64
q179 -306 179 -481q0 -76 -96 -140h1q-132 -77 -369 -128.5t-427 -49.5zM1011 -493l-134 134l133 133l134 -134z" />
    <glyph glyph-name="uni0629" unicode="&#x629;" horiz-adv-x="1020" arabic-form="isolated" 
d="M522 36q-103 0 -196 44q-170 77 -170 263q0 158 153 351q71 81 148 148l-77 74l80 80q65 -57 188 -194q111 -129 176.5 -251t65.5 -208q0 -185 -157 -262q-97 -45 -211 -45zM526 762q-66 -59 -120.5 -120.5t-101 -145.5t-46.5 -152q0 -106 112 -158h-1q59 -31 153 -31
q99 0 159 30q53 29 79.5 63.5t26.5 89.5q0 133 -261 424zM283 1228l-134 133l132 133l134 -134zM639 1226l-134 134l132 132l133 -134z" />
    <glyph glyph-name="uni062A" unicode="&#x62a;" horiz-adv-x="1948" arabic-form="isolated" 
d="M979 40q-338 4 -561 81q-91 38 -159.5 92.5t-98.5 116.5q-38 68 -38 160q0 79 37 182q28 73 62 126l52.5 -40t40.5 -31q-1 -1 -48 -101q-29 -73 -29 -135q0 -54 25 -107q61 -106 248.5 -166t468.5 -60q186 0 396 44t383 138q-7 80 -40.5 174.5t-63.5 151.5t-62 109l99 64
q179 -306 179 -481q0 -76 -96 -140h1q-132 -77 -369 -128.5t-427 -49.5zM826 858l-134 133l132 133l134 -134zM1182 856l-134 134l132 132l133 -134z" />
    <glyph glyph-name="uni062B" unicode="&#x62b;" horiz-adv-x="1964" arabic-form="isolated" 
d="M986 40q-338 4 -561 81q-91 38 -159.5 92.5t-98.5 116.5q-38 68 -38 160q0 79 37 182q28 73 62 126l52.5 -40t40.5 -31q-1 -1 -48 -101q-29 -73 -29 -135q0 -54 25 -107q61 -106 248.5 -166t468.5 -60q186 0 396 44t383 138q-7 80 -40.5 174.5t-63.5 151.5t-62 109l99 64
q179 -306 179 -481q0 -76 -96 -140h1q-132 -77 -369 -128.5t-427 -49.5zM1204 1101l134 -134l-132 -132l-134 134zM798 1103l134 -134l-132 -133l-134 134zM1005 1374l133 -133l-132 -132l-133 133z" />
    <glyph glyph-name="uni062C" unicode="&#x62c;" horiz-adv-x="1647" arabic-form="isolated" 
d="M874 -630q276 0 510 157l67 -96q-288 -189 -607 -189q-195 0 -356.5 69t-260 205.5t-96.5 316.5q0 134 57 253.5t162.5 211t247.5 157t319.5 98t371.5 27.5q-56 32 -143 94.5t-147 104t-156.5 77t-200.5 39.5q-81 0 -176 -58.5t-154 -136.5q-12 7 -19 12t-27 18.5
t-49 33.5q73 110 191.5 180.5t258.5 70.5q109 0 221 -45t192 -102t194.5 -138.5t197.5 -126.5l-33 -138l-169 2q-189 10 -373.5 -35.5t-323.5 -129t-229 -200.5t-100 -242q-1 -97 33.5 -178.5t94.5 -138.5t141 -96.5t172 -58t189 -18.5zM892 -221l-134 134l133 133l134 -134
z" />
    <glyph glyph-name="uni062D" unicode="&#x62d;" horiz-adv-x="1596" arabic-form="isolated" 
d="M868 -630q276 0 510 157l67 -96q-288 -189 -607 -189q-195 0 -356.5 69t-260 205.5t-96.5 316.5q0 134 57 253.5t162.5 211t247.5 157t319.5 98t371.5 27.5q-56 32 -143 94.5t-147 104t-156.5 77t-200.5 39.5q-81 0 -176 -58.5t-154 -136.5q-12 7 -19 12t-27 18.5
t-49 33.5q73 110 191.5 180.5t258.5 70.5q109 0 221 -45t192 -102t194.5 -138.5t197.5 -126.5l-33 -138l-169 2q-189 10 -373.5 -35.5t-323.5 -129t-229 -200.5t-100 -242q-1 -97 33.5 -178.5t94.5 -138.5t141 -96.5t172 -58t189 -18.5z" />
    <glyph glyph-name="uni062E" unicode="&#x62e;" horiz-adv-x="1633" arabic-form="isolated" 
d="M868 -630q276 0 510 157l67 -96q-288 -189 -607 -189q-195 0 -356.5 69t-260 205.5t-96.5 316.5q0 134 57 253.5t162.5 211t247.5 157t319.5 98t371.5 27.5q-56 32 -143 94.5t-147 104t-156.5 77t-200.5 39.5q-81 0 -176 -58.5t-154 -136.5q-12 7 -19 12t-27 18.5
t-49 33.5q73 110 191.5 180.5t258.5 70.5q109 0 221 -45t192 -102t194.5 -138.5t197.5 -126.5l-33 -138l-169 2q-189 10 -373.5 -35.5t-323.5 -129t-229 -200.5t-100 -242q-1 -97 33.5 -178.5t94.5 -138.5t141 -96.5t172 -58t189 -18.5zM609 1229l-134 134l133 133l134 -134
z" />
    <glyph glyph-name="uni062F" unicode="&#x62f;" horiz-adv-x="1127" arabic-form="isolated" 
d="M545 41q-81 0 -206.5 33t-187.5 71l52 117q78 -42 182 -70t199 -28q184 0 266 101q33 40 33 101q0 70 -49.5 164t-122 179t-149 155.5t-135.5 106.5l56 104q89 -58 176.5 -139t163 -176.5t122.5 -203.5t47 -204q0 -93 -51 -160q-85 -102 -237 -135q-64 -16 -159 -16z" />
    <glyph glyph-name="uni0630" unicode="&#x630;" horiz-adv-x="1138" arabic-form="isolated" 
d="M545 41q-81 0 -206.5 33t-187.5 71l52 117q78 -42 182 -70t199 -28q184 0 266 101q33 40 33 101q0 70 -49.5 164t-122 179t-149 155.5t-135.5 106.5l56 104q89 -58 176.5 -139t163 -176.5t122.5 -203.5t47 -204q0 -93 -51 -160q-85 -102 -237 -135q-64 -16 -159 -16z
M463 1331l-134 134l133 133l134 -134z" />
    <glyph glyph-name="uni0631" unicode="&#x631;" horiz-adv-x="717" arabic-form="isolated" 
d="M468 600q111 -372 111 -510q0 -116 -49.5 -228.5t-136 -207.5t-191 -173.5t-226.5 -142.5l-51 104q109 57 202.5 126.5t170.5 151.5t121 178t44 192q0 46 -5.5 93t-21.5 108t-23 86.5t-32 103t-27 83.5z" />
    <glyph glyph-name="uni0632" unicode="&#x632;" horiz-adv-x="722" arabic-form="isolated" 
d="M468 600q111 -372 111 -510q0 -116 -49.5 -228.5t-136 -207.5t-191 -173.5t-226.5 -142.5l-51 104q109 57 202.5 126.5t170.5 151.5t121 178t44 192q0 46 -5.5 93t-21.5 108t-23 86.5t-32 103t-27 83.5zM399 924l-134 134l133 133l134 -134z" />
    <glyph glyph-name="uni0633" unicode="&#x633;" horiz-adv-x="2654" arabic-form="isolated" 
d="M2412 869q131 -262 131 -454q-2 -167 -75 -267.5t-225 -104.5q-83 -2 -147 41.5t-101 123.5q-50 -82 -124.5 -122t-158.5 -44q-96 -1 -176 45q-34 18 -61 47v-90q0 -136 -40.5 -249.5t-110.5 -191.5t-164 -131t-200 -75t-219 -16q-255 0 -408 140q-91 82 -138.5 205.5
t-47.5 260.5q0 268 154 525q12 -10 27 -20t34 -22t29 -19q-55 -98 -90 -228.5t-35 -248.5q0 -442 472 -474q323 14 471 145t148 389q0 29 -3 59.5t-5.5 54t-11 57.5t-12 51t-17 54t-16.5 48t-20.5 52t-19.5 46t-22 50t-20 46q22 13 54 30.5t48 26.5q1 -4 8 -20l37 -83
q30 -70 62 -125.5t74.5 -107.5t97 -81t115.5 -30q69 4 114 35.5t69 93.5t33 138.5t9 189.5l114 8q6 -172 24 -255q47 -218 181 -219q82 0 131.5 83.5t45.5 194.5q-9 169 -116 377z" />
    <glyph glyph-name="uni0634" unicode="&#x634;" horiz-adv-x="2681" arabic-form="isolated" 
d="M2412 869q131 -262 131 -454q-2 -167 -75 -267.5t-225 -104.5q-83 -2 -147 41.5t-101 123.5q-50 -82 -124.5 -122t-158.5 -44q-96 -1 -176 45q-34 18 -61 47v-90q0 -136 -40.5 -249.5t-110.5 -191.5t-164 -131t-200 -75t-219 -16q-255 0 -408 140q-91 82 -138.5 205.5
t-47.5 260.5q0 268 154 525q12 -10 27 -20t34 -22t29 -19q-55 -98 -90 -228.5t-35 -248.5q0 -442 472 -474q323 14 471 145t148 389q0 29 -3 59.5t-5.5 54t-11 57.5t-12 51t-17 54t-16.5 48t-20.5 52t-19.5 46t-22 50t-20 46q22 13 54 30.5t48 26.5q1 -4 8 -20l37 -83
q30 -70 62 -125.5t74.5 -107.5t97 -81t115.5 -30q69 4 114 35.5t69 93.5t33 138.5t9 189.5l114 8q6 -172 24 -255q47 -218 181 -219q82 0 131.5 83.5t45.5 194.5q-9 169 -116 377zM2098 1275l134 -134l-132 -132l-134 134zM1692 1277l134 -134l-132 -133l-134 134z
M1899 1548l133 -133l-132 -132l-133 133z" />
    <glyph glyph-name="uni0635" unicode="&#x635;" horiz-adv-x="2867" arabic-form="isolated" 
d="M1285 -463q-100 -86 -257.5 -123t-320 -17.5t-279.5 89.5q-108 63 -171 185v-1q-52 116 -51.5 264t38.5 281.5t103 256.5q10 -6 98 -64q-37 -70 -65.5 -155.5t-46 -179.5t-11 -187.5t40.5 -163.5q90 -179 385 -209q130 -15 257 15t203 100q171 161 171 415
q0 215 -115 531l109 42q55 -130 108 -219q33 -50 76.5 -90.5t80.5 -62.5q42 77 97 154t129 153.5t153 134.5t173 94.5t186 36.5q101 0 193 -46t149.5 -132t52.5 -189q-6 -95 -59.5 -182t-136.5 -146v1q-198 -117 -478 -117q-175 0 -313.5 45t-292.5 151q7 -89 1.5 -181.5
t-23 -174t-64 -162.5t-120.5 -148v1zM1738 196q168 -72 366 -72q108 0 218 25.5t187 71.5q66 45 109 105.5t49 129.5q5 70 -40 126.5t-111.5 85t-135.5 31.5q-95 -1 -194 -48.5t-181.5 -123t-150 -159.5t-116.5 -172z" />
    <glyph glyph-name="uni0636" unicode="&#x636;" horiz-adv-x="2894" arabic-form="isolated" 
d="M1285 -463q-100 -86 -257.5 -123t-320 -17.5t-279.5 89.5q-108 63 -171 185v-1q-52 116 -51.5 264t38.5 281.5t103 256.5q10 -6 98 -64q-37 -70 -65.5 -155.5t-46 -179.5t-11 -187.5t40.5 -163.5q90 -179 385 -209q130 -15 257 15t203 100q171 161 171 415
q0 215 -115 531l109 42q55 -130 108 -219q33 -50 76.5 -90.5t80.5 -62.5q42 77 97 154t129 153.5t153 134.5t173 94.5t186 36.5q101 0 193 -46t149.5 -132t52.5 -189q-6 -95 -59.5 -182t-136.5 -146v1q-198 -117 -478 -117q-175 0 -313.5 45t-292.5 151q7 -89 1.5 -181.5
t-23 -174t-64 -162.5t-120.5 -148v1zM1738 196q168 -72 366 -72q108 0 218 25.5t187 71.5q66 45 109 105.5t49 129.5q5 70 -40 126.5t-111.5 85t-135.5 31.5q-95 -1 -194 -48.5t-181.5 -123t-150 -159.5t-116.5 -172zM2274 1117l-134 134l133 133l134 -134z" />
    <glyph glyph-name="uni0637" unicode="&#x637;" horiz-adv-x="1776" arabic-form="isolated" 
d="M856 40q-73 0 -126 4h-3q-293 19 -583 124l42 109q119 -43 253 -76q72 106 163 223q19 133 19 310q0 118 -25.5 411t-38.5 361l114 25q0 -2 15 -142t24.5 -244t19.5 -270.5t10 -299.5q302 319 568 319q87 0 164.5 -31t132.5 -97t60 -156q6 -90 -35 -183.5t-96 -148.5
q-69 -69 -160 -118t-184.5 -74t-174.5 -35.5t-159 -10.5zM566 176q23 -2 85 -9t109 -9.5t100 -1.5q70 0 115 2t117 12t127 29.5t120 58t120 92.5q47 47 79.5 118.5t21.5 130.5q-17 87 -89 131t-162 44q-74 0 -151 -29.5t-149.5 -84t-128 -106t-120.5 -121.5z" />
    <glyph glyph-name="uni0638" unicode="&#x638;" horiz-adv-x="1787" arabic-form="isolated" 
d="M856 40q-73 0 -126 4h-3q-293 19 -583 124l42 109q119 -43 253 -76q72 106 163 223q19 133 19 310q0 118 -25.5 411t-38.5 361l114 25q0 -2 15 -142t24.5 -244t19.5 -270.5t10 -299.5q302 319 568 319q87 0 164.5 -31t132.5 -97t60 -156q6 -90 -35 -183.5t-96 -148.5
q-69 -69 -160 -118t-184.5 -74t-174.5 -35.5t-159 -10.5zM566 176q23 -2 85 -9t109 -9.5t100 -1.5q70 0 115 2t117 12t127 29.5t120 58t120 92.5q47 47 79.5 118.5t21.5 130.5q-17 87 -89 131t-162 44q-74 0 -151 -29.5t-149.5 -84t-128 -106t-120.5 -121.5zM1299 1205
l-134 134l133 133l134 -134z" />
    <glyph glyph-name="uni0639" unicode="&#x639;" horiz-adv-x="1477" arabic-form="isolated" 
d="M828 -755q-153 0 -296.5 52.5t-250.5 167.5q-141 153 -141 372q0 212 142 393v-1q63 77 157.5 146t194.5 111l97 32q-64 25 -109.5 63t-69.5 83t-34.5 89t-10.5 91q0 155 116 268t273 121q93 4 189.5 -36.5t175.5 -109.5l-74 -92q-37 34 -89 65q-109 62 -199 56
q-124 -10 -208.5 -89.5t-75.5 -202.5q5 -61 38.5 -106.5t86.5 -69.5t109.5 -35t118.5 -11q59 0 105 7q153 20 199 40l18 -130q-29 -5 -99.5 -17.5t-115.5 -19.5q-167 -28 -264.5 -58.5t-197.5 -78.5q-39 -20 -77 -45.5t-88.5 -71.5t-89 -99t-67 -129t-33.5 -160
q0 -110 47.5 -200.5t128 -147.5t183 -88t215.5 -31q274 0 479 151l70 -101q-247 -178 -553 -178z" />
    <glyph glyph-name="uni063A" unicode="&#x63a;" horiz-adv-x="1477" arabic-form="isolated" 
d="M828 -755q-153 0 -296.5 52.5t-250.5 167.5q-141 153 -141 372q0 212 142 393v-1q63 77 157.5 146t194.5 111l97 32q-64 25 -109.5 63t-69.5 83t-34.5 89t-10.5 91q0 155 116 268t273 121q93 4 189.5 -36.5t175.5 -109.5l-74 -92q-37 34 -89 65q-109 62 -199 56
q-124 -10 -208.5 -89.5t-75.5 -202.5q5 -61 38.5 -106.5t86.5 -69.5t109.5 -35t118.5 -11q59 0 105 7q153 20 199 40l18 -130q-29 -5 -99.5 -17.5t-115.5 -19.5q-167 -28 -264.5 -58.5t-197.5 -78.5q-39 -20 -77 -45.5t-88.5 -71.5t-89 -99t-67 -129t-33.5 -160
q0 -110 47.5 -200.5t128 -147.5t183 -88t215.5 -31q274 0 479 151l70 -101q-247 -178 -553 -178zM888 1432l-134 134l133 133l134 -134z" />
    <glyph glyph-name="uni0641" unicode="&#x641;" horiz-adv-x="1953" arabic-form="isolated" 
d="M1684 987q69 -78 115 -203.5t46 -259.5q0 -104 -19 -162q-25 -68 -72 -121t-113 -87.5t-140 -57.5t-168.5 -35t-182 -16.5t-195.5 -4.5q-583 0 -750 285q-61 103 -61 233q0 155 52 259l104 -58q-38 -90 -38 -200q0 -92 46 -175q129 -207 616 -227q29 -1 85 -1
q623 0 726 263q-100 -21 -182 -21q-211 0 -316 117q-53 59 -53 166q0 66 20.5 137.5t56.5 133t92.5 101t120.5 39.5q116 0 210 -105zM1734 532q-3 95 -28.5 185.5t-84 165.5t-139.5 92q-34 4 -80.5 -37.5t-81.5 -109.5t-35 -130q0 -71 30 -111q63 -80 236 -80q90 0 183 25z
M1483 1332l-134 134l133 133l134 -134z" />
    <glyph glyph-name="uni0642" unicode="&#x642;" horiz-adv-x="1592" arabic-form="isolated" 
d="M1064 41q-201 17 -292 127q-61 84 -61 183q0 89 33.5 182t83.5 158q85 113 201 113q122 0 231 -117v1q83 -91 130 -231t47 -291q0 -52 -4 -93q3 -5 -2.5 -50t-28.5 -126t-61 -154q-81 -154 -202 -235q-155 -107 -374 -107q-192 0 -329 72q-151 72 -225 206
q-85 137 -85 318q0 27 3 59q17 215 130 436l105 -56q-119 -235 -119 -438q0 -144 66 -258q63 -105 179 -162t270 -59q11 -1 39 -1q100 0 188.5 42.5t153 115.5t109.5 165.5t66 196.5zM1027 685q-45 -4 -85.5 -41.5t-66 -89.5t-40 -105.5t-14.5 -93.5q0 -71 33 -111
q59 -71 216 -86q40 -3 114 -3q95 0 138 5q-6 144 -48.5 262t-101.5 186q-77 77 -143 77h-2zM825 1034l-134 133l132 133l134 -134zM1181 1032l-134 134l132 132l133 -134z" />
    <glyph glyph-name="uni0643" unicode="&#x643;" horiz-adv-x="1996" arabic-form="isolated" 
d="M1836 508q-2 -99 -44 -181q-70 -133 -263 -213h1q-235 -85 -559 -85q-338 4 -561 82q-144 61 -220 149.5t-76 219.5q0 66 30.5 160t68.5 148q12 -9 31.5 -23.5t33.5 -25.5t27 -23q-31 -49 -52 -115.5t-21 -119.5q0 -90 57.5 -156t161.5 -103.5t233 -55.5t287 -18
q335 0 514 73q151 61 204 163q29 55 31 133l-17 433q-10 285 -31 506q25 2 62.5 6t53.5 6q23 -251 34 -515v1zM1103 886q-32 5 -51 5q-37 0 -66 -13q-35 -14 -56 -44.5t-21 -66.5q0 -18 8 -40q17 -35 56 -61t81 -26q19 0 45 8q58 20 133 69l49 -62l-449 -250l-44 63l191 107
q-108 56 -135 121q-13 37 -13 71q0 59 34.5 109t91.5 74q47 19 95 19q39 0 109 -16l-25 -71z" />
    <glyph glyph-name="uni0644" unicode="&#x644;" horiz-adv-x="1440" arabic-form="isolated" 
d="M311 321q-25 -54 -50 -129q-50 -154 -50 -274q0 -84 29 -154.5t74 -116.5t102 -79.5t110.5 -48.5t102.5 -18h-1q9 -1 33 -1q55 0 111.5 12t113 36t105 64t86.5 92t59.5 124.5t21.5 157.5q0 248 -19.5 765.5t-31.5 729.5q5 0 116 7q21 -478 25 -593q26 -646 26 -909
q0 -130 -39.5 -235.5t-101.5 -172t-144 -112t-162 -64t-160 -18.5q-22 0 -34 1q-71 4 -143 24t-144.5 62t-128 101.5t-89.5 149t-33 196.5q3 268 109 451z" />
    <glyph glyph-name="uni0645" unicode="&#x645;" horiz-adv-x="1178" arabic-form="isolated" 
d="M137 198q0 37 14.5 85t50.5 73q36 30 91 30q40 0 104 -20q32 96 74 181q56 106 118 170q88 88 190 84q146 -6 231 -115v1q64 -94 77 -231v1q1 -15 1 -42q0 -109 -37 -198q-24 -59 -63 -97t-85 -48h1q-44 -6 -118 17.5t-227 85.5v-1q-157 64 -224 86h-2q-2 1 -4 1
q-44 13 -63 1q-9 -11 -10.5 -19.5t-1.5 -40.5l34 -893h-116zM603 284q59 -26 173 -69q79 -26 107 -28q62 43 84.5 145t2.5 180q-12 44 -33.5 77.5t-43.5 51t-47 28t-41.5 13t-30.5 2.5q-46 0 -99.5 -51.5t-98.5 -140.5q-18 -33 -72 -170l100 -39z" />
    <glyph glyph-name="uni0646" unicode="&#x646;" horiz-adv-x="1592" arabic-form="isolated" 
d="M767 -648q-292 6 -456 160.5t-164 435.5q0 138 42 286t106 258l96 -70q-46 -77 -85.5 -211.5t-39.5 -268.5q0 -62 12.5 -121t47.5 -122t89 -110.5t145.5 -80t208.5 -37.5q270 0 429.5 146t159.5 387q0 147 -45.5 282.5t-99.5 225.5q22 14 56.5 36.5t48.5 31.5
q159 -283 159 -571q0 -297 -188 -477.5t-488 -180.5q-5 0 -16.5 0.5t-17.5 0.5zM819 509l-134 134l133 133l134 -134z" />
    <glyph glyph-name="uni0647" unicode="&#x647;" horiz-adv-x="974" arabic-form="isolated" 
d="M485 36q-103 0 -196 44q-170 77 -170 263q0 158 153 351q71 81 148 148l-77 74l80 80q65 -57 188 -194q111 -129 176.5 -251t65.5 -208q0 -185 -157 -262q-97 -45 -211 -45zM489 762q-66 -59 -120.5 -120.5t-101 -145.5t-46.5 -152q0 -106 112 -158h-1q59 -31 153 -31
q99 0 159 30q53 29 79.5 63.5t26.5 89.5q0 133 -261 424z" />
    <glyph glyph-name="uni0648" unicode="&#x648;" horiz-adv-x="1051" arabic-form="isolated" 
d="M518 690q-52 0 -104.5 -54t-84.5 -130.5t-32 -143.5q0 -73 40 -118q16 -17 36.5 -31t36 -23t43 -15.5t40 -9.5t46 -5t40.5 -2h44h38q90 0 150 6q-6 144 -48.5 260t-102.5 188q-71 78 -142 78zM124 -541q146 34 270.5 97.5t210 142t138 166.5t64.5 175h-101q-16 -1 -48 -1
q-126 0 -237.5 32.5t-162.5 103.5q-62 88 -62 188q2 63 25 138t62 144t101.5 115.5t133.5 46.5q124 0 231 -116v1q84 -91 131.5 -230t47.5 -292q0 -158 -63.5 -301t-170.5 -248.5t-247 -177.5t-294 -99z" />
    <glyph glyph-name="uni0649" unicode="&#x649;" horiz-adv-x="1733" arabic-form="isolated" 
d="M1379 792q51 11 100 11q96 0 191 -33q-5 -12 -19.5 -39.5t-34.5 -71.5q-40 13 -101 18.5t-110 -5.5h2q-81 -8 -170 -74.5t-149.5 -164t-60.5 -186.5q0 -39 11 -73q11 -33 36 -58t65.5 -42t72.5 -26.5t87 -22.5h-1l58 -14.5t55 -17t53.5 -22t44.5 -28t37.5 -37.5
t22.5 -47.5t9 -60.5q0 -25 -6 -61v1q-36 -183 -252 -291q-215 -110 -535 -110q-360 0 -543 200v-1q-127 152 -127 364q0 46 6 95v-1q34 246 138 562l116 -43q-92 -283 -131 -532q-5 -38 -5 -81q0 -72 24 -147.5t72 -133.5q151 -157 450 -157q289 0 471 90t195 212
q5 51 -50 83t-147 54q-40 11 -58.5 16.5t-58.5 18.5t-62 24t-54 29.5t-50 38t-34.5 46.5t-22.5 58q-10 44 -10 96q0 194 139.5 358t335.5 206z" />
    <glyph glyph-name="uni064A" unicode="&#x64a;" horiz-adv-x="1781" arabic-form="isolated" 
d="M1379 792q51 11 100 11q96 0 191 -33q-5 -12 -19.5 -39.5t-34.5 -71.5q-40 13 -101 18.5t-110 -5.5h2q-81 -8 -170 -74.5t-149.5 -164t-60.5 -186.5q0 -39 11 -73q11 -33 36 -58t65.5 -42t72.5 -26.5t87 -22.5h-1l58 -14.5t55 -17t53.5 -22t44.5 -28t37.5 -37.5
t22.5 -47.5t9 -60.5q0 -25 -6 -61v1q-36 -183 -252 -291q-215 -110 -535 -110q-360 0 -543 200v-1q-127 152 -127 364q0 46 6 95v-1q34 246 138 562l116 -43q-92 -283 -131 -532q-5 -38 -5 -81q0 -72 24 -147.5t72 -133.5q151 -157 450 -157q289 0 471 90t195 212
q5 51 -50 83t-147 54q-40 11 -58.5 16.5t-58.5 18.5t-62 24t-54 29.5t-50 38t-34.5 46.5t-22.5 58q-10 44 -10 96q0 194 139.5 358t335.5 206zM627 -1124l-134 133l132 133l134 -134zM983 -1126l-134 134l132 132l133 -134z" />
    <glyph glyph-name="uni066E.init" unicode="&#x66e;" horiz-adv-x="700" 
d="M-65 98q0 25 17 41.5t41 16.5h148q64 0 117 10.5t102.5 35.5t77.5 73.5t28 117.5q0 98 -45 241q-8 26 -22 60t-30 71t-21 51q61 30 107 54q47 -106 77 -200q51 -162 51 -275q0 -82 -26 -145v1q-70 -146 -228 -191q-72 -20 -190 -20h-146q-24 0 -41 16.5t-17 41.5z" />
    <glyph glyph-name="uni066E.medi" unicode="&#x66e;" horiz-adv-x="705" 
d="M-54 98q0 24 16.5 41t41.5 17h17q188 0 277 68t89 208q0 83 -35 218q31 7 112 33q38 -142 43 -268q2 -55 6 -90.5t16 -70.5t33 -54.5t56.5 -31.5t85.5 -12q24 0 41.5 -17t17.5 -41t-17 -41t-41 -17q-160 0 -270 144q-150 -144 -414 -144h-17q-25 0 -41.5 16.5t-16.5 41.5
z" />
    <glyph glyph-name="uni066E.fina" unicode="&#x66e;" horiz-adv-x="2316" 
d="M1955 188q-38 48 -78 159q-298 -310 -849 -310q-299 2 -487.5 69t-271.5 206q-61 101 -61 233q0 73 17 138q25 100 56 168q7 -4 19 -11t32.5 -18.5t52.5 -29.5q-63 -140 -63 -235t45 -176q69 -109 238.5 -167t422.5 -58q453 0 660 171l-1 -1q80 64 127 147.5t81 189.5
l114 -33q-26 -76 -26 -172q6 -124 64 -197q90 -105 269 -105q25 0 42 -16.5t17 -41.5t-17 -41.5t-42 -16.5h-8q-238 4 -353 148z" />
    <glyph glyph-name="uni066F.init" unicode="&#x66f;" horiz-adv-x="895" 
d="M428 967q-47 0 -112 -66.5t-83 -170.5q-4 -15 -4 -45q0 -65 31 -99h-1q23 -29 83.5 -51.5t122.5 -26.5q23 -2 97 -2q72 0 130 6q-8 119 -47 223.5t-94 166.5q-61 65 -123 65zM-61 98q0 25 17.5 41.5t42.5 16.5q292 0 450 51t249 181h-192q-98 0 -183.5 32.5t-132.5 88.5
q-23 21 -37 72.5t-14 107.5q0 25 5 57q26 143 99 236q79 103 185 103q114 0 210 -105q76 -84 119 -209t43 -260q0 -479 -786 -471h-17q-24 0 -41 17t-17 41z" />
    <glyph glyph-name="uni066F.medi" unicode="&#x66f;" horiz-adv-x="1019" 
d="M508 781q-35 0 -74 -17.5t-75.5 -50.5t-60 -88t-23.5 -122q0 -68 67.5 -154.5t176.5 -119.5q91 40 143.5 119t52.5 158q0 102 -67 188.5t-140 86.5zM-58 98q0 25 16.5 41.5t41.5 16.5q186 0 379 26q-63 28 -112 89t-71.5 121.5t-22.5 107.5q0 94 43 183t121.5 149.5
t171.5 65.5q141 -12 226.5 -119.5t85.5 -248.5q0 -170 -155 -336q173 -38 352 -38q26 0 42.5 -16.5t16.5 -41.5t-16.5 -41.5t-42.5 -16.5h-9q-140 0 -255 18q-133 21 -232 55q-192 -73 -514 -73h-8q-25 0 -41.5 16.5t-16.5 41.5z" />
    <glyph glyph-name="uni066F.fina" unicode="&#x66f;" horiz-adv-x="1570" 
d="M1022 688q-55 0 -110 -69l1 1q-72 -87 -96 -212q-4 -25 -4 -55q0 -71 34 -112q61 -67 214 -81q85 -4 171 -4h83q-6 148 -48 267.5t-102 187.5q-70 77 -143 77zM1232 37q-76 0 -177 6q-199 17 -292 128l1 -1q-60 83 -60 184q0 28 8 78q23 151 108 260q90 114 202 114
q127 0 230 -115q77 -89 125.5 -231.5t54.5 -300.5q12 0 64.5 -1.5t74.5 -1.5q24 0 41.5 -17t17.5 -41t-17.5 -41t-41.5 -17h-9h-139q-28 -170 -90 -293q-80 -151 -202 -237h1q-155 -107 -375 -107q-193 0 -330 73q-143 69 -225 205q-83 140 -83 322q0 19 2 57v-1
q19 204 131 437l104 -56q-119 -243 -119 -438q0 -146 66 -258q135 -222 454 -222q317 0 468 273q49 91 81 242h-74z" />
    <glyph glyph-name="uni0671" unicode="&#x671;" horiz-adv-x="573" arabic-form="isolated" 
d="M238 41q18 266 18 494q0 62 -2 200q-6 190 -13 258l-4 55q-13 171 -28 286q38 6 70 6q30 2 45 5q29 -223 44 -511q5 -140 5 -280q0 -256 -18 -518zM-56 1549q28 15 50 21q54 18 78 14q26 -5 58 -33l18 -19q50 92 95 137q60 58 135 69h-1q13 4 35 4q61 0 101 -43
q39 -39 34 -89q-3 -57 -51 -101q-69 -57 -222 -57q-129 0 -185 62h1l-4 3v-1q-3 2 -9 6.5t-10 6.5t-9 2q-35 0 -108 -35l-9 47zM276 1509q123 0 184 46q28 25 31 59q0 31 -16 42q-33 37 -89 27q-61 -12 -105 -56q-45 -45 -79 -113z" />
    <glyph glyph-name="uni0679" unicode="&#x679;" horiz-adv-x="1970" arabic-form="isolated" 
d="M993 40q-338 4 -561 81q-91 38 -159.5 92.5t-98.5 116.5q-38 68 -38 160q0 79 37 182q28 73 62 126l52.5 -40t40.5 -31q-1 -1 -48 -101q-29 -73 -29 -135q0 -54 25 -107q61 -106 248.5 -166t468.5 -60q186 0 396 44t383 138q-7 80 -40.5 174.5t-63.5 151.5t-62 109l99 64
q179 -306 179 -481q0 -76 -96 -140h1q-132 -77 -369 -128.5t-427 -49.5zM1258 891l1 2q16 36 7 65q-10 33 -45 50q-20 10 -46 10q-13 0 -24 -3q-31 -8 -65 -27q-85 -45 -151 -130l-63 -81q59 -6 100 -6q73 0 115 8q58 12 104 41q49 31 67 71zM1337 956l1 -3q2 -60 -35 -114
q-31 -44 -81 -76q-98 -60 -245 -60h-26q-143 4 -283 55l-5 2l32 62q62 -22 104 -32l61 82v2q0 5 1 12t1 23l3 53q1 106 -18 276l-14 103l74 18q24 -188 29 -262q4 -53 4 -138q44 42 92 74q61 40 111 50q15 3 31 3q53 0 99 -29q54 -35 63 -93q1 -1 1 -8z" />
    <glyph glyph-name="uni067E" unicode="&#x67e;" horiz-adv-x="1964" arabic-form="isolated" 
d="M992 40q-338 4 -561 81q-91 38 -159.5 92.5t-98.5 116.5q-38 68 -38 160q0 79 37 182q28 73 62 126l52.5 -40t40.5 -31q-1 -1 -48 -101q-29 -73 -29 -135q0 -54 25 -107q61 -106 248.5 -166t468.5 -60q186 0 396 44t383 138q-7 80 -40.5 174.5t-63.5 151.5t-62 109l99 64
q179 -306 179 -481q0 -76 -96 -140h1q-132 -77 -369 -128.5t-427 -49.5zM1343 -307l-134 -134l-132 132l134 134zM937 -309l-134 -134l-132 133l134 134zM1149 -578l-134 -134l-132 132l134 134z" />
    <glyph glyph-name="uni0686" unicode="&#x686;" horiz-adv-x="1670" arabic-form="isolated" 
d="M883 -630q276 0 510 157l67 -96q-288 -189 -607 -189q-195 0 -356.5 69t-260 205.5t-96.5 316.5q0 134 57 253.5t162.5 211t247.5 157t319.5 98t371.5 27.5q-56 32 -143 94.5t-147 104t-156.5 77t-200.5 39.5q-81 0 -176 -58.5t-154 -136.5q-12 7 -19 12t-27 18.5
t-49 33.5q73 110 191.5 180.5t258.5 70.5q109 0 221 -45t192 -102t194.5 -138.5t197.5 -126.5l-33 -138l-169 2q-189 10 -373.5 -35.5t-323.5 -129t-229 -200.5t-100 -242q-1 -97 33.5 -178.5t94.5 -138.5t141 -96.5t172 -58t189 -18.5zM1237 4l-129 -129l-127 127l129 129z
M846 2l-129 -129l-127 128l129 129zM1050 -257l-129 -129l-127 127l129 129z" />
    <glyph glyph-name="uni0688" unicode="&#x688;" horiz-adv-x="1149" arabic-form="isolated" 
d="M553 41q-81 0 -206.5 33t-187.5 71l52 117q78 -42 182 -70t199 -28q184 0 266 101q33 40 33 101q0 70 -49.5 164t-122 179t-149 155.5t-135.5 106.5l56 104q89 -58 176.5 -139t163 -176.5t122.5 -203.5t47 -204q0 -93 -51 -160q-85 -102 -237 -135q-64 -16 -159 -16z
M725 1482l1 2q16 36 7 65q-10 33 -45 50q-20 10 -46 10q-14 0 -24 -3q-31 -8 -65 -27q-85 -45 -151 -130l-63 -81q58 -6 100 -6q73 0 115 8q58 12 104 41q49 31 67 71zM804 1547l1 -3q2 -60 -35 -114q-31 -44 -81 -76q-97 -60 -245 -60h-26q-143 4 -283 55l-5 2l32 62
q62 -22 104 -32l61 82v2q0 5 1 12t1 23l3 53q2 107 -18 276l-14 103l74 18q24 -188 29 -262q4 -53 4 -138q44 42 92 74q61 40 111 50q15 3 31 3q53 0 99 -29q54 -34 63 -93q1 -1 1 -8z" />
    <glyph glyph-name="uni0691" unicode="&#x691;" horiz-adv-x="864" arabic-form="isolated" 
d="M468 600q111 -372 111 -510q0 -116 -49.5 -228.5t-136 -207.5t-191 -173.5t-226.5 -142.5l-51 104q109 57 202.5 126.5t170.5 151.5t121 178t44 192q0 46 -5.5 93t-21.5 108t-23 86.5t-32 103t-27 83.5zM643 993l1 2q16 36 7 65q-10 33 -45 50q-20 10 -46 10
q-14 0 -24 -3q-31 -8 -65 -27q-85 -45 -151 -130l-63 -81q59 -6 100 -6q73 0 115 8q58 12 104 41q49 31 67 71zM722 1058l1 -3q2 -60 -35 -114q-31 -44 -81 -76q-97 -60 -245 -60h-26q-143 4 -283 55l-5 2l32 62q62 -22 104 -32l61 82v2q0 5 1 12t1 23l3 53q2 106 -18 276
l-14 103l74 18q24 -188 29 -262q4 -53 4 -138q44 42 92 74q61 40 111 50q15 3 31 3q53 0 99 -29q54 -35 63 -93q1 -1 1 -8z" />
    <glyph glyph-name="uni0698" unicode="&#x698;" horiz-adv-x="930" arabic-form="isolated" 
d="M576 570q111 -372 111 -510q0 -116 -49.5 -228.5t-136 -207.5t-191 -173.5t-226.5 -142.5l-51 104q109 57 202.5 126.5t170.5 151.5t121 178t44 192q0 46 -5.5 93t-21.5 108t-23 86.5t-32 103t-27 83.5zM677 1105l134 -134l-132 -132l-134 134zM271 1107l134 -134
l-132 -133l-134 134zM478 1378l133 -133l-132 -132l-133 133z" />
    <glyph glyph-name="uni06A9" unicode="&#x6a9;" horiz-adv-x="2059" arabic-form="isolated" 
d="M1297 1158q70 -59 114 -96.5t107.5 -96t103.5 -101t86 -98.5t71.5 -102t43 -98.5t17.5 -100.5q0 -68 -7 -95q-32 -136 -231 -236q-210 -92 -538 -92q-59 0 -88 1q-347 8 -561 79q-85 37 -157 94.5t-101 115.5q-38 71 -38 159q0 80 37 183q29 67 63 125q32 -24 95 -69
q-35 -62 -51 -102q-26 -73 -26 -136q0 -55 24 -106q54 -107 240.5 -165t474.5 -60q27 -3 83 -3q129 0 269 24.5t200 49.5l-1 -1q107 37 160 95t53 129q0 55 -32.5 121t-76.5 122.5t-115.5 126.5t-121 112.5t-121.5 102.5l-56 46l20 171l800 333l47 -107z" />
    <glyph glyph-name="uni06AF" unicode="&#x6af;" horiz-adv-x="2086" arabic-form="isolated" 
d="M1297 1157q70 -59 114 -96.5t107.5 -96t103.5 -101t86 -98.5t71.5 -102t43 -98.5t17.5 -100.5q0 -68 -7 -95q-32 -136 -231 -236q-210 -92 -538 -92q-59 0 -88 1q-347 8 -561 79q-85 37 -157 94.5t-101 115.5q-38 71 -38 159q0 80 37 183q29 67 63 125q32 -24 95 -69
q-35 -62 -51 -102q-26 -73 -26 -136q0 -55 24 -106q54 -107 240.5 -165t474.5 -60q27 -3 83 -3q129 0 269 24.5t200 49.5l-1 -1q107 37 160 95t53 129q0 55 -32.5 121t-76.5 122.5t-115.5 126.5t-121 112.5t-121.5 102.5l-56 46l20 171l800 333l47 -107zM1975 1751
q-721 -309 -722 -309l5 84l686 290z" />
    <glyph glyph-name="uni06BA" unicode="&#x6ba;" horiz-adv-x="1630" arabic-form="isolated" 
d="M767 -648q-292 6 -456 160.5t-164 435.5q0 138 42 286t106 258l96 -70q-46 -77 -85.5 -211.5t-39.5 -268.5q0 -62 12.5 -121t47.5 -122t89 -110.5t145.5 -80t208.5 -37.5q270 0 429.5 146t159.5 387q0 147 -45.5 282.5t-99.5 225.5q22 14 56.5 36.5t48.5 31.5
q159 -283 159 -571q0 -297 -188 -477.5t-488 -180.5q-5 0 -16.5 0.5t-17.5 0.5z" />
    <glyph glyph-name="uni06BE" unicode="&#x6be;" horiz-adv-x="1537" arabic-form="isolated" 
d="M50 202q0 23 16.5 36.5t43.5 13.5q12 0 67.5 -17t143 -34.5t177.5 -17.5q-200 177 -200 343q0 56 20 115t57.5 113.5t98.5 96t135 55.5l-143 55l61 113q3 0 311 -126q449 -195 548 -327q84 -116 84 -236q0 -90 -47.5 -165t-140.5 -125q-46 -27 -131.5 -41t-164.5 -14
q-187 0 -335 62q-45 -15 -120 -20t-193.5 8t-239.5 49q-48 15 -48 63zM790 176q36 -9 67 -14.5t56 -7.5t40 -2.5t36 0t26 0.5q165 0 256.5 70t91.5 175q0 98 -111.5 210.5t-297.5 177.5q12 -19 20.5 -38t13.5 -37.5t8.5 -33t4.5 -32.5t1.5 -26.5t0 -25t-0.5 -18.5
q0 -97 -59.5 -212.5t-152.5 -185.5zM730 824q-48 12 -107.5 -16.5t-107 -77.5t-78 -111t-24.5 -113q13 -82 74.5 -155t149.5 -121q113 45 176.5 146.5t63.5 205.5q0 90 -41.5 161t-105.5 81z" />
    <glyph glyph-name="uni06C0" unicode="&#x6c0;" horiz-adv-x="983" arabic-form="isolated" 
d="M485 36q-103 0 -196 44q-170 77 -170 263q0 158 153 351q71 81 148 148l-77 74l80 80q65 -57 188 -194q111 -129 176.5 -251t65.5 -208q0 -185 -157 -262q-97 -45 -211 -45zM489 762q-66 -59 -120.5 -120.5t-101 -145.5t-46.5 -152q0 -106 112 -158h-1q59 -31 153 -31
q99 0 159 30q53 29 79.5 63.5t26.5 89.5q0 133 -261 424zM498 1562q-40 7 -65 7q-34 0 -62 -12v2q-32 -14 -51.5 -42.5t-19.5 -61.5q0 -14 8 -36l-1 1q14 -36 50 -59t78 -23q27 0 42 7q39 12 96 46q20 11 43 29l59 -78q-37 -28 -242 -142l-227 -126l-48 87l179 100
q-83 34 -121 120q-14 37 -14 74q0 62 36.5 115.5t96.5 77.5q44 19 98 19q36 0 82 -10l38 -9l-28 -92z" />
    <glyph glyph-name="uni06C1" unicode="&#x6c1;" horiz-adv-x="1252" arabic-form="final" 
d="M1254 156q24 0 41 -17t17 -41t-17 -41t-41 -17q-64 0 -119 18.5t-104 57t-82.5 72.5t-81.5 90q-11 13 -17 20q-45 52 -72.5 81.5t-70 65.5t-84.5 52.5t-88 16.5q-49 0 -90 -14q-188 -69 -289 -436l-112 30q26 97 57 174.5t74 149t103 121t133 71.5q63 20 124 20
q52 0 101.5 -15.5t86 -36.5t79.5 -59.5t69 -67.5t67 -77q33 -39 55 -63.5t56.5 -57t64 -51.5t66.5 -32.5t74 -13.5z" />
    <glyph glyph-name="uni06C2.001" unicode="&#x6c2;" horiz-adv-x="993" 
d="M495 36q-103 0 -196 44q-170 77 -170 263q0 158 153 351q71 81 148 148l-77 74l80 80q65 -57 188 -194q111 -129 176.5 -251t65.5 -208q0 -185 -157 -262q-97 -45 -211 -45zM499 762q-66 -59 -120.5 -120.5t-101 -145.5t-46.5 -152q0 -106 112 -158h-1q59 -31 153 -31
q99 0 159 30q53 29 79.5 63.5t26.5 89.5q0 133 -261 424zM491 1556q-40 7 -65 7q-34 0 -62 -12v2q-32 -14 -51.5 -42.5t-19.5 -61.5q0 -14 8 -36l-1 1q14 -36 50 -59t78 -23q27 0 42 7q39 12 96 46q20 11 43 29l59 -78q-37 -28 -242 -142l-227 -126l-48 87l179 100
q-83 34 -121 120q-14 37 -14 74q0 62 36.5 115.5t96.5 77.5q44 19 98 19q36 0 82 -10l38 -9l-28 -92z" />
    <glyph glyph-name="uni06C3.001" unicode="&#x6c3;" horiz-adv-x="1020" 
d="M522 36q-103 0 -196 44q-170 77 -170 263q0 158 153 351q71 81 148 148l-77 74l80 80q65 -57 188 -194q111 -129 176.5 -251t65.5 -208q0 -185 -157 -262q-97 -45 -211 -45zM526 762q-66 -59 -120.5 -120.5t-101 -145.5t-46.5 -152q0 -106 112 -158h-1q59 -31 153 -31
q99 0 159 30q53 29 79.5 63.5t26.5 89.5q0 133 -261 424zM311 1216l-134 133l132 133l134 -134zM667 1214l-134 134l132 132l133 -134z" />
    <glyph glyph-name="uni06CC" unicode="&#x6cc;" horiz-adv-x="1759" arabic-form="isolated" 
d="M1379 792q51 11 100 11q96 0 191 -33q-5 -12 -19.5 -39.5t-34.5 -71.5q-40 13 -101 18.5t-110 -5.5h2q-81 -8 -170 -74.5t-149.5 -164t-60.5 -186.5q0 -39 11 -73q11 -33 36 -58t65.5 -42t72.5 -26.5t87 -22.5h-1l58 -14.5t55 -17t53.5 -22t44.5 -28t37.5 -37.5
t22.5 -47.5t9 -60.5q0 -25 -6 -61v1q-36 -183 -252 -291q-215 -110 -535 -110q-360 0 -543 200v-1q-127 152 -127 364q0 46 6 95v-1q34 246 138 562l116 -43q-92 -283 -131 -532q-5 -38 -5 -81q0 -72 24 -147.5t72 -133.5q151 -157 450 -157q289 0 471 90t195 212
q5 51 -50 83t-147 54q-40 11 -58.5 16.5t-58.5 18.5t-62 24t-54 29.5t-50 38t-34.5 46.5t-22.5 58q-10 44 -10 96q0 194 139.5 358t335.5 206z" />
    <glyph glyph-name="uni06D2" unicode="&#x6d2;" horiz-adv-x="1959" arabic-form="isolated" 
d="M990 -51q-29 0 -109.5 -0.5t-116.5 -0.5t-107 3t-118 9.5t-109.5 19t-119.5 31.5q-116 48 -155 128q-16 34 -16 68q0 50 31 99q56 83 183 131q115 43 219 54q205 27 237 27l-23 -115l-35 -5l-163 -21q-119 -16 -210.5 -52t-117.5 -80q-21 -31 -9 -57q13 -28 45 -50.5
t71.5 -36t96 -23t106 -13.5t115 -6t109 -1.5t103 1.5t82.5 1q205 0 466 27.5t404 49.5q-5 -20 -15 -57.5t-15 -57.5q-55 -8 -160 -21.5t-316.5 -32.5t-352.5 -19z" />
    <glyph glyph-name="uni06D3" unicode="&#x6d3;" horiz-adv-x="1942" arabic-form="isolated" 
d="M1023 -51q-29 0 -109.5 -0.5t-116.5 -0.5t-107 3t-118 9.5t-109.5 19t-119.5 31.5q-116 48 -155 128q-16 34 -16 68q0 50 31 99q56 83 183 131q115 43 219 54q205 27 237 27l-23 -115l-35 -5l-163 -21q-119 -16 -210.5 -52t-117.5 -80q-21 -31 -9 -57q13 -28 45 -50.5
t71.5 -36t96 -23t106 -13.5t115 -6t109 -1.5t103 1.5t82.5 1q205 0 466 27.5t404 49.5q-4 -20 -15 -57.5t-15 -57.5q-55 -8 -160 -21.5t-316.5 -32.5t-352.5 -19zM612 1050q-40 7 -65 7q-34 0 -62 -12v2q-32 -14 -51.5 -42.5t-19.5 -61.5q0 -14 8 -36l-1 1q14 -36 50 -59
t78 -23q27 0 42 7q39 12 96 46q20 11 43 29l59 -78q-37 -28 -242 -142l-227 -126l-48 87l179 100q-83 34 -121 120q-14 37 -14 74q0 62 36.5 115.5t96.5 77.5q44 19 98 19q36 0 82 -10l38 -9l-28 -92z" />
    <glyph glyph-name="uniFB51" unicode="&#x671;" horiz-adv-x="678" arabic-form="final" 
d="M665 40q-199 0 -293 94q-27 26 -44 59.5t-23 73t-7 59t-1 54.5v10q4 188 4 275q0 555 -30 780l116 22q31 -216 31 -822q0 -115 -2 -267q0 -121 42 -161q60 -60 198 -61h9q24 0 41.5 -17t17.5 -41t-17.5 -41t-41.5 -17zM-6 1674q28 15 50 21q54 18 78 14q26 -5 58 -33
l18 -19q50 92 95 137q60 58 135 69h-1q13 4 35 4q61 0 101 -43q39 -39 34 -89q-3 -57 -51 -101q-69 -57 -222 -57q-129 0 -185 62h1l-4 3v-1q-3 2 -9 6.5t-10 6.5t-9 2q-35 0 -108 -35l-9 47zM326 1634q123 0 184 46q28 25 31 59q0 31 -16 42q-33 37 -89 27
q-61 -12 -105 -56q-45 -45 -79 -113z" />
    <glyph glyph-name="uniFB57" unicode="&#x67e;" horiz-adv-x="2247" arabic-form="final" 
d="M1876 188q-38 48 -78 159q-298 -310 -849 -310q-299 2 -487.5 69t-271.5 206q-61 101 -61 233q0 73 17 138q25 100 56 168q7 -4 19 -11t32.5 -18.5t52.5 -29.5q-63 -140 -63 -235t45 -176q69 -109 238.5 -167t422.5 -58q453 0 660 171l-1 -1q80 64 127 147.5t81 189.5
l114 -33q-26 -76 -26 -172q6 -124 64 -197q90 -105 269 -105q25 0 42 -16.5t17 -41.5t-17 -41.5t-42 -16.5h-8q-238 4 -353 148zM1353 -296l-134 -134l-132 132l134 134zM947 -298l-134 -134l-132 133l134 134zM1159 -567l-134 -134l-132 132l134 134z" />
    <glyph glyph-name="uniFB58" unicode="&#x67e;" horiz-adv-x="831" arabic-form="initial" 
d="M-58 98q0 25 17 41.5t41 16.5h111h8q51 0 80.5 0.5t85 5t90.5 13t79.5 26t70 42t43.5 63t18 87.5q0 83 -51 241q-8 26 -22 60t-30 71t-21 51q61 30 107 54q47 -106 77 -200q51 -162 51 -275q0 -82 -26 -145v1q-70 -146 -228 -191q-71 -20 -289 -20h-154q-24 0 -41 16.5
t-17 41.5zM708 -347l-134 -134l-132 132l134 134zM302 -349l-134 -134l-132 133l134 134zM514 -618l-134 -134l-132 132l134 134z" />
    <glyph glyph-name="uniFB59" unicode="&#x67e;" horiz-adv-x="859" arabic-form="medial" 
d="M-61 98q0 25 16.5 41.5t41.5 16.5h76q81 0 144 5.5t126 22.5t103.5 46t64.5 77.5t22 115.5q-5 103 -33 212q18 4 38 11t32 10l41 12q21 -86 36 -217l5 -49q3 -32 6 -52t10 -49t15.5 -47t23.5 -38.5t34.5 -32t48.5 -19.5t65 -8q25 0 42.5 -16.5t17.5 -41.5q0 -24 -17 -41
t-41 -17q-160 0 -271 148q-78 -76 -218.5 -112t-294.5 -36h-76q-25 0 -41.5 16.5t-16.5 41.5zM699 -301l-134 -134l-132 132l134 134zM293 -303l-134 -134l-132 133l134 134zM505 -572l-134 -134l-132 132l134 134z" />
    <glyph glyph-name="uniFB67" unicode="&#x679;" horiz-adv-x="2236" arabic-form="final" 
d="M1876 188q-38 48 -78 159q-298 -310 -849 -310q-299 2 -487.5 69t-271.5 206q-61 101 -61 233q0 73 17 138q25 100 56 168q7 -4 19 -11t32.5 -18.5t52.5 -29.5q-63 -140 -63 -235t45 -176q69 -109 238.5 -167t422.5 -58q453 0 660 171l-1 -1q80 64 127 147.5t81 189.5
l114 -33q-26 -76 -26 -172q6 -124 64 -197q90 -105 269 -105q25 0 42 -16.5t17 -41.5t-17 -41.5t-42 -16.5h-8q-238 4 -353 148zM1250 958l1 2q16 36 7 65q-10 33 -45 50q-20 10 -46 10q-13 0 -24 -3q-31 -8 -65 -27q-85 -45 -151 -130l-63 -81q59 -6 100 -6q73 0 115 8
q58 12 104 41q49 31 67 71zM1329 1023l1 -3q2 -60 -35 -114q-31 -44 -81 -76q-98 -60 -245 -60h-26q-143 4 -283 55l-5 2l32 62q62 -22 104 -32l61 82v2q0 5 1 12t1 23l3 53q1 107 -18 276l-14 103l74 18q24 -188 29 -262q4 -53 4 -138q44 42 92 74q61 40 111 50q15 3 31 3
q53 0 99 -29q54 -34 63 -93q1 -1 1 -8z" />
    <glyph glyph-name="uniFB68" unicode="&#x679;" horiz-adv-x="774" arabic-form="initial" 
d="M-63 98q0 25 17 41.5t41 16.5h148q64 0 117 10.5t102.5 35.5t77.5 73.5t28 117.5q0 98 -45 241q-8 26 -22 60t-30 71t-21 51q61 30 107 54q47 -106 77 -200q51 -162 51 -275q0 -82 -26 -145v1q-70 -146 -228 -191q-72 -20 -190 -20h-146q-24 0 -41 16.5t-17 41.5z
M453 1173l1 2q16 36 7 65q-10 33 -45 50q-20 10 -46 10q-14 0 -24 -3q-31 -8 -65 -27q-85 -45 -151 -130l-63 -81q59 -6 100 -6q73 0 115 8q58 12 104 41q49 31 67 71zM532 1238l1 -3q2 -60 -35 -114q-31 -44 -81 -76q-97 -60 -245 -60h-26q-143 4 -283 55l-5 2l32 62
q62 -22 104 -32l61 82v2q0 5 1 12t1 23l3 53q2 106 -18 276l-14 103l74 18q24 -188 29 -262q4 -53 4 -138q44 42 92 74q61 40 111 50q15 3 31 3q53 0 99 -29q54 -35 63 -93q1 -1 1 -8z" />
    <glyph glyph-name="uniFB69" unicode="&#x679;" horiz-adv-x="859" arabic-form="medial" 
d="M-61 98q0 25 16.5 41.5t41.5 16.5h76q81 0 144 5.5t126 22.5t103.5 46t64.5 77.5t22 115.5q-5 103 -33 212q18 4 38 11t32 10l41 12q21 -86 36 -217l5 -49q3 -32 6 -52t10 -49t15.5 -47t23.5 -38.5t34.5 -32t48.5 -19.5t65 -8q25 0 42.5 -16.5t17.5 -41.5q0 -24 -17 -41
t-41 -17q-160 0 -271 148q-78 -76 -218.5 -112t-294.5 -36h-76q-25 0 -41.5 16.5t-16.5 41.5zM544 988l1 2q16 36 7 65q-10 33 -45 50q-20 10 -46 10q-13 0 -24 -3q-31 -8 -65 -27q-85 -45 -151 -130l-63 -81q58 -6 100 -6q73 0 115 8q58 12 104 41q49 31 67 71zM623 1053
l1 -3q2 -60 -35 -114q-31 -44 -81 -76q-98 -60 -245 -60h-26q-143 4 -283 55l-5 2l32 62q62 -22 104 -32l61 82v2q0 5 1 12t1 23l3 53q1 107 -18 276l-14 103l74 18q24 -188 29 -262q4 -53 4 -138q44 42 92 74q61 40 111 50q15 3 31 3q53 0 99 -29q54 -34 63 -93q1 -1 1 -8z
" />
    <glyph glyph-name="uniFB6A" unicode="&#x6a4;" horiz-adv-x="1959" arabic-form="isolated" 
d="M1684 987q69 -78 115 -203.5t46 -259.5q0 -104 -19 -162q-25 -68 -72 -121t-113 -87.5t-140 -57.5t-168.5 -35t-182 -16.5t-195.5 -4.5q-583 0 -750 285q-61 103 -61 233q0 155 52 259l104 -58q-38 -90 -38 -200q0 -92 46 -175q129 -207 616 -227q29 -1 85 -1
q623 0 726 263q-100 -21 -182 -21q-211 0 -316 117q-53 59 -53 166q0 66 20.5 137.5t56.5 133t92.5 101t120.5 39.5q116 0 210 -105zM1734 532q-3 95 -28.5 185.5t-84 165.5t-139.5 92q-34 4 -80.5 -37.5t-81.5 -109.5t-35 -130q0 -71 30 -111q63 -80 236 -80q90 0 183 25z
M1645 1619l134 -134l-132 -132l-134 134zM1239 1621l134 -134l-132 -133l-134 134zM1446 1892l133 -133l-132 -132l-133 133z" />
    <glyph glyph-name="uniFB6B" unicode="&#x6a4;" horiz-adv-x="2106" arabic-form="final" 
d="M1938 528q-6 -105 -44 -178.5t-119 -155.5q213 -38 333 -38q24 0 41.5 -17t17.5 -41t-17.5 -41t-41.5 -17q-256 0 -469 74l-75 -24q-93 -35 -257 -53.5t-346 -18.5q-598 2 -765 285q-61 99 -61 234q0 137 61 275l104 -58q-48 -110 -48 -218q0 -92 46 -175
q67 -110 213 -165.5t394 -61.5h5q72 -2 102 -2q222 0 473 51q-87 50 -142 147t-55 171q0 93 42.5 184t121.5 152t171 61q274 0 315 -370zM1623 244q214 91 214 284q0 64 -19 113t-44.5 74t-58.5 40.5t-54 19.5t-38 4q-36 0 -74.5 -18t-73 -52t-57 -90t-22.5 -123
q0 -64 63.5 -143t163.5 -109zM1787 1406l134 -134l-132 -132l-134 134zM1381 1408l134 -134l-132 -133l-134 134zM1588 1679l133 -133l-132 -132l-133 133z" />
    <glyph glyph-name="uniFB6C" unicode="&#x6a4;" horiz-adv-x="896" arabic-form="initial" 
d="M428 967q-47 0 -112 -66.5t-83 -170.5q-4 -15 -4 -45q0 -65 31 -99h-1q23 -29 83.5 -51.5t122.5 -26.5q23 -2 97 -2q72 0 130 6q-8 119 -47 223.5t-94 166.5q-61 65 -123 65zM-61 98q0 25 17.5 41.5t42.5 16.5q292 0 450 51t249 181h-192q-98 0 -183.5 32.5t-132.5 88.5
q-23 21 -37 72.5t-14 107.5q0 25 5 57q26 143 99 236q79 103 185 103q114 0 210 -105q76 -84 119 -209t43 -260q0 -479 -786 -471h-17q-24 0 -41 17t-17 41zM548 1520l134 -134l-132 -132l-134 134zM142 1522l134 -134l-132 -133l-134 134zM349 1793l133 -133l-132 -132
l-133 133z" />
    <glyph glyph-name="uniFB6D" unicode="&#x6a4;" horiz-adv-x="1009" arabic-form="medial" 
d="M508 781q-35 0 -74 -17.5t-75.5 -50.5t-60 -88t-23.5 -122q0 -68 67.5 -154.5t176.5 -119.5q91 40 143.5 119t52.5 158q0 102 -67 188.5t-140 86.5zM-58 98q0 25 16.5 41.5t41.5 16.5q186 0 379 26q-63 28 -112 89t-71.5 121.5t-22.5 107.5q0 94 43 183t121.5 149.5
t171.5 65.5q141 -12 226.5 -119.5t85.5 -248.5q0 -170 -155 -336q173 -38 352 -38q26 0 42.5 -16.5t16.5 -41.5t-16.5 -41.5t-42.5 -16.5h-9q-140 0 -255 18q-133 21 -232 55q-192 -73 -514 -73h-8q-25 0 -41.5 16.5t-16.5 41.5zM650 1393l134 -134l-132 -132l-134 134z
M244 1395l134 -134l-132 -133l-134 134zM451 1666l133 -133l-132 -132l-133 133z" />
    <glyph glyph-name="uniFB7B" unicode="&#x686;" horiz-adv-x="1703" arabic-form="final" 
d="M1193 -48l-126 -125l-123 123l125 126zM813 -50l-125 -125l-123 124l125 126zM1011 -301l-125 -126l-123 124l125 125zM912 -751q-195 0 -360 77.5t-262.5 215.5t-97.5 306q0 219 145 405q96 119 286 213h-1q123 55 313.5 96t366.5 45q-66 30 -157 71.5t-134.5 61.5
t-104.5 47t-92 38.5t-69 24.5t-63 17t-49 4q-187 0 -319 -222l-91 51q66 126 171 207t238 81q90 0 208.5 -43t216 -97t223 -123t201.5 -101q-3 -15 -6 -28.5t-8.5 -39t-11.5 -55.5q-78 0 -157 -3q-8 -49 -8.5 -82t11.5 -74.5t40 -78.5q49 -65 129 -86t230 -21
q24 0 41.5 -17.5t17.5 -42.5q0 -24 -17.5 -40t-41.5 -16q-340 0 -452 153q-103 140 -63 294q-330 -44 -515 -128q-36 -17 -73.5 -40t-87.5 -65t-89 -90t-70.5 -117.5t-39.5 -145.5q-1 -11 -1 -37q0 -120 52 -218t139.5 -160.5t198.5 -96.5t231 -34q289 0 485 166
q8 -9 27 -33.5t48 -58.5q-229 -180 -578 -180z" />
    <glyph glyph-name="uniFB7C" unicode="&#x686;" horiz-adv-x="1559" arabic-form="initial" 
d="M-61 98q0 25 17.5 41.5t42.5 16.5h198q131 0 276 28t292.5 80.5t275 108t275.5 129.5q-225 83 -341 139h1q-80 39 -127.5 59.5t-109 39.5t-105.5 19q-163 0 -300 -234q-23 10 -57 24t-52 22q47 80 89 131q70 83 153 128.5t167 45.5q57 0 128.5 -20.5t122.5 -42.5t140 -65
q14 -6 54.5 -24.5t54.5 -25t49 -22t52.5 -22.5t48.5 -19.5t53.5 -20.5t51.5 -17.5t58 -17.5q3 -13 7 -34.5t8 -37.5q2 -9 5 -27t5 -26q-39 -18 -89.5 -46.5t-116.5 -61.5q-619 -306 -1069 -306h-198q-25 0 -42.5 17t-17.5 41zM1086 -290l-134 -134l-132 132l134 134z
M680 -292l-134 -134l-132 133l134 134zM892 -561l-134 -134l-132 132l134 134z" />
    <glyph glyph-name="uniFB7D" unicode="&#x686;" horiz-adv-x="1663" arabic-form="medial" 
d="M-59 97q0 24 17 41.5t42 17.5h183q89 0 175 10.5t175 35.5t155 46t161 63.5t143.5 66t149.5 73.5l109 54q-137 32 -320 125q-84 42 -131.5 64t-116.5 43t-122 21q-44 0 -86.5 -18t-74 -43t-61 -60t-46.5 -60t-32 -52l-107 49q59 96 87 130q73 80 156.5 126.5t163.5 46.5
q58 0 130.5 -21t121.5 -42t139 -64q28 -13 86.5 -42t90 -43.5t79.5 -33t92 -28.5t90 -13l27 -125q-12 -5 -44.5 -25.5t-107.5 -57.5q17 -59 56.5 -103.5t82.5 -67t96 -36t87 -16.5t66 -3h6h8q25 0 42 -17.5t17 -41.5q0 -25 -17 -41t-42 -16h-14q-183 0 -313 76t-184 212
q-128 -64 -228 -107.5t-228.5 -89t-258.5 -69t-258 -23.5l-183 1q-25 0 -42 16t-17 41zM1085 -296l-134 -134l-132 132l134 134zM679 -298l-134 -134l-132 133l134 134zM891 -567l-134 -134l-132 132l134 134z" />
    <glyph glyph-name="uniFB89" unicode="&#x688;" horiz-adv-x="1242" arabic-form="final" 
d="M501 34q-209 0 -366 151q45 67 69 100q170 -131 310 -131q236 0 362 148q-104 256 -311 749q8 3 37.5 15t71.5 30l72 -174q24 -60 102 -246.5t133 -320.5l-1 1q13 -34 20 -50.5t20.5 -42.5t25.5 -38t32 -28.5t43 -23t55.5 -12t72.5 -5.5q24 0 41.5 -17t17.5 -41
t-17.5 -41t-41.5 -17q-111 0 -184.5 39.5t-129.5 109.5q-99 -84 -189.5 -119.5t-244.5 -35.5zM846 1481l1 2q16 36 7 65q-10 33 -45 50q-20 10 -46 10q-13 0 -24 -3q-31 -8 -65 -27q-85 -45 -151 -130l-63 -81q58 -6 100 -6q73 0 115 8q58 12 104 41q49 31 67 71zM925 1546
l1 -3q2 -60 -35 -114q-31 -44 -81 -76q-97 -60 -245 -60h-26q-143 4 -283 55l-5 2l32 62q62 -22 104 -32l61 82v2q0 5 1 12t1 23l3 53q1 106 -18 276l-14 103l74 18q24 -188 29 -262q4 -53 4 -138q44 42 92 74q61 40 111 50q15 3 31 3q53 0 99 -29q54 -35 63 -93q1 -1 1 -8z
" />
    <glyph glyph-name="uniFB8B" unicode="&#x698;" horiz-adv-x="871" arabic-form="final" 
d="M635 69q0 -93 -33 -184.5t-89.5 -170t-134.5 -153t-163.5 -134t-181.5 -110.5q-6 12 -14.5 28.5t-14.5 29.5q-4 8 -12.5 23.5t-11.5 22.5q109 58 201 126.5t170 150t122.5 178t44.5 194.5q0 34 -6 77t-11.5 73t-21 88.5t-20.5 76.5t-26 85.5t-22 71.5l111 35
q76 -223 157.5 -322t190.5 -99h5q25 0 42 -17.5t17 -41.5q0 -25 -17 -41t-42 -16q-172 0 -246 108zM644 1100l134 -134l-132 -132l-134 134zM238 1102l134 -134l-132 -133l-134 134zM445 1373l133 -133l-132 -132l-133 133z" />
    <glyph glyph-name="uniFB8D" unicode="&#x691;" horiz-adv-x="822" arabic-form="final" 
d="M585 69q0 -93 -33 -184.5t-89.5 -170t-134.5 -153t-163.5 -134t-181.5 -110.5q-6 12 -14.5 28.5t-14.5 29.5q-4 8 -12.5 23.5t-11.5 22.5q109 58 201 126.5t170 150t122.5 178t44.5 194.5q0 34 -6 77t-11.5 73t-21 88.5t-20.5 76.5t-26 85.5t-22 71.5l111 35
q76 -223 157.5 -322t190.5 -99h5q25 0 42 -17.5t17 -41.5q0 -25 -17 -41t-42 -16q-172 0 -246 108zM617 1014l1 2q16 36 7 65q-10 33 -45 50q-20 10 -46 10q-14 0 -24 -3q-31 -8 -65 -27q-85 -45 -151 -130l-63 -81q59 -6 100 -6q73 0 115 8q58 12 104 41q49 31 67 71z
M696 1079l1 -3q2 -60 -35 -114q-31 -44 -81 -76q-97 -60 -245 -60h-26q-143 4 -283 55l-5 2l32 62q62 -22 104 -32l61 82v2q0 5 1 12t1 23l3 53q2 107 -18 276l-14 103l74 18q24 -188 29 -262q4 -53 4 -138q44 42 92 74q61 40 111 50q15 3 31 3q53 0 99 -29q54 -34 63 -93
q1 -1 1 -8z" />
    <glyph glyph-name="uniFB8F" unicode="&#x6a9;" horiz-adv-x="2321" arabic-form="final" 
d="M2320 156q25 0 41.5 -16.5t16.5 -41.5q0 -24 -16.5 -41t-41.5 -17q-159 0 -295 71.5t-235 210.5q-80 -133 -210 -192h1q-196 -90 -532 -90h-92q-119 0 -197 9q-175 18 -302.5 52t-224.5 111q-53 42 -97 122v-2q-37 76 -37 170q0 88 35 168q26 58 64 128l96 -71l-23 -44
q-23 -45 -27 -58q-26 -64 -26 -134q0 -56 24 -107q90 -175 489 -216q176 -11 320 -11q267 0 456 70q205 79 205 239q0 241 -494 625q5 48 9 83l9 79l837 360l45 -108l-820 -348q193 -136 331.5 -290.5t187.5 -298.5q16 -46 25.5 -70t28 -67t37.5 -70t46.5 -60t63 -58
t78.5 -45q84 -40 216 -42h8z" />
    <glyph glyph-name="uniFB90" unicode="&#x6a9;" horiz-adv-x="936" arabic-form="initial" 
d="M-79 97q0 26 19 42.5t49 16.5h56h49q53 0 85.5 0.5t82 3.5t80 8t71.5 15t66 24.5t52 36.5t42 50t25 66.5t10 84.5q0 52 -16 109q-24 86 -160 245t-302 295q1 12 19 160q180 77 440.5 188t320.5 137q7 -16 24.5 -51.5t25.5 -56.5l-740 -310q196 -170 266 -247
q233 -258 233 -485q0 -148 -88.5 -251.5t-239.5 -131.5q-35 -7 -79 -7l-323 1q-29 0 -48.5 16.5t-19.5 40.5z" />
    <glyph glyph-name="uniFB91" unicode="&#x6a9;" horiz-adv-x="1169" arabic-form="medial" 
d="M-58 98q0 24 17.5 41t41.5 17h9h330q91 0 175.5 70.5t96.5 154.5q4 85 -39 187.5t-116 198t-149 175t-152 142.5q16 137 22 177q140 60 411.5 177.5t411.5 177.5q7 -17 24 -52.5t25 -55.5l-813 -352q125 -101 218 -209t129.5 -168.5t100.5 -182.5q7 -12 10 -18
q71 -136 106 -191q67 -112 150.5 -169.5t202.5 -61.5h44q25 0 41.5 -17t16.5 -41q0 -25 -16.5 -41.5t-41.5 -16.5h-8q-120 0 -221 33h1q-119 45 -255 220q-60 -111 -108 -156h1q-98 -88 -283 -97h1h-325q-24 0 -41.5 17t-17.5 41z" />
    <glyph glyph-name="uniFB93" unicode="&#x6af;" horiz-adv-x="2309" arabic-form="final" 
d="M2320 156q25 0 41.5 -16.5t16.5 -41.5q0 -24 -16.5 -41t-41.5 -17q-159 0 -295 71.5t-235 210.5q-80 -133 -210 -192h1q-196 -90 -532 -90h-92q-119 0 -197 9q-175 18 -302.5 52t-224.5 111q-53 42 -97 122v-2q-37 76 -37 170q0 88 35 168q26 58 64 128l96 -71l-23 -44
q-23 -45 -27 -58q-26 -64 -26 -134q0 -56 24 -107q90 -175 489 -216q176 -11 320 -11q267 0 456 70q205 79 205 239q0 241 -494 625q5 48 9 83l9 79l837 360l45 -108l-820 -348q193 -136 331.5 -290.5t187.5 -298.5q16 -46 25.5 -70t28 -67t37.5 -70t46.5 -60t63 -58
t78.5 -45q84 -40 216 -42h8zM2025 1767q-140 -60 -391.5 -171t-391.5 -171l3 40l3 45q134 56 374 161t372 161z" />
    <glyph glyph-name="uniFB94" unicode="&#x6af;" horiz-adv-x="970" arabic-form="initial" 
d="M-64 97q0 26 19 42.5t49 16.5h56h49q53 0 85.5 0.5t82 3.5t80 8t71.5 15t66 24.5t52 36.5t42 50t25 66.5t10 84.5q0 52 -16 109q-24 86 -160 245t-302 295q1 12 19 160q180 77 440.5 188t320.5 137q7 -16 24.5 -51.5t25.5 -56.5l-740 -310q196 -170 266 -247
q233 -258 233 -485q0 -148 -88.5 -251.5t-239.5 -131.5q-35 -7 -79 -7l-323 1q-29 0 -48.5 16.5t-19.5 40.5zM873 1726q-721 -309 -722 -309l5 84l686 290z" />
    <glyph glyph-name="uniFB95" unicode="&#x6af;" horiz-adv-x="1187" arabic-form="medial" 
d="M-58 98q0 24 17.5 41t41.5 17h9h330q91 0 175.5 70.5t96.5 154.5q4 85 -39 187.5t-116 198t-149 175t-152 142.5q16 137 22 177q140 60 411.5 177.5t411.5 177.5q7 -17 24 -52.5t25 -55.5l-813 -352q125 -101 218 -209t129.5 -168.5t100.5 -182.5q7 -12 10 -18
q71 -136 106 -191q67 -112 150.5 -169.5t202.5 -61.5h44q25 0 41.5 -17t16.5 -41q0 -25 -16.5 -41.5t-41.5 -16.5h-8q-120 0 -221 33h1q-119 45 -255 220q-60 -111 -108 -156h1q-98 -88 -283 -97h1h-325q-24 0 -41.5 17t-17.5 41zM939 1774q-721 -309 -722 -309l5 84
l686 290z" />
    <glyph glyph-name="uniFB9F" unicode="&#x6ba;" horiz-adv-x="1709" arabic-form="final" 
d="M1707 40q-126 0 -283 94q0 -8 2.5 -60.5t2.5 -60.5q0 -129 -37 -253v1q-38 -103 -107.5 -182.5t-158 -128t-187.5 -73t-205 -24.5q-534 0 -625 483v-1q-9 57 -9 114q0 138 42.5 282t107.5 261l48 -36q19 -15 47 -35q-46 -84 -86.5 -224t-40.5 -260q0 -51 7 -86
q-4 -43 15.5 -94t62.5 -102t102 -92t143.5 -67t178.5 -26q209 0 355 88.5t197 237.5q31 97 31 211q0 199 -102 431q-16 36 -23 48l-14 32l99 63q36 -71 48 -98q45 -86 90.5 -148.5t83 -96t79 -53t70.5 -24.5t66 -5q25 0 42 -16.5t17 -41.5q0 -24 -17 -41t-42 -17z" />
    <glyph glyph-name="uniFBA5" unicode="&#x6c0;" horiz-adv-x="1090" arabic-form="final" 
d="M544 180q-238 0 -329 111q-43 54 -43 134q0 56 16 93v-1q105 221 474 360l-15 142q19 4 38.5 8.5t42.5 10t36 8.5q2 -14 17.5 -161.5t17.5 -163.5v1q41 -354 81 -450q29 -66 77 -91t133 -25q24 0 41.5 -17t17.5 -41t-17.5 -41t-41.5 -17q-107 0 -179 33h1
q-68 32 -129 130q-153 -23 -239 -23zM626 738q-32 -14 -52.5 -22.5t-60.5 -28.5t-67 -36.5t-60.5 -42t-53.5 -50t-34.5 -56t-14.5 -63.5q0 -41 21.5 -70.5t59.5 -45t80.5 -22.5t93.5 -7q83 0 205 22q-27 132 -66 442zM647 1554q-40 7 -65 7q-34 0 -62 -12v2
q-32 -14 -51.5 -42.5t-19.5 -61.5q0 -14 8 -36l-1 1q14 -36 50 -59t78 -23q27 0 42 7q39 12 96 46q20 11 43 29l59 -78q-37 -28 -242 -142l-227 -126l-48 87l179 100q-83 34 -121 120q-14 37 -14 74q0 62 36.5 115.5t96.5 77.5q44 19 98 19q36 0 82 -10l38 -9l-28 -92z" />
    <glyph glyph-name="uniFBA6" unicode="&#x6c1;" horiz-adv-x="983" arabic-form="isolated" 
d="M485 36q-103 0 -196 44q-170 77 -170 263q0 158 153 351q71 81 148 148l-77 74l80 80q65 -57 188 -194q111 -129 176.5 -251t65.5 -208q0 -185 -157 -262q-97 -45 -211 -45zM489 762q-66 -59 -120.5 -120.5t-101 -145.5t-46.5 -152q0 -106 112 -158h-1q59 -31 153 -31
q99 0 159 30q53 29 79.5 63.5t26.5 89.5q0 133 -261 424z" />
    <glyph glyph-name="uniFBA8" unicode="&#x6c1;" horiz-adv-x="728" arabic-form="initial" 
d="M-58 98q0 25 17 41.5t41 16.5h103q117 0 192.5 29.5t114.5 112.5v-1q18 37 18 96q0 98 -45 241q-8 26 -22 60t-30 71t-21 51q18 9 52 28t54 29q42 -88 78 -203q51 -162 51 -275q0 -82 -26 -145v1q-70 -146 -228 -191q-72 -20 -190 -20h-92h-9q-24 0 -41 16.5t-17 41.5z
M487 -432q-48 6 -86.5 46.5t-40.5 94.5q2 73 38.5 147t113.5 177l47 -31q-36 -54 -55 -85t-40 -78t-21 -77q0 -42 23 -66.5t81 -44.5z" />
    <glyph glyph-name="uniFBA9" unicode="&#x6c1;" horiz-adv-x="1018" arabic-form="medial" 
d="M-58 98q0 24 17 41t41 17q44 0 88 10.5t62 25.5q22 18 32 40t25 68l113 -41q-11 -65 -11 -153q0 -239 197 -466q49 269 130 382q35 50 96.5 83.5t140.5 44.5q42 6 85 6h61q24 0 41 -17t17 -41t-17 -41t-41 -17h-60q-66 0 -130.5 -19t-98.5 -65q-56 -79 -82 -186t-29 -210
l-64 -36l-43 -24q-151 99 -229 242h1q-71 129 -90 334q-124 -36 -189 -36h-5q-24 0 -41 17t-17 41zM833 -654q-48 6 -86.5 46.5t-40.5 94.5q2 73 38.5 147t113.5 177l47 -31q-36 -54 -55 -85t-40 -78t-21 -77q0 -42 23 -66.5t81 -44.5z" />
    <glyph glyph-name="uniFBAB" unicode="&#x6be;" horiz-adv-x="1169" arabic-form="final" 
d="M728 741q-51 -41 -103 -106q-93 -128 -119 -282q-6 -42 -6 -91q0 -23 6 -89l106 20h-2q179 49 230 178q26 66 26 139t-26 127q-2 5 -11 25.5t-14 28.5t-17 21.5t-29 20t-41 8.5zM76 14q0 20 15.5 32.5t56.5 28.5l240 84q-6 64 -6 104q0 106 38 232v-1q52 152 158 269
q94 107 169 111q67 3 154 -106q50 -73 76 -184q7 -35 7 -73q0 -76 -33 -182v1q-45 -116 -128 -176q-81 -59 -180 -85l-112 -22q67 -166 217 -368q29 159 58 217q53 112 156 188q98 72 210 72q25 0 42 -17t17 -41q0 -25 -17 -41.5t-42 -16.5h-10q-79 -3 -135 -47
q-75 -63 -115 -148q-37 -78 -37 -155q0 -108 75 -200l-44 -53q-6 -7 -17 -20.5t-15 -18.5q-176 147 -285.5 287.5t-159.5 289.5l-23 64q-15 -5 -100.5 -29t-177.5 -54q-23 2 -37.5 18.5t-14.5 39.5z" />
    <glyph glyph-name="uniFBAC" unicode="&#x6be;" horiz-adv-x="1444" arabic-form="initial" 
d="M-68 99q0 23 18 40t44 17h9q11 0 43 2.5t129 8.5t233 13q-200 177 -200 343q0 56 20 115t57.5 113.5t98.5 96t135 55.5l-143 55l61 113q3 0 311 -126q451 -196 549 -327h-1q84 -115 84 -236q0 -90 -47.5 -165t-140.5 -125q-46 -27 -131.5 -41t-164.5 -14q-187 0 -335 62
q-182 -59 -558 -59h-9q-26 0 -44 17t-18 42zM700 173q36 -9 67 -14.5t56 -7.5t40 -2.5t36 0t26 0.5q165 0 256.5 70t91.5 175q0 98 -111.5 210.5t-297.5 177.5q12 -19 20.5 -38t13.5 -37.5t8.5 -33t4.5 -32.5t1.5 -26.5t0 -25t-0.5 -18.5q0 -97 -59.5 -212.5t-152.5 -185.5z
M640 821q-48 12 -107.5 -16.5t-107 -77.5t-78 -111t-24.5 -113q13 -82 74.5 -155t149.5 -121q113 45 176.5 146.5t63.5 205.5q0 90 -41.5 161t-105.5 81z" />
    <glyph glyph-name="uniFBAD" unicode="&#x6be;" horiz-adv-x="1003" arabic-form="medial" 
d="M525 753q-69 -12 -137.5 -116.5t-103 -239.5t-16.5 -231q98 -6 183.5 34t137.5 123t48 191q-1 40 -5.5 71t-15.5 67.5t-34 62.5t-57 38zM-59 98q0 24 16.5 41t41.5 17h154q-5 88 19 204t68 227.5t117 193.5t157 93q69 0 123 -65t80.5 -155t26.5 -181q0 -118 -61 -211.5
t-161 -147t-225 -67.5q26 -105 95.5 -228t161.5 -190q-5 55 -5 69q0 85 43 170.5t109.5 147.5t148 101t155.5 39q25 0 42 -17t17 -41q0 -25 -17 -41.5t-42 -16.5h-10q-129 -6 -225 -114.5t-96 -241.5q0 -105 69 -191l-82 -98q-374 244 -485 645h-177q-25 0 -41.5 16.5
t-16.5 41.5z" />
    <glyph glyph-name="uniFBAF" unicode="&#x6d2;" horiz-adv-x="1559" arabic-form="final" 
d="M930 -429q-96 0 -165.5 1.5t-174 8t-191 23.5t-146.5 43q-118 49 -156 128q-16 34 -16 69q0 48 32 100q70 111 252.5 161.5t430.5 50.5h763h1q24 0 41 -17t17 -41t-17 -41t-41 -17h-5h-759q-256 0 -399.5 -47t-190.5 -111q-22 -35 -9 -56q36 -49 163.5 -81.5t270.5 -44
t299 -11.5q91 0 207 5.5t191 11.5t84 8l32 -119q-2 0 -35.5 -2.5t-87 -6t-116.5 -7t-138 -6t-137 -2.5zM1412 -285v-1v1z" />
    <glyph glyph-name="uniFBB1" unicode="&#x6d3;" horiz-adv-x="1521" arabic-form="final" 
d="M892 -429q-96 0 -165.5 1.5t-174 8t-191 23.5t-146.5 43q-118 49 -156 128q-16 34 -16 69q0 48 32 100q70 111 252.5 161.5t430.5 50.5h763h1q24 0 41 -17t17 -41t-17 -41t-41 -17h-5h-759q-256 0 -399.5 -47t-190.5 -111q-22 -35 -9 -56q36 -49 163.5 -81.5t270.5 -44
t299 -11.5q91 0 207 5.5t191 11.5t84 8l32 -119q-2 0 -35.5 -2.5t-87 -6t-116.5 -7t-138 -6t-137 -2.5zM1374 -285v-1v1zM529 685q-40 7 -65 7q-34 0 -62 -12v2q-32 -14 -51.5 -42.5t-19.5 -61.5q0 -14 8 -36l-1 1q14 -36 50 -59t78 -23q27 0 42 7q39 12 96 46q20 11 43 29
l59 -78q-37 -28 -242 -142l-227 -126l-48 87l179 100q-83 34 -121 120q-14 37 -14 74q0 62 36.5 115.5t96.5 77.5q44 19 98 19q36 0 82 -10l38 -9l-28 -92z" />
    <glyph glyph-name="uniFBE8" unicode="&#x649;" horiz-adv-x="708" arabic-form="initial" 
d="M-65 98q0 25 17 41.5t41 16.5h148q64 0 117 10.5t102.5 35.5t77.5 73.5t28 117.5q0 98 -45 241q-8 26 -22 60t-30 71t-21 51q61 30 107 54q47 -106 77 -200q51 -162 51 -275q0 -82 -26 -145v1q-70 -146 -228 -191q-72 -20 -190 -20h-146q-24 0 -41 16.5t-17 41.5z" />
    <glyph glyph-name="uniFBE9" unicode="&#x649;" horiz-adv-x="705" arabic-form="medial" 
d="M-54 98q0 24 16.5 41t41.5 17h17q188 0 277 68t89 208q0 83 -35 218q31 7 112 33q38 -142 43 -268q2 -55 6 -90.5t16 -70.5t33 -54.5t56.5 -31.5t85.5 -12q24 0 41.5 -17t17.5 -41t-17 -41t-41 -17q-160 0 -270 144q-150 -144 -414 -144h-17q-25 0 -41.5 16.5t-16.5 41.5
z" />
    <glyph glyph-name="uniFBFD" unicode="&#x6cc;" horiz-adv-x="1686" arabic-form="final" 
d="M830 -612q-95 0 -174.5 8.5t-166.5 30.5t-154.5 68.5t-107.5 114.5q-89 131 -89 341q0 30 1 47q14 261 152 601l108 -43q-143 -377 -143 -609q0 -166 68 -270q22 -32 49.5 -58t62 -43.5t63.5 -30.5t72 -20t68 -11.5t71 -6.5t62 -2h58q45 0 111.5 7.5t154 28t160 50.5
t123 82.5t50.5 116.5q0 42 -51.5 94t-167.5 95q-41 14 -85.5 25t-92 20.5t-56.5 11.5l8 121l732 -1q24 0 41.5 -17t17.5 -41t-17.5 -41t-41.5 -17h-350q180 -147 180 -250q-1 -64 -28 -120t-71.5 -96t-105 -72.5t-125 -53.5t-135 -34.5t-132.5 -19.5t-119 -6z" />
    <glyph glyph-name="uniFBFE" unicode="&#x6cc;" horiz-adv-x="801" arabic-form="initial" 
d="M196 -476l-134 133l132 133l134 -134zM552 -478l-134 134l132 132l133 -134zM-108 98q0 25 17 41.5t41 16.5h111h8q51 0 80.5 0.5t85 5t90.5 13t79.5 26t70 42t43.5 63t18 87.5q0 83 -51 241q-8 26 -22 60t-30 71t-21 51q61 30 107 54q47 -106 77 -200q51 -162 51 -275
q0 -82 -26 -145v1q-70 -146 -228 -191q-71 -20 -289 -20h-154q-24 0 -41 16.5t-17 41.5z" />
    <glyph glyph-name="uniFBFF" unicode="&#x6cc;" horiz-adv-x="860" arabic-form="medial" 
d="M-61 98q0 25 16.5 41.5t41.5 16.5h76q81 0 144 5.5t126 22.5t103.5 46t64.5 77.5t22 115.5q-5 103 -33 212q18 4 38 11t32 10l41 12q21 -86 36 -217l5 -49q3 -32 6 -52t10 -49t15.5 -47t23.5 -38.5t34.5 -32t48.5 -19.5t65 -8q25 0 42.5 -16.5t17.5 -41.5q0 -24 -17 -41
t-41 -17q-160 0 -271 148q-78 -76 -218.5 -112t-294.5 -36h-76q-25 0 -41.5 16.5t-16.5 41.5zM174 -511l-134 133l132 133l134 -134zM530 -513l-134 134l132 132l133 -134z" />
    <glyph glyph-name="uniFC5E" unicode="&#xfc5e;" arabic-form="isolated" 
d="M131 1137q-85 3 -122 59q-19 30 -19 75q0 57 27 115l52 -24q-20 -52 -20 -92q0 -30 8 -43q9 -14 30.5 -23t45.5 -9q41 0 60 24q6 8 11 17.5t8.5 17t5.5 20.5t3.5 19t2 22t0.5 20.5v22.5v22l53 11q9 -54 21.5 -92t26.5 -56.5t26 -26.5t24 -8q40 3 59 28t19 64
q0 80 -57 157l50 34q23 -36 45 -90.5t22 -98.5q0 -24 -5 -46t-18.5 -47.5t-44 -41t-74.5 -15.5q-30 0 -61 19.5t-48 51.5q-17 -42 -51.5 -64t-73.5 -22h-6zM-12 1588q20 42 20 98q0 35 -6 43q-12 25 -43 29h1q-36 1 -76 -31l-42 42q57 52 120 48q61 -4 89 -55q17 -33 17 -73
q0 -28 -11 -86q152 49 247 111l-80 34q-94 46 -94 135q0 29 11 48q21 44 62.5 72t86.5 28q22 0 48 -11q53 -26 72 -89q9 -31 9 -63q0 -51 -22 -124l32 -12l-24 -53l-39 11q-45 -42 -120 -78.5t-128 -53t-95 -25.5l-35 48v7zM290 1971q-26 0 -56 -19.5t-42 -47.5l1 1
q-1 -9 -1.5 -24.5t15.5 -39t45 -39.5q16 -8 45.5 -20t44.5 -19q17 66 17 106q0 31 -9 52q-17 50 -60 50z" />
    <glyph glyph-name="uniFC5F" unicode="&#xfc5f;" arabic-form="isolated" 
d="M130 1629q-85 3 -122 59q-19 30 -19 75q0 57 27 115l52 -24q-20 -52 -20 -92q0 -30 8 -43q9 -14 30.5 -23t45.5 -9q40 0 60 24q6 8 11 17.5t8.5 17t5.5 20.5t3.5 19t2 22t0.5 20.5v22.5v22l53 11q9 -54 21.5 -92t26.5 -56.5t26 -26.5t24 -8q40 3 59 28t19 64
q0 80 -57 157l50 34q23 -36 45 -90.5t22 -98.5q0 -24 -5 -46t-18.5 -47.5t-44 -41t-74.5 -15.5q-30 0 -61 19.5t-48 51.5q-17 -42 -51.5 -64t-73.5 -22h-6zM36 1138v79l510 206v-71zM29 1317v79l510 206v-74z" />
    <glyph glyph-name="uniFC60" unicode="&#xfc60;" arabic-form="isolated" 
d="M137 1153q-85 3 -122 59q-19 30 -19 75q0 57 27 115l52 -24q-20 -52 -20 -92q0 -30 8 -43q9 -14 30.5 -23t45.5 -9q41 0 60 24q6 8 11 17.5t8.5 17t5.5 20.5t3.5 19t2 22t0.5 20.5v22.5v22l53 11q9 -54 21.5 -92t26.5 -56.5t26 -26.5t24 -8q40 3 59 28t19 64
q0 80 -57 157l50 34q23 -36 45 -90.5t22 -98.5q0 -24 -5 -46t-18.5 -47.5t-44 -41t-74.5 -15.5q-30 0 -61 19.5t-48 51.5q-17 -42 -51.5 -64t-73.5 -22h-6zM-28 1504v79l510 206v-74z" />
    <glyph glyph-name="uniFC61" unicode="&#xfc61;" arabic-form="isolated" 
d="M137 1136q-85 3 -122 59q-19 30 -19 75q0 57 27 115l52 -24q-20 -52 -20 -92q0 -30 8 -43q9 -14 30.5 -23t45.5 -9q41 0 60 24q6 8 11 17.5t8.5 17t5.5 20.5t3.5 19t2 22t0.5 20.5v22.5v22l53 11q9 -54 21.5 -92t26.5 -56.5t26 -26.5t24 -8q40 3 59 28t19 64
q0 80 -57 157l50 34q23 -36 45 -90.5t22 -98.5q0 -24 -5 -46t-18.5 -47.5t-44 -41t-74.5 -15.5q-30 0 -61 19.5t-48 51.5q-17 -42 -51.5 -64t-73.5 -22h-6zM172 1634q80 37 149 83l-36 15q-30 14 -43 21q-110 56 -100 134q11 71 76 117q68 48 134 20q66 -35 80 -125
q11 -79 -20 -152l27 -8l-19 -57l-42 15q-60 -59 -168 -112q-43 -21 -82 -36q-33 -13 -60 -21l-21 57q58 18 125 49zM238 1948q-40 -30 -40 -68t66 -70l92 -43q29 43 17 122q-14 86 -70 86q-31 0 -65 -27z" />
    <glyph glyph-name="uniFC62" unicode="&#xfc62;" arabic-form="isolated" 
d="M149 1503q-85 3 -122 59q-19 30 -19 75q0 57 27 115l52 -24q-20 -52 -20 -92q0 -30 8 -43q9 -14 30.5 -23t45.5 -9q41 0 60 24q6 8 11 17.5t8.5 17t5.5 20.5t3.5 19t2 22t0.5 20.5v22.5v22l53 11q9 -54 21.5 -92t26.5 -56.5t26 -26.5t24 -8q40 3 59 28t19 64
q0 80 -57 157l50 34q23 -36 45 -90.5t22 -98.5q0 -24 -5 -46t-18.5 -47.5t-44 -41t-74.5 -15.5q-30 0 -61 19.5t-48 51.5q-17 -42 -51.5 -64t-73.5 -22h-6zM18 1146v79l510 206v-74z" />
    <glyph glyph-name="uniFC63" unicode="&#xfc63;" arabic-form="isolated" 
d="M158 1141q-85 3 -122 59q-19 30 -19 75q0 57 27 115l52 -24q-20 -52 -20 -92q0 -30 8 -43q9 -14 30.5 -23t45.5 -9q40 0 60 24q6 8 11 17.5t8.5 17t5.5 20.5t3.5 19t2 22t0.5 20.5v22.5v22l53 11q9 -54 21.5 -92t26.5 -56.5t26 -26.5t24 -8q40 3 59 28t19 64
q0 80 -57 157l50 34q23 -36 45 -90.5t22 -98.5q0 -24 -5 -46t-18.5 -47.5t-44 -41t-74.5 -15.5q-30 0 -61 19.5t-48 51.5q-17 -42 -51.5 -64t-73.5 -22h-6zM303 1548l-65 20q34 164 -16 360l70 26q58 -205 11 -406z" />
    <glyph glyph-name="uniFE70" unicode="&#xfe70;" arabic-form="isolated" 
d="M19 1136v79l510 206v-71zM12 1315v79l510 206v-74z" />
    <glyph glyph-name="uniFE72" unicode="&#xfe72;" arabic-form="isolated" 
d="M40 1194q20 42 20 98q0 35 -6 43q-12 25 -43 29h1q-36 1 -76 -31l-42 42q57 52 120 48q61 -4 89 -55q17 -33 17 -73q0 -28 -11 -86q152 49 247 111l-80 34q-94 46 -94 135q0 29 11 48q21 44 62.5 72t86.5 28q22 0 48 -11q53 -26 72 -89q9 -31 9 -63q0 -51 -22 -124
l32 -12l-24 -53l-39 11q-45 -42 -120 -78.5t-128 -53t-95 -25.5l-35 48v7zM342 1577q-26 0 -56 -19.5t-42 -47.5l1 1q-1 -9 -1.5 -24.5t15.5 -39t45 -39.5q16 -8 45.5 -20t44.5 -19q17 66 17 106q0 31 -9 52q-17 50 -60 50z" />
    <glyph glyph-name="uniFE74" unicode="&#xfe74;" arabic-form="isolated" 
d="M20 -615v79l510 206v-71zM13 -436v79l510 206v-74z" />
    <glyph glyph-name="uniFE76" unicode="&#xfe76;" arabic-form="isolated" 
d="M12 1144v79l510 206v-74z" />
    <glyph glyph-name="uniFE78" unicode="&#xfe78;" arabic-form="isolated" 
d="M155 1239q80 37 149 83l-36 15q-30 14 -43 21q-110 56 -100 134q11 71 76 117q68 48 134 20q66 -35 80 -125q11 -79 -20 -152l27 -8l-19 -57l-42 15q-60 -59 -168 -112q-43 -21 -82 -36q-33 -14 -60 -21l-21 57q58 18 125 49zM221 1553q-40 -30 -40 -68q0 -39 66 -70
l92 -43q29 43 17 122q-14 86 -70 86q-30 0 -65 -27z" />
    <glyph glyph-name="uniFE7A" unicode="&#xfe7a;" arabic-form="isolated" 
d="M39 -436v79l510 206v-74z" />
    <glyph glyph-name="uniFE7C" unicode="&#xfe7c;" arabic-form="isolated" 
d="M138 1151q-85 3 -122 59q-19 30 -19 75q0 57 27 115l52 -24q-20 -52 -20 -92q0 -30 8 -43q9 -14 30.5 -23t45.5 -9q40 0 60 24q6 8 11 17.5t8.5 17t5.5 20.5t3.5 19t2 22t0.5 20.5v22.5v22l53 11q9 -54 21.5 -92t26.5 -56.5t26 -26.5t24 -8q40 3 59 28t19 64
q0 80 -57 157l50 34q23 -36 45 -90.5t22 -98.5q0 -24 -5 -46t-18.5 -47.5t-44 -41t-74.5 -15.5q-30 0 -61 19.5t-48 51.5q-17 -42 -51.5 -64t-73.5 -22h-6z" />
    <glyph glyph-name="uniFE7E" unicode="&#xfe7e;" arabic-form="isolated" 
d="M276 1204q47 0 83.5 40.5t34.5 95.5q-3 51 -34 93t-84 42q-50 0 -84.5 -43.5t-34.5 -91.5q0 -49 36 -92.5t83 -43.5zM276 1536q74 0 125 -61.5t53 -134.5q2 -76 -51 -136.5t-127 -60.5q-77 -2 -128 59t-51 138q0 73 51 134.5t128 61.5z" />
    <glyph glyph-name="uniFE82" unicode="&#x622;" horiz-adv-x="684" arabic-form="final" 
d="M665 40q-199 0 -293 94q-27 26 -44 59.5t-23 73t-7 59t-1 54.5v10q4 188 4 275q0 555 -30 780l116 22q31 -216 31 -822q0 -115 -2 -267q0 -121 42 -161q60 -60 198 -61h9q24 0 41.5 -17t17.5 -41t-17.5 -41t-41.5 -17zM-56 1568q15 44 36 81q60 93 147 110q13 3 39 3
q58 0 138 -33q70 -29 119 -30q71 -3 147 89q16 -9 83 -53q-13 -18 -31.5 -37.5t-49 -44t-71.5 -40t-83 -14.5q-52 1 -133 30l-15 6q-81 33 -129 25h1q-34 -5 -61.5 -42.5t-43.5 -79.5z" />
    <glyph glyph-name="uniFE84" unicode="&#x623;" horiz-adv-x="673" arabic-form="final" 
d="M665 40q-199 0 -293 94q-27 26 -44 59.5t-23 73t-7 59t-1 54.5v10q4 188 4 275q0 555 -30 780l116 22q31 -216 31 -822q0 -115 -2 -267q0 -121 42 -161q60 -60 198 -61h9q24 0 41.5 -17t17.5 -41t-17.5 -41t-41.5 -17zM404 1916q-5 0 -27 3t-36 3q-33 0 -60 -11v2
q-31 -13 -50 -39.5t-19 -57.5q0 -12 8 -33l-1 1q14 -34 48.5 -55t75.5 -21q23 0 41 6q46 15 92 43q24 13 42 27l57 -72q-53 -37 -234 -132l-220 -117l-46 81l173 92q-78 30 -117 112q-13 32 -13 68q0 58 35.5 107.5t92.5 71.5q43 18 95 18q32 0 79 -9l37 -9l-27 -85z" />
    <glyph glyph-name="uniFE86" unicode="&#x624;" horiz-adv-x="1058" arabic-form="final" 
d="M126 -540q146 34 270 97t209.5 141.5t138 166.5t64.5 175h-100q-91 0 -156 5q-194 14 -291 128q-57 72 -57 186q0 84 32.5 176.5t80.5 159.5v-1q89 113 202 113q124 0 231 -116v1q80 -89 128 -231.5t52 -304.5h113q25 0 42.5 -16.5t17.5 -42.5q0 -23 -17.5 -40t-42.5 -17
h-124q-28 -140 -101 -260.5t-176.5 -207t-227.5 -145t-260 -83.5zM519 690q-52 0 -102 -54t-80 -130t-30 -144q0 -72 39 -119q34 -41 95 -60t118 -22q33 -3 107 -3q133 0 146 1q-6 143 -49 262.5t-102 190.5q-71 78 -142 78zM535 1380q-40 7 -65 7q-34 0 -62 -12v2
q-32 -14 -51.5 -42.5t-19.5 -61.5q0 -14 8 -36l-1 1q14 -36 50 -59t78 -23q27 0 42 7q39 12 96 46q20 11 43 29l59 -78q-37 -28 -242 -142l-227 -126l-48 87l179 100q-83 34 -121 120q-14 37 -14 74q0 62 36.5 115.5t96.5 77.5q44 19 98 19q36 0 82 -10l38 -9l-28 -92z" />
    <glyph glyph-name="uniFE88" unicode="&#x625;" horiz-adv-x="673" arabic-form="final" 
d="M665 40q-199 0 -293 94q-27 26 -44 59.5t-23 73t-7 59t-1 54.5v10q4 188 4 275q0 555 -30 780l116 22q31 -216 31 -822q0 -115 -2 -267q0 -121 42 -161q60 -60 198 -61h9q24 0 41.5 -17t17.5 -41t-17.5 -41t-41.5 -17zM526 -128q-5 0 -27 3t-36 3q-33 0 -60 -11v2
q-31 -13 -50 -39.5t-19 -57.5q0 -12 8 -33l-1 1q14 -34 48.5 -55t75.5 -21q23 0 41 6q46 15 92 43q24 13 42 27l57 -72q-53 -37 -234 -132l-220 -117l-46 81l173 92q-78 30 -117 112q-13 32 -13 68q0 58 35.5 107.5t92.5 71.5q44 18 95 18q32 0 79 -9l37 -9l-27 -85z" />
    <glyph glyph-name="uniFE8A" unicode="&#x626;" horiz-adv-x="1683" arabic-form="final" 
d="M830 -612q-95 0 -174.5 8.5t-166.5 30.5t-154.5 68.5t-107.5 114.5q-89 131 -89 341q0 30 1 47q14 261 152 601l108 -43q-143 -377 -143 -609q0 -166 68 -270q22 -32 49.5 -58t62 -43.5t63.5 -30.5t72 -20t68 -11.5t71 -6.5t62 -2h58q45 0 111.5 7.5t154 28t160 50.5
t123 82.5t50.5 116.5q0 42 -51.5 94t-167.5 95q-41 14 -85.5 25t-92 20.5t-56.5 11.5l8 121l732 -1q24 0 41.5 -17t17.5 -41t-17.5 -41t-41.5 -17h-350q180 -147 180 -250q-1 -64 -28 -120t-71.5 -96t-105 -72.5t-125 -53.5t-135 -34.5t-132.5 -19.5t-119 -6zM881 613
q-40 7 -65 7q-34 0 -62 -12v2q-32 -14 -51.5 -42.5t-19.5 -61.5q0 -14 8 -36l-1 1q14 -36 50 -59t78 -23q27 0 42 7q39 12 96 46q20 11 43 29l59 -78q-37 -28 -242 -142l-227 -126l-48 87l179 100q-83 34 -121 120q-14 37 -14 74q0 62 36.5 115.5t96.5 77.5q44 19 98 19
q36 0 82 -10l38 -9l-28 -92z" />
    <glyph glyph-name="uniFE8B" unicode="&#x626;" horiz-adv-x="711" arabic-form="initial" 
d="M-65 98q0 25 17 41.5t41 16.5h148q64 0 117 10.5t102.5 35.5t77.5 73.5t28 117.5q0 98 -45 241q-8 26 -22 60t-30 71t-21 51q61 30 107 54q47 -106 77 -200q51 -162 51 -275q0 -82 -26 -145v1q-70 -146 -228 -191q-72 -20 -190 -20h-146q-24 0 -41 16.5t-17 41.5z
M460 1431q-40 7 -65 7q-34 0 -62 -12v2q-32 -14 -51.5 -42.5t-19.5 -61.5q0 -14 8 -36l-1 1q14 -36 50 -59t78 -23q27 0 42 7q39 12 96 46q20 11 43 29l59 -78q-37 -28 -242 -142l-227 -126l-48 87l179 100q-83 34 -121 120q-14 37 -14 74q0 62 36.5 115.5t96.5 77.5
q44 19 98 19q36 0 82 -10l38 -9l-28 -92z" />
    <glyph glyph-name="uniFE8C" unicode="&#x626;" horiz-adv-x="715" arabic-form="medial" 
d="M-54 98q0 24 16.5 41t41.5 17h17q188 0 277 68t89 208q0 83 -35 218q31 7 112 33q38 -142 43 -268q2 -55 6 -90.5t16 -70.5t33 -54.5t56.5 -31.5t85.5 -12q24 0 41.5 -17t17.5 -41t-17 -41t-41 -17q-160 0 -270 144q-150 -144 -414 -144h-17q-25 0 -41.5 16.5t-16.5 41.5
zM448 1314q-40 7 -65 7q-34 0 -62 -12v2q-32 -14 -51.5 -42.5t-19.5 -61.5q0 -14 8 -36l-1 1q14 -36 50 -59t78 -23q27 0 42 7q39 12 96 46q20 11 43 29l59 -78q-37 -28 -242 -142l-227 -126l-48 87l179 100q-83 34 -121 120q-14 37 -14 74q0 62 36.5 115.5t96.5 77.5
q44 19 98 19q36 0 82 -10l38 -9l-28 -92z" />
    <glyph glyph-name="uniFE8E" unicode="&#x627;" horiz-adv-x="624" arabic-form="final" 
d="M626 40q-199 0 -293 94q-27 26 -44 59.5t-23 75t-7 63.5t-1 65q7 232 0 575t-27 531l116 22q40 -298 30 -1147q0 -45 1 -65.5t11 -48.5t30 -47q60 -60 198 -61h9q24 0 41.5 -17t17.5 -41t-17.5 -41t-41.5 -17z" />
    <glyph glyph-name="uniFE90" unicode="&#x628;" horiz-adv-x="2245" arabic-form="final" 
d="M1876 188q-38 48 -78 159q-298 -310 -849 -310q-299 2 -487.5 69t-271.5 206q-61 101 -61 233q0 73 17 138q25 100 56 168q7 -4 19 -11t32.5 -18.5t52.5 -29.5q-63 -140 -63 -235t45 -176q69 -109 238.5 -167t422.5 -58q453 0 660 171l-1 -1q80 64 127 147.5t81 189.5
l114 -33q-26 -76 -26 -172q6 -124 64 -197q90 -105 269 -105q25 0 42 -16.5t17 -41.5t-17 -41.5t-42 -16.5h-8q-238 4 -353 148zM991 -494l-134 134l133 133l134 -134z" />
    <glyph glyph-name="uniFE91" unicode="&#x628;" horiz-adv-x="664" arabic-form="initial" 
d="M-65 98q0 25 17 41.5t41 16.5h148q64 0 117 10.5t102.5 35.5t77.5 73.5t28 117.5q0 98 -45 241q-8 26 -22 60t-30 71t-21 51q61 30 107 54q47 -106 77 -200q51 -162 51 -275q0 -82 -26 -145v1q-70 -146 -228 -191q-72 -20 -190 -20h-146q-24 0 -41 16.5t-17 41.5z
M295 -508l-134 134l133 133l134 -134z" />
    <glyph glyph-name="uniFE92" unicode="&#x628;" horiz-adv-x="718" arabic-form="medial" 
d="M-54 98q0 24 16.5 41t41.5 17h17q188 0 277 68t89 208q0 83 -35 218q31 7 112 33q38 -142 43 -268q2 -55 6 -90.5t16 -70.5t33 -54.5t56.5 -31.5t85.5 -12q24 0 41.5 -17t17.5 -41t-17 -41t-41 -17q-160 0 -270 144q-150 -144 -414 -144h-17q-25 0 -41.5 16.5t-16.5 41.5
zM390 -493l-134 134l133 133l134 -134z" />
    <glyph glyph-name="uniFE94" unicode="&#x629;" horiz-adv-x="1126" arabic-form="final" 
d="M581 180q-237 0 -329 111q-43 54 -43 134q0 56 16 93v-1q105 221 474 360l-15 142q19 4 38.5 8.5t42.5 10t36 8.5q2 -14 17.5 -161.5t17.5 -163.5v1q41 -354 81 -450q29 -66 77 -91t133 -25q24 0 41.5 -17t17.5 -41t-17.5 -41t-41.5 -17q-107 0 -179 33h1
q-68 32 -129 130q-153 -23 -239 -23zM663 738q-32 -14 -52.5 -22.5t-60.5 -28.5t-67 -36.5t-60.5 -42t-53.5 -50t-34.5 -56t-14.5 -63.5q0 -41 21.5 -70.5t59.5 -45t80.5 -22.5t93.5 -7q83 0 205 22q-27 132 -66 442zM448 1294l-134 133l132 133l134 -134zM804 1292
l-134 134l132 132l133 -134z" />
    <glyph glyph-name="uniFE96" unicode="&#x62a;" horiz-adv-x="2241" arabic-form="final" 
d="M1876 188q-38 48 -78 159q-298 -310 -849 -310q-299 2 -487.5 69t-271.5 206q-61 101 -61 233q0 73 17 138q25 100 56 168q7 -4 19 -11t32.5 -18.5t52.5 -29.5q-63 -140 -63 -235t45 -176q69 -109 238.5 -167t422.5 -58q453 0 660 171l-1 -1q80 64 127 147.5t81 189.5
l114 -33q-26 -76 -26 -172q6 -124 64 -197q90 -105 269 -105q25 0 42 -16.5t17 -41.5t-17 -41.5t-42 -16.5h-8q-238 4 -353 148zM847 853l-134 133l132 133l134 -134zM1203 851l-134 134l132 132l133 -134z" />
    <glyph glyph-name="uniFE97" unicode="&#x62a;" horiz-adv-x="788" arabic-form="initial" 
d="M244 1114l-134 133l132 133l134 -134zM600 1112l-134 134l132 132l133 -134zM-94 98q0 25 17 41.5t41 16.5h111h8q51 0 80.5 0.5t85 5t90.5 13t79.5 26t70 42t43.5 63t18 87.5q0 83 -51 241q-8 26 -22 60t-30 71t-21 51q61 30 107 54q47 -106 77 -200q51 -162 51 -275
q0 -82 -26 -145v1q-70 -146 -228 -191q-71 -20 -289 -20h-154q-24 0 -41 16.5t-17 41.5z" />
    <glyph glyph-name="uniFE98" unicode="&#x62a;" horiz-adv-x="870" arabic-form="medial" 
d="M-61 98q0 25 16.5 41.5t41.5 16.5h76q81 0 144 5.5t126 22.5t103.5 46t64.5 77.5t22 115.5q-5 103 -33 212q18 4 38 11t32 10l41 12q21 -86 36 -217l5 -49q3 -32 6 -52t10 -49t15.5 -47t23.5 -38.5t34.5 -32t48.5 -19.5t65 -8q25 0 42.5 -16.5t17.5 -41.5q0 -24 -17 -41
t-41 -17q-160 0 -271 148q-78 -76 -218.5 -112t-294.5 -36h-76q-25 0 -41.5 16.5t-16.5 41.5zM265 890l-134 133l132 133l134 -134zM621 888l-134 134l132 132l133 -134z" />
    <glyph glyph-name="uniFE9A" unicode="&#x62b;" horiz-adv-x="2233" arabic-form="final" 
d="M1876 188q-38 48 -78 159q-298 -310 -849 -310q-299 2 -487.5 69t-271.5 206q-61 101 -61 233q0 73 17 138q25 100 56 168q7 -4 19 -11t32.5 -18.5t52.5 -29.5q-63 -140 -63 -235t45 -176q69 -109 238.5 -167t422.5 -58q453 0 660 171l-1 -1q80 64 127 147.5t81 189.5
l114 -33q-26 -76 -26 -172q6 -124 64 -197q90 -105 269 -105q25 0 42 -16.5t17 -41.5t-17 -41.5t-42 -16.5h-8q-238 4 -353 148zM1252 1101l134 -134l-132 -132l-134 134zM846 1103l134 -134l-132 -133l-134 134zM1053 1374l133 -133l-132 -132l-133 133z" />
    <glyph glyph-name="uniFE9B" unicode="&#x62b;" horiz-adv-x="799" arabic-form="initial" 
d="M657 1374l134 -134l-132 -132l-134 134zM251 1376l134 -134l-132 -133l-134 134zM458 1647l133 -133l-132 -132l-133 133zM-58 98q0 25 17 41.5t41 16.5h111h8q51 0 80.5 0.5t85 5t90.5 13t79.5 26t70 42t43.5 63t18 87.5q0 83 -51 241q-8 26 -22 60t-30 71t-21 51
q61 30 107 54q47 -106 77 -200q51 -162 51 -275q0 -82 -26 -145v1q-70 -146 -228 -191q-71 -20 -289 -20h-154q-24 0 -41 16.5t-17 41.5z" />
    <glyph glyph-name="uniFE9C" unicode="&#x62b;" horiz-adv-x="864" arabic-form="medial" 
d="M-61 98q0 25 16.5 41.5t41.5 16.5h76q81 0 144 5.5t126 22.5t103.5 46t64.5 77.5t22 115.5q-5 103 -33 212q18 4 38 11t32 10l41 12q21 -86 36 -217l5 -49q3 -32 6 -52t10 -49t15.5 -47t23.5 -38.5t34.5 -32t48.5 -19.5t65 -8q25 0 42.5 -16.5t17.5 -41.5q0 -24 -17 -41
t-41 -17q-160 0 -271 148q-78 -76 -218.5 -112t-294.5 -36h-76q-25 0 -41.5 16.5t-16.5 41.5zM613 1140l134 -134l-132 -132l-134 134zM207 1142l134 -134l-132 -133l-134 134zM414 1413l133 -133l-132 -132l-133 133z" />
    <glyph glyph-name="uniFE9E" unicode="&#x62c;" horiz-adv-x="1696" arabic-form="final" 
d="M912 -751q-195 0 -360 77.5t-262.5 215.5t-97.5 306q0 219 145 405q96 119 286 213h-1q123 55 313.5 96t366.5 45q-66 30 -157 71.5t-134.5 61.5t-104.5 47t-92 38.5t-69 24.5t-63 17t-49 4q-187 0 -319 -222l-91 51q66 126 171 207t238 81q90 0 208.5 -43t216 -97
t223 -123t201.5 -101q-3 -15 -6 -28.5t-8.5 -39t-11.5 -55.5q-78 0 -157 -3q-8 -49 -8.5 -82t11.5 -74.5t40 -78.5q49 -65 129 -86t230 -21q24 0 41.5 -17.5t17.5 -42.5q0 -24 -17.5 -40t-41.5 -16q-340 0 -452 153q-103 140 -63 294q-330 -44 -515 -128q-36 -17 -73.5 -40
t-87.5 -65t-89 -90t-70.5 -117.5t-39.5 -145.5q-1 -11 -1 -37q0 -120 52 -218t139.5 -160.5t198.5 -96.5t231 -34q289 0 485 166q8 -9 27 -33.5t48 -58.5q-229 -180 -578 -180zM899 -254l-134 134l133 133l134 -134z" />
    <glyph glyph-name="uniFE9F" unicode="&#x62c;" horiz-adv-x="1548" arabic-form="initial" 
d="M-61 98q0 25 17.5 41.5t42.5 16.5h198q131 0 276 28t292.5 80.5t275 108t275.5 129.5q-225 83 -341 139h1q-80 39 -127.5 59.5t-109 39.5t-105.5 19q-163 0 -300 -234q-23 10 -57 24t-52 22q47 80 89 131q70 83 153 128.5t167 45.5q57 0 128.5 -20.5t122.5 -42.5t140 -65
q14 -6 54.5 -24.5t54.5 -25t49 -22t52.5 -22.5t48.5 -19.5t53.5 -20.5t51.5 -17.5t58 -17.5q3 -13 7 -34.5t8 -37.5q2 -9 5 -27t5 -26q-39 -18 -89.5 -46.5t-116.5 -61.5q-619 -306 -1069 -306h-198q-25 0 -42.5 17t-17.5 41zM765 -497l-134 134l133 133l134 -134z" />
    <glyph glyph-name="uniFEA0" unicode="&#x62c;" horiz-adv-x="1663" arabic-form="medial" 
d="M-59 97q0 24 17 41.5t42 17.5h183q89 0 175 10.5t175 35.5t155 46t161 63.5t143.5 66t149.5 73.5l109 54q-137 32 -320 125q-84 42 -131.5 64t-116.5 43t-122 21q-44 0 -86.5 -18t-74 -43t-61 -60t-46.5 -60t-32 -52l-107 49q59 96 87 130q73 80 156.5 126.5t163.5 46.5
q58 0 130.5 -21t121.5 -42t139 -64q28 -13 86.5 -42t90 -43.5t79.5 -33t92 -28.5t90 -13l27 -125q-12 -5 -44.5 -25.5t-107.5 -57.5q17 -59 56.5 -103.5t82.5 -67t96 -36t87 -16.5t66 -3h6h8q25 0 42 -17.5t17 -41.5q0 -25 -17 -41t-42 -16h-14q-183 0 -313 76t-184 212
q-128 -64 -228 -107.5t-228.5 -89t-258.5 -69t-258 -23.5l-183 1q-25 0 -42 16t-17 41zM789 -495l-134 134l133 133l134 -134z" />
    <glyph glyph-name="uniFEA2" unicode="&#x62d;" horiz-adv-x="1702" arabic-form="final" 
d="M912 -751q-195 0 -360 77.5t-262.5 215.5t-97.5 306q0 219 145 405q96 119 286 213h-1q123 55 313.5 96t366.5 45q-66 30 -157 71.5t-134.5 61.5t-104.5 47t-92 38.5t-69 24.5t-63 17t-49 4q-187 0 -319 -222l-91 51q66 126 171 207t238 81q90 0 208.5 -43t216 -97
t223 -123t201.5 -101q-3 -15 -6 -28.5t-8.5 -39t-11.5 -55.5q-78 0 -157 -3q-8 -49 -8.5 -82t11.5 -74.5t40 -78.5q49 -65 129 -86t230 -21q24 0 41.5 -17.5t17.5 -42.5q0 -24 -17.5 -40t-41.5 -16q-340 0 -452 153q-103 140 -63 294q-330 -44 -515 -128q-36 -17 -73.5 -40
t-87.5 -65t-89 -90t-70.5 -117.5t-39.5 -145.5q-1 -11 -1 -37q0 -120 52 -218t139.5 -160.5t198.5 -96.5t231 -34q289 0 485 166q8 -9 27 -33.5t48 -58.5q-229 -180 -578 -180z" />
    <glyph glyph-name="uniFEA3" unicode="&#x62d;" horiz-adv-x="1548" arabic-form="initial" 
d="M-61 98q0 25 17.5 41.5t42.5 16.5h198q131 0 276 28t292.5 80.5t275 108t275.5 129.5q-225 83 -341 139h1q-80 39 -127.5 59.5t-109 39.5t-105.5 19q-163 0 -300 -234q-23 10 -57 24t-52 22q47 80 89 131q70 83 153 128.5t167 45.5q57 0 128.5 -20.5t122.5 -42.5t140 -65
q14 -6 54.5 -24.5t54.5 -25t49 -22t52.5 -22.5t48.5 -19.5t53.5 -20.5t51.5 -17.5t58 -17.5q3 -13 7 -34.5t8 -37.5q2 -9 5 -27t5 -26q-39 -18 -89.5 -46.5t-116.5 -61.5q-619 -306 -1069 -306h-198q-25 0 -42.5 17t-17.5 41z" />
    <glyph glyph-name="uniFEA4" unicode="&#x62d;" horiz-adv-x="1667" arabic-form="medial" 
d="M-59 97q0 24 17 41.5t42 17.5h183q89 0 175 10.5t175 35.5t155 46t161 63.5t143.5 66t149.5 73.5l109 54q-137 32 -320 125q-84 42 -131.5 64t-116.5 43t-122 21q-44 0 -86.5 -18t-74 -43t-61 -60t-46.5 -60t-32 -52l-107 49q59 96 87 130q73 80 156.5 126.5t163.5 46.5
q58 0 130.5 -21t121.5 -42t139 -64q28 -13 86.5 -42t90 -43.5t79.5 -33t92 -28.5t90 -13l27 -125q-12 -5 -44.5 -25.5t-107.5 -57.5q17 -59 56.5 -103.5t82.5 -67t96 -36t87 -16.5t66 -3h6h8q25 0 42 -17.5t17 -41.5q0 -25 -17 -41t-42 -16h-14q-183 0 -313 76t-184 212
q-128 -64 -228 -107.5t-228.5 -89t-258.5 -69t-258 -23.5l-183 1q-25 0 -42 16t-17 41z" />
    <glyph glyph-name="uniFEA6" unicode="&#x62e;" horiz-adv-x="1707" arabic-form="final" 
d="M912 -751q-195 0 -360 77.5t-262.5 215.5t-97.5 306q0 219 145 405q96 119 286 213h-1q123 55 313.5 96t366.5 45q-66 30 -157 71.5t-134.5 61.5t-104.5 47t-92 38.5t-69 24.5t-63 17t-49 4q-187 0 -319 -222l-91 51q66 126 171 207t238 81q90 0 208.5 -43t216 -97
t223 -123t201.5 -101q-3 -15 -6 -28.5t-8.5 -39t-11.5 -55.5q-78 0 -157 -3q-8 -49 -8.5 -82t11.5 -74.5t40 -78.5q49 -65 129 -86t230 -21q24 0 41.5 -17.5t17.5 -42.5q0 -24 -17.5 -40t-41.5 -16q-340 0 -452 153q-103 140 -63 294q-330 -44 -515 -128q-36 -17 -73.5 -40
t-87.5 -65t-89 -90t-70.5 -117.5t-39.5 -145.5q-1 -11 -1 -37q0 -120 52 -218t139.5 -160.5t198.5 -96.5t231 -34q289 0 485 166q8 -9 27 -33.5t48 -58.5q-229 -180 -578 -180zM601 1229l-134 134l133 133l134 -134z" />
    <glyph glyph-name="uniFEA7" unicode="&#x62e;" horiz-adv-x="1548" arabic-form="initial" 
d="M-61 98q0 25 17.5 41.5t42.5 16.5h198q131 0 276 28t292.5 80.5t275 108t275.5 129.5q-225 83 -341 139h1q-80 39 -127.5 59.5t-109 39.5t-105.5 19q-163 0 -300 -234q-23 10 -57 24t-52 22q47 80 89 131q70 83 153 128.5t167 45.5q57 0 128.5 -20.5t122.5 -42.5t140 -65
q14 -6 54.5 -24.5t54.5 -25t49 -22t52.5 -22.5t48.5 -19.5t53.5 -20.5t51.5 -17.5t58 -17.5q3 -13 7 -34.5t8 -37.5q2 -9 5 -27t5 -26q-39 -18 -89.5 -46.5t-116.5 -61.5q-619 -306 -1069 -306h-198q-25 0 -42.5 17t-17.5 41zM597 1078l-134 134l133 133l134 -134z" />
    <glyph glyph-name="uniFEA8" unicode="&#x62e;" horiz-adv-x="1669" arabic-form="medial" 
d="M-59 97q0 24 17 41.5t42 17.5h183q89 0 175 10.5t175 35.5t155 46t161 63.5t143.5 66t149.5 73.5l109 54q-137 32 -320 125q-84 42 -131.5 64t-116.5 43t-122 21q-44 0 -86.5 -18t-74 -43t-61 -60t-46.5 -60t-32 -52l-107 49q59 96 87 130q73 80 156.5 126.5t163.5 46.5
q58 0 130.5 -21t121.5 -42t139 -64q28 -13 86.5 -42t90 -43.5t79.5 -33t92 -28.5t90 -13l27 -125q-12 -5 -44.5 -25.5t-107.5 -57.5q17 -59 56.5 -103.5t82.5 -67t96 -36t87 -16.5t66 -3h6h8q25 0 42 -17.5t17 -41.5q0 -25 -17 -41t-42 -16h-14q-183 0 -313 76t-184 212
q-128 -64 -228 -107.5t-228.5 -89t-258.5 -69t-258 -23.5l-183 1q-25 0 -42 16t-17 41zM540 1091l-134 134l133 133l134 -134z" />
    <glyph glyph-name="uniFEAA" unicode="&#x62f;" horiz-adv-x="1253" arabic-form="final" 
d="M501 34q-209 0 -366 151q45 67 69 100q170 -131 310 -131q236 0 362 148q-104 256 -311 749q8 3 37.5 15t71.5 30l72 -174q24 -60 102 -246.5t133 -320.5l-1 1q13 -34 20 -50.5t20.5 -42.5t25.5 -38t32 -28.5t43 -23t55.5 -12t72.5 -5.5q24 0 41.5 -17t17.5 -41
t-17.5 -41t-41.5 -17q-111 0 -184.5 39.5t-129.5 109.5q-99 -84 -189.5 -119.5t-244.5 -35.5z" />
    <glyph glyph-name="uniFEAC" unicode="&#x630;" horiz-adv-x="1247" arabic-form="final" 
d="M501 34q-209 0 -366 151q45 67 69 100q170 -131 310 -131q236 0 362 148q-104 256 -311 749q8 3 37.5 15t71.5 30l72 -174q24 -60 102 -246.5t133 -320.5l-1 1q13 -34 20 -50.5t20.5 -42.5t25.5 -38t32 -28.5t43 -23t55.5 -12t72.5 -5.5q24 0 41.5 -17t17.5 -41
t-17.5 -41t-41.5 -17q-111 0 -184.5 39.5t-129.5 109.5q-99 -84 -189.5 -119.5t-244.5 -35.5zM627 1335l-134 134l133 133l134 -134z" />
    <glyph glyph-name="uniFEAE" unicode="&#x631;" horiz-adv-x="816" arabic-form="final" 
d="M585 69q0 -93 -33 -184.5t-89.5 -170t-134.5 -153t-163.5 -134t-181.5 -110.5q-6 12 -14.5 28.5t-14.5 29.5q-4 8 -12.5 23.5t-11.5 22.5q109 58 201 126.5t170 150t122.5 178t44.5 194.5q0 34 -6 77t-11.5 73t-21 88.5t-20.5 76.5t-26 85.5t-22 71.5l111 35
q76 -223 157.5 -322t190.5 -99h5q25 0 42 -17.5t17 -41.5q0 -25 -17 -41t-42 -16q-172 0 -246 108z" />
    <glyph glyph-name="uniFEB0" unicode="&#x632;" horiz-adv-x="819" arabic-form="final" 
d="M585 69q0 -93 -33 -184.5t-89.5 -170t-134.5 -153t-163.5 -134t-181.5 -110.5q-6 12 -14.5 28.5t-14.5 29.5q-4 8 -12.5 23.5t-11.5 22.5q109 58 201 126.5t170 150t122.5 178t44.5 194.5q0 34 -6 77t-11.5 73t-21 88.5t-20.5 76.5t-26 85.5t-22 71.5l111 35
q76 -223 157.5 -322t190.5 -99h5q25 0 42 -17.5t17 -41.5q0 -25 -17 -41t-42 -16q-172 0 -246 108zM392 862l-134 134l133 133l134 -134z" />
    <glyph glyph-name="uniFEB2" unicode="&#x633;" horiz-adv-x="2889" arabic-form="final" 
d="M2891 156q24 0 41.5 -17t17.5 -42q0 -24 -17.5 -40.5t-41.5 -16.5h-20q-121 0 -206.5 71t-131.5 184q-31 -115 -103 -185.5t-189 -70.5q-69 0 -140 41.5t-107 118.5q-56 -84 -125 -122t-158 -38q-98 0 -172 38q-29 14 -55 38q-4 -360 -192.5 -549.5t-515.5 -189.5
q-6 0 -17 0.5t-17 0.5q-243 0 -408 140h1q-69 63 -116.5 153.5t-61.5 189.5q-9 60 -9 114q0 149 49 306q41 137 101 238q17 -12 45 -34t49 -37q-46 -76 -85.5 -212t-39.5 -268q0 -49 6 -91q6 -43 19 -84.5t48.5 -98t86.5 -97.5t141 -70.5t205 -29.5q592 15 592 587
q0 198 -108 452l106 56q10 -26 28 -77t31 -84.5t34 -79.5t43.5 -76t52.5 -59t69 -43t85 -14q37 0 68.5 10t54.5 24.5t42 41.5t31 51t21.5 62.5t14.5 66t9 73t5 71.5t3 72l124 -8l-7 -133q0 -45 3.5 -86t14.5 -88.5t29.5 -81.5t50.5 -57t75 -23q54 0 97 33.5t67 86.5
t35 115.5t7 124.5q-1 9 -3 68t-6 104l124 8q1 -7 3.5 -37t3.5 -41.5t4.5 -38t6.5 -44.5t8 -43.5t12 -49.5q38 -137 108.5 -210t158.5 -73h20z" />
    <glyph glyph-name="uniFEB3" unicode="&#x633;" horiz-adv-x="1609" arabic-form="initial" 
d="M-55 99q0 23 16.5 40t39.5 17q64 0 121.5 31.5t99.5 81t77 115t57 129t36 127.5l115 -23q-58 -184 -58 -288q0 -182 148 -182q53 0 99 25t79.5 70t60 96t45.5 114.5t31 113.5t21 105q99 -21 111 -23q-33 -208 -33 -270q0 -234 187 -234q94 0 141.5 59.5t47.5 156.5
q0 96 -38 217.5t-85 221.5q21 11 53.5 29t49.5 27q139 -288 139 -492q0 -157 -88 -247t-258 -88q-74 0 -152 58.5t-97 148.5q-38 -90 -129.5 -149.5t-184.5 -57.5q-101 2 -165.5 61t-77.5 148q-59 -90 -150.5 -143.5t-203.5 -53.5q-23 2 -39 19t-16 40z" />
    <glyph glyph-name="uniFEB4" unicode="&#x633;" horiz-adv-x="1851" arabic-form="medial" 
d="M-61 98q0 23 18 39.5t42 18.5h8q62 0 120.5 38t100.5 94.5t79.5 130t59.5 134.5t37 118l113 -31l-6 -27q-11 -46 -16.5 -73t-13.5 -78t-9 -84t3 -75.5t16.5 -69t37.5 -48t61 -27.5q48 -8 91.5 11t75.5 52t61.5 87t47.5 100t36 108t25 94t16 73q19 -4 56 -11t58 -11
q-18 -105 -18 -212q0 -39 3.5 -74.5t14.5 -76.5t29 -70t51 -49t77 -20q207 0 207 431q0 40 -5 93q27 2 119 11q9 -136 51 -266q89 -272 259 -272h8q25 0 41.5 -16.5t16.5 -41.5q0 -24 -16.5 -41t-41.5 -17h-8q-121 0 -215.5 76t-123.5 182q-16 -111 -94.5 -184.5
t-197.5 -73.5q-214 0 -278 237q-48 -108 -129 -174t-191 -66q-101 0 -167.5 61t-90.5 180q-145 -238 -351 -238h-9q-24 0 -41.5 17t-17.5 41z" />
    <glyph glyph-name="uniFEB6" unicode="&#x634;" horiz-adv-x="2889" arabic-form="final" 
d="M2891 156q24 0 41.5 -17t17.5 -42q0 -24 -17.5 -40.5t-41.5 -16.5h-20q-121 0 -206.5 71t-131.5 184q-31 -115 -103 -185.5t-189 -70.5q-69 0 -140 41.5t-107 118.5q-56 -84 -125 -122t-158 -38q-98 0 -172 38q-29 14 -55 38q-4 -360 -192.5 -549.5t-515.5 -189.5
q-6 0 -17 0.5t-17 0.5q-243 0 -408 140h1q-69 63 -116.5 153.5t-61.5 189.5q-9 60 -9 114q0 149 49 306q41 137 101 238q17 -12 45 -34t49 -37q-46 -76 -85.5 -212t-39.5 -268q0 -49 6 -91q6 -43 19 -84.5t48.5 -98t86.5 -97.5t141 -70.5t205 -29.5q592 15 592 587
q0 198 -108 452l106 56q10 -26 28 -77t31 -84.5t34 -79.5t43.5 -76t52.5 -59t69 -43t85 -14q37 0 68.5 10t54.5 24.5t42 41.5t31 51t21.5 62.5t14.5 66t9 73t5 71.5t3 72l124 -8l-7 -133q0 -45 3.5 -86t14.5 -88.5t29.5 -81.5t50.5 -57t75 -23q54 0 97 33.5t67 86.5
t35 115.5t7 124.5q-1 9 -3 68t-6 104l124 8q1 -7 3.5 -37t3.5 -41.5t4.5 -38t6.5 -44.5t8 -43.5t12 -49.5q38 -137 108.5 -210t158.5 -73h20zM2196 1183l134 -134l-132 -132l-134 134zM1790 1185l134 -134l-132 -133l-134 134zM1997 1456l133 -133l-132 -132l-133 133z" />
    <glyph glyph-name="uniFEB7" unicode="&#x634;" horiz-adv-x="1609" arabic-form="initial" 
d="M-55 99q0 23 16.5 40t39.5 17q64 0 121.5 31.5t99.5 81t77 115t57 129t36 127.5l115 -23q-58 -184 -58 -288q0 -182 148 -182q53 0 99 25t79.5 70t60 96t45.5 114.5t31 113.5t21 105q99 -21 111 -23q-33 -208 -33 -270q0 -234 187 -234q94 0 141.5 59.5t47.5 156.5
q0 96 -38 217.5t-85 221.5q21 11 53.5 29t49.5 27q139 -288 139 -492q0 -157 -88 -247t-258 -88q-74 0 -152 58.5t-97 148.5q-38 -90 -129.5 -149.5t-184.5 -57.5q-101 2 -165.5 61t-77.5 148q-59 -90 -150.5 -143.5t-203.5 -53.5q-23 2 -39 19t-16 40zM1133 1288l134 -134
l-132 -132l-134 134zM727 1290l134 -134l-132 -133l-134 134zM934 1561l133 -133l-132 -132l-133 133z" />
    <glyph glyph-name="uniFEB8" unicode="&#x634;" horiz-adv-x="1876" arabic-form="medial" 
d="M-54 98q0 23 18 39.5t42 18.5h8q62 0 120.5 38t100.5 94.5t79.5 130t59.5 134.5t37 118l113 -31l-6 -27q-11 -46 -16.5 -73t-13.5 -78t-9 -84t3 -75.5t16.5 -69t37.5 -48t61 -27.5q48 -8 91.5 11t75.5 52t61.5 87t47.5 100t36 108t25 94t16 73q19 -4 56 -11t58 -11
q-18 -105 -18 -212q0 -39 3.5 -74.5t14.5 -76.5t29 -70t51 -49t77 -20q207 0 207 431q0 40 -5 93q27 2 119 11q9 -136 51 -266q89 -272 259 -272h8q25 0 41.5 -16.5t16.5 -41.5q0 -24 -16.5 -41t-41.5 -17h-8q-121 0 -215.5 76t-123.5 182q-16 -111 -94.5 -184.5
t-197.5 -73.5q-214 0 -278 237q-48 -108 -129 -174t-191 -66q-101 0 -167.5 61t-90.5 180q-145 -238 -351 -238h-9q-24 0 -41.5 17t-17.5 41zM1201 1258l134 -134l-132 -132l-134 134zM795 1260l134 -134l-132 -133l-134 134zM1002 1531l133 -133l-132 -132l-133 133z" />
    <glyph glyph-name="uniFEBA" unicode="&#x635;" horiz-adv-x="2868" arabic-form="final" 
d="M1699 192q179 -70 374 -70q68 0 136 9t142 33.5t129.5 61.5t92 98.5t36.5 139.5q0 91 -54 149q-80 85 -209 85q-191 0 -396 -191q-72 -69 -144.5 -162t-106.5 -153zM2868 40q-84 0 -164 30.5t-124 74.5q-208 -132 -473 -139q-16 -1 -46 -1q-196 0 -364 60
q-103 41 -243 140q0 -1 0.5 -23.5t0.5 -24.5q6 -64 6 -122q0 -39 -2 -52q-10 -129 -58 -242q-61 -126 -152 -206v1q-184 -146 -448 -146q-53 0 -96 4q-202 25 -312 91q-115 67 -172 185q-54 117 -53 262q2 128 36 256q35 146 106 285l67 -43l34 -22q-126 -268 -126 -484
q0 -113 42 -203q103 -186 386 -210q27 -3 83 -3q234 0 377 117q151 131 168 367q2 34 2 54q0 211 -115 526l111 44q55 -121 142 -256q36 -53 121 -117q45 82 116.5 176t152.5 173q102 100 223 163t248 63q84 0 162 -31.5t132 -90.5q91 -109 91 -244q0 -111 -65 -219
q21 -27 83 -52t115 -25h8q25 0 42 -17t17 -42q0 -24 -17 -40.5t-42 -16.5z" />
    <glyph glyph-name="uniFEBB" unicode="&#x635;" horiz-adv-x="1871" arabic-form="initial" 
d="M696 129q60 -15 151 -20t197.5 0t212.5 30t193.5 64t144 107.5t60.5 156.5q4 74 -40 133.5t-107 89t-126 29.5q-167 0 -383 -190q-86 -80 -179 -208t-124 -192zM-59 98q0 24 17.5 41t41.5 17q196 0 282 111q25 34 43.5 82t27 84t22.5 104q15 78 25 120l114 -34
q-78 -305 84 -444q38 84 126.5 209t193.5 225q104 100 230.5 161.5t247.5 61.5q153 0 259.5 -100t106.5 -266q0 -81 -37 -159.5t-106 -133.5q-61 -50 -137 -84.5t-163 -52t-156 -25.5t-162 -13q-101 -9 -193.5 -1t-168 30.5t-136.5 74.5t-99 132q-75 -102 -170.5 -149.5
t-224.5 -48.5h-9q-24 0 -41.5 17t-17.5 41z" />
    <glyph glyph-name="uniFEBC" unicode="&#x635;" horiz-adv-x="1933" arabic-form="medial" 
d="M-59 97q0 25 17 42t41 17h9q127 4 179 28q55 29 95 82q36 48 58.5 113.5t45.5 168.5q21 100 24 109l112 -35q-29 -99 -29 -175q0 -28 1.5 -48.5t8 -52t18 -57t34.5 -54t55 -51.5q49 102 120.5 203t161 192t200.5 157t222 88q44 10 99 10q100 0 184 -40t136 -120.5
t51 -186.5q-2 -84 -54 -181t-137 -150h340q25 0 42.5 -17t17.5 -42q0 -24 -17.5 -40.5t-42.5 -16.5l-252 -1q-211 0 -279 33q-228 -63 -416 -63q-42 0 -90.5 3.5t-126.5 18.5t-142 39t-122.5 72t-83.5 111q-98 -129 -188 -170q-85 -43 -234 -43q-24 0 -41 16.5t-17 40.5z
M727 156q60 -18 114.5 -24.5t145.5 -6.5q173 0 325.5 35t248.5 112q109 87 114 213q4 74 -35 128.5t-96.5 78.5t-122.5 24q-36 0 -85 -7q-97 -16 -190.5 -71t-170.5 -137t-137 -166t-111 -179z" />
    <glyph glyph-name="uniFEBE" unicode="&#x636;" horiz-adv-x="2867" arabic-form="final" 
d="M1699 192q179 -70 374 -70q68 0 136 9t142 33.5t129.5 61.5t92 98.5t36.5 139.5q0 91 -54 149q-80 85 -209 85q-191 0 -396 -191q-72 -69 -144.5 -162t-106.5 -153zM2868 40q-84 0 -164 30.5t-124 74.5q-208 -132 -473 -139q-16 -1 -46 -1q-196 0 -364 60
q-103 41 -243 140q0 -1 0.5 -23.5t0.5 -24.5q6 -64 6 -122q0 -39 -2 -52q-10 -129 -58 -242q-61 -126 -152 -206v1q-184 -146 -448 -146q-53 0 -96 4q-202 25 -312 91q-115 67 -172 185q-54 117 -53 262q2 128 36 256q35 146 106 285l67 -43l34 -22q-126 -268 -126 -484
q0 -113 42 -203q103 -186 386 -210q27 -3 83 -3q234 0 377 117q151 131 168 367q2 34 2 54q0 211 -115 526l111 44q55 -121 142 -256q36 -53 121 -117q45 82 116.5 176t152.5 173q102 100 223 163t248 63q84 0 162 -31.5t132 -90.5q91 -109 91 -244q0 -111 -65 -219
q21 -27 83 -52t115 -25h8q25 0 42 -17t17 -42q0 -24 -17 -40.5t-42 -16.5zM2296 1069l-134 134l133 133l134 -134z" />
    <glyph glyph-name="uniFEBF" unicode="&#x636;" horiz-adv-x="1894" arabic-form="initial" 
d="M696 129q60 -15 151 -20t197.5 0t212.5 30t193.5 64t144 107.5t60.5 156.5q4 74 -40 133.5t-107 89t-126 29.5q-167 0 -383 -190q-86 -80 -179 -208t-124 -192zM-59 98q0 24 17.5 41t41.5 17q196 0 282 111q25 34 43.5 82t27 84t22.5 104q15 78 25 120l114 -34
q-78 -305 84 -444q38 84 126.5 209t193.5 225q104 100 230.5 161.5t247.5 61.5q153 0 259.5 -100t106.5 -266q0 -81 -37 -159.5t-106 -133.5q-61 -50 -137 -84.5t-163 -52t-156 -25.5t-162 -13q-101 -9 -193.5 -1t-168 30.5t-136.5 74.5t-99 132q-75 -102 -170.5 -149.5
t-224.5 -48.5h-9q-24 0 -41.5 17t-17.5 41zM1299 1117l-134 134l133 133l134 -134z" />
    <glyph glyph-name="uniFEC0" unicode="&#x636;" horiz-adv-x="1931" arabic-form="medial" 
d="M-59 97q0 25 17 42t41 17h9q127 4 179 28q55 29 95 82q36 48 58.5 113.5t45.5 168.5q21 100 24 109l112 -35q-29 -99 -29 -175q0 -28 1.5 -48.5t8 -52t18 -57t34.5 -54t55 -51.5q49 102 120.5 203t161 192t200.5 157t222 88q44 10 99 10q100 0 184 -40t136 -120.5
t51 -186.5q-2 -84 -54 -181t-137 -150h340q25 0 42.5 -17t17.5 -42q0 -24 -17.5 -40.5t-42.5 -16.5l-252 -1q-211 0 -279 33q-228 -63 -416 -63q-42 0 -90.5 3.5t-126.5 18.5t-142 39t-122.5 72t-83.5 111q-98 -129 -188 -170q-85 -43 -234 -43q-24 0 -41 16.5t-17 40.5z
M727 156q60 -18 114.5 -24.5t145.5 -6.5q173 0 325.5 35t248.5 112q109 87 114 213q4 74 -35 128.5t-96.5 78.5t-122.5 24q-36 0 -85 -7q-97 -16 -190.5 -71t-170.5 -137t-137 -166t-111 -179zM1354 1095l-134 134l133 133l134 -134z" />
    <glyph glyph-name="uniFEC2" unicode="&#x637;" horiz-adv-x="1867" arabic-form="final" 
d="M947 40q-28 -1 -80 -1q-59 0 -126 4h-3q-293 19 -583 124l20 53q3 8 22 56q119 -43 253 -76q58 86 143 195l26 38q12 80 13 203t-3.5 218.5t-19.5 255.5t-20.5 209t-21.5 183l115 27q57 -436 69 -955q53 50 95 86.5t105 84t118.5 77.5t122.5 51t129 21q131 0 241 -81
t114 -204q4 -146 -77 -267t-201 -186h93h369h8q25 0 41.5 -16.5t16.5 -41.5q0 -24 -16.5 -41t-41.5 -17h-921zM572 169q365 -16 580 30.5t319 170.5q42 43 69.5 109.5t19.5 127.5q-8 63 -55.5 104.5t-108 54.5t-122.5 5q-219 -35 -503 -349z" />
    <glyph glyph-name="uniFEC3" unicode="&#x637;" horiz-adv-x="1509" arabic-form="initial" 
d="M531 156q67 0 102.5 1t102.5 5.5t115.5 16.5t110 32t119.5 53.5t113 79.5q59 51 92 121.5t20 141.5q-16 80 -87.5 123t-159.5 43q-28 0 -56 -5q-81 -20 -164.5 -67t-155 -107t-143.5 -137t-128.5 -149.5t-109.5 -151.5h229zM-62 98q0 23 18 40.5t41 17.5h9h167
q69 113 161 248q24 135 25 394q0 286 -37 711l118 25q42 -344 42 -723q0 -24 -2 -121.5t-2 -122.5q301 279 509 317h-1q35 7 84 7q152 0 250 -93h-1q79 -84 89 -192q8 -92 -34 -184t-102 -156l2 1q-81 -71 -171.5 -119t-181.5 -70.5t-165 -30.5t-158 -8l-592 1h-9
q-24 0 -41.5 17t-17.5 41z" />
    <glyph glyph-name="uniFEC4" unicode="&#x637;" horiz-adv-x="1583" arabic-form="medial" 
d="M484 155h34q69 0 104 0.5t99 3.5t103.5 10t96 20.5t99 33.5t90.5 50.5t90 70.5q47 45 80 118.5t25 136.5q-7 49 -36.5 86t-71.5 56t-89.5 26t-93.5 1q-45 -6 -102 -30t-130.5 -73t-149 -116.5t-160 -169.5t-160.5 -223zM-66 98q0 25 16.5 41.5t41.5 16.5h8h167
q24 39 48.5 74.5t40 56.5t42.5 55.5t40 51.5q30 41 30 265q0 187 -15.5 448t-34.5 400q19 3 56 10.5t59 11.5q56 -384 56 -964q53 48 94.5 84t106.5 84t121 78.5t123 52.5t127 22q134 0 242.5 -76.5t114.5 -204.5q2 -51 -5 -97t-18.5 -81.5t-34 -70.5t-42 -59t-51.5 -52.5
t-53.5 -45.5t-57.5 -43h433q25 0 41.5 -16t16.5 -41q0 -24 -16.5 -41t-41.5 -17q-15 0 -88.5 -1t-159.5 -1q-237 0 -382 45q-151 -44 -354 -44h-613q-25 0 -41.5 16.5t-16.5 41.5z" />
    <glyph glyph-name="uniFEC6" unicode="&#x638;" horiz-adv-x="1868" arabic-form="final" 
d="M947 40q-28 -1 -80 -1q-59 0 -126 4h-3q-293 19 -583 124l20 53q3 8 22 56q119 -43 253 -76q58 86 143 195l26 38q12 80 13 203t-3.5 218.5t-19.5 255.5t-20.5 209t-21.5 183l115 27q57 -436 69 -955q53 50 95 86.5t105 84t118.5 77.5t122.5 51t129 21q131 0 241 -81
t114 -204q4 -146 -77 -267t-201 -186h93h369h8q25 0 41.5 -16.5t16.5 -41.5q0 -24 -16.5 -41t-41.5 -17h-921zM572 169q365 -16 580 30.5t319 170.5q42 43 69.5 109.5t19.5 127.5q-8 63 -55.5 104.5t-108 54.5t-122.5 5q-219 -35 -503 -349zM1283 1222l-134 134l133 133
l134 -134z" />
    <glyph glyph-name="uniFEC7" unicode="&#x638;" horiz-adv-x="1520" arabic-form="initial" 
d="M531 156q67 0 102.5 1t102.5 5.5t115.5 16.5t110 32t119.5 53.5t113 79.5q59 51 92 121.5t20 141.5q-16 80 -87.5 123t-159.5 43q-28 0 -56 -5q-81 -20 -164.5 -67t-155 -107t-143.5 -137t-128.5 -149.5t-109.5 -151.5h229zM-62 98q0 23 18 40.5t41 17.5h9h167
q69 113 161 248q24 135 25 394q0 286 -37 711l118 25q42 -344 42 -723q0 -24 -2 -121.5t-2 -122.5q301 279 509 317h-1q35 7 84 7q152 0 250 -93h-1q79 -84 89 -192q8 -92 -34 -184t-102 -156l2 1q-81 -71 -171.5 -119t-181.5 -70.5t-165 -30.5t-158 -8l-592 1h-9
q-24 0 -41.5 17t-17.5 41zM1048 1210l-134 134l133 133l134 -134z" />
    <glyph glyph-name="uniFEC8" unicode="&#x638;" horiz-adv-x="1570" arabic-form="medial" 
d="M484 155h34q69 0 104 0.5t99 3.5t103.5 10t96 20.5t99 33.5t90.5 50.5t90 70.5q47 45 80 118.5t25 136.5q-7 49 -36.5 86t-71.5 56t-89.5 26t-93.5 1q-45 -6 -102 -30t-130.5 -73t-149 -116.5t-160 -169.5t-160.5 -223zM-66 98q0 25 16.5 41.5t41.5 16.5h8h167
q24 39 48.5 74.5t40 56.5t42.5 55.5t40 51.5q30 41 30 265q0 187 -15.5 448t-34.5 400q19 3 56 10.5t59 11.5q56 -384 56 -964q53 48 94.5 84t106.5 84t121 78.5t123 52.5t127 22q134 0 242.5 -76.5t114.5 -204.5q2 -51 -5 -97t-18.5 -81.5t-34 -70.5t-42 -59t-51.5 -52.5
t-53.5 -45.5t-57.5 -43h433q25 0 41.5 -16t16.5 -41q0 -24 -16.5 -41t-41.5 -17q-15 0 -88.5 -1t-159.5 -1q-237 0 -382 45q-151 -44 -354 -44h-613q-25 0 -41.5 16.5t-16.5 41.5zM1057 1221l-134 134l133 133l134 -134z" />
    <glyph glyph-name="uniFECA" unicode="&#x639;" horiz-adv-x="1355" arabic-form="final" 
d="M663 -627q341 -42 580 102q10 -16 28.5 -49t31.5 -52q-216 -130 -486 -130q-194 0 -360.5 75t-265.5 228v-1q-67 110 -67 235q0 130 69 252q55 100 174.5 187.5t265.5 147.5q-32 28 -64 58t-54 51.5t-52.5 53t-43.5 46t-44.5 48t-39.5 42.5l-10 95q90 126 324 182l-1 -1
q112 23 204 23q109 0 189 -27q180 -54 185 -210q4 -140 -140 -263q-77 -61 -225 -129q149 -91 261.5 -136t232.5 -45q24 -1 40.5 -18t16.5 -41q0 -25 -16.5 -41t-40.5 -17q-149 0 -299 63.5t-322 182.5q-76 -30 -138.5 -60t-131.5 -76t-116 -95.5t-77.5 -117t-30.5 -142.5
q0 -64 29 -127t75.5 -111.5t103 -88t112.5 -63.5t103 -31zM444 722q184 -197 308 -300q191 77 280.5 145t89.5 161q0 59 -114 100q-67 21 -155 21q-101 0 -211.5 -33.5t-197.5 -93.5z" />
    <glyph glyph-name="uniFECB" unicode="&#x639;" horiz-adv-x="1072" arabic-form="initial" 
d="M872 662q-57 37 -97 58q-116 59 -192 59q-129 0 -202 -81t-73 -195q0 -92 54 -165t140.5 -110.5t185.5 -33.5q159 11 266 34q3 -26 8 -64t6 -49q-290 -73 -750 -73l-218 -2q-25 0 -42.5 16.5t-17.5 41.5t17.5 41.5t42.5 16.5l386 4q-105 95 -149.5 177t-44.5 166
q0 161 112.5 276.5t278.5 115.5q82 0 162.5 -28.5t123 -56.5t76.5 -58z" />
    <glyph glyph-name="uniFECC" unicode="&#x639;" horiz-adv-x="1138" arabic-form="medial" 
d="M1142 156q24 0 41.5 -17.5t17.5 -42.5q0 -24 -17.5 -40.5t-41.5 -16.5q-323 0 -542 129q-128 -62 -291.5 -95.5t-311.5 -33.5q-24 0 -41.5 16.5t-17.5 40.5q0 25 17.5 42.5t41.5 17.5q111 0 250 24.5t239 64.5q-121 110 -285 306l-74 87q1 20 5 53.5t5 53.5
q142 120 378 150q48 5 87 5q146 0 269 -50q76 -36 110 -83.5t34 -86.5q9 -79 -90 -213.5t-223 -230.5q211 -80 440 -80zM595 306q68 32 140.5 110.5t117 157.5t44.5 121q-129 88 -305 88q-172 0 -345 -103q85 -103 128 -153.5t105 -115t115 -105.5z" />
    <glyph glyph-name="uniFECE" unicode="&#x63a;" horiz-adv-x="1351" arabic-form="final" 
d="M657 -627q341 -42 580 102q10 -16 28.5 -49t31.5 -52q-216 -130 -486 -130q-194 0 -360.5 75t-265.5 228v-1q-67 110 -67 235q0 130 69 252q55 100 174.5 187.5t265.5 147.5q-32 28 -64 58t-54 51.5t-52.5 53t-43.5 46t-44.5 48t-39.5 42.5l-10 95q90 126 324 182l-1 -1
q112 23 204 23q109 0 189 -27q180 -54 185 -210q4 -140 -140 -263q-77 -61 -225 -129q149 -91 261.5 -136t232.5 -45q24 -1 40.5 -18t16.5 -41q0 -25 -16.5 -41t-40.5 -17q-149 0 -299 63.5t-322 182.5q-76 -30 -138.5 -60t-131.5 -76t-116 -95.5t-77.5 -117t-30.5 -142.5
q0 -64 29 -127t75.5 -111.5t103 -88t112.5 -63.5t103 -31zM438 722q184 -197 308 -300q191 77 280.5 145t89.5 161q0 59 -114 100q-67 21 -155 21q-101 0 -211.5 -33.5t-197.5 -93.5zM753 1208l-134 134l133 133l134 -134z" />
    <glyph glyph-name="uniFECF" unicode="&#x63a;" horiz-adv-x="1089" arabic-form="initial" 
d="M872 662q-57 37 -97 58q-116 59 -192 59q-129 0 -202 -81t-73 -195q0 -92 54 -165t140.5 -110.5t185.5 -33.5q159 11 266 34q3 -26 8 -64t6 -49q-290 -73 -750 -73l-218 -2q-25 0 -42.5 16.5t-17.5 41.5t17.5 41.5t42.5 16.5l386 4q-105 95 -149.5 177t-44.5 166
q0 161 112.5 276.5t278.5 115.5q82 0 162.5 -28.5t123 -56.5t76.5 -58zM504 1198l-134 134l133 133l134 -134z" />
    <glyph glyph-name="uniFED0" unicode="&#x63a;" horiz-adv-x="1144" arabic-form="medial" 
d="M1135 156q24 0 41.5 -17.5t17.5 -42.5q0 -24 -17.5 -40.5t-41.5 -16.5q-323 0 -542 129q-128 -62 -291.5 -95.5t-311.5 -33.5q-24 0 -41.5 16.5t-17.5 40.5q0 25 17.5 42.5t41.5 17.5q111 0 250 24.5t239 64.5q-121 110 -285 306l-74 87q1 20 4.5 53.5t5.5 53.5
q142 120 378 150q48 5 87 5q146 0 269 -50q76 -36 110 -83.5t34 -86.5q9 -79 -90 -213.5t-223 -230.5q211 -80 440 -80zM588 306q68 32 140.5 110.5t117 157.5t44.5 121q-129 88 -305 88q-172 0 -345 -103q85 -103 128 -153.5t105 -115t115 -105.5zM598 1185l-134 134
l133 133l134 -134z" />
    <glyph glyph-name="uniFED2" unicode="&#x641;" horiz-adv-x="2101" arabic-form="final" 
d="M1938 528q-6 -105 -44 -178.5t-119 -155.5q213 -38 333 -38q24 0 41.5 -17t17.5 -41t-17.5 -41t-41.5 -17q-256 0 -469 74l-75 -24q-93 -35 -257 -53.5t-346 -18.5q-598 2 -765 285q-61 99 -61 234q0 137 61 275l104 -58q-48 -110 -48 -218q0 -92 46 -175
q67 -110 213 -165.5t394 -61.5h5q72 -2 102 -2q222 0 473 51q-87 50 -142 147t-55 171q0 93 42.5 184t121.5 152t171 61q274 0 315 -370zM1623 244q214 91 214 284q0 64 -19 113t-44.5 74t-58.5 40.5t-54 19.5t-38 4q-36 0 -74.5 -18t-73 -52t-57 -90t-22.5 -123
q0 -64 63.5 -143t163.5 -109zM1584 1202l-134 134l133 133l134 -134z" />
    <glyph glyph-name="uniFED3" unicode="&#x641;" horiz-adv-x="903" arabic-form="initial" 
d="M428 967q-47 0 -112 -66.5t-83 -170.5q-4 -15 -4 -45q0 -65 31 -99h-1q23 -29 83.5 -51.5t122.5 -26.5q23 -2 97 -2q72 0 130 6q-8 119 -47 223.5t-94 166.5q-61 65 -123 65zM-61 98q0 25 17.5 41.5t42.5 16.5q292 0 450 51t249 181h-192q-98 0 -183.5 32.5t-132.5 88.5
q-23 21 -37 72.5t-14 107.5q0 25 5 57q26 143 99 236q79 103 185 103q114 0 210 -105q76 -84 119 -209t43 -260q0 -479 -786 -471h-17q-24 0 -41 17t-17 41zM398 1337l-134 134l133 133l134 -134z" />
    <glyph glyph-name="uniFED4" unicode="&#x641;" horiz-adv-x="1019" arabic-form="medial" 
d="M508 781q-35 0 -74 -17.5t-75.5 -50.5t-60 -88t-23.5 -122q0 -68 67.5 -154.5t176.5 -119.5q91 40 143.5 119t52.5 158q0 102 -67 188.5t-140 86.5zM-58 98q0 25 16.5 41.5t41.5 16.5q186 0 379 26q-63 28 -112 89t-71.5 121.5t-22.5 107.5q0 94 43 183t121.5 149.5
t171.5 65.5q141 -12 226.5 -119.5t85.5 -248.5q0 -170 -155 -336q173 -38 352 -38q26 0 42.5 -16.5t16.5 -41.5t-16.5 -41.5t-42.5 -16.5h-9q-140 0 -255 18q-133 21 -232 55q-192 -73 -514 -73h-8q-25 0 -41.5 16.5t-16.5 41.5zM457 1213l-134 134l133 133l134 -134z" />
    <glyph glyph-name="uniFED6" unicode="&#x642;" horiz-adv-x="1565" arabic-form="final" 
d="M1022 688q-55 0 -110 -69l1 1q-72 -87 -96 -212q-4 -25 -4 -55q0 -71 34 -112q61 -67 214 -81q85 -4 171 -4h83q-6 148 -48 267.5t-102 187.5q-70 77 -143 77zM1232 37q-76 0 -177 6q-199 17 -292 128l1 -1q-60 83 -60 184q0 28 8 78q23 151 108 260q90 114 202 114
q127 0 230 -115q77 -89 125.5 -231.5t54.5 -300.5q12 0 64.5 -1.5t74.5 -1.5q24 0 41.5 -17t17.5 -41t-17.5 -41t-41.5 -17h-9h-139q-28 -170 -90 -293q-80 -151 -202 -237h1q-155 -107 -375 -107q-193 0 -330 73q-143 69 -225 205q-83 140 -83 322q0 19 2 57v-1
q19 204 131 437l104 -56q-119 -243 -119 -438q0 -146 66 -258q135 -222 454 -222q317 0 468 273q49 91 81 242h-74zM833 1003l-134 133l132 133l134 -134zM1189 1001l-134 134l132 132l133 -134z" />
    <glyph glyph-name="uniFED7" unicode="&#x642;" horiz-adv-x="908" arabic-form="initial" 
d="M428 967q-47 0 -112 -66.5t-83 -170.5q-4 -15 -4 -45q0 -65 31 -99h-1q23 -29 83.5 -51.5t122.5 -26.5q23 -2 97 -2q72 0 130 6q-8 119 -47 223.5t-94 166.5q-61 65 -123 65zM-61 98q0 25 17.5 41.5t42.5 16.5q292 0 450 51t249 181h-192q-98 0 -183.5 32.5t-132.5 88.5
q-23 21 -37 72.5t-14 107.5q0 25 5 57q26 143 99 236q79 103 185 103q114 0 210 -105q76 -84 119 -209t43 -260q0 -479 -786 -471h-17q-24 0 -41 17t-17 41zM228 1349l-134 133l132 133l134 -134zM584 1347l-134 134l132 132l133 -134z" />
    <glyph glyph-name="uniFED8" unicode="&#x642;" horiz-adv-x="1037" arabic-form="medial" 
d="M522 781q-35 0 -74 -17.5t-75.5 -50.5t-60 -88t-23.5 -122q0 -68 67.5 -154.5t176.5 -119.5q91 40 143.5 119t52.5 158q0 102 -67 188.5t-140 86.5zM-44 98q0 25 16.5 41.5t41.5 16.5q186 0 379 26q-63 28 -112 89t-71.5 121.5t-22.5 107.5q0 94 43 183t121.5 149.5
t171.5 65.5q141 -12 226.5 -119.5t85.5 -248.5q0 -170 -155 -336q173 -38 352 -38q26 0 42.5 -16.5t16.5 -41.5t-16.5 -41.5t-42.5 -16.5h-9q-140 0 -255 18q-133 21 -232 55q-192 -73 -514 -73h-8q-25 0 -41.5 16.5t-16.5 41.5zM348 1197l-134 133l132 133l134 -134z
M704 1195l-134 134l132 132l133 -134z" />
    <glyph glyph-name="uniFEDA" unicode="&#x643;" horiz-adv-x="2062" arabic-form="final" 
d="M1873 265q48 -99 189 -109q24 0 41 -17t17 -41t-17 -41t-41 -17h-5q-104 6 -164 41q-77 42 -146 178q-114 -114 -236 -163h1q-235 -85 -559 -85q-338 4 -561 82q-193 77 -258 209q-38 68 -38 160q0 79 37 182q28 73 62 126l94 -71q-24 -39 -49 -101q-26 -73 -26 -135
q0 -54 25 -107q61 -106 247 -166t467 -60q329 0 514 73q43 17 69.5 31t55 36t45 49t30.5 67.5t19.5 95t5.5 126.5q0 126 -15 324q-10 285 -31 506q25 2 62.5 6t53.5 6q26 -345 34 -515q6 -112 10 -150q6 -78 11 -231q10 -199 56 -289zM1078 885q-32 5 -51 5q-37 0 -66 -13
q-35 -14 -56 -44.5t-21 -66.5q0 -18 8 -40q17 -35 56 -61t81 -26q19 0 45 8q58 20 133 69l49 -62l-449 -250l-44 63l191 107q-108 56 -135 121q-13 37 -13 71q0 59 34.5 109t91.5 74q47 19 95 19q39 0 109 -16l-25 -71z" />
    <glyph glyph-name="uniFEDB" unicode="&#x643;" horiz-adv-x="962" arabic-form="initial" 
d="M-68 97q0 26 19 42.5t49 16.5h56h49q53 0 85.5 0.5t82 3.5t80 8t71.5 15t66 24.5t52 36.5t42 50t25 66.5t10 84.5q0 52 -16 109q-24 86 -160 245t-302 295q1 12 19 160q180 77 440.5 188t320.5 137q7 -16 24.5 -51.5t25.5 -56.5l-740 -310q196 -170 266 -247
q233 -258 233 -485q0 -148 -88.5 -251.5t-239.5 -131.5q-35 -7 -79 -7l-323 1q-29 0 -48.5 16.5t-19.5 40.5z" />
    <glyph glyph-name="uniFEDC" unicode="&#x643;" horiz-adv-x="1188" arabic-form="medial" 
d="M-69 98q0 24 17.5 41t41.5 17h9h330q91 0 175.5 70.5t96.5 154.5q4 85 -39 187.5t-116 198t-149 175t-152 142.5q16 137 22 177q140 60 411.5 177.5t411.5 177.5q7 -17 24 -52.5t25 -55.5l-813 -352q125 -101 218 -209t129.5 -168.5t100.5 -182.5q7 -12 10 -18
q71 -136 106 -191q67 -112 150.5 -169.5t202.5 -61.5h44q25 0 41.5 -17t16.5 -41q0 -25 -16.5 -41.5t-41.5 -16.5h-8q-120 0 -221 33h1q-119 45 -255 220q-60 -111 -108 -156h1q-98 -88 -283 -97h1h-325q-24 0 -41.5 17t-17.5 41z" />
    <glyph glyph-name="uniFEDE" unicode="&#x644;" horiz-adv-x="1490" arabic-form="final" 
d="M291 325q-29 -59 -51 -126q-50 -152 -50 -281q0 -84 31 -155.5t78.5 -118.5t105 -80.5t110 -48t95.5 -14.5q68 0 133 10t139 40t128.5 77t90.5 129t36 189q0 247 -19.5 781.5t-31.5 753.5q5 0 116 7l15 -350q22 -559 27 -723q6 -76 34 -130q65 -129 210 -129
q25 0 42 -17.5t17 -41.5q0 -25 -17 -41t-42 -16q-149 0 -238 73q0 -19 1.5 -86t1.5 -81q0 -98 -22.5 -179t-59.5 -138t-89.5 -101t-109 -70.5t-122 -43.5t-123 -23t-117.5 -6q-77 0 -152 19t-145 61.5t-122.5 103t-84.5 151t-32 198.5q0 277 110 470z" />
    <glyph glyph-name="uniFEDF" unicode="&#x644;" horiz-adv-x="558" arabic-form="initial" 
d="M-58 98q0 25 17 41.5t41 16.5h9h47q133 0 193 60q73 73 63 234l-52 998q25 2 62.5 6t53.5 6q21 -206 50 -1011q3 -81 -19 -170.5t-76 -145.5q-87 -93 -275 -93h-47h-9q-24 0 -41 17t-17 41z" />
    <glyph glyph-name="uniFEE0" unicode="&#x644;" horiz-adv-x="661" arabic-form="medial" 
d="M-58 98q0 24 17 41t41 17h9h86q66 2 98 9.5t54 24.5q63 53 69 201q10 256 10 576t-16 516q73 8 115 15q22 -262 10 -1109q0 -86 37 -144q57 -89 190 -89q25 0 42.5 -17t17.5 -41q0 -25 -17.5 -41.5t-42.5 -16.5q-160 -4 -277 122q-60 -66 -119 -94t-148 -28h-109h-9
q-24 0 -41 16.5t-17 41.5z" />
    <glyph glyph-name="uniFEE2" unicode="&#x645;" horiz-adv-x="1210" arabic-form="final" 
d="M824 172q8 -3 18 -3q48 0 83 65q31 62 33 138v13v1l-1 16q-11 100 -60 174q-60 91 -152 91l-10 -1q-79 -4 -151 -115q-65 -97 -116 -248q211 -83 356 -131zM1113 206q45 -51 93 -51q24 0 41 -15q16 -16 16 -40q0 -26 -15 -42q-17 -17 -43 -17q-100 0 -164 76l-32 39
l-30 -41q-25 -32 -47 -46q-35 -23 -71 -23q-25 0 -50 9q-85 29 -579 202l31 -959l-60 -4l-60 -3l-3 55l-3 76l-9 203l-21 513q-5 132 52 190q39 40 104 40q21 0 103 -21q35 111 98 218q128 219 276 219q119 0 205 -98q84 -96 107 -243q6 -41 3 -88v-4l1 -3q6 -48 24 -89
q14 -31 33 -53z" />
    <glyph glyph-name="uniFEE3" unicode="&#x645;" horiz-adv-x="1138" arabic-form="initial" 
d="M-57 98q0 24 17 40t42 18h-1q40 0 76.5 7t65 16t57 28.5t47.5 34.5t42 44.5t36 47.5t33.5 55t29.5 55t30 59l16.5 33l18 36t16 30.5t18.5 32.5t17.5 26t19.5 27q83 96 188 96q127 0 221 -107q42 -54 67 -133.5t25 -159.5q0 -92 -30 -168l1 1q-27 -62 -68.5 -103.5
t-92.5 -55.5q-38 -8 -71 -8q-67 0 -158 35q-100 39 -221 130l-28 -27q-145 -148 -356 -148q-25 0 -41.5 17t-16.5 41zM452 313q93 -67 187.5 -107t152.5 -40q27 0 45 6q41 15 64.5 71t23.5 127q0 69 -21.5 131.5t-71 109.5t-118.5 55q-51 0 -93.5 -50.5t-98.5 -163.5z" />
    <glyph glyph-name="uniFEE4" unicode="&#x645;" horiz-adv-x="1141" arabic-form="medial" 
d="M748 162q60 0 98 38q50 50 48 153v1v2q-1 11 -1 32l-1 4l-1 10q-11 101 -68 178q-65 87 -148 87q-59 0 -118 -83q-21 -29 -48 -82l-22 -45l-21 -45l-10 -19l-11 -17l-10 -14l-8 -15l-16 -31l29 -20l2 -2q3 -1 5 -2l9 -6q17 -12 24 -16q39 -24 67 -39q99 -55 160 -65
q20 -4 41 -4zM1045 212q43 -54 95 -54q24 0 41 -17t17 -41t-17 -41t-41 -17q-98 0 -163 84l-32 41l-31 -42q-26 -34 -57 -53q-41 -27 -89 -27q-7 0 -25 2q-118 17 -254 84q-43 21 -84 45q-13 8 -24 15l-6 4l-2 1v1l-34 23l-22 -35l-1 -1l-4 -5q-12 -15 -13 -16
q-25 -27 -57 -48q-42 -31 -96 -49q-70 -24 -150 -24q-24 0 -41 17t-17 41t17 41t41 17q146 0 257 130q44 50 80 115q23 44 29 56l13 26l6 13l6 11v1l18 37l2 4q59 117 101 162q68 72 167 72q118 0 205 -99q84 -95 107 -242q6 -43 3 -89v-4l1 -3q4 -45 22 -85q15 -31 32 -51z
" />
    <glyph glyph-name="uniFEE6" unicode="&#x646;" horiz-adv-x="1714" arabic-form="final" 
d="M1707 40q-126 0 -283 94q0 -8 2.5 -60.5t2.5 -60.5q0 -129 -37 -253v1q-38 -103 -107.5 -182.5t-158 -128t-187.5 -73t-205 -24.5q-534 0 -625 483v-1q-9 57 -9 114q0 138 42.5 282t107.5 261l48 -36q19 -15 47 -35q-46 -84 -86.5 -224t-40.5 -260q0 -51 7 -86
q-4 -43 15.5 -94t62.5 -102t102 -92t143.5 -67t178.5 -26q209 0 355 88.5t197 237.5q31 97 31 211q0 199 -102 431q-16 36 -23 48l-14 32l99 63q36 -71 48 -98q45 -86 90.5 -148.5t83 -96t79 -53t70.5 -24.5t66 -5q25 0 42 -16.5t17 -41.5q0 -24 -17 -41t-42 -17zM770 442
l-134 134l133 133l134 -134z" />
    <glyph glyph-name="uniFEE7" unicode="&#x646;" horiz-adv-x="706" arabic-form="initial" 
d="M-65 98q0 25 17 41.5t41 16.5h148q64 0 117 10.5t102.5 35.5t77.5 73.5t28 117.5q0 98 -45 241q-8 26 -22 60t-30 71t-21 51q61 30 107 54q47 -106 77 -200q51 -162 51 -275q0 -82 -26 -145v1q-70 -146 -228 -191q-72 -20 -190 -20h-146q-24 0 -41 16.5t-17 41.5z
M331 1115l-134 134l133 133l134 -134z" />
    <glyph glyph-name="uniFEE8" unicode="&#x646;" horiz-adv-x="705" arabic-form="medial" 
d="M-54 98q0 24 16.5 41t41.5 17h17q188 0 277 68t89 208q0 83 -35 218q31 7 112 33q38 -142 43 -268q2 -55 6 -90.5t16 -70.5t33 -54.5t56.5 -31.5t85.5 -12q24 0 41.5 -17t17.5 -41t-17 -41t-41 -17q-160 0 -270 144q-150 -144 -414 -144h-17q-25 0 -41.5 16.5t-16.5 41.5
zM395 994l-134 134l133 133l134 -134z" />
    <glyph glyph-name="uniFEEA" unicode="&#x647;" horiz-adv-x="1090" arabic-form="final" 
d="M544 180q-238 0 -329 111q-43 54 -43 134q0 56 16 93v-1q105 221 474 360l-15 142q19 4 38.5 8.5t42.5 10t36 8.5q2 -14 17.5 -161.5t17.5 -163.5v1q41 -354 81 -450q29 -66 77 -91t133 -25q24 0 41.5 -17t17.5 -41t-17.5 -41t-41.5 -17q-107 0 -179 33h1
q-68 32 -129 130q-153 -23 -239 -23zM626 738q-32 -14 -52.5 -22.5t-60.5 -28.5t-67 -36.5t-60.5 -42t-53.5 -50t-34.5 -56t-14.5 -63.5q0 -41 21.5 -70.5t59.5 -45t80.5 -22.5t93.5 -7q83 0 205 22q-27 132 -66 442z" />
    <glyph glyph-name="uniFEEB" unicode="&#x647;" horiz-adv-x="1433" arabic-form="initial" 
d="M-68 99q0 23 18 40t44 17h9q11 0 43 2.5t129 8.5t233 13q-200 177 -200 343q0 56 20 115t57.5 113.5t98.5 96t135 55.5l-143 55l61 113q3 0 311 -126q451 -196 549 -327h-1q84 -115 84 -236q0 -90 -47.5 -165t-140.5 -125q-46 -27 -131.5 -41t-164.5 -14q-187 0 -335 62
q-182 -59 -558 -59h-9q-26 0 -44 17t-18 42zM700 173q36 -9 67 -14.5t56 -7.5t40 -2.5t36 0t26 0.5q165 0 256.5 70t91.5 175q0 98 -111.5 210.5t-297.5 177.5q12 -19 20.5 -38t13.5 -37.5t8.5 -33t4.5 -32.5t1.5 -26.5t0 -25t-0.5 -18.5q0 -97 -59.5 -212.5t-152.5 -185.5z
M640 821q-48 12 -107.5 -16.5t-107 -77.5t-78 -111t-24.5 -113q13 -82 74.5 -155t149.5 -121q113 45 176.5 146.5t63.5 205.5q0 90 -41.5 161t-105.5 81z" />
    <glyph glyph-name="uniFEEC" unicode="&#x647;" horiz-adv-x="1005" arabic-form="medial" 
d="M525 753q-69 -12 -137.5 -116.5t-103 -239.5t-16.5 -231q98 -6 183.5 34t137.5 123t48 191q-1 40 -5.5 71t-15.5 67.5t-34 62.5t-57 38zM-59 98q0 24 16.5 41t41.5 17h154q-5 88 19 204t68 227.5t117 193.5t157 93q69 0 123 -65t80.5 -155t26.5 -181q0 -118 -61 -211.5
t-161 -147t-225 -67.5q26 -105 95.5 -228t161.5 -190q-5 55 -5 69q0 85 43 170.5t109.5 147.5t148 101t155.5 39q25 0 42 -17t17 -41q0 -25 -17 -41.5t-42 -16.5h-10q-129 -6 -225 -114.5t-96 -241.5q0 -105 69 -191l-82 -98q-374 244 -485 645h-177q-25 0 -41.5 16.5
t-16.5 41.5z" />
    <glyph glyph-name="uniFEEE" unicode="&#x648;" horiz-adv-x="1043" arabic-form="final" 
d="M126 -540q146 34 270 97t209.5 141.5t138 166.5t64.5 175h-100q-91 0 -156 5q-194 14 -291 128q-57 72 -57 186q0 84 32.5 176.5t80.5 159.5v-1q89 113 202 113q124 0 231 -116v1q80 -89 128 -231.5t52 -304.5h113q25 0 42.5 -16.5t17.5 -42.5q0 -23 -17.5 -40t-42.5 -17
h-124q-28 -140 -101 -260.5t-176.5 -207t-227.5 -145t-260 -83.5zM519 690q-52 0 -102 -54t-80 -130t-30 -144q0 -72 39 -119q34 -41 95 -60t118 -22q33 -3 107 -3q133 0 146 1q-6 143 -49 262.5t-102 190.5q-71 78 -142 78z" />
    <glyph glyph-name="uniFEF0" unicode="&#x649;" horiz-adv-x="1715" arabic-form="final" 
d="M830 -612q-95 0 -174.5 8.5t-166.5 30.5t-154.5 68.5t-107.5 114.5q-89 131 -89 341q0 30 1 47q14 261 152 601l108 -43q-143 -377 -143 -609q0 -166 68 -270q22 -32 49.5 -58t62 -43.5t63.5 -30.5t72 -20t68 -11.5t71 -6.5t62 -2h58q45 0 111.5 7.5t154 28t160 50.5
t123 82.5t50.5 116.5q0 42 -51.5 94t-167.5 95q-41 14 -85.5 25t-92 20.5t-56.5 11.5l8 121l732 -1q24 0 41.5 -17t17.5 -41t-17.5 -41t-41.5 -17h-350q180 -147 180 -250q-1 -64 -28 -120t-71.5 -96t-105 -72.5t-125 -53.5t-135 -34.5t-132.5 -19.5t-119 -6z" />
    <glyph glyph-name="uniFEF2" unicode="&#x64a;" horiz-adv-x="1687" arabic-form="final" 
d="M830 -612q-95 0 -174.5 8.5t-166.5 30.5t-154.5 68.5t-107.5 114.5q-89 131 -89 341q0 30 1 47q14 261 152 601l108 -43q-143 -377 -143 -609q0 -166 68 -270q22 -32 49.5 -58t62 -43.5t63.5 -30.5t72 -20t68 -11.5t71 -6.5t62 -2h58q45 0 111.5 7.5t154 28t160 50.5
t123 82.5t50.5 116.5q0 42 -51.5 94t-167.5 95q-41 14 -85.5 25t-92 20.5t-56.5 11.5l8 121l732 -1q24 0 41.5 -17t17.5 -41t-17.5 -41t-41.5 -17h-350q180 -147 180 -250q-1 -64 -28 -120t-71.5 -96t-105 -72.5t-125 -53.5t-135 -34.5t-132.5 -19.5t-119 -6zM608 -1060
l-134 133l132 133l134 -134zM964 -1062l-134 134l132 132l133 -134z" />
    <glyph glyph-name="uniFEF3" unicode="&#x64a;" horiz-adv-x="801" arabic-form="initial" 
d="M191 -477l-134 133l132 133l134 -134zM547 -479l-134 134l132 132l133 -134zM-108 98q0 25 17 41.5t41 16.5h111h8q51 0 80.5 0.5t85 5t90.5 13t79.5 26t70 42t43.5 63t18 87.5q0 83 -51 241q-8 26 -22 60t-30 71t-21 51q61 30 107 54q47 -106 77 -200q51 -162 51 -275
q0 -82 -26 -145v1q-70 -146 -228 -191q-71 -20 -289 -20h-154q-24 0 -41 16.5t-17 41.5z" />
    <glyph glyph-name="uniFEF4" unicode="&#x64a;" horiz-adv-x="854" arabic-form="medial" 
d="M-61 98q0 25 16.5 41.5t41.5 16.5h76q81 0 144 5.5t126 22.5t103.5 46t64.5 77.5t22 115.5q-5 103 -33 212q18 4 38 11t32 10l41 12q21 -86 36 -217l5 -49q3 -32 6 -52t10 -49t15.5 -47t23.5 -38.5t34.5 -32t48.5 -19.5t65 -8q25 0 42.5 -16.5t17.5 -41.5q0 -24 -17 -41
t-41 -17q-160 0 -271 148q-78 -76 -218.5 -112t-294.5 -36h-76q-25 0 -41.5 16.5t-16.5 41.5zM166 -511l-134 133l132 133l134 -134zM522 -513l-134 134l132 132l133 -134z" />
    <glyph glyph-name=".notdef" horiz-adv-x="1229" 
d="M102 1444h1024v-1806h-1024v1806zM1012 -248v1577h-795v-1577h795z" />
    <glyph glyph-name=".null" 
 />
    <glyph glyph-name="nonmarkingreturn" horiz-adv-x="766" 
 />
    <glyph glyph-name="space" unicode=" " horiz-adv-x="650" 
 />
    <glyph glyph-name="space" unicode="&#xa0;" horiz-adv-x="650" 
 />
    <glyph glyph-name="exclam" unicode="!" horiz-adv-x="519" 
d="M319 455h-125l-6 1180h139zM255 20l-127 128l134 135l128 -128z" />
    <glyph glyph-name="quotedbl" unicode="&#x22;" horiz-adv-x="712" 
d="M294 1569l-24 -379h-97l4 548h117v-169zM580 1569l-24 -379h-98l4 548h118v-169z" />
    <glyph glyph-name="numbersign" unicode="#" horiz-adv-x="1442" 
d="M912 375h-381l-93 -496h-120l94 496h-309v113h329l101 534h-338v116h359l96 503h120l-96 -503h382l95 503h121l-95 -503h277v-116h-299l-101 -534h309v-113h-330l-94 -496h-121zM552 488h381l101 534h-382z" />
    <glyph glyph-name="dollar" unicode="$" horiz-adv-x="1374" 
d="M1091 314q0 134 -88 219q-87 86 -307 162q-274 85 -384 204t-110 305q0 199 121 321q121 123 329 139v245h124v-245q213 -20 330 -160t117 -381h-144q0 189 -99 302q-99 112 -269 112q-171 0 -269 -90q-96 -90 -96 -240q0 -145 88 -227q87 -81 301 -154q213 -72 309 -138
q97 -67 144.5 -157.5t47.5 -214.5q0 -199 -124 -320q-126 -123 -341 -139v-230h-122v229q-244 17 -377 153t-133 376h145q0 -189 110 -296q112 -107 308 -107q171 0 280 92q109 91 109 240z" />
    <glyph glyph-name="percent" unicode="%" horiz-adv-x="1832" 
d="M132 1303q0 157 97 260q98 104 248 104q149 0 247 -104t98 -268v-86q0 -156 -97 -259q-96 -103 -246 -103q-149 0 -248 102t-99 269v85zM249 1209q0 -111 62 -185q63 -73 168 -73q103 0 164 73q62 74 62 190v89q0 111 -63 185t-165 74q-101 0 -165 -73q-63 -73 -63 -194
v-86zM1019 311q0 157 97 260t247 103q149 0 247 -102q99 -102 99 -269v-86q0 -157 -98 -260q-97 -103 -246 -103q-148 0 -247 102t-99 267v88zM1135 217q0 -113 62 -187q63 -72 168 -72t166 73t61 192v88q0 117 -63 187q-62 71 -166 71q-102 0 -165 -72q-63 -71 -63 -191
v-89zM525 25l-90 59l860 1377l91 -58z" />
    <glyph glyph-name="ampersand" unicode="&#x26;" horiz-adv-x="1525" 
d="M489 840q-106 129 -153 227q-48 101 -48 198q0 185 110 293t296 108q168 0 272 -98t104 -247q0 -175 -201 -343l-194 -150l485 -564q110 179 110 403h134q0 -299 -155 -507l241 -281h-174l-153 177q-96 -96 -221.5 -148.5t-263.5 -52.5q-252 0 -400 129
q-147 129 -147 344q0 128 75 242q77 117 266 258zM678 -23q110 0 213.5 46.5t185.5 132.5l-492 572l-17 18l-56 -43q-237 -193 -237 -375q0 -159 109 -255q110 -96 294 -96zM433 1270q0 -147 164 -349l158 121q86 62 131.5 128t45.5 151q0 94 -66 157q-64 64 -174 64
q-119 0 -189 -76t-70 -196z" />
    <glyph glyph-name="quotesingle" unicode="'" horiz-adv-x="421" 
d="M274 1568l-21 -370h-109q6 358 6 540h124v-170z" />
    <glyph glyph-name="parenleft" unicode="(" horiz-adv-x="790" 
d="M169 591q0 263 68 512q67 247 199 455q130 207 281 297l35 -99q-82 -58 -160.5 -167.5t-139.5 -257.5q-137 -338 -137 -761q0 -253 57 -487q59 -236 158 -411q101 -179 222 -269l-35 -93q-155 92 -285 297q-132 207 -197 451q-66 248 -66 533z" />
    <glyph glyph-name="parenright" unicode=")" horiz-adv-x="807" 
d="M622 573q0 -268 -66.5 -514t-195.5 -450q-128 -204 -285 -299l-35 93q121 87 220 263q100 178 159 414q58 235 58 514q0 253 -58 484q-60 237 -161 416q-102 184 -218 267l35 94q154 -95 282 -299q129 -202 197 -454q68 -251 68 -529z" />
    <glyph glyph-name="asterisk" unicode="*" horiz-adv-x="1052" 
d="M437 1089l-402 131l39 122l402 -148l-5 447h126l-10 -451l392 154l40 -123l-403 -139l270 -356l-103 -76l-259 369l-247 -367l-103 74z" />
    <glyph glyph-name="plus" unicode="+" horiz-adv-x="1399" 
d="M763 775h536v-136h-536v-583h-147v583h-525v136h525v564h147v-564z" />
    <glyph glyph-name="comma" unicode="," horiz-adv-x="475" 
d="M159 -450l-86 63q110 148 113 306v188h142v-152q0 -252 -169 -405z" />
    <glyph glyph-name="hyphen" unicode="-" horiz-adv-x="709" 
d="M639 596h-580v122h580v-122z" />
    <glyph glyph-name="period" unicode="." horiz-adv-x="592" 
d="M176 -34q0 43 27.5 72.5t74.5 29.5t76 -29.5t29 -72.5t-28.5 -70t-76.5 -27q-47 0 -74.5 27t-27.5 70z" />
    <glyph glyph-name="slash" unicode="/" horiz-adv-x="984" 
d="M168 -272h-132l736 1913h131z" />
    <glyph glyph-name="zero" unicode="0" horiz-adv-x="1374" 
d="M1229 614q0 -373 -137 -566t-403 -193q-262 0 -401 189.5t-143 551.5v316q0 371 138 562.5t403 191.5q262 0 400 -185t143 -544v-323zM1083 930q0 612 -397 612q-391 0 -397 -598v-346q0 -301 102.5 -461t297.5 -160q193 0 293 156t101 458v339z" />
    <glyph glyph-name="one" unicode="1" horiz-adv-x="1374" 
d="M840 -121h-145v1588l-480 -178v136l601 223h24v-1769z" />
    <glyph glyph-name="two" unicode="2" horiz-adv-x="1374" 
d="M1270 -121h-1104v111l604 685q149 173 208 286q58 112 58 219q0 166 -98 264t-270 98q-178 0 -288 -114q-109 -112 -109 -295h-144q0 150 67 271q68 122 191 192q124 70 283 70q241 0 378 -128t137 -346q0 -122 -77 -270q-76 -144 -271 -365l-491 -556h926v-122z" />
    <glyph glyph-name="three" unicode="3" horiz-adv-x="1374" 
d="M488 839h150q186 -1 298.5 95.5t110.5 246.5q0 171 -96 266t-274 95q-171 0 -278 -100q-108 -100 -108 -263h-146q0 137 69 250q70 114 191 175q124 62 272 62q238 0 377 -131q138 -131 138 -358q0 -127 -81 -235q-80 -107 -220 -160q163 -45 248.5 -156.5t85.5 -268.5
q0 -226 -148 -364q-147 -138 -394 -138q-159 0 -289 63q-131 63 -203 176q-72 112 -72 263h145q0 -167 117 -274q118 -106 302 -106q188 0 292.5 97t104.5 278q0 177 -114 270t-333 93h-145v124z" />
    <glyph glyph-name="four" unicode="4" horiz-adv-x="1374" 
d="M1056 447h274v-123h-274v-445h-146v445h-829v83l816 1234h159v-1194zM259 447h651v1007l-64 -112z" />
    <glyph glyph-name="five" unicode="5" horiz-adv-x="1374" 
d="M264 782l86 859h881v-134h-756l-62 -595q141 96 331 96q239 0 380 -155q142 -154 142 -412q0 -279 -138 -433q-138 -153 -388 -153q-230 0 -373 128t-164 360h140q20 -180 121.5 -273t275.5 -93q187 0 284 119t97 342q0 194 -108 316t-294 122q-101 0 -179 -26
q-74 -25 -161 -101z" />
    <glyph glyph-name="six" unicode="6" horiz-adv-x="1374" 
d="M1020 1655v-127h-16q-316 0 -498 -186t-201 -516q73 100 186 155t251 55q232 0 369 -161q138 -161 138 -419q0 -173 -64 -310q-64 -138 -184 -214q-121 -77 -273 -77q-253 0 -412 183q-159 184 -159 474v145q0 473 215 733q217 261 612 265h36zM719 912q-139 0 -257 -82
q-119 -83 -159 -208v-123q0 -231 118 -376t307 -145q169 0 273 134q105 135 105 340q0 208 -105 334q-103 126 -282 126z" />
    <glyph glyph-name="seven" unicode="7" horiz-adv-x="1374" 
d="M1252 1558l-753 -1679h-152l749 1639h-1003v123h1159v-83z" />
    <glyph glyph-name="eight" unicode="8" horiz-adv-x="1374" 
d="M1204 1188q0 -136 -80 -246q-80 -108 -210 -159q153 -53 244 -168q92 -116 92 -269q0 -226 -154 -358q-152 -133 -406 -133t-409 132q-153 132 -153 359q0 151 88 267q87 117 243 170q-131 51 -209 159q-77 110 -77 246q0 219 141 348q140 130 373 130q232 0 375 -131
q142 -130 142 -347zM1105 345q0 165 -118 270q-116 106 -300 106q-181 0 -299 -104q-116 -104 -116 -272q0 -167 113 -268q112 -100 305 -100q188 0 301 99q114 100 114 269zM1059 1189q0 151 -105 252q-104 101 -266 101q-164 0 -268 -98q-102 -98 -102 -255
q0 -155 102 -250q103 -94 269 -94q162 0 266 95t104 249z" />
    <glyph glyph-name="nine" unicode="9" horiz-adv-x="1374" 
d="M1070 695q-77 -114 -192 -176.5t-250 -62.5q-149 0 -264 77t-179 215q-63 137 -63 299q0 176 67 317q67 142 188 222q122 80 278 80q265 0 412 -186q148 -185 148 -527v-131q0 -479 -204 -717.5t-620 -238.5h-27l2 126h50q638 8 654 703zM646 581q145 0 261 86
q116 88 164 225v84q0 268 -112 416q-113 149 -302 149q-173 0 -282 -139q-110 -139 -110 -349q0 -203 106 -337q106 -135 275 -135z" />
    <glyph glyph-name="colon" unicode=":" horiz-adv-x="521" 
d="M154 96q0 43 27.5 72.5t74.5 29.5t76 -29.5t29 -72.5t-28.5 -70t-76.5 -27q-47 0 -74.5 27t-27.5 70zM156 943q0 44 28 73t75 29t75.5 -29t28.5 -73q0 -43 -28.5 -69.5t-75.5 -26.5t-75 26.5t-28 69.5z" />
    <glyph glyph-name="semicolon" unicode=";" horiz-adv-x="483" 
d="M159 -320l-86 63q110 148 113 306v188h142v-152q0 -252 -169 -405zM156 943q0 44 28 73t75 29t75.5 -29t28.5 -73q0 -43 -28.5 -69.5t-75.5 -26.5t-75 26.5t-28 69.5z" />
    <glyph glyph-name="less" unicode="&#x3c;" horiz-adv-x="1267" 
d="M252 672l842 -363v-153l-1001 459v117l1001 458v-153z" />
    <glyph glyph-name="equal" unicode="=" horiz-adv-x="1372" 
d="M1190 882h-1010v129h1010v-129zM1190 385h-1010v128h1010v-128z" />
    <glyph glyph-name="greater" unicode="&#x3e;" horiz-adv-x="1284" 
d="M1011 677l-861 366v149l1023 -457v-118l-1023 -458v150z" />
    <glyph glyph-name="question" unicode="?" horiz-adv-x="1126" 
d="M455 368q3 143 39 230q36 86 156 205q121 119 154 167q72 100 72 242q0 152 -81 237q-79 87 -224 87t-234 -83q-90 -83 -91 -224h-144q2 198 134 317q132 120 335 120q209 0 329 -122t120 -330q0 -130 -59 -245q-59 -114 -225 -267q-137 -116 -137 -334h-144zM436 -36
q0 43 26.5 70.5t72.5 27.5q45 0 73 -28t28 -70q0 -41 -28 -68t-73 -27q-46 0 -72.5 27t-26.5 68z" />
    <glyph glyph-name="at" unicode="@" horiz-adv-x="2264" 
d="M2123 500q-6 -177 -65 -330q-59 -152 -164 -233q-104 -82 -243 -82q-116 0 -190.5 61t-98.5 174q-130 -235 -361 -235q-169 0 -253 146q-83 148 -62 395q20 198 91 351q73 157 187 241q116 87 248 87q91 0 163 -26q69 -25 164 -105l-62 -690q-12 -142 36 -218.5
t153 -76.5q149 0 241 146q94 146 104 395q23 488 -185.5 736.5t-635.5 248.5q-255 0 -461 -128t-324 -361q-118 -231 -133 -538q-14 -304 81 -537q94 -231 287 -356t457 -125q111 0 219 27q107 25 180 68l38 -97q-68 -46 -193 -76q-121 -31 -249 -31q-304 0 -521 136
q-219 137 -326 392q-108 255 -94 599q15 337 148 595q133 259 366 402t530 143q462 4 708 -288.5t220 -809.5zM815 225q13 -121 67.5 -187t144.5 -66q223 0 330 309l54 624q-81 60 -191 60q-134 0 -233 -107q-97 -106 -144 -296q-46 -186 -28 -337z" />
    <glyph glyph-name="A" unicode="A" horiz-adv-x="1548" 
d="M1174 373h-800l-182 -494h-156l667 1762h142l667 -1762h-155zM420 500h707l-353 960z" />
    <glyph glyph-name="B" unicode="B" horiz-adv-x="1519" 
d="M223 -121v1762h520q284 0 430 -116.5t146 -344.5q0 -137 -74 -238q-73 -100 -204 -144q155 -35 247 -152q94 -116 94 -271q0 -233 -151 -365q-151 -131 -419 -131h-589zM372 726v-721h446q192 0 304 97t112 271q0 163 -108 258q-107 95 -296 95h-458zM372 851h406
q189 4 290 88.5t101 244.5q0 168 -105 249t-321 81h-371v-663z" />
    <glyph glyph-name="C" unicode="C" horiz-adv-x="1610" 
d="M1471 429q-30 -279 -199 -427q-170 -147 -450 -147q-195 0 -347 98q-149 96 -233 277q-81 178 -83 412v228q0 236 82 416q83 183 236 281q154 99 356 99q284 0 447 -154q164 -154 191 -423h-150q-55 450 -488 450q-239 0 -382 -180q-142 -178 -142 -495v-215
q0 -305 138 -487q139 -181 375 -181q231 0 351 110.5t148 337.5h150z" />
    <glyph glyph-name="D" unicode="D" horiz-adv-x="1623" 
d="M223 -121v1762h492q217 0 389 -99q172 -97 268 -282t96 -419v-162q0 -236 -96 -419q-94 -183 -269 -282q-172 -99 -398 -99h-482zM372 1514v-1509h334q278 0 446 184q169 184 169 500v155q0 305 -166 486q-166 183 -437 184h-346z" />
    <glyph glyph-name="E" unicode="E" horiz-adv-x="1410" 
d="M1196 724h-824v-719h947v-126h-1096v1762h1090v-127h-941v-664h824v-126z" />
    <glyph glyph-name="F" unicode="F" horiz-adv-x="1395" 
d="M1194 702h-822v-823h-149v1762h1092v-127h-943v-685h822v-127z" />
    <glyph glyph-name="G" unicode="G" horiz-adv-x="1695" 
d="M1495 88q-77 -110 -243 -171q-166 -62 -370 -62q-208 0 -368 99q-161 99 -249 280q-87 179 -89 417v223q0 367 185 579q185 213 497 213q274 0 438 -139q167 -140 198 -382h-149q-33 193 -157.5 293.5t-328.5 100.5q-245 0 -391 -176q-144 -175 -144 -495v-208
q-3 -198 67.5 -354t199 -241.5t291.5 -83.5q193 0 331 60q89 40 133 93v456h-473v125h622v-627z" />
    <glyph glyph-name="H" unicode="H" horiz-adv-x="1754" 
d="M1529 -121h-150v845h-1007v-845h-149v1762h149v-791h1007v791h150v-1762z" />
    <glyph glyph-name="I" unicode="I" horiz-adv-x="660" 
d="M404 -121h-149v1762h149v-1762z" />
    <glyph glyph-name="J" unicode="J" horiz-adv-x="1364" 
d="M1001 1641h150v-1238q0 -251 -145 -399q-144 -149 -387 -149q-256 0 -395 134q-138 133 -138 375h149q0 -189 99.5 -286t284.5 -97q167 0 274 111t108 303v1246z" />
    <glyph glyph-name="K" unicode="K" horiz-adv-x="1564" 
d="M620 754l-248 -244v-631h-149v1762h149v-950l903 950h187l-738 -784l795 -978h-181z" />
    <glyph glyph-name="L" unicode="L" horiz-adv-x="1306" 
d="M373 5h870v-126h-1020v1762h150v-1636z" />
    <glyph glyph-name="M" unicode="M" horiz-adv-x="2145" 
d="M420 1641l650 -1555l653 1555h198v-1762h-149v767l12 787l-656 -1554h-115l-653 1548l12 -776v-772h-149v1762h197z" />
    <glyph glyph-name="N" unicode="N" horiz-adv-x="1760" 
d="M1535 -121h-149l-1013 1508v-1508h-150v1762h150l1014 -1509v1509h148v-1762z" />
    <glyph glyph-name="O" unicode="O" horiz-adv-x="1678" 
d="M1525 665q0 -244 -84 -428t-240 -283t-361 -99q-308 0 -499 221q-190 220 -190 596v181q0 242 85 427t242 286q155 100 359 100q305 4 496 -216.5t192 -574.5v-210zM1376 856q0 318 -144 498q-144 181 -394 181q-247 0 -392 -181q-146 -182 -146 -505v-184
q0 -314 145 -498q145 -183 395 -183q253 0 394 181q142 181 142 504v187z" />
    <glyph glyph-name="P" unicode="P" horiz-adv-x="1526" 
d="M372 597v-718h-149v1762h600q274 0 434 -140q159 -139 159 -386q0 -248 -153 -383t-443 -135h-448zM372 723h451q215 0 329.5 102t114.5 287q0 183 -113 291q-112 109 -321 111h-461v-791z" />
    <glyph glyph-name="Q" unicode="Q" horiz-adv-x="1678" 
d="M1520 665q0 -250 -89 -439q-88 -186 -253 -283l321 -280l-103 -92l-360 312q-97 -28 -202 -28q-200 0 -358 99q-156 99 -242 281q-87 185 -88 421v197q0 242 85 427t242 286q155 100 359 100q205 0 361.5 -99.5t241.5 -284.5q85 -183 85 -427v-190zM1372 856
q0 319 -145 498q-144 181 -395 181q-246 0 -391 -181q-146 -182 -146 -505v-184q0 -314 145 -498q146 -183 394 -183q252 0 395 180q143 182 143 504v188z" />
    <glyph glyph-name="R" unicode="R" horiz-adv-x="1574" 
d="M881 613h-512v-734h-150v1762h573q282 0 440 -137q159 -136 159 -382q0 -169 -100 -299q-99 -129 -266 -179l441 -749v-16h-159zM369 740h457q188 0 301 106q114 106 114 276q0 187 -119 289q-118 103 -333 103h-420v-774z" />
    <glyph glyph-name="S" unicode="S" horiz-adv-x="1468" 
d="M1220 312q0 147 -103 232q-104 86 -377 162t-399 168q-179 128 -179 337q0 202 166 328q166 127 426 127q173 3 313 -66.5t217.5 -191.5t74.5 -269h-150q0 181 -124 290q-124 110 -331 110q-203 0 -322 -91q-120 -90 -120 -235q0 -133 108 -219t345 -150
q241 -66 359 -134q124 -70 185 -167t61 -228q0 -208 -167 -334t-438 -126q-187 0 -342 67q-155 66 -236 186q-80 121 -80 275h148q0 -187 139 -295q140 -107 371 -107q205 0 330 90q125 92 125 241z" />
    <glyph glyph-name="T" unicode="T" horiz-adv-x="1480" 
d="M1419 1514h-604v-1635h-149v1635h-603v127h1356v-127z" />
    <glyph glyph-name="U" unicode="U" horiz-adv-x="1629" 
d="M1437 1641v-1203q2 -265 -171.5 -425.5t-449.5 -157.5q-278 0 -447 152q-167 152 -173 420v1214h148v-1192q0 -223 127 -346q128 -122 345 -122q218 0 344 123q127 124 127 344v1193h150z" />
    <glyph glyph-name="V" unicode="V" horiz-adv-x="1529" 
d="M754 97l10 -38l11 38l554 1544h164l-657 -1762h-142l-656 1762h162z" />
    <glyph glyph-name="W" unicode="W" horiz-adv-x="2223" 
d="M548 355l55 -274l66 262l383 1298h134l378 -1298l65 -264l58 276l319 1286h152l-451 -1762h-143l-399 1379l-45 174l-44 -174l-409 -1379h-143l-450 1762h152z" />
    <glyph glyph-name="X" unicode="X" horiz-adv-x="1517" 
d="M759 896l496 745h178l-583 -869l601 -893h-179l-513 770l-516 -770h-176l602 893l-584 869h178z" />
    <glyph glyph-name="Y" unicode="Y" horiz-adv-x="1484" 
d="M740 680l538 961h172l-637 -1099v-663h-148v663l-636 1099h177z" />
    <glyph glyph-name="Z" unicode="Z" horiz-adv-x="1483" 
d="M289 5h1089v-126h-1269v113l1046 1522h-1015v127h1199v-106z" />
    <glyph glyph-name="bracketleft" unicode="[" horiz-adv-x="594" 
d="M597 1770h-254v-2145h254v-124h-400v2392h400v-123z" />
    <glyph glyph-name="backslash" unicode="\" horiz-adv-x="977" 
d="M58 1641h142l736 -1913h-142z" />
    <glyph glyph-name="bracketright" unicode="]" horiz-adv-x="594" 
d="M0 1893h401v-2392h-401v124h255v2145h-255v123z" />
    <glyph glyph-name="asciicircum" unicode="^" horiz-adv-x="1031" 
d="M510 1450l-276 -689h-141l362 880h109l361 -880h-141z" />
    <glyph glyph-name="underscore" unicode="_" horiz-adv-x="1070" 
d="M1068 -243h-1067v122h1067v-122z" />
    <glyph glyph-name="grave" unicode="`" horiz-adv-x="708" 
d="M530 1386h-132l-273 338h174z" />
    <glyph glyph-name="a" unicode="a" horiz-adv-x="1328" 
d="M1016 -121q-22 60 -28 183q-76 -100 -195 -153q-119 -54 -249 -54q-189 0 -306 105t-117 266q0 192 159 303t444 111h263v149q0 142 -88 222t-251 80q-152 0 -251 -78q-99 -77 -99 -186l-145 1q0 156 145 270q145 115 357 115q218 0 345 -110q127 -109 131 -305v-620
q0 -192 40 -285v-14h-155zM560 -17q147 0 260 70q115 70 167 188v288h-259q-215 -1 -340 -79q-122 -77 -122 -212q0 -110 82 -183q82 -72 212 -72z" />
    <glyph glyph-name="b" unicode="b" horiz-adv-x="1374" 
d="M1243 521q0 -308 -136 -487q-135 -179 -364 -179q-273 0 -414 203l-6 -179h-135v1859h144v-739q138 214 409 214q232 0 367 -178q135 -177 135 -493v-21zM1098 546q0 258 -101 400q-100 141 -283 141q-139 0 -236 -68.5t-146 -200.5v-590q109 -247 385 -247
q182 0 281.5 143.5t99.5 421.5z" />
    <glyph glyph-name="c" unicode="c" horiz-adv-x="1277" 
d="M673 -23q152 0 253 85q103 85 111 221h140q-6 -120 -75 -219q-69 -98 -184 -153q-115 -56 -245 -56q-257 0 -409 179q-150 178 -150 482v43q-3 293 151 475.5t407 178.5q216 0 355 -129q139 -127 150 -337h-140q-9 153 -110 248q-100 94 -255 94q-196 0 -305 -142
q-108 -141 -108 -396v-43q0 -250 108 -391q110 -140 306 -140z" />
    <glyph glyph-name="d" unicode="d" horiz-adv-x="1378" 
d="M131 546q0 305 136 486t370 181q264 0 404 -209v734h144v-1859h-135l-7 174q-139 -198 -409 -198q-225 0 -365 182q-138 181 -138 492v17zM277 521q0 -251 100 -396q101 -144 284 -144q267 0 380 236v615q-113 255 -378 255q-184 0 -285 -145t-101 -421z" />
    <glyph glyph-name="e" unicode="e" horiz-adv-x="1281" 
d="M696 -145q-168 0 -302 82q-135 83 -210 229q-75 148 -75 330v52q0 190 73 340q74 153 204 238q130 87 283 87q240 0 379 -163q140 -164 140 -445v-81h-935v-28q0 -223 127 -371t322 -148q117 0 206 43t161 135l91 -69q-160 -231 -464 -231zM669 1089q-163 0 -275 -120
q-112 -118 -136 -321h785v15q-6 188 -108 307q-101 119 -266 119z" />
    <glyph glyph-name="f" unicode="f" horiz-adv-x="821" 
d="M293 -121v1191h-217v119h217v158q0 201 102 309q103 108 285 108q84 0 154 -21l-11 -121q-60 15 -132 15q-120 0 -186.5 -74.5t-66.5 -211.5v-162h313v-119h-313v-1191h-145z" />
    <glyph glyph-name="g" unicode="g" horiz-adv-x="1375" 
d="M131 546q0 308 136 487q137 180 370 180q267 0 406 -213l8 189h135v-1283q0 -253 -142 -401q-141 -148 -383 -148q-138 0 -261 61q-125 62 -195 163l81 87q153 -189 365 -189q183 0 283 108q101 106 106 297v164q-139 -193 -406 -193q-227 0 -365 181q-138 182 -138 491
v19zM277 521q0 -251 100 -396q101 -144 284 -144q266 0 379 239v609q-51 126 -146.5 192t-230.5 66q-184 0 -285 -145t-101 -421z" />
    <glyph glyph-name="h" unicode="h" horiz-adv-x="1361" 
d="M333 967q71 118 182.5 182t243.5 64q210 0 313 -118t105 -357v-859h-144v861q-2 177 -76 262t-233 85q-134 0 -238 -84q-103 -84 -153 -227v-897h-144v1859h144v-771z" />
    <glyph glyph-name="i" unicode="i" horiz-adv-x="556" 
d="M351 -121h-145v1310h145v-1310zM180 1568q0 42 27.5 70t72.5 28t72.5 -28t27.5 -71q0 -42 -27.5 -69t-72.5 -27t-72.5 27t-27.5 70z" />
    <glyph glyph-name="j" unicode="j" horiz-adv-x="565" 
d="M345 1189v-1466q0 -183 -87 -278t-257 -95q-64 0 -127 23l3 120q51 -16 108 -16q216 0 216 248v1464h144zM274 1666q46 0 73 -28t27 -71q0 -42 -27 -69t-73 -27q-45 0 -71.5 27t-26.5 69q0 43 26.5 71t71.5 28z" />
    <glyph glyph-name="k" unicode="k" horiz-adv-x="1214" 
d="M500 539l-166 -160v-500h-145v1859h145v-1190l137 148l501 493h183l-556 -552l604 -758h-173z" />
    <glyph glyph-name="l" unicode="l" horiz-adv-x="556" 
d="M351 -121h-145v1859h145v-1859z" />
    <glyph glyph-name="m" unicode="m" horiz-adv-x="2197" 
d="M321 1189l5 -213q71 117 180 177t243 60q310 0 394 -254q69 121 186.5 187.5t259.5 66.5q423 0 430 -460v-874h-145v863q-1 178 -76.5 261.5t-241.5 83.5q-156 -1 -265 -101q-107 -100 -119 -240v-867h-145v874q-2 169 -80.5 251.5t-239.5 82.5q-138 0 -235.5 -78.5
t-144.5 -231.5v-898h-145v1310h139z" />
    <glyph glyph-name="n" unicode="n" horiz-adv-x="1362" 
d="M327 1189l5 -224q74 121 184 184.5t243 63.5q210 0 313 -118t105 -357v-859h-144v861q-2 177 -76 262t-233 85q-134 0 -238 -84q-103 -84 -153 -227v-897h-144v1310h138z" />
    <glyph glyph-name="o" unicode="o" horiz-adv-x="1388" 
d="M109 553q0 190 73 340q74 152 207 236t303 84q262 0 424 -184q162 -183 162 -485v-31q0 -192 -73 -342q-74 -152 -206 -234q-133 -82 -304 -82q-259 0 -423 183q-163 184 -163 486v29zM254 513q0 -234 122 -386q121 -150 319 -150q195 0 317 150q122 152 122 398v28
q0 149 -56 275t-156 193q-101 68 -230 68q-193 0 -316 -152q-122 -152 -122 -397v-27z" />
    <glyph glyph-name="p" unicode="p" horiz-adv-x="1374" 
d="M1242 521q0 -308 -136 -487q-135 -179 -363 -179q-269 0 -411 189v-669h-144v1814h134l7 -185q143 209 411 209q235 0 368 -178q134 -179 134 -494v-20zM1097 546q0 251 -103 396t-287 145q-133 0 -228.5 -64t-146.5 -187v-628q52 -112 148.5 -171.5t228.5 -59.5
q184 0 286 147t102 422z" />
    <glyph glyph-name="q" unicode="q" horiz-adv-x="1382" 
d="M131 546q0 308 136 487q137 180 372 180q265 0 403 -202l8 178h135v-1814h-145v666q-142 -186 -403 -186q-230 0 -368 181q-138 182 -138 491v19zM277 521q0 -255 102 -400q104 -144 284 -144q262 0 377 226v642q-55 118 -151.5 181t-222.5 63q-185 0 -287 -146
t-102 -422z" />
    <glyph glyph-name="r" unicode="r" horiz-adv-x="834" 
d="M794 1065q-46 9 -98 9q-136 0 -229.5 -76t-133.5 -220v-899h-144v1310h141l3 -208q115 232 369 232q63 0 96 -16z" />
    <glyph glyph-name="s" unicode="s" horiz-adv-x="1255" 
d="M973 212q0 106 -85 172t-262 103q-175 38 -271 85q-97 48 -143 117t-46 167q0 156 129 256q131 101 332 101q220 0 351 -109q133 -108 133 -282h-145q0 114 -96 191q-95 76 -243 76q-144 0 -230 -64q-86 -63 -86 -164q0 -98 72 -152t262 -99q192 -45 286 -96
q96 -50 142 -121.5t46 -173.5q0 -166 -134 -265q-133 -99 -349 -99q-230 0 -372 111q-142 109 -142 280h146q7 -127 106 -198q100 -71 262 -71q151 0 244 66q93 67 93 169z" />
    <glyph glyph-name="t" unicode="t" horiz-adv-x="797" 
d="M414 1524v-335h271v-119h-271v-873q0 -111 40 -163t131 -52q36 0 117 12l6 -119q-58 -20 -155 -20q-147 0 -215.5 85t-68.5 256v874h-241v119h241v335h145z" />
    <glyph glyph-name="u" unicode="u" horiz-adv-x="1362" 
d="M1031 45q-130 -190 -417 -190q-210 0 -319 121.5t-111 360.5v852h144v-834q0 -374 303 -374q314 0 398 260v948h145v-1310h-140z" />
    <glyph glyph-name="v" unicode="v" horiz-adv-x="1192" 
d="M597 79l398 1110h149l-489 -1310h-118l-491 1310h149z" />
    <glyph glyph-name="w" unicode="w" horiz-adv-x="1869" 
d="M502 180l22 -112l29 118l315 1003h123l312 -994l33 -138l28 127l269 1005h150l-381 -1310h-124l-336 1039l-16 71l-16 -73l-330 -1037h-124l-380 1310h149z" />
    <glyph glyph-name="x" unicode="x" horiz-adv-x="1206" 
d="M600 657l354 532h172l-444 -643l463 -667h-171l-372 554l-373 -554h-171l463 667l-445 643h171z" />
    <glyph glyph-name="y" unicode="y" horiz-adv-x="1178" 
d="M604 87l383 1102h156l-560 -1533l-29 -68q-106 -238 -332 -238q-52 0 -112 17l-1 120l75 -8q107 0 172 53q65 52 112 181l65 177l-494 1299h158z" />
    <glyph glyph-name="z" unicode="z" horiz-adv-x="1206" 
d="M284 1h851v-122h-1030v106l794 1079h-769v125h952v-108z" />
    <glyph glyph-name="braceleft" unicode="{" horiz-adv-x="818" 
d="M771 -610q-205 61 -307 198.5t-102 361.5v268q0 318 -280 318v126q280 0 280 316v277q1 221 102.5 357.5t306.5 199.5l32 -95q-296 -95 -296 -474v-258q0 -298 -223 -386q223 -93 223 -385v-276q5 -353 299 -451z" />
    <glyph glyph-name="bar" unicode="|" horiz-adv-x="547" 
d="M338 -448h-123v2089h123v-2089z" />
    <glyph glyph-name="braceright" unicode="}" horiz-adv-x="818" 
d="M11 -513q294 98 299 451v271q0 307 234 389q-234 82 -234 386v258q0 384 -295 475l31 95q207 -62 308 -200.5t101 -363.5v-270q0 -316 280 -316v-126q-280 0 -280 -318v-268q0 -224 -102 -361.5t-307 -198.5z" />
    <glyph glyph-name="asciitilde" unicode="~" horiz-adv-x="1697" 
d="M1518 804q0 -181 -101 -297t-257 -116q-86 0 -163 33q-79 36 -186 131t-164 122q-51 25 -113 25q-109 0 -168.5 -72t-59.5 -206l-130 -2q0 180 98 295q97 115 260 115q88 0 169 -38q82 -38 193 -137q79 -75 139 -107q58 -31 125 -31q106 0 169 76q63 77 63 209h126z" />
    <glyph glyph-name="exclamdown" unicode="&#xa1;" horiz-adv-x="547" 
d="M211 714h134l8 -1270h-150zM369 1116q0 -42 -27 -69.5t-72 -27.5t-73 27.5t-28 69.5t28 69.5t73 27.5t72 -27.5t27 -69.5z" />
    <glyph glyph-name="cent" unicode="&#xa2;" horiz-adv-x="1350" 
d="M703 -23q149 0 251 84q104 84 114 222h139q-11 -168 -134 -286q-126 -120 -303 -139v-276h-145v278q-224 27 -353 200q-128 175 -128 456v43q0 270 127 445q127 176 354 204v266h145v-265q189 -20 309 -146t128 -316h-139q-10 153 -111 248q-100 94 -255 94
q-196 0 -305 -142q-108 -141 -108 -396v-43q0 -250 108 -391q110 -140 306 -140z" />
    <glyph glyph-name="sterling" unicode="&#xa3;" horiz-adv-x="1416" 
d="M489 660l11 -336q1 -210 -78 -319h902v-126h-1207v126h119q62 17 93 129q24 88 22 189l-11 337h-227v126h222l-11 351q0 242 134 385q134 144 358 144q220 0 348 -128t128 -342h-149q0 163 -91 253t-247 90q-151 0 -241 -108q-89 -107 -89 -294l10 -351h417v-126h-413z
" />
    <glyph glyph-name="currency" unicode="&#xa4;" horiz-adv-x="1793" 
d="M1369 40q-95 -88 -216.5 -136.5t-256.5 -48.5q-275 0 -474 184l-187 -192l-103 105l192 194q-150 204 -150 469q0 274 161 482l-203 207l103 105l202 -206q200 170 459 170q260 0 459 -172l205 209l104 -106l-207 -212q158 -206 158 -477q0 -260 -148 -465l197 -198
l-104 -106zM311 615q0 -167 78 -313q77 -144 215 -229q136 -84 292 -84q157 0 291 85q137 86 213 229q78 145 78 312t-80 313q-79 144 -213 227q-133 82 -289 82q-155 0 -291 -82q-137 -83 -215 -227q-79 -145 -79 -313z" />
    <glyph glyph-name="yen" unicode="&#xa5;" horiz-adv-x="1480" 
d="M735 767l509 874h174l-549 -909h444v-107h-506v-247h506v-107h-506v-392h-148v392h-502v107h502v247h-502v107h443l-547 909h173z" />
    <glyph glyph-name="brokenbar" unicode="&#xa6;" horiz-adv-x="537" 
d="M192 -448v933h146v-933h-146zM338 724h-146v917h146v-917z" />
    <glyph glyph-name="section" unicode="&#xa7;" horiz-adv-x="1500" 
d="M1355 401q0 -119 -73.5 -204.5t-207.5 -125.5q114 -60 170.5 -145.5t56.5 -214.5q0 -199 -153 -315q-152 -116 -414 -116q-135 0 -251.5 34.5t-196.5 102.5q-163 138 -163 384l146 3q0 -188 125 -295q124 -106 340 -106q193 0 307 84t114 221q0 93 -42 150t-139 105
q-95 46 -311 105q-213 58 -320 120q-104 63 -159 149q-53 88 -53 209q0 120 70 206t200 126q-108 59 -162 144.5t-54 212.5q0 195 156 313q157 118 414 118q271 0 422 -137q151 -136 151 -385h-145q0 178 -117 287q-115 111 -311 111q-199 0 -312 -83t-113 -222
q0 -94 38 -152q37 -55 130 -103q86 -44 284 -101q239 -62 351 -124q115 -61 168 -148q54 -86 54 -208zM550 812q-130 -15 -202 -85t-72 -179q0 -100 43 -158t140 -104t344 -114l111 -34q136 16 215 85q80 71 80 174q0 119 -81 190q-80 71 -290 139z" />
    <glyph glyph-name="dieresis" unicode="&#xa8;" horiz-adv-x="1066" 
d="M173 1569q0 43 26.5 70.5t72.5 27.5q45 0 73 -28t28 -70q0 -41 -28 -68.5t-73 -27.5q-46 0 -72.5 27.5t-26.5 68.5zM702 1568q0 42 27 70t72 28q47 0 74 -27.5t27 -70.5q0 -41 -27 -68.5t-74 -27.5q-45 0 -72 27.5t-27 68.5z" />
    <glyph glyph-name="copyright" unicode="&#xa9;" horiz-adv-x="1982" 
d="M1357 614q0 -183 -99 -281.5t-282 -98.5q-181 0 -292 128q-110 128 -110 347v109q0 211 111 340q113 129 292 129q181 0 281 -98t100 -281h-120q0 271 -261 271q-128 0 -206 -98q-77 -98 -77 -269v-110q0 -163 76 -261q77 -98 207 -98q131 0 195.5 65t64.5 206h120z
M232 761q0 -213 99 -399t277 -295t381 -109q201 0 377 107q177 109 277 294q101 187 101 402t-101 400q-101 186 -276 292q-176 107 -378 107q-206 0 -385 -110q-177 -109 -275 -294q-97 -184 -97 -395zM130 761q0 245 113 454q112 209 313 330q200 121 433 121t432 -121
q201 -121 313 -330q113 -209 113 -454q0 -238 -109 -446t-309 -334q-199 -127 -440 -127q-237 0 -439 125q-201 125 -310 333q-110 209 -110 449z" />
    <glyph glyph-name="guillemotleft" unicode="&#xab;" horiz-adv-x="1129" 
d="M299 528l334 -470h-127l-357 459v23l357 459h127zM673 528l334 -470h-127l-357 459v23l357 459h127z" />
    <glyph glyph-name="uni00AD" unicode="&#xad;" horiz-adv-x="709" 
d="M639 596h-580v122h580v-122z" />
    <glyph glyph-name="registered" unicode="&#xae;" horiz-adv-x="1988" 
d="M123 761q0 245 113 454q114 210 314 330q200 121 433 121t432 -121q202 -120 314 -330q113 -209 113 -454q0 -240 -110 -449q-109 -208 -311 -333q-200 -125 -439 -125q-238 0 -438 125t-311 333q-110 209 -110 449zM226 761q0 -215 101 -403q102 -186 278 -293t378 -107
q201 0 379 107q177 107 276 294q100 187 100 402q0 212 -98 397q-96 182 -274 293q-175 109 -383 109q-202 0 -380 -107q-176 -107 -277 -292q-100 -184 -100 -400zM787 685v-417h-119v1015h313q179 0 274 -75.5t95 -224.5q0 -161 -171 -239q83 -29 119 -93t36 -162
q0 -88 5 -133q4 -37 16 -69v-19h-124q-17 45 -17 220q0 109 -46 152q-45 45 -154 45h-227zM787 795h219q98 0 161 51q64 51 64 135q0 102 -53 146q-53 46 -181 47h-210v-379z" />
    <glyph glyph-name="overscore" unicode="&#xaf;" horiz-adv-x="1058" 
d="M939 1524h-811v117h811v-117z" />
    <glyph glyph-name="degree" unicode="&#xb0;" horiz-adv-x="937" 
d="M763 1363q0 -126 -86 -212t-207 -86q-122 0 -210 86q-87 87 -87 212q0 126 88 214q89 89 209 89t206 -89q87 -88 87 -214zM282 1363q0 -81 54 -135q55 -53 134 -53t132 53q52 53 52 135q0 85 -52 138q-52 55 -132 55q-79 0 -134 -55q-54 -54 -54 -138z" />
    <glyph glyph-name="plusminus" unicode="&#xb1;" horiz-adv-x="1313" 
d="M737 882h474v-123h-474v-530h-134v530h-501v123h501v531h134v-531zM1166 -121h-1011v122h1011v-122z" />
    <glyph glyph-name="acute" unicode="&#xb4;" horiz-adv-x="697" 
d="M381 1724h176l-280 -338h-127z" />
    <glyph glyph-name="middot" unicode="&#xb7;" horiz-adv-x="609" 
d="M197 747q0 43 27.5 71.5t74.5 28.5t75.5 -28.5t28.5 -71.5t-28.5 -71t-75.5 -28t-74.5 28t-27.5 71z" />
    <glyph glyph-name="guillemotright" unicode="&#xbb;" horiz-adv-x="1123" 
d="M268 1022l357 -465v-23l-357 -459h-129l334 470l-334 477h129zM654 1022l357 -465v-23l-357 -459h-129l334 470l-334 477h129z" />
    <glyph glyph-name="multiply" unicode="&#xd7;" horiz-adv-x="1298" 
d="M113 96l433 441l-415 424l95 97l414 -424l416 424l95 -97l-415 -424l433 -441l-95 -96l-434 441l-432 -441z" />
    <glyph glyph-name="divide" unicode="&#xf7;" horiz-adv-x="1409" 
d="M1295 659h-1208v140h1208v-140zM599 1196q0 43 27 71.5t74 28.5q48 0 76.5 -28.5t28.5 -71.5t-28.5 -71t-76.5 -28q-47 0 -74 28t-27 71zM599 231q0 44 27 72.5t74 28.5q48 0 76.5 -28.5t28.5 -72.5q0 -43 -28.5 -70.5t-76.5 -27.5q-47 0 -74 27.5t-27 70.5z" />
    <glyph glyph-name="uni02BC" unicode="&#x2bc;" horiz-adv-x="441" 
d="M161 1209l-86 63q108 146 113 308v158h142v-122q0 -253 -169 -407z" />
    <glyph glyph-name="circumflex" unicode="&#x2c6;" horiz-adv-x="1065" 
d="M866 1414v-12h-135l-203 221l-202 -221h-132v16l288 308h92z" />
    <glyph glyph-name="caron" unicode="&#x2c7;" horiz-adv-x="1012" 
d="M505 1484l208 235h128v-15l-285 -316h-104l-285 318v13h130z" />
    <glyph glyph-name="uni02C9" unicode="&#x2c9;" horiz-adv-x="1059" 
d="M939 1524h-811v117h811v-117z" />
    <glyph glyph-name="dotaccent" unicode="&#x2d9;" horiz-adv-x="556" 
d="M179 1552q0 42 27 70t72 28q47 0 74 -27.5t27 -70.5q0 -41 -27 -68.5t-74 -27.5q-45 0 -72 27.5t-27 68.5z" />
    <glyph glyph-name="ring" unicode="&#x2da;" horiz-adv-x="769" 
d="M142 1568q0 95 68 163q67 67 165 67q97 0 165 -67q69 -68 69 -163q0 -96 -67 -162q-67 -65 -167 -65q-99 0 -167 65q-66 66 -66 162zM235 1568q0 -61 40 -101t100 -40q61 0 101 39q41 41 41 102q0 64 -43 104q-41 40 -99 40q-59 0 -100 -42q-40 -40 -40 -102z" />
    <glyph glyph-name="tilde" unicode="&#x2dc;" horiz-adv-x="1079" 
d="M943 1677q0 -117 -69 -188q-67 -70 -167 -70q-91 0 -180 66q-88 67 -157 67q-58 0 -95.5 -38.5t-37.5 -104.5l-109 4q0 111 66 183q66 73 170 73q52 0 99.5 -21t77.5 -45.5t73 -45.5t87 -21q58 0 96 40.5t38 107.5z" />
    <glyph glyph-name="hungarumlaut" unicode="&#x2dd;" horiz-adv-x="936" 
d="M766 1737h175l-338 -367h-147zM391 1737h166l-280 -367h-132z" />
    <glyph glyph-name="uni02F3" unicode="&#x2f3;" horiz-adv-x="753" 
d="M190 -399q0 73 54 123q56 50 132 50q77 0 130 -50q53 -51 53 -123t-53 -120q-52 -49 -130 -49q-76 0 -131 48t-55 121zM278 -399q0 -38 28 -62t70 -24t69.5 24t27.5 62t-27.5 63.5t-69.5 25.5q-41 0 -69.5 -25.5t-28.5 -63.5z" />
    <glyph glyph-name="gravecomb" unicode="&#x300;" 
d="M-563 1386h-132l-273 338h175z" />
    <glyph glyph-name="acutecomb" unicode="&#x301;" 
d="M-513 1724h175l-281 -338h-125z" />
    <glyph glyph-name="tildecomb" unicode="&#x303;" 
d="M-219 1677q0 -117 -68 -188q-69 -70 -168 -70q-91 0 -180 66q-88 67 -157 67q-59 0 -96 -38t-37 -105l-109 4q0 111 66 183q66 73 170 73q52 0 99.5 -21t77.5 -45.5t73 -45.5t87 -21q55 0 95 40q39 40 39 108z" />
    <glyph glyph-name="uni030F" unicode="&#x30f;" 
d="M-671 1395h-146l-366 322h186zM-376 1395h-132l-303 322h171z" />
    <glyph glyph-name="dotbelowcomb" unicode="&#x323;" 
d="M-813 -401q0 42 27 70t72 28q46 0 73 -28t27 -70q0 -41 -27 -68t-73 -27q-45 0 -72 27t-27 68z" />
    <glyph glyph-name="uni060C" unicode="&#x60c;" horiz-adv-x="579" 
d="M442 149q-4 -46 -42.5 -87t-84.5 -41q-79 0 -127 62t-38 145q13 117 55.5 199t144.5 160q6 -4 26 -21t32 -26q-165 -142 -165 -301q15 13 35.5 19t30.5 6.5t37 1.5q48 -10 69 -36.5t27 -82.5v2z" />
    <glyph glyph-name="uni0615" unicode="&#x615;" 
d="M521 1353l1 2q16 36 7 65q-10 33 -45 50q-20 10 -46 10q-14 0 -24 -3q-31 -8 -65 -27q-85 -45 -151 -130l-63 -81q58 -6 100 -6q73 0 115 8q58 12 104 41q49 31 67 71zM600 1418l1 -3q2 -60 -35 -114q-31 -44 -81 -76q-98 -60 -245 -60h-26q-143 4 -283 55l-5 2l32 62
q62 -22 104 -32l61 82v2q0 5 1 12t1 23l3 53q2 106 -18 276l-14 103l74 18q24 -188 29 -262q4 -53 4 -138q44 42 92 74q61 40 111 50q15 3 31 3q53 0 99 -29q54 -35 63 -93q1 -1 1 -8z" />
    <glyph glyph-name="uni061B" unicode="&#x61b;" horiz-adv-x="512" 
d="M354 125q0 -41 -32 -73q-32 -30 -73 -30q-43 0 -74 30q-31 31 -31 73q0 43 31 74t74 31q42 0 73 -31q32 -32 32 -74zM386 559q-4 -46 -42.5 -87t-84.5 -41q-86 0 -133.5 60t-39.5 146q10 112 57 196.5t151 163.5q5 -4 25.5 -21t32.5 -26q-165 -142 -165 -301
q15 13 35.5 19t30.5 6.5t37 1.5q48 -10 69 -36.5t27 -82.5v2z" />
    <glyph glyph-name="uni061F" unicode="&#x61f;" horiz-adv-x="1024" 
d="M564 20l-127 128l134 135l128 -128zM346 1029q20 -16 58.5 -43.5t70 -51.5t58.5 -49q87 -84 87 -287v-108h-116v108q0 84 -19.5 140.5t-73.5 106.5l-116 86q-16 12 -47 38.5t-46 38.5q-104 125 -104 262q0 148 130 257q132 105 285 105q176 0 291 -118q91 -109 104 -281
h-116q-20 282 -279 282q-92 0 -187 -64q-96 -86 -96 -180q0 -149 116 -242z" />
    <glyph glyph-name="uni0640" unicode="&#x640;" horiz-adv-x="907" 
d="M-71 98q0 24 19 41t44 17h8h908h6q24 0 41.5 -17t17.5 -41t-17.5 -41t-41.5 -17h-6h-917q-25 0 -43.5 17t-18.5 41z" />
    <glyph glyph-name="uni064B" unicode="&#x64b;" 
d="M19 1136v79l510 206v-71zM12 1315v79l510 206v-74z" />
    <glyph glyph-name="uni064C" unicode="&#x64c;" 
d="M40 1194q20 42 20 98q0 35 -6 43q-12 25 -43 29h1q-36 1 -76 -31l-42 42q57 52 120 48q61 -4 89 -55q17 -33 17 -73q0 -28 -11 -86q152 49 247 111l-80 34q-94 46 -94 135q0 29 11 48q21 44 62.5 72t86.5 28q22 0 48 -11q53 -26 72 -89q9 -31 9 -63q0 -51 -22 -124
l32 -12l-24 -53l-39 11q-45 -42 -120 -78.5t-128 -53t-95 -25.5l-35 48v7zM342 1577q-26 0 -56 -19.5t-42 -47.5l1 1q-1 -9 -1.5 -24.5t15.5 -39t45 -39.5q16 -8 45.5 -20t44.5 -19q17 66 17 106q0 31 -9 52q-17 50 -60 50z" />
    <glyph glyph-name="uni064D" unicode="&#x64d;" 
d="M20 -615v79l510 206v-71zM13 -436v79l510 206v-74z" />
    <glyph glyph-name="uni064E" unicode="&#x64e;" 
d="M12 1144v79l510 206v-74z" />
    <glyph glyph-name="uni064F" unicode="&#x64f;" 
d="M155 1239q80 37 149 83l-36 15q-30 14 -43 21q-110 56 -100 134q11 71 76 117q68 48 134 20q66 -35 80 -125q11 -79 -20 -152l27 -8l-19 -57l-42 15q-60 -59 -168 -112q-43 -21 -82 -36q-33 -14 -60 -21l-21 57q58 18 125 49zM221 1553q-40 -30 -40 -68q0 -39 66 -70
l92 -43q29 43 17 122q-14 86 -70 86q-30 0 -65 -27z" />
    <glyph glyph-name="uni0650" unicode="&#x650;" 
d="M39 -436v79l510 206v-74z" />
    <glyph glyph-name="uni0651" unicode="&#x651;" 
d="M138 1151q-85 3 -122 59q-19 30 -19 75q0 57 27 115l52 -24q-20 -52 -20 -92q0 -30 8 -43q9 -14 30.5 -23t45.5 -9q40 0 60 24q6 8 11 17.5t8.5 17t5.5 20.5t3.5 19t2 22t0.5 20.5v22.5v22l53 11q9 -54 21.5 -92t26.5 -56.5t26 -26.5t24 -8q40 3 59 28t19 64
q0 80 -57 157l50 34q23 -36 45 -90.5t22 -98.5q0 -24 -5 -46t-18.5 -47.5t-44 -41t-74.5 -15.5q-30 0 -61 19.5t-48 51.5q-17 -42 -51.5 -64t-73.5 -22h-6z" />
    <glyph glyph-name="uni0652" unicode="&#x652;" 
d="M276 1204q47 0 83.5 40.5t34.5 95.5q-3 51 -34 93t-84 42q-50 0 -84.5 -43.5t-34.5 -91.5q0 -49 36 -92.5t83 -43.5zM276 1536q74 0 125 -61.5t53 -134.5q2 -76 -51 -136.5t-127 -60.5q-77 -2 -128 59t-51 138q0 73 51 134.5t128 61.5z" />
    <glyph glyph-name="uni0653" unicode="&#x653;" 
d="M-99 1179q15 44 36 81q60 93 147 110q13 3 39 3q58 0 138 -33q70 -29 119 -30q71 -3 147 89q16 -9 83 -53q-13 -18 -31.5 -37.5t-49 -44t-71.5 -40t-83 -14.5q-52 1 -133 30l-15 6q-81 33 -129 25h1q-34 -5 -61.5 -42.5t-43.5 -79.5z" />
    <glyph glyph-name="uni0654" unicode="&#x654;" 
d="M354 1583q-5 0 -27 3t-36 3q-33 0 -60 -11v2q-31 -13 -50 -39.5t-19 -57.5q0 -12 8 -33l-1 1q14 -34 48.5 -55t75.5 -21q23 0 41 6q46 15 92 43q24 14 42 27l57 -72q-53 -37 -234 -132l-220 -117l-46 81l173 92q-78 30 -117 112q-13 32 -13 68q0 58 35.5 107.5t92.5 71.5
q44 18 95 18q32 0 79 -9l37 -9l-27 -85z" />
    <glyph glyph-name="uni0655" unicode="&#x655;" 
d="M399 -275q-5 0 -27 3t-36 3q-32 0 -60 -11v2q-31 -13 -50 -39.5t-19 -57.5q0 -12 8 -33l-1 1q14 -34 48.5 -55t75.5 -21q23 0 41 6q46 15 92 43q24 14 42 27l57 -72q-53 -37 -234 -132l-220 -117l-46 81l173 92q-78 30 -117 112q-13 32 -13 68q0 58 35.5 107.5t92.5 71.5
q43 18 95 18q32 0 79 -9l37 -9l-27 -85z" />
    <glyph glyph-name="uni0656" unicode="&#x656;" 
d="M309 -564l-65 20q34 164 -16 360l70 26q58 -205 11 -406z" />
    <glyph glyph-name="uni0660" unicode="&#x660;" horiz-adv-x="914" 
d="M145 483q0 132 93.5 226.5t225.5 94.5q131 0 226 -95t95 -226q0 -132 -94.5 -225.5t-226.5 -93.5t-225.5 93.5t-93.5 225.5zM257 483q0 -86 61.5 -147.5t147.5 -61.5q87 0 148.5 61.5t61.5 147.5q0 87 -61.5 148.5t-148.5 61.5q-86 0 -147.5 -61.5t-61.5 -148.5z" />
    <glyph glyph-name="uni0661" unicode="&#x661;" horiz-adv-x="640" 
d="M335 42q0 212 -8 379t-29.5 347t-66 331t-111.5 268l100 62q135 -236 195 -654q39 -297 39 -738h-114z" />
    <glyph glyph-name="uni0662" unicode="&#x662;" horiz-adv-x="1089" 
d="M943 1435q11 -95 8 -153q-6 -219 -100 -331q-95 -109 -248 -109q-95 0 -214 50l10 -89l5 -35q40 -324 40 -732h-118q0 357 -29 642t-107 493l-9 26v-1q-36 95 -68 157l99 63q46 -81 87 -191l11 -21q25 -56 50.5 -96.5t60 -76.5t80.5 -54.5t102 -18.5q97 0 157 66
q75 97 75 279q0 59 -8 115l110 21z" />
    <glyph glyph-name="uni0663" unicode="&#x663;" horiz-adv-x="1401" 
d="M1282 1452q24 -140 24 -241q0 -180 -72 -267q-66 -78 -178 -78q-26 0 -52.5 6.5t-58 22.5t-60.5 49t-49 79q-26 -56 -59 -93.5t-70 -54t-68.5 -22.5t-69.5 -6q-102 0 -167 42l15 -116q40 -302 40 -734h-117q4 179 -3.5 338.5t-31 331t-73 337t-122.5 314.5l112 65
q34 -60 101 -212q3 -7 8 -19q53 -123 83 -161q60 -67 155 -69q40 0 71 13t51 38.5t34 53.5t22 67.5t12 71.5t6 73q0 53 -6 149l116 15q4 -19 7 -70q15 -163 46 -259q15 -46 34 -76t38.5 -41t30.5 -13.5t25 -2.5q57 0 86 34q47 60 47 195q0 91 -21 224l108 20z" />
    <glyph glyph-name="uni0664" unicode="&#x664;" horiz-adv-x="1072" 
d="M681 1351q-150 -51 -282 -136q-88 -55 -132 -113q-43 -55 -35 -106q13 -75 118.5 -117t299.5 -42q12 0 47.5 5t49.5 5l19 -116q-155 -46 -256 -129.5t-143 -172.5q-38 -85 -14 -143q37 -84 186 -115q47 -9 99 -9q140 0 288 60l44 -111q-119 -48 -242 -62q-45 -6 -89 -6
q-61 0 -122 11q-100 20 -171 68t-101 117q-48 107 14 239q53 116 175 214l61 44q-117 13 -197 45q-160 61 -183 195q-17 101 58 198q57 72 161 141q138 90 309 149z" />
    <glyph glyph-name="uni0665" unicode="&#x665;" horiz-adv-x="1204" 
d="M551 1434q79 -80 147.5 -159t140 -177.5t122.5 -190.5t83 -194.5t32 -193.5q0 -79 -25.5 -159t-71.5 -143q-51 -73 -139.5 -124t-218.5 -51q-115 0 -198 38q-80 35 -137 99q-79 89 -109 223q-23 103 -12 197q23 188 147 410q101 174 211 283l-57 59zM621 160
q170 0 262 126q74 102 74 233q0 279 -354 685q-113 -113 -208 -290.5t-112 -327.5q-8 -71 11.5 -165.5t80.5 -162.5q86 -98 246 -98z" />
    <glyph glyph-name="uni0666" unicode="&#x666;" horiz-adv-x="1154" 
d="M163 1394q176 -73 430 -52q57 5 113 15.5t84 18.5l27 7l79 -69v-3q-38 -260 -8 -641q6 -74 18 -146.5t26 -129.5t29.5 -108t30 -88t26.5 -64t19 -41l7 -14l-110 -54q-139 279 -169 635q-25 338 -1 583q-173 -32 -287 -32q-203 0 -363 71z" />
    <glyph glyph-name="uni0667" unicode="&#x667;" horiz-adv-x="1165" 
d="M814 751q-76 -214 -122 -403t-52 -315h-114q-4 201 -42 393.5t-104.5 363.5t-136 307t-161.5 284l96 60q204 -328 325 -652q37 -105 94 -335q89 295 200 569t195 417q16 -11 96 -60q-119 -202 -274 -629z" />
    <glyph glyph-name="uni0668" unicode="&#x668;" horiz-adv-x="1165" 
d="M988 17q-81 137 -190.5 409.5t-200.5 571.5q-51 -211 -95 -334q-100 -283 -326 -652l-95 60q73 119 129.5 222.5t118 241.5t102 269.5t68.5 291.5t31 323h115q6 -126 51 -319.5t116 -399.5q63 -170 141.5 -350t132.5 -278z" />
    <glyph glyph-name="uni0669" unicode="&#x669;" horiz-adv-x="1023" 
d="M878 35q-50 48 -89.5 123t-66.5 171.5t-42 171t-32 176.5q-4 20 -10 57t-9 53q-104 -36 -180 -36q-89 0 -172.5 36t-124.5 91q-46 64 -46 161q0 94 37.5 185.5t108 153t152.5 60.5q161 -10 256 -226q60 -148 90 -459v1q68 -463 193 -624zM394 1323q-49 -13 -89 -59
t-61.5 -105t-21.5 -116q0 -55 22 -99v1q64 -80 212 -80q78 0 162 44q-26 163 -66 259q-65 153 -151 156q-1 0 -4 -0.5t-4 -0.5h1z" />
    <glyph glyph-name="uni066A" unicode="&#x66a;" horiz-adv-x="1217" 
d="M241 39q126 338 299 792l264 698h136q-5 -13 -280 -738l-285 -752h-134zM916 62l-147 147l146 145l147 -147zM285 1182l-147 147l146 145l147 -147z" />
    <glyph glyph-name="uni066B" unicode="&#x66b;" horiz-adv-x="668" 
d="M483 858h122l-537 -1064h-123z" />
    <glyph glyph-name="uni066C" unicode="&#x66c;" horiz-adv-x="545" 
d="M121 128q4 56 40 93.5t95 39.5q82 2 123.5 -56.5t41.5 -147.5q10 -262 -305 -427q-30 60 -41 77q269 127 246 324q-24 -19 -57.5 -25t-64.5 2.5t-53.5 40t-24.5 81.5v-2z" />
    <glyph glyph-name="uni066D" unicode="&#x66d;" horiz-adv-x="965" 
d="M481 1043l83 -289l158 5l143 4l-250 -167l74 -205q12 -35 30 -80l-240 188l-235 -186l102 283l-253 169l306 -11z" />
    <glyph glyph-name="uni066E" unicode="&#x66e;" horiz-adv-x="1982" 
d="M994 40q-338 4 -561 81q-91 38 -159.5 92.5t-98.5 116.5q-38 68 -38 160q0 79 37 182q28 73 62 126l52.5 -40t40.5 -31q-1 -1 -48 -101q-29 -73 -29 -135q0 -54 25 -107q61 -106 248.5 -166t468.5 -60q186 0 396 44t383 138q-7 80 -40.5 174.5t-63.5 151.5t-62 109l99 64
q179 -306 179 -481q0 -76 -96 -140h1q-132 -77 -369 -128.5t-427 -49.5z" />
    <glyph glyph-name="uni066F" unicode="&#x66f;" horiz-adv-x="1581" 
d="M1064 41q-201 17 -292 127q-61 84 -61 183q0 89 33.5 182t83.5 158q85 113 201 113q122 0 231 -117v1q83 -91 130 -231t47 -291q0 -52 -4 -93q3 -5 -2.5 -50t-28.5 -126t-61 -154q-81 -154 -202 -235q-155 -107 -374 -107q-192 0 -329 72q-151 72 -225 206
q-85 137 -85 318q0 27 3 59q17 215 130 436l105 -56q-119 -235 -119 -438q0 -144 66 -258q63 -105 179 -162t270 -59q11 -1 39 -1q100 0 188.5 42.5t153 115.5t109.5 165.5t66 196.5zM1027 685q-45 -4 -85.5 -41.5t-66 -89.5t-40 -105.5t-14.5 -93.5q0 -71 33 -111
q59 -71 216 -86q40 -3 114 -3q95 0 138 5q-6 144 -48.5 262t-101.5 186q-77 77 -143 77h-2z" />
    <glyph glyph-name="uni0670" unicode="&#x670;" 
d="M300 1136l-65 20q34 164 -16 360l70 26q58 -205 11 -406z" />
    <glyph glyph-name="uni06C2" unicode="&#x6c2;" horiz-adv-x="1264" 
d="M1274 156q24 0 41 -17t17 -41t-17 -41t-41 -17q-64 0 -119 18.5t-104 57t-82.5 72.5t-81.5 90q-11 13 -17 20q-45 52 -72.5 81.5t-70 65.5t-84.5 52.5t-88 16.5q-49 0 -90 -14q-188 -69 -289 -436l-112 30q26 97 57 174.5t74 149t103 121t133 71.5q63 20 124 20
q52 0 101.5 -15.5t86 -36.5t79.5 -59.5t69 -67.5t67 -77q33 -39 55 -63.5t56.5 -57t64 -51.5t66.5 -32.5t74 -13.5zM441 1159q-40 7 -65 7q-34 0 -62 -12v2q-32 -14 -51.5 -42.5t-19.5 -61.5q0 -14 8 -36l-1 1q14 -36 50 -59t78 -23q27 0 42 7q39 12 96 46q20 11 43 29
l59 -78q-37 -28 -242 -142l-227 -126l-48 87l179 100q-83 34 -121 120q-14 37 -14 74q0 62 36.5 115.5t96.5 77.5q44 19 98 19q36 0 82 -10l38 -9l-28 -92z" />
    <glyph glyph-name="uni06C3" unicode="&#x6c3;" horiz-adv-x="1433" 
d="M1436 156q24 0 41 -17t17 -41t-17 -41t-41 -17q-64 0 -119 18.5t-104 57t-82.5 72.5t-81.5 90q-11 13 -17 20q-45 52 -72.5 81.5t-70 65.5t-84.5 52.5t-88 16.5q-49 0 -90 -14q-188 -69 -289 -436l-112 30q26 97 57 174.5t74 149t103 121t133 71.5q63 20 124 20
q52 0 101.5 -15.5t86 -36.5t79.5 -59.5t69 -67.5t67 -77q33 -39 55 -63.5t56.5 -57t64 -51.5t66.5 -32.5t74 -13.5zM495 778l-134 133l132 133l134 -134zM851 776l-134 134l132 132l133 -134z" />
    <glyph glyph-name="uni06D5" unicode="&#x6d5;" horiz-adv-x="983" 
d="M485 36q-103 0 -196 44q-170 77 -170 263q0 158 153 351q71 81 148 148l-77 74l80 80q65 -57 188 -194q111 -129 176.5 -251t65.5 -208q0 -185 -157 -262q-97 -45 -211 -45zM489 762q-66 -59 -120.5 -120.5t-101 -145.5t-46.5 -152q0 -106 112 -158h-1q59 -31 153 -31
q99 0 159 30q53 29 79.5 63.5t26.5 89.5q0 133 -261 424z" />
    <glyph glyph-name="uni06F0" unicode="&#x6f0;" horiz-adv-x="952" 
d="M145 503q0 132 93.5 226.5t225.5 94.5q131 0 226 -95t95 -226q0 -132 -94.5 -225.5t-226.5 -93.5t-225.5 93.5t-93.5 225.5zM257 503q0 -86 61.5 -147.5t147.5 -61.5q87 0 148.5 61.5t61.5 147.5q0 87 -61.5 148.5t-148.5 61.5q-86 0 -147.5 -61.5t-61.5 -148.5z" />
    <glyph glyph-name="uni06F1" unicode="&#x6f1;" horiz-adv-x="662" 
d="M335 42q0 212 -8 379t-29.5 347t-66 331t-111.5 268l100 62q135 -236 195 -654q39 -297 39 -738h-114z" />
    <glyph glyph-name="uni06F2" unicode="&#x6f2;" horiz-adv-x="1067" 
d="M943 1435q11 -95 8 -153q-6 -219 -100 -331q-95 -109 -248 -109q-95 0 -214 50l10 -89l5 -35q40 -324 40 -732h-118q0 357 -29 642t-107 493l-9 26v-1q-36 95 -68 157l99 63q46 -81 87 -191l11 -21q25 -56 50.5 -96.5t60 -76.5t80.5 -54.5t102 -18.5q97 0 157 66
q75 97 75 279q0 59 -8 115l110 21z" />
    <glyph glyph-name="uni06F3" unicode="&#x6f3;" horiz-adv-x="1406" 
d="M1282 1452q24 -140 24 -241q0 -180 -72 -267q-66 -78 -178 -78q-26 0 -52.5 6.5t-58 22.5t-60.5 49t-49 79q-26 -56 -59 -93.5t-70 -54t-68.5 -22.5t-69.5 -6q-102 0 -167 42l15 -116q40 -302 40 -734h-117q4 179 -3.5 338.5t-31 331t-73 337t-122.5 314.5l112 65
q34 -60 101 -212q3 -7 8 -19q53 -123 83 -161q60 -67 155 -69q40 0 71 13t51 38.5t34 53.5t22 67.5t12 71.5t6 73q0 53 -6 149l116 15q4 -19 7 -70q15 -163 46 -259q15 -46 34 -76t38.5 -41t30.5 -13.5t25 -2.5q57 0 86 34q47 60 47 195q0 91 -21 224l108 20z" />
    <glyph glyph-name="uni06F4" unicode="&#x6f4;" horiz-adv-x="1165" 
d="M753 741q-121 0 -212.5 45.5t-166.5 153.5l32 -208q34 -290 34 -697h-115q0 205 -8 368t-29 337.5t-64 322t-107 260.5q93 58 96 59q76 -136 129 -295q18 147 121.5 242t255.5 99q165 4 309 -138l-86 -82q-32 28 -46.5 40t-45 32t-61 27.5t-66.5 6.5q-54 -3 -104.5 -28
t-86.5 -66q-40 -50 -58.5 -88.5t-15.5 -85.5q15 -91 101 -141t194 -50q61 0 134 21.5t111 54.5l50 -91q-48 -48 -134 -73.5t-161 -25.5z" />
    <glyph glyph-name="uni06F5" unicode="&#x6f5;" horiz-adv-x="1219" 
d="M819 41q-77 1 -127 41.5t-86 120.5q-30 -76 -92 -119t-150 -43q-51 0 -100.5 25.5t-86.5 70.5q-38 47 -57.5 119.5t-19.5 146.5q0 73 23 193q68 297 329 707l-53 49l89 83q166 -158 332 -359q292 -375 292 -654q0 -162 -79 -271q-81 -110 -213 -110h-1zM660 495
q1 -53 9 -106t24.5 -109t49.5 -91t77 -35q63 0 106 44.5t59.5 102.5t16.5 121q0 59 -18.5 126.5t-46 127t-71.5 130t-81.5 122t-90.5 116t-83 99t-75 83.5q-131 -209 -205 -365.5t-104 -287.5q-19 -86 -19 -172q0 -125 58 -197q44 -50 98 -50q55 0 102 46t73 129
q10 34 14 66t4.5 62.5t1.5 36.5z" />
    <glyph glyph-name="uni06F6" unicode="&#x6f6;" horiz-adv-x="1067" 
d="M131 82q22 55 73 158t109 197q118 166 279 324q-15 -1 -38 -1q-123 0 -217 55t-117 151q-25 107 7.5 204.5t123.5 165.5q108 79 241 90q114 15 257 -56l-57 -99q-90 43 -170 43q-113 0 -202 -67q-61 -50 -86 -115t-4 -135q15 -45 78.5 -82t142.5 -37q137 -4 383 73
l35 -109q-101 -27 -199 -89.5t-173 -141.5t-140 -165t-110 -168t-72.5 -142t-36.5 -94z" />
    <glyph glyph-name="uni06F7" unicode="&#x6f7;" horiz-adv-x="1165" 
d="M814 751q-76 -214 -122 -403t-52 -315h-114q-4 201 -42 393.5t-104.5 363.5t-136 307t-161.5 284l96 60q204 -328 325 -652q37 -105 94 -335q89 295 200 569t195 417q16 -11 96 -60q-119 -202 -274 -629z" />
    <glyph glyph-name="uni06F8" unicode="&#x6f8;" horiz-adv-x="1165" 
d="M988 17q-81 137 -190.5 409.5t-200.5 571.5q-51 -211 -95 -334q-100 -283 -326 -652l-95 60q73 119 129.5 222.5t118 241.5t102 269.5t68.5 291.5t31 323h115q6 -126 51 -319.5t116 -399.5q63 -170 141.5 -350t132.5 -278z" />
    <glyph glyph-name="uni06F9" unicode="&#x6f9;" horiz-adv-x="1056" 
d="M882 35q-50 48 -89.5 123t-66.5 171.5t-42 171t-32 176.5q-4 20 -10 57t-9 53q-104 -36 -180 -36q-89 0 -172.5 36t-124.5 91q-46 64 -46 161q0 94 37.5 185.5t108 153t152.5 60.5q161 -10 256 -226q60 -148 90 -459v1q68 -463 193 -624zM398 1323q-49 -13 -89 -59
t-61.5 -105t-21.5 -116q0 -55 22 -99v1q64 -80 212 -80q78 0 162 44q-26 163 -66 259q-65 153 -151 156q-1 0 -4 -0.5t-4 -0.5h1z" />
    <glyph glyph-name="uni200C" unicode="&#x200c;" horiz-adv-x="148" 
 />
    <glyph glyph-name="NULL" 
 />
    <glyph glyph-name="CR" horiz-adv-x="602" 
 />
    <glyph glyph-name="feh_dotless.isol" horiz-adv-x="1948" 
d="M1684 987q69 -78 115 -203.5t46 -259.5q0 -104 -19 -162q-25 -68 -72 -121t-113 -87.5t-140 -57.5t-168.5 -35t-182 -16.5t-195.5 -4.5q-583 0 -750 285q-61 103 -61 233q0 155 52 259l104 -58q-38 -90 -38 -200q0 -92 46 -175q129 -207 616 -227q29 -1 85 -1
q623 0 726 263q-100 -21 -182 -21q-211 0 -316 117q-53 59 -53 166q0 66 20.5 137.5t56.5 133t92.5 101t120.5 39.5q116 0 210 -105zM1734 532q-3 95 -28.5 185.5t-84 165.5t-139.5 92q-34 4 -80.5 -37.5t-81.5 -109.5t-35 -130q0 -71 30 -111q63 -80 236 -80q90 0 183 25z
" />
    <glyph glyph-name="uni06A1.fina" horiz-adv-x="2106" 
d="M1938 528q-6 -105 -44 -178.5t-119 -155.5q213 -38 333 -38q24 0 41.5 -17t17.5 -41t-17.5 -41t-41.5 -17q-256 0 -469 74l-75 -24q-93 -35 -257 -53.5t-346 -18.5q-598 2 -765 285q-61 99 -61 234q0 137 61 275l104 -58q-48 -110 -48 -218q0 -92 46 -175
q67 -110 213 -165.5t394 -61.5h5q72 -2 102 -2q222 0 473 51q-87 50 -142 147t-55 171q0 93 42.5 184t121.5 152t171 61q274 0 315 -370zM1623 244q214 91 214 284q0 64 -19 113t-44.5 74t-58.5 40.5t-54 19.5t-38 4q-36 0 -74.5 -18t-73 -52t-57 -90t-22.5 -123
q0 -64 63.5 -143t163.5 -109z" />
    <glyph glyph-name="onedot.above" horiz-adv-x="1024" 
d="M524 1091l-134 134l133 133l134 -134z" />
    <glyph glyph-name="twodots.above" horiz-adv-x="1024" 
d="M342 890l-134 133l132 133l134 -134zM698 888l-134 134l132 132l133 -134z" />
    <glyph glyph-name="threedots.above" horiz-adv-x="1151" 
d="M768 1284l134 -134l-132 -132l-134 134zM362 1286l134 -134l-132 -133l-134 134zM569 1557l133 -133l-132 -132l-133 133z" />
    <glyph glyph-name="threedots.below" horiz-adv-x="1057" 
d="M875 -236l-134 -134l-132 132l134 134zM469 -238l-134 -134l-132 133l134 134zM681 -507l-134 -134l-132 132l134 134z" />
    <glyph glyph-name="wasla" 
d="M-52 1253q28 15 50 21q54 18 78 14q26 -5 58 -33l18 -19q50 92 95 137q60 58 135 69h-1q13 4 35 4q61 0 101 -43q39 -39 34 -89q-3 -57 -51 -101q-69 -57 -222 -57q-129 0 -185 62h1l-4 3v-1q-3 2 -9 6.5t-10 6.5t-9 2q-35 0 -108 -35l-9 47zM280 1213q123 0 184 46
q28 25 31 59q0 31 -16 42q-33 37 -89 27q-61 -12 -105 -56q-45 -45 -79 -113z" />
    <glyph glyph-name="beh_dotless_alt.init" horiz-adv-x="843" 
d="M-58 98q0 25 17 41.5t41 16.5h111h8q51 0 80.5 0.5t85 5t90.5 13t79.5 26t70 42t43.5 63t18 87.5q0 83 -51 241q-8 26 -22 60t-30 71t-21 51q61 30 107 54q47 -106 77 -200q51 -162 51 -275q0 -82 -26 -145v1q-70 -146 -228 -191q-71 -20 -289 -20h-154q-24 0 -41 16.5
t-17 41.5z" />
    <glyph glyph-name="beh_dotless_alt.medi" horiz-adv-x="852" 
d="M-61 98q0 25 16.5 41.5t41.5 16.5h76q81 0 144 5.5t126 22.5t103.5 46t64.5 77.5t22 115.5q-5 103 -33 212q18 4 38 11t32 10l41 12q21 -86 36 -217l5 -49q3 -32 6 -52t10 -49t15.5 -47t23.5 -38.5t34.5 -32t48.5 -19.5t65 -8q25 0 42.5 -16.5t17.5 -41.5q0 -24 -17 -41
t-41 -17q-160 0 -271 148q-78 -76 -218.5 -112t-294.5 -36h-76q-25 0 -41.5 16.5t-16.5 41.5z" />
    <glyph glyph-name="onedot.below" horiz-adv-x="1024" 
d="M439 -493l-134 134l133 133l134 -134z" />
    <glyph glyph-name="twodots.below" horiz-adv-x="1024" 
d="M319 -497l-136 135l134 135l136 -136zM713 -499l-136 136l134 134l136 -135z" />
    <glyph glyph-name="alef_alt.isol" horiz-adv-x="509" 
d="M232 41q18 266 18 494q0 62 -2 200q-6 190 -13 258l-4 55q-13 171 -28 286q38 6 70 6q30 2 45 5q29 -223 44 -511q5 -140 5 -280q0 -256 -18 -518z" />
    <glyph glyph-name="alef_alt.fina" horiz-adv-x="640" 
d="M645 40q-199 0 -293 94q-27 26 -44 59.5t-23 73t-7 59t-1 54.5v10q4 188 4 275q0 555 -30 780l116 22q31 -216 31 -822q0 -115 -2 -267q0 -121 42 -161q60 -60 198 -61h9q24 0 41.5 -17t17.5 -41t-17.5 -41t-41.5 -17z" />
    <glyph glyph-name="heh_ae.fina" horiz-adv-x="1090" 
d="M544 180q-238 0 -329 111q-43 54 -43 134q0 56 16 93v-1q105 221 474 360l-15 142q19 4 38.5 8.5t42.5 10t36 8.5q2 -14 17.5 -161.5t17.5 -163.5v1q41 -354 81 -450q29 -66 77 -91t133 -25q24 0 41.5 -17t17.5 -41t-17.5 -41t-41.5 -17q-107 0 -179 33h1
q-68 32 -129 130q-153 -23 -239 -23zM626 738q-32 -14 -52.5 -22.5t-60.5 -28.5t-67 -36.5t-60.5 -42t-53.5 -50t-34.5 -56t-14.5 -63.5q0 -41 21.5 -70.5t59.5 -45t80.5 -22.5t93.5 -7q83 0 205 22q-27 132 -66 442z" />
    <glyph glyph-name="uni06F4.urdu" horiz-adv-x="1237" 
d="M750 982q38 99 126.5 213.5t167.5 169.5q2 -3 11.5 -20t15.5 -26q21 -33 30 -50q-70 -68 -128 -138q-159 -196 -189 -344q-15 -1 -44.5 -3.5t-44.5 -3.5q-35 150 -114 264q-101 142 -188 125q-45 -9 -66 -42t-21 -76q0 -122 120 -366h-1l88 -180q64 -142 101.5 -270
t41.5 -208q-49 -12 -107 -30q-31 183 -114 378q-87 203 -165 372q-81 176 -81 307q0 68 28.5 126.5t84.5 96.5q52 31 125 31q108 0 169 -61h-1q66 -66 145 -265h10z" />
    <glyph glyph-name="uni06F7.urdu" horiz-adv-x="1012" 
d="M503 157q164 0 354 32v-117q-168 -46 -436 -46q-58 0 -159.5 9.5t-153.5 21.5q-16 80 -16 132q0 170 127 381q148 254 423 578l119 139l81 -86l-111 -125l-240 -312q-142 -186 -214 -339t-72 -228q38 -16 116 -26q1 0 3 -0.5l2 -0.5h3q78 -13 174 -13z" />
    <glyph glyph-name="Ghunna_above" 
d="M251 1146q-93 0 -155 54q-56 50 -70 132v-1q-3 21 -3 43q0 47 19 101l10 37q6 20 11 29q9 -3 73 -27q-33 -54 -33 -141q0 -13 2 -31q4 -17 12 -33t24.5 -36t48 -33t73.5 -14q144 6 175 101q10 31 10 68q0 84 -57 165l78 62q9 -16 21 -43t25.5 -81t13.5 -103
q0 -43 -15 -93q-24 -71 -81 -108q-69 -44 -168 -48h-14z" />
    <glyph glyph-name="uni0651064B" 
d="M148 1138q-85 3 -122 59q-19 30 -19 75q0 57 27 115l52 -24q-20 -52 -20 -92q0 -30 8 -43q9 -14 30.5 -23t45.5 -9q40 0 60 24q6 8 11 17.5t8.5 17t5.5 20.5t3.5 19t2 22t0.5 20.5v22.5v22l53 11q9 -54 21.5 -92t26.5 -56.5t26 -26.5t24 -8q40 3 59 28t19 64
q0 80 -57 157l50 34q23 -36 45 -90.5t22 -98.5q0 -24 -5 -46t-18.5 -47.5t-44 -41t-74.5 -15.5q-30 0 -61 19.5t-48 51.5q-17 -42 -51.5 -64t-73.5 -22h-6zM-15 1513v79l510 206v-71zM-22 1692v79l510 206v-74z" />
    <glyph glyph-name="uni0654064B" 
d="M354 1583q-5 0 -27 3t-36 3q-33 0 -60 -11v2q-31 -13 -50 -39.5t-19 -57.5q0 -12 8 -33l-1 1q14 -34 48.5 -55t75.5 -21q23 0 41 6q46 15 92 43q24 14 42 27l57 -72q-53 -37 -234 -132l-220 -117l-46 81l173 92q-78 30 -117 112q-13 32 -13 68q0 58 35.5 107.5t92.5 71.5
q44 18 95 18q32 0 79 -9l37 -9l-27 -85zM-9 1759v79l510 206v-71zM-16 1938v79l510 206v-74z" />
    <glyph glyph-name="uni0654064E" 
d="M354 1583q-5 0 -27 3t-36 3q-33 0 -60 -11v2q-31 -13 -50 -39.5t-19 -57.5q0 -12 8 -33l-1 1q14 -34 48.5 -55t75.5 -21q23 0 41 6q46 15 92 43q24 14 42 27l57 -72q-53 -37 -234 -132l-220 -117l-46 81l173 92q-78 30 -117 112q-13 32 -13 68q0 58 35.5 107.5t92.5 71.5
q44 18 95 18q32 0 79 -9l37 -9l-27 -85zM-21 1738v79l510 206v-74z" />
    <glyph glyph-name="uni0654064C" 
d="M354 1583q-5 0 -27 3t-36 3q-33 0 -60 -11v2q-31 -13 -50 -39.5t-19 -57.5q0 -12 8 -33l-1 1q14 -34 48.5 -55t75.5 -21q23 0 41 6q46 15 92 43q24 14 42 27l57 -72q-53 -37 -234 -132l-220 -117l-46 81l173 92q-78 30 -117 112q-13 32 -13 68q0 58 35.5 107.5t92.5 71.5
q44 18 95 18q32 0 79 -9l37 -9l-27 -85zM-9 1820q20 42 20 98q0 35 -6 43q-12 25 -43 29h1q-36 1 -76 -31l-42 42q57 52 120 48q61 -4 89 -55q17 -33 17 -73q0 -28 -11 -86q152 49 247 111l-80 34q-94 46 -94 135q0 29 11 48q21 44 62.5 72t86.5 28q22 0 48 -11
q53 -26 72 -89q9 -31 9 -63q0 -51 -22 -124l32 -12l-24 -53l-39 11q-45 -42 -120 -78.5t-128 -53t-95 -25.5l-35 48v7zM293 2203q-26 0 -56 -19.5t-42 -47.5l1 1q-1 -9 -1.5 -24.5t15.5 -39t45 -39.5q16 -8 45.5 -20t44.5 -19q17 66 17 106q0 31 -9 52q-17 50 -60 50z" />
    <glyph glyph-name="uni0654064F" 
d="M354 1583q-5 0 -27 3t-36 3q-33 0 -60 -11v2q-31 -13 -50 -39.5t-19 -57.5q0 -12 8 -33l-1 1q14 -34 48.5 -55t75.5 -21q23 0 41 6q46 15 92 43q24 14 42 27l57 -72q-53 -37 -234 -132l-220 -117l-46 81l173 92q-78 30 -117 112q-13 32 -13 68q0 58 35.5 107.5t92.5 71.5
q44 18 95 18q32 0 79 -9l37 -9l-27 -85zM133 1860q80 37 149 83l-36 15q-30 14 -43 21q-110 56 -100 134q11 71 76 117q68 48 134 20q66 -35 80 -125q11 -79 -20 -152l27 -8l-19 -57l-42 15q-60 -59 -168 -112q-43 -21 -82 -36q-33 -13 -60 -21l-21 57q58 18 125 49z
M199 2174q-40 -30 -40 -68t66 -70l92 -43q29 43 17 122q-14 86 -70 86q-30 0 -65 -27z" />
    <glyph glyph-name="uni06540652" 
d="M354 1583q-5 0 -27 3t-36 3q-33 0 -60 -11v2q-31 -13 -50 -39.5t-19 -57.5q0 -12 8 -33l-1 1q14 -34 48.5 -55t75.5 -21q23 0 41 6q46 15 92 43q24 14 42 27l57 -72q-53 -37 -234 -132l-220 -117l-46 81l173 92q-78 30 -117 112q-13 32 -13 68q0 58 35.5 107.5t92.5 71.5
q44 18 95 18q32 0 79 -9l37 -9l-27 -85zM238 1889q47 0 83.5 40.5t34.5 95.5q-3 51 -34 93t-84 42q-50 0 -84.5 -43.5t-34.5 -91.5q0 -49 36 -92.5t83 -43.5zM238 2221q74 0 125 -61.5t53 -134.5q2 -76 -51 -136.5t-127 -60.5q-77 -2 -128 59t-51 138q0 73 51 134.5
t128 61.5z" />
    <glyph glyph-name="uni0655064D" 
d="M406 -246q-5 0 -27 3t-36 3q-33 0 -60 -11v2q-31 -13 -50 -39.5t-19 -57.5q0 -12 8 -33l-1 1q14 -34 48.5 -55t75.5 -21q23 0 41 6q46 15 92 43q24 13 42 27l57 -72q-53 -37 -234 -132l-220 -117l-46 81l173 92q-78 30 -117 112q-13 32 -13 68q0 58 35.5 107.5t92.5 71.5
q44 18 95 18q32 0 79 -9l37 -9l-27 -85zM113 -1115v79l510 206v-71zM106 -936v79l510 206v-74z" />
    <glyph glyph-name="uni06550650" 
d="M380 -247q-5 0 -27 3t-36 3q-33 0 -60 -11v2q-31 -13 -50 -39.5t-19 -57.5q0 -12 8 -33l-1 1q14 -34 48.5 -55t75.5 -21q23 0 41 6q46 15 92 43q24 14 42 27l57 -72q-53 -37 -234 -132l-220 -117l-46 81l173 92q-78 30 -117 112q-13 32 -13 68q0 58 35.5 107.5t92.5 71.5
q43 18 95 18q32 0 79 -9l37 -9l-27 -85zM70 -938v79l510 206v-74z" />
    <glyph glyph-name="diagonal" horiz-adv-x="1024" 
d="M844 1721q-721 -309 -722 -309l5 84l686 290z" />
    <glyph glyph-name="sarkesh_31" horiz-adv-x="1024" 
d="M905 1754q-140 -60 -391.5 -171t-391.5 -171l3 40l3 45q134 56 374 161t372 161z" />
    </font>
</defs>
</svg>
