<svg id="Layer_1" xmlns="http://www.w3.org/2000/svg" viewBox="0 0 496 496"><style>.st0{fill:#009b55}.st1{fill:#1f402f}</style><path class="st0" d="M408 312c3.3 0 6.5.3 9.6 1l-22.2-40.7c5.6-10.4 10.2-21.3 13.5-32.7l31-9.6v-75.8l-31-9.6c-3.4-11.4-7.9-22.3-13.5-32.7L410.6 83 357 29.4l-28.7 15.1C317.9 38.9 307 34.3 295.6 31L286 0h-75.8l-9.6 31c-11.4 3.4-22.4 7.9-32.7 13.5L139 29.4 85.4 83l15.1 28.7C94.9 122.1 90.3 133 87 144.4L56 154v75.8l31 9.6c3.4 11.4 7.9 22.3 13.5 32.7L78.4 313c3.1-.6 6.3-1 9.6-1 25.1 0 45.7 19.3 47.8 43.8l32-16.4c10.4 5.6 21.3 10.2 32.7 13.5l9.6 31h75.8l9.6-31c11.4-3.4 22.3-7.9 32.7-13.5l32 16.7c2-24.7 22.6-44.1 47.8-44.1zm-160 8c-70.7 0-128-57.3-128-128S177.3 64 248 64s128 57.3 128 128-57.3 128-128 128z"/><path class="st1" d="M384 192c0-75-61-136-136-136s-136 61-136 136 61 136 136 136 136-61 136-136zm-256 0c0-66.2 53.8-120 120-120s120 53.8 120 120c0 31.4-12.2 59.9-32 81.3v-17.2c0-17.8-11.9-33.6-29-38.5l-27-7.7v-4.1c14.5-10.1 24-26.9 24-45.9v-16c0-30.9-25.1-56-56-56s-56 25.1-56 56v16c0 19 9.5 35.8 24 45.9v4.1l-27 7.7c-17.1 4.9-29 20.7-29 38.5v17.2c-19.8-21.4-32-49.9-32-81.3zm89.8 34.1C222 238.8 233.9 248 248 248s26-9.2 30.2-21.9l24.4 7c10.3 2.9 17.4 12.4 17.4 23.1v7.9H176v-7.9c0-10.7 7.2-20.2 17.4-23.1l24.4-7zm14.2-12.5c5.1 1.5 10.4 2.4 16 2.4s10.9-.8 16-2.4v2.4c0 8.8-7.2 16-16 16s-16-7.2-16-16v-2.4zm16-13.6c-22.1 0-40-17.9-40-40v-16c0-22.1 17.9-40 40-40s40 17.9 40 40v16c0 22.1-17.9 40-40 40zm-81.3 80h162.6c-21.4 19.8-49.9 32-81.3 32s-59.9-12.2-81.3-32zM147 433.7l-27-7.7v-4.1c14.5-10.1 24-26.9 24-45.9v-16c0-30.9-25.1-56-56-56s-56 25.1-56 56v16c0 19 9.5 35.8 24 45.9v4.1l-27 7.7c-17.1 4.9-29 20.7-29 38.5V496h176v-23.9c0-17.7-11.9-33.5-29-38.4zm-75-4.1c5.1 1.5 10.4 2.4 16 2.4s10.9-.8 16-2.4v2.4c0 8.8-7.2 16-16 16s-16-7.2-16-16v-2.4zM48 376v-16c0-22.1 17.9-40 40-40s40 17.9 40 40v16c0 22.1-17.9 40-40 40s-40-17.9-40-40zm112 104H16v-7.9c0-10.7 7.2-20.2 17.4-23.1l24.4-7c4.2 12.8 16.1 22 30.2 22s26-9.2 30.2-21.9l24.4 7c10.3 2.9 17.4 12.4 17.4 23.1v7.8zM467 433.7l-27-7.7v-4.1c14.5-10.1 24-26.9 24-45.9v-16c0-30.9-25.1-56-56-56s-56 25.1-56 56v16c0 19 9.5 35.8 24 45.9v4.1l-27 7.7c-17.1 4.9-29 20.7-29 38.5V496h176v-23.9c0-17.7-11.9-33.5-29-38.4zm-75-4.1c5.1 1.5 10.4 2.4 16 2.4s10.9-.8 16-2.4v2.4c0 8.8-7.2 16-16 16s-16-7.2-16-16v-2.4zM368 376v-16c0-22.1 17.9-40 40-40s40 17.9 40 40v16c0 22.1-17.9 40-40 40s-40-17.9-40-40zm112 104H336v-7.9c0-10.7 7.2-20.2 17.4-23.1l24.4-7c4.2 12.8 16.1 22 30.2 22s26-9.2 30.2-21.9l24.4 7c10.3 2.9 17.4 12.4 17.4 23.1v7.8z"/></svg>