<svg id="Layer_1" xmlns="http://www.w3.org/2000/svg" viewBox="0 0 281.3 281.3"><style>.st0{fill:#009b55}.st1{fill:#1f402f}</style><circle class="st0" cx="140.6" cy="140.6" r="65.6"/><path class="st1" d="M140.6 37.5c-56.9 0-103.1 46.3-103.1 103.1s46.3 103.1 103.1 103.1 103.1-46.3 103.1-103.1S197.5 37.5 140.6 37.5zm0 196.9c-51.7 0-93.8-42.1-93.8-93.8s42.1-93.8 93.8-93.8 93.8 42.1 93.8 93.8-42.1 93.8-93.8 93.8zM135.9 0h9.4v32.8h-9.4z"/><path transform="rotate(-14.999 108.473 20.636)" class="st1" d="M103.8 4.2h9.4V37h-9.4z"/><path transform="rotate(-30 78.514 33.057)" class="st1" d="M73.8 16.7h9.4v32.8h-9.4z"/><path transform="rotate(-45.001 52.79 52.788)" class="st1" d="M48.1 36.4h9.4v32.8h-9.4z"/><path transform="rotate(-60 33.043 78.513)" class="st1" d="M28.4 62.1h9.4v32.8h-9.4z"/><path transform="rotate(-75.001 20.638 108.482)" class="st1" d="M16 92.1h9.4v32.8H16z"/><path class="st1" d="M0 135.9h32.8v9.4H0z"/><path transform="rotate(-14.999 20.643 172.775)" class="st1" d="M4.2 168.1H37v9.4H4.2z"/><path transform="rotate(-30 33.033 202.739)" class="st1" d="M16.6 198h32.8v9.4H16.6z"/><path transform="rotate(-45.001 52.784 228.46)" class="st1" d="M36.4 223.8h32.8v9.4H36.4z"/><path transform="rotate(-60 78.51 248.199)" class="st1" d="M62.1 243.5h32.8v9.4H62.1z"/><path transform="rotate(-75.001 108.47 260.616)" class="st1" d="M92.1 255.9h32.8v9.4H92.1z"/><path class="st1" d="M135.9 248.4h9.4v32.8h-9.4z"/><path transform="rotate(-14.999 172.782 260.606)" class="st1" d="M168.1 244.2h9.4V277h-9.4z"/><path transform="rotate(-30 202.716 248.22)" class="st1" d="M198 231.8h9.4v32.8H198z"/><path transform="rotate(-45.001 228.456 228.467)" class="st1" d="M223.8 212.1h9.4v32.8h-9.4z"/><path transform="rotate(-60 248.188 202.731)" class="st1" d="M243.5 186.3h9.4v32.8h-9.4z"/><path transform="rotate(-75.001 260.617 172.793)" class="st1" d="M255.9 156.4h9.4v32.8h-9.4z"/><path class="st1" d="M248.4 135.9h32.8v9.4h-32.8z"/><path transform="rotate(-14.999 260.613 108.466)" class="st1" d="M244.2 103.8H277v9.4h-32.8z"/><path transform="rotate(-30 248.197 78.537)" class="st1" d="M231.8 73.8h32.8v9.4h-32.8z"/><path transform="rotate(-45.001 228.462 52.794)" class="st1" d="M212.1 48.1h32.8v9.4h-32.8z"/><path transform="rotate(-60 202.726 33.053)" class="st1" d="M186.3 28.4h32.8v9.4h-32.8z"/><path transform="rotate(-75.001 172.777 20.645)" class="st1" d="M156.4 16h32.8v9.4h-32.8z"/><path transform="rotate(-7.505 125.33 24.444)" class="st1" d="M120.6 15.1h9.4v18.7h-9.4z"/><path transform="rotate(-22.497 95.78 32.365)" class="st1" d="M91.1 23h9.4v18.7h-9.4z"/><path transform="rotate(-37.491 69.282 47.656)" class="st1" d="M64.6 38.3H74V57h-9.4z"/><path transform="rotate(-52.509 47.654 69.289)" class="st1" d="M43 59.9h9.4v18.7H43z"/><path transform="rotate(-67.505 32.357 95.782)" class="st1" d="M27.7 86.4h9.4v18.7h-9.4z"/><path transform="rotate(-82.478 24.441 125.33)" class="st1" d="M19.8 116h9.4v18.7h-9.4z"/><path transform="rotate(-7.52 24.447 155.92)" class="st1" d="M15.1 151.2h18.7v9.4H15.1z"/><path transform="rotate(-22.497 32.356 185.469)" class="st1" d="M23 180.8h18.7v9.4H23z"/><path transform="rotate(-37.496 47.651 211.971)" class="st1" d="M38.3 207.3H57v9.4H38.3z"/><path transform="rotate(-52.504 69.29 233.591)" class="st1" d="M59.9 228.9h18.7v9.4H59.9z"/><path transform="rotate(-67.505 95.776 248.894)" class="st1" d="M86.4 244.2h18.7v9.4H86.4z"/><path transform="rotate(-82.478 125.332 256.814)" class="st1" d="M116 252.1h18.7v9.4H116z"/><path transform="rotate(-7.505 155.91 256.82)" class="st1" d="M151.2 247.4h9.4v18.7h-9.4z"/><path transform="rotate(-22.497 185.461 248.898)" class="st1" d="M180.8 239.5h9.4v18.7h-9.4z"/><path transform="rotate(-37.491 211.96 233.606)" class="st1" d="M207.3 224.2h9.4v18.7h-9.4z"/><path transform="rotate(-52.509 233.593 211.98)" class="st1" d="M228.9 202.6h9.4v18.7h-9.4z"/><path transform="rotate(-67.505 248.89 185.476)" class="st1" d="M244.2 176.1h9.4v18.7h-9.4z"/><path transform="rotate(-82.478 256.817 155.922)" class="st1" d="M252.1 146.6h9.4v18.7h-9.4z"/><path transform="rotate(-7.505 256.807 125.341)" class="st1" d="M247.4 120.7h18.7v9.4h-18.7z"/><path transform="rotate(-22.497 248.888 95.788)" class="st1" d="M239.5 91.1h18.7v9.4h-18.7z"/><path transform="rotate(-37.496 233.599 69.29)" class="st1" d="M224.2 64.6h18.7V74h-18.7z"/><path transform="rotate(-52.504 211.964 47.651)" class="st1" d="M202.6 43h18.7v9.4h-18.7z"/><path transform="rotate(-67.505 185.47 32.363)" class="st1" d="M176.1 27.7h18.7v9.4h-18.7z"/><path transform="rotate(-82.478 155.926 24.438)" class="st1" d="M146.6 19.8h18.7v9.4h-18.7z"/><path class="st1" d="M82 112.5h-4.7c-9 0-16.4 7.4-16.4 16.4s7.4 16.4 16.4 16.4H82c3.9 0 7 3.2 7 7s-3.2 7-7 7h-4.7c-3.9 0-7-3.2-7-7V150h-9.4v2.3c0 9 7.4 16.4 16.4 16.4H82c9 0 16.4-7.4 16.4-16.4S91 135.9 82 135.9h-4.7c-3.9 0-7-3.2-7-7 0-3.9 3.2-7 7-7H82c3.9 0 7 3.2 7 7v2.3h9.4v-2.3c0-9-7.3-16.4-16.4-16.4zM121.9 112.5c-10.3 0-18.8 8.4-18.8 18.8v37.5h9.4V150h18.8v18.8h9.4v-37.5c-.1-10.4-8.5-18.8-18.8-18.8zm-9.4 28.1v-9.4c0-5.2 4.2-9.4 9.4-9.4s9.4 4.2 9.4 9.4v9.4h-18.8zM159.4 112.5H150v56.3h28.1v-9.4h-18.7zM220.3 121.9v-9.4h-32.8v56.3h32.8v-9.4h-23.4v-14.1h23.4v-9.4h-23.4v-14z"/></svg>