<svg id="Layer_1" xmlns="http://www.w3.org/2000/svg" viewBox="0 0 90.7 90.7"><style>.st0{fill:#e6e6e6}.st1{fill:#009b55}.st2{fill:#1f402f}</style><title>mablagh_pish_factor</title><g id="Layer_2"><g id="Layer_1-2"><circle class="st0" cx="45.4" cy="45.4" r="45.4"/><path class="st1" d="M49.3 36.5h.9c1.1-1.6 1.5-3.5 1.2-5.5-.5-3.4-3.2-6.1-6.6-6.7-5.5-.9-10.2 3.6-9.5 8.9.4 3.3 3.1 6.1 6.4 6.7 1.6.3 3.1.2 4.6-.4v-.2c0-1.5 1.4-2.8 3-2.8zM23.5 50.2h4.4v15.2h-4.4zM30.9 54.6h4.4v10.8h-4.4zM38.2 51.7h4.4v13.7h-4.4z"/><path class="st2" d="M43.4 30c.4 0 .7.3.7.7h1.5c0-.9-.6-1.7-1.5-2v-1.6h-1.5v1.6c-.9.3-1.5 1.1-1.5 2 0 1.2 1 2.2 2.2 2.2.4 0 .7.3.7.7s-.3.7-.7.7c-.4 0-.7-.3-.7-.7h-1.5c0 .9.6 1.7 1.5 2v1.6h1.5v-1.6c.9-.3 1.5-1.1 1.5-2 0-1.2-1-2.2-2.2-2.2-.4 0-.7-.3-.7-.7s.3-.7.7-.7zM25 28.6h1.4v-2.9h3v-1.5H25zM26.4 35.8H25v4.3h4.4v-1.4h-3zM60.4 28.6h1.4v-4.4h-4.4v1.5h3z"/><path class="st2" d="M64.8 35.8V21.3H22V43h23.6v19.5c0 2 1.7 3.6 3.7 3.6H64c2 0 3.7-1.6 3.7-3.6V39.4c0-1.8-1.2-3.2-2.9-3.6zm-19.2 3.6v2.2H23.5V22.8h39.8v13h-14c-2 0-3.7 1.6-3.7 3.6zm20.7 23.1c0 1.2-1 2.2-2.2 2.2H49.3c-1.2 0-2.2-1-2.2-2.2V39.4c0-1.2 1-2.2 2.2-2.2H64c1.2 0 2.2 1 2.2 2.2v23.1z"/><path class="st2" d="M60.4 63.2h4.4V53.1h-4.4v10.1zm1.4-8.6h1.5v7.2h-1.5v-7.2zM54.5 63.2h4.4v-4.3h-4.4v4.3zm1.4-2.9h1.5v1.4h-1.5v-1.4zM48.6 63.2H53v-4.3h-4.4v4.3zm1.4-2.9h1.5v1.4H50v-1.4zM54.5 57.4h4.4v-4.3h-4.4v4.3zm1.4-2.8h1.5V56h-1.5v-1.4zM48.6 57.4H53v-4.3h-4.4v4.3zm1.4-2.8h1.5V56H50v-1.4zM54.5 51.7h4.4v-4.3h-4.4v4.3zm1.4-2.9h1.5v1.4h-1.5v-1.4zM60.4 51.7h4.4v-4.3h-4.4v4.3zm1.4-2.9h1.5v1.4h-1.5v-1.4zM48.6 51.7H53v-4.3h-4.4v4.3zm1.4-2.9h1.5v1.4H50v-1.4zM48.6 45.9h16.2v-7.2H48.6v7.2zm1.4-5.8h13.3v4.3H50v-4.3zM25.7 44.4c-1.2 0-2.2 1-2.2 2.2 0 1.2 1 2.2 2.2 2.2.5 0 1-.2 1.4-.5l3.8 2.2v.4c0 1.2 1 2.2 2.2 2.2s2.2-1 2.2-2.2v-.1l3.5-1.4c.4.5 1 .7 1.7.7 1.2 0 2.2-1 2.2-2.2s-1-2.2-2.2-2.2c-1.2 0-2.2 1-2.2 2.2v.1l-3.5 1.4c-.4-.5-1-.7-1.7-.7-.5 0-1 .2-1.4.5L27.9 47v-.4c0-1.2-1-2.2-2.2-2.2zm14.7 2.9c.4 0 .7.3.7.7s-.3.7-.7.7-.7-.3-.7-.7.3-.7.7-.7zm-14.7 0c-.4 0-.7-.3-.7-.7 0-.4.3-.7.7-.7.4 0 .7.3.7.7 0 .4-.3.7-.7.7zm8.1 3.6c0 .4-.3.7-.7.7s-.7-.3-.7-.7c0-.4.3-.7.7-.7s.7.3.7.7zM22 64.7h22.1v1.4H22zM47.1 31.4h1.5v1.4h-1.5zM38.2 31.4h1.5v1.4h-1.5z"/></g></g></svg>