<svg xmlns="http://www.w3.org/2000/svg" viewBox="0 0 120 120"><defs><style>.cls-1{fill:#f0f0f0}.cls-2{fill:#009b55}.cls-3{fill:#1f402f}</style></defs><title>Asset 4</title><g id="Layer_2" data-name="Layer 2"><g id="Layer_1-2" data-name="Layer 1"><circle class="cls-1" cx="60" cy="60" r="60"/><path class="cls-2" d="M77.52 57.86H62.14V42.48a2.14 2.14 0 0 0-4.29 0v15.38H42.48a2.14 2.14 0 1 0 0 4.29h15.38v15.37a2.14 2.14 0 1 0 4.29 0V62.14h15.37a2.14 2.14 0 1 0 0-4.29z"/><path class="cls-3" d="M60 25.69A34.31 34.31 0 1 0 94.31 60 34.31 34.31 0 0 0 60 25.69zm0 65.44A31.13 31.13 0 1 1 91.13 60 31.13 31.13 0 0 1 60 91.13z"/></g></g></svg>