<svg xmlns="http://www.w3.org/2000/svg" viewBox="0 0 150 150"><defs><style>.cls-1{fill:#f0f0f0}.cls-2{fill:#009b55}.cls-3{fill:#1f402f}</style></defs><title>Asset 3</title><g id="Layer_2" data-name="Layer 2"><g id="Layer_1-2" data-name="Layer 1"><g id="Layer_2-2" data-name="Layer 2"><g id="Layer_1-2-2" data-name="Layer 1-2"><circle class="cls-1" cx="75" cy="75" r="75"/><path class="cls-2" d="M84.61 103.84H65.39a3.2 3.2 0 0 1-3.2-3.2 3.2 3.2 0 0 1 3.2-3.2h19.22a3.2 3.2 0 0 1 3.2 3.2 3.2 3.2 0 0 1-3.2 3.2z"/><path class="cls-3" d="M105 47.57a6.41 6.41 0 0 0 0-9.07l-2.27 2.27a3.21 3.21 0 0 1 0 4.53zM92.63 86.22h3.2v3.2h-3.2zM83 52.57V43H67v9.61zm-3.2-3.2h-3.2v-3.2h3.2zm-9.61-3.2h3.2v3.2h-3.2z"/><path class="cls-3" d="M124.67 103.84V46.16a4.81 4.81 0 0 0-4.81-4.81h-6.73a12.71 12.71 0 0 0-3.62-7.35l-2.27 2.27a9.61 9.61 0 0 1 0 13.6l2.27 2.27a13 13 0 0 0 1-1.13h4.56v41.62H34.94V51h5.49a8 8 0 0 0 6 4.67A4.8 4.8 0 0 0 51 59h6.41c1.07 0 2.14 0 3.2.08V76.6a8 8 0 1 0 16 0V61.35a79.86 79.86 0 0 1 13.78 4.78l1.58.72 1.33-2.92-1.58-.72A82.37 82.37 0 0 0 59 55.79V39.73a82.39 82.39 0 0 0 32.73-7.42l1.58-.72L92 28.68l-1.58.72a79.25 79.25 0 0 1-33 7.15H51a4.8 4.8 0 0 0-4.55 3.34 8 8 0 0 0-3.45 1.5H30.13a4.81 4.81 0 0 0-4.81 4.81v57.69a4.81 4.81 0 0 0 4.81 4.81H54l-28.67 11.69v4.28h9.87l28.8-9.61h22l28.84 9.61h9.88v-4.28L96 108.65h23.9a4.81 4.81 0 0 0 4.77-4.81zM63.78 65.39H67v8h-3.2zM73.4 76.6a4.81 4.81 0 1 1-9.61 0h6.41V62.18h-6.42v-2.92a79 79 0 0 1 9.61 1.35zm-24-35.25a1.6 1.6 0 0 1 1.6-1.6h4.81V43h-3.2v3.2h3.2v3.2h-3.2v3.2h3.2v3.2H51a1.6 1.6 0 0 1-1.6-1.6zm-3.2 1.9v9a4.78 4.78 0 0 1 0-9zm16 69.05l-27.5 9.17h-3.54l31-12.69zm22.43-.45H65.39v-3.2h19.22zm34.23 9.61h-3.52l-27.5-9.17v-3.52zm-88.71-16a1.6 1.6 0 0 1-1.6-1.6v-57.7a1.6 1.6 0 0 1 1.6-1.6h10.28a7.93 7.93 0 0 0-.68 3.2h-8v48.07h86.53V47.76h-5.91a12.69 12.69 0 0 0 .81-3.2h6.7a1.6 1.6 0 0 1 1.6 1.6v57.69a1.6 1.6 0 0 1-1.6 1.6z"/><path class="cls-3" d="M92.63 79.81h19.23v3.2H92.63zM92.63 73.4h19.23v3.2H92.63zM108.65 86.22h3.2v3.2h-3.2zM100.64 86.22h3.2v3.2h-3.2zM81.41 99.04h3.2v3.2h-3.2zM65.39 99.04h3.2v3.2h-3.2zM73.4 99.04h3.2v3.2h-3.2z"/><path class="cls-2" d="M95.83 70.19a4.81 4.81 0 0 1-4.83-4.8V30.13a4.81 4.81 0 1 1 9.61 0v35.26a4.81 4.81 0 0 1-4.78 4.8z"/></g></g></g></g></svg>