<svg xmlns="http://www.w3.org/2000/svg" viewBox="0 0 150 150"><defs><style>.cls-1{fill:#f0f0f0}.cls-2{fill:#009b55}.cls-3{fill:#1f402f}</style></defs><title>Asset 4</title><g id="Layer_2" data-name="Layer 2"><g id="Layer_1-2" data-name="Layer 1"><g id="Layer_2-2" data-name="Layer 2"><g id="Layer_1-2-2" data-name="Layer 1-2"><circle class="cls-1" cx="75" cy="75" r="75"/><path class="cls-2" d="M59.33 34.25h56.42v9.4H59.33zM59.33 56.19h56.42v9.4H59.33zM59.33 78.13h56.42v9.4H59.33zM39 45.22A6.27 6.27 0 1 1 45.22 39 6.28 6.28 0 0 1 39 45.22zm0-9.4A3.13 3.13 0 1 0 42.09 39 3.14 3.14 0 0 0 39 35.82zM39 67.16a6.27 6.27 0 1 1 6.27-6.27A6.28 6.28 0 0 1 39 67.16zm0-9.4a3.13 3.13 0 1 0 3.13 3.13A3.14 3.14 0 0 0 39 57.76zM39 89.11a6.27 6.27 0 1 1 6.27-6.27A6.28 6.28 0 0 1 39 89.11zm0-9.4a3.13 3.13 0 1 0 3.13 3.13A3.14 3.14 0 0 0 39 79.7z"/><path class="cls-3" d="M57.76 45.22h59.56V32.68H57.76zm37.61-3.13h-6.26v-6.27h6.27zm3.13-6.27h6.27v6.27h-6.26zM86 42.09h-6.3v-6.27H86zm-9.4 0h-6.3v-6.27h6.27zm37.61 0h-6.27v-6.27h6.27zm-53.32-6.27h6.27v6.27h-6.27zM57.76 54.63v12.53h59.56V54.63zm21.94 3.13H86V64h-6.3zM76.57 64H70.3v-6.24h6.27zm12.54-6.27h6.27V64h-6.27zm9.4 0h6.27V64h-6.27zm-37.61 0h6.27V64h-6.28zM114.18 64h-6.27v-6.24h6.27zM117.32 76.57H57.76v12.54h59.56zM79.7 79.7H86V86h-6.3zM76.57 86H70.3v-6.3h6.27zm12.54-6.3h6.27V86h-6.27zm9.4 0h6.27V86h-6.27zm-37.61 0h6.27V86h-6.28zm53.28 6.3h-6.27v-6.3h6.27z"/><path class="cls-3" d="M115.75 26.42h-81.5a7.85 7.85 0 0 0-7.84 7.84v17.23h97.17V34.25a7.85 7.85 0 0 0-7.83-7.83zm4.7 21.94h-90.9V34.25a4.71 4.71 0 0 1 4.7-4.7h81.5a4.71 4.71 0 0 1 4.7 4.7zM120.45 70.3h-90.9V54.63h-3.14v18.8h97.17v-18.8h-3.13V70.3zM120.45 87.54a4.71 4.71 0 0 1-4.7 4.7h-81.5a4.71 4.71 0 0 1-4.7-4.7v-11h-3.13v11a7.85 7.85 0 0 0 7.84 7.84h36v14.11a7.82 7.82 0 0 0-1.62 1.62H26.42v3.13h40.9a7.84 7.84 0 0 0 0 3.13h-40.9v3.13h42.31a7.76 7.76 0 0 0 12.54 0h42.32v-3.13H82.68a7.84 7.84 0 0 0 0-3.13h40.91V111H81.27a7.82 7.82 0 0 0-1.62-1.62V95.37h36a7.85 7.85 0 0 0 7.84-7.84v-11h-3.13zM75 120.45a4.7 4.7 0 1 1 4.7-4.7 4.71 4.71 0 0 1-4.7 4.7zm1.57-12.38a7.84 7.84 0 0 0-3.13 0v-12.7h3.13z"/></g></g></g></g></svg>