<svg xmlns="http://www.w3.org/2000/svg" viewBox="0 0 45.34 45.3"><defs><style>.cls-1{fill:#009b55}.cls-2{fill:#1f402f}</style></defs><title>Asset 9</title><g id="Layer_2" data-name="Layer 2"><g id="Layer_1-2" data-name="Layer 1"><path class="cls-1" d="M22.67 38.73a16.08 16.08 0 1 1 16.08-16.08 16.09 16.09 0 0 1-16.08 16.08zm0-29.23a13.15 13.15 0 1 0 13.16 13.15A13.17 13.17 0 0 0 22.67 9.5zm0 0"/><path class="cls-2" d="M41.67 22.65a19.13 19.13 0 0 0-.14-2.29l3.81-1.24-2.26-7-3.81 1.24a19 19 0 0 0-2.69-3.7l2.36-3.24L33 2.18l-2.33 3.24A18.88 18.88 0 0 0 26.33 4V0H19v4a18.88 18.88 0 0 0-4.35 1.41l-2.34-3.23L6.4 6.47l2.36 3.25a19 19 0 0 0-2.69 3.7l-3.81-1.24L0 19.13l3.81 1.24a19.14 19.14 0 0 0 0 4.57L0 26.18l2.26 7 3.81-1.24a19 19 0 0 0 2.69 3.7L6.4 38.83l5.91 4.3 2.36-3.24A18.88 18.88 0 0 0 19 41.3v4h7.31v-4a18.84 18.84 0 0 0 4.35-1.42L33 43.13l5.91-4.3-2.36-3.24a19 19 0 0 0 2.69-3.7l3.81 1.24 2.26-7-3.81-1.24a19 19 0 0 0 .14-2.29zm1.83 4.46l-1.35 4.17-3.6-1.17-.29.55A17.62 17.62 0 0 1 35.12 35l-.44.44 2.22 3.06-3.55 2.58L31.13 38l-.55.28a17.43 17.43 0 0 1-5.1 1.72l-.62.1v3.78h-4.38v-3.82l-.61-.1a17.39 17.39 0 0 1-5.1-1.66l-.56-.3L12 41.08l-3.56-2.57 2.22-3.06-.43-.45a17.59 17.59 0 0 1-3.15-4.34l-.28-.55-3.6 1.17-1.36-4.17 3.59-1.17-.09-.61a17.72 17.72 0 0 1 0-5.36l.09-.61-3.59-1.17L3.2 14l3.6 1.17.28-.55a17.58 17.58 0 0 1 3.15-4.34l.44-.44L8.44 6.8 12 4.22l2.22 3.06.55-.28a17.39 17.39 0 0 1 5.1-1.66l.61-.1V1.46h4.38v3.78l.61.1A17.39 17.39 0 0 1 30.58 7l.56.28 2.22-3.06L36.9 6.8l-2.22 3.06.44.44a17.58 17.58 0 0 1 3.15 4.34l.28.55 3.6-1.19 1.35 4.17-3.59 1.17.09.66a17.71 17.71 0 0 1 0 5.36l-.09.61zm0 0"/><path class="cls-2" d="M28 13.93l-2.11 1.39.8 1.22 3.4-2.24-.49-4.14-1.45.17.26 2.15a11.67 11.67 0 0 0-15 17.25l1.16-.89A10.21 10.21 0 0 1 28 13.93zm0 0M30.8 16.46a10.22 10.22 0 0 1-13.46 14.91L19.46 30l-.8-1.22L15.25 31l.49 4.14L17.2 35l-.26-2.14A11.67 11.67 0 0 0 32 15.57zm0 0"/></g></g></svg>