<svg xmlns="http://www.w3.org/2000/svg" viewBox="0 0 150 150"><defs><style>.cls-1{fill:#f0f0f0}.cls-2{fill:#009b55}.cls-3{fill:#1f402f}</style></defs><title>Asset 1</title><g id="Layer_2" data-name="Layer 2"><g id="Layer_1-2" data-name="Layer 1"><g id="Layer_2-2" data-name="Layer 2"><g id="Layer_1-2-2" data-name="Layer 1-2"><g id="Layer_2-2-2" data-name="Layer 2-2"><g id="Layer_1-2-2-2" data-name="Layer 1-2-2"><circle class="cls-1" cx="75" cy="75" r="75"/><g id="Layer_2-3" data-name="Layer 2"><g id="Layer_1-2-3" data-name="Layer 1-2"><path class="cls-2" d="M28.24 40.36h41.58v27.7H28.24z"/><path class="cls-3" d="M123.49 31.69h-97a5.2 5.2 0 0 0-5.2 5.2V101a5.2 5.2 0 0 0 5.2 5.2h29.46v8.67h-8.73v3.47h55.48v-3.49h-8.65v-8.65h29.44a5.2 5.2 0 0 0 5.2-5.2V36.89a5.2 5.2 0 0 0-5.2-5.2zm-97 3.47h97a1.73 1.73 0 0 1 1.73 1.73v53.7H24.77v-53.7a1.73 1.73 0 0 1 1.73-1.73zm64.08 79.73H59.41v-8.71h31.18zm32.91-12.12h-97a1.73 1.73 0 0 1-1.71-1.77v-7h100.46v7a1.73 1.73 0 0 1-1.73 1.73z"/><path class="cls-3" d="M82.14 73.27h4.94v.28a5.18 5.18 0 1 0 6.62 6.62h14.49a5.18 5.18 0 1 0 6.66-6.62v-.32h5l2-20.79H85.38v3.47h32.73l-1.4 14H85.18l-3.46-27.84H75v3.57h3.67zm26.09 3.47H93.74a5.2 5.2 0 0 0-3.15-3.19v-.32h20.79v.32a5.2 5.2 0 0 0-3.15 3.15zM88.85 80.2a1.73 1.73 0 1 1 1.73-1.73 1.73 1.73 0 0 1-1.73 1.73zm24.26 0a1.73 1.73 0 1 1 1.73-1.73 1.73 1.73 0 0 1-1.73 1.73z"/><path class="cls-3" d="M87.12 61.13h27.7v3.47h-27.7zM28.24 73.27h41.58v3.47H28.24zm0 8.65h41.58v3.47H28.24z"/></g></g></g></g></g></g></g></g></svg>