<svg xmlns="http://www.w3.org/2000/svg" viewBox="0 0 150 150"><defs><style>.cls-1{fill:#f0f0f0}.cls-2{fill:#1f402f}.cls-3{fill:#009b55}</style></defs><title>Users Config</title><g id="Layer_2" data-name="Layer 2"><g id="Layer_1-2" data-name="Layer 1"><circle class="cls-1" cx="75" cy="75" r="75"/><path class="cls-2" d="M76 85.12a28.81 28.81 0 0 0-28.78 28.78v6.54h57.56v-6.54A28.81 28.81 0 0 0 76 85.12zm11.58 5.36c-3.72 8.05-9.17 19.7-11.51 24.46L64.45 90.48a25.86 25.86 0 0 1 23.16 0zm2 2l3.28 14.22-13.61 7.78c1.78-3.61 4.85-10.15 10.33-22zm-16.53 22.14l-13.84-7.91 3.29-14.25zm-23.19-.72a26.11 26.11 0 0 1 9.68-20.29L56.22 108l17.17 9.81H49.86zm52.33 3.92H78.66L95.84 108l-3.33-14.39a26.11 26.11 0 0 1 9.68 20.29zm0 0"/><path class="cls-2" d="M76 43.26a20.93 20.93 0 1 0 21 20.93 20.93 20.93 0 0 0-21-20.93zm0 39.34a18.4 18.4 0 1 1 18.4-18.4A18.4 18.4 0 0 1 76 82.6zM113.2 60.1A14.84 14.84 0 1 0 128 74.93a14.84 14.84 0 0 0-14.8-14.83zm0 27.24a12.4 12.4 0 1 1 12.4-12.4 12.4 12.4 0 0 1-12.4 12.4z"/><path class="cls-2" d="M113.2 89.77a20.34 20.34 0 0 0-14.37 5.93q.59.74 1.12 1.51a18.65 18.65 0 0 1 1.55-1.42l-.65 2.8q.73 1.18 1.34 2.44L103.6 95l7.48 15.71-6.77-3.87q.29 1.19.49 2.42l6.52 3.73h-6.18v1.9h28.46v-4.64a20.43 20.43 0 0 0-20.4-20.48zm-8.2 3.8a18.33 18.33 0 0 1 16.42 0c-2.64 5.71-6.5 14-8.16 17.34zM122.79 95l2.33 10.08-9.65 5.51c1.27-2.59 3.44-7.2 7.32-15.59zm9 18h-16.72l12.17-7-2.36-10.21a18.51 18.51 0 0 1 6.86 14.39zM24 74.93A14.84 14.84 0 1 0 38.86 60.1 14.84 14.84 0 0 0 24 74.93zm2.44 0a12.4 12.4 0 1 1 12.4 12.4 12.4 12.4 0 0 1-12.38-12.4z"/><path class="cls-2" d="M18.45 110.18v4.64H46.9v-1-.9h-6.17l6.52-3.73q.2-1.23.49-2.42L41 110.69 48.45 95l1.4 6.05q.61-1.25 1.34-2.44l-.65-2.8a18.65 18.65 0 0 1 1.55 1.42q.54-.77 1.12-1.51a20.39 20.39 0 0 0-34.77 14.48zm20.35.73c-1.66-3.37-5.52-11.63-8.16-17.34a18.33 18.33 0 0 1 16.42 0zm-2.23-.32l-9.65-5.51L29.26 95c3.88 8.39 6.06 13 7.32 15.59zm-16.27-.41a18.51 18.51 0 0 1 6.86-14.39L24.82 106 37 113H20.31z"/><path class="cls-3" d="M89.47 75.2c2.22-2.43 3.83-7.68 3.83-10.84a17.39 17.39 0 1 0-3.83 10.84"/></g></g></svg>