<?xml version="1.0" encoding="utf-8"?>
<!-- Generator: Adobe Illustrator 21.1.0, SVG Export Plug-In . SVG Version: 6.00 Build 0)  -->
<svg version="1.1" id="Layer_1" xmlns="http://www.w3.org/2000/svg" xmlns:xlink="http://www.w3.org/1999/xlink" x="0px" y="0px"
	 viewBox="0 0 150 150" style="enable-background:new 0 0 150 150;" xml:space="preserve">
<style type="text/css">
	.st0{fill:#F0F0F0;}
	.st1{fill:#009B55;}
	.st2{fill:#1F402F;}
</style>
<circle class="st0" cx="75.5" cy="75" r="75"/>
<g id="Layer_2">
	<g id="Layer_1-2">
		<rect x="43.8" y="52.7" class="st1" width="55.6" height="2.7"/>
		<rect x="43.8" y="59.4" class="st1" width="55.6" height="2.7"/>
		<rect x="43.8" y="66.2" class="st1" width="55.6" height="2.7"/>
		<rect x="43.8" y="73" class="st1" width="55.6" height="2.7"/>
		<path class="st1" d="M76.1,104.4l1.3-9.1l5.7-3.3l5.4,5.4l-3.3,5.7L76.1,104.4z"/>
		<polygon class="st2" points="81.5,97 75.7,102.8 46.5,102.8 46.5,105.5 77.6,105.5 77.6,104.7 83.4,98.9 		"/>
		<path class="st2" d="M118.8,67.5l1.5-1.5c1-1,1-2.5,0-3.5l-2.3-2.3c-1-1-2.5-1-3.5,0l-8.4,8.4V43.2H117v-4.7
			c0-4.1-3.3-7.5-7.5-7.5h-65c-4.1,0-7.5,3.3-7.5,7.5v76.6h69.1v-35l10.7-10.7l0.5,0.5c1,1,1,2.5,0,3.5l-6.8,6.8l1.9,1.9l6.7-6.7
			c2-2,2-5.3,0-7.3L118.8,67.5z M116.2,62.2l1.9,1.9l-1.3,1.3l-1.9-1.9L116.2,62.2z M114.2,38.5v2H51.9v-2c0-1.7-0.6-3.4-1.7-4.7
			h59.2C112.1,33.7,114.2,35.8,114.2,38.5C114.2,38.5,114.2,38.5,114.2,38.5z M103.4,112.3H39.7V38.5c0-2.6,2.1-4.7,4.7-4.7
			s4.7,2.1,4.7,4.7v4.7h54.2v28l-20.9,21l5.8,5.8l15.1-15.1L103.4,112.3z M88.3,90.3l1.9,1.9L88.3,94l-1.9-1.9L88.3,90.3z
			 M92.1,90.3l-1.9-1.9l22.8-22.8l1.9,1.9L92.1,90.3z"/>
		<rect x="43.8" y="49.9" class="st2" width="55.6" height="2.7"/>
		<rect x="43.8" y="56.7" class="st2" width="55.6" height="2.7"/>
		<rect x="43.8" y="63.5" class="st2" width="55.6" height="2.7"/>
		<rect x="43.8" y="70.3" class="st2" width="55.6" height="2.7"/>
	</g>
</g>
</svg>
