<svg id="Layer_1" xmlns="http://www.w3.org/2000/svg" viewBox="0 0 447.8 489.9"><style>.st0{fill:#0076a5}</style><title>Asset 1</title><g id="Layer_2"><g id="Layer_1-2"><path class="st0" d="M91.2 97.3c72.3-65.4 180.5-66.4 253.8-6.7l-58.1 2.2c-7.5.1-13.4 6.3-13.3 13.8s6.3 13.4 13.8 13.3h.5l89.2-3.3c7.3-.3 13-6.2 13-13.5v-1.6l-3.3-88.2C386.4 5.7 380 0 372.6.4c-7.2.4-12.8 6.3-12.8 13.5v.3l2.1 55.3C266.7-7.8 126.9 6.8 49.6 102 5.9 155.8-10.1 227 6.3 294.4c1.5 6.1 6.9 10.3 13.1 10.3 1.1 0 2.2-.1 3.2-.4 7.2-1.8 11.6-9.1 9.9-16.3-16.9-69.6 5.6-142.7 58.7-190.7zm350.3 98.4c-1.5-7.3-8.7-12-15.9-10.5-7.3 1.5-12 8.7-10.5 15.9v.2c.1.2.1.5.2.7 25.4 104.7-39 210.1-143.7 235.5-59.8 14.5-123-.1-170.4-39.4l58.8-5.3c7.4-.8 12.8-7.5 11.9-14.9-.8-7.2-7.2-12.5-14.4-12l-88.9 8c-7.4.7-12.9 7.2-12.2 14.7l8 88.9c.6 6.9 6.4 12.3 13.4 12.3.4 0 .8 0 1.2-.1 7.4-.7 12.9-7.2 12.2-14.7l-4.8-54c36.5 29.5 81.4 46.7 128.3 48.9 3.8.2 7.6.3 11.3.3 122.7-.2 221.9-99.7 221.8-222.4-.1-17.5-2.2-35-6.3-52.1z"/><path class="st0" d="M171.2 285.3c7.2 18 27.5 31 51.7 31s44.5-13 51.7-31l41.7 9.9c17.6 4.2 29.7 17.6 29.7 32.9v11.2H99.7V328c0-15.2 12.3-28.6 29.8-32.8l41.7-9.9zm24.3-17.8c9 2.2 18.1 3.4 27.4 3.4 9.2 0 18.4-1.1 27.4-3.4v3.5c0 12.5-12.3 22.7-27.4 22.7s-27.4-10.3-27.4-22.7v-3.5zm27.4-19.2c-37.8 0-68.4-25.4-68.4-56.7v-22.7c0-31.3 30.6-56.7 68.4-56.7s68.4 25.4 68.4 56.7v22.7c0 31.3-30.6 56.7-68.4 56.7z"/></g></g></svg>