<svg id="Layer_1" xmlns="http://www.w3.org/2000/svg" viewBox="0 0 447.8 489.9"><style>.st0{fill:#0076a5}</style><title>Asset 2</title><g id="Layer_2"><g id="Layer_1-2"><path class="st0" d="M91.2 97.3c72.3-65.4 180.5-66.4 253.8-6.7l-58.1 2.2c-7.5.1-13.4 6.3-13.3 13.8s6.3 13.4 13.8 13.3h.5l89.2-3.3c7.3-.3 13-6.2 13-13.5v-1.6l-3.3-88.2C386.4 5.7 380 0 372.6.4c-7.2.4-12.8 6.3-12.8 13.5v.3l2.1 55.3C266.7-7.8 126.9 6.8 49.6 102 5.9 155.8-10.1 227 6.3 294.4c1.5 6.1 6.9 10.3 13.1 10.3 1.1 0 2.2-.1 3.2-.4 7.2-1.8 11.6-9.1 9.9-16.3-16.9-69.6 5.6-142.7 58.7-190.7zm350.3 98.4c-1.5-7.3-8.7-12-15.9-10.5-7.3 1.5-12 8.7-10.5 15.9v.2c.1.2.1.5.2.7 25.4 104.7-39 210.1-143.7 235.5-59.8 14.5-123-.1-170.4-39.4l58.8-5.3c7.4-.8 12.8-7.5 11.9-14.9-.8-7.2-7.2-12.5-14.4-12l-88.9 8c-7.4.7-12.9 7.2-12.2 14.7l8 88.9c.6 6.9 6.4 12.3 13.4 12.3.4 0 .8 0 1.2-.1 7.4-.7 12.9-7.2 12.2-14.7l-4.8-54c36.5 29.5 81.4 46.7 128.3 48.9 3.8.2 7.6.3 11.3.3 122.7-.2 221.9-99.7 221.8-222.4-.1-17.5-2.2-35-6.3-52.1z"/><path class="st0" d="M232.8 183.8c-3.3-3.2-8.5-3.2-11.8 0l-27.5 27.3-10.8-10.7c-3.3-3.2-8.5-3.2-11.8 0-3.2 3.2-3.3 8.4-.1 11.7l.1.1 16.7 16.6c1.6 1.6 3.7 2.4 5.9 2.4s4.3-.9 5.9-2.4l33.4-33.2c3.2-3.2 3.2-8.5 0-11.8 0 .1 0 .1 0 0zM235.9 274.4c-3.5-3.3-8.9-3.3-12.4 0l-28.9 28.1-11.3-11c-3.5-3.3-8.9-3.3-12.4 0-3.3 3.2-3.4 8.5-.2 11.9l.2.2 17.5 17.1c3.5 3.3 8.9 3.3 12.4 0l35.1-34.2c3.3-3.2 3.1-8.6 0-12.1zM285.8 196.3h-31.3c-4.3 0-7.8 4.1-7.8 9.2s3.5 9.2 7.8 9.2h31.3c4.3 0 7.8-4.1 7.8-9.2s-3.4-9.2-7.8-9.2zM285.8 287.4h-31.3c-4.3 0-7.8 4.2-7.8 9.4s3.5 9.4 7.8 9.4h31.3c4.3 0 7.8-4.2 7.8-9.4s-3.4-9.4-7.8-9.4z"/><path class="st0" d="M309.4 141.9h-23.9c-4.1 0-7.4-3.3-7.4-7.4-.1-4.2-3.6-7.5-7.8-7.4h-12.4c-2.6 0-5-1.4-6.4-3.6-7.1-11.3-22-14.7-33.3-7.6-3.1 1.9-5.7 4.5-7.6 7.6-1.3 2.2-3.8 3.6-6.4 3.6h-12.4c-4.2-.1-7.7 3.2-7.8 7.4 0 4.1-3.3 7.4-7.4 7.4h-23.9c-8.6 0-15.7 6.7-15.7 14.9v178.5c0 8.2 7 14.9 15.7 14.9h156.7c8.6 0 15.7-6.7 15.7-14.9V156.8c0-8.2-7-14.9-15.7-14.9zm-109.7 7.4c0-4.1 3.3-7.4 7.4-7.4h8.2c4.2.1 7.7-3.2 7.8-7.4.3-4.3 4-7.6 8.3-7.3 4 .2 7.1 3.4 7.3 7.3.1 4.2 3.6 7.5 7.8 7.4h8.3c4.1 0 7.4 3.3 7.4 7.4 0 4.1-3.3 7.4-7.4 7.4h-47.9c-3.9.1-7.2-3.3-7.2-7.4zm102.3 186H160.1c-4.1 0-7.4-3.3-7.4-7.4V164.2c0-4.1 3.3-7.4 7.4-7.4h16.5c4.1 0 7.4 3.3 7.4 7.4.1 4.2 3.6 7.5 7.8 7.4h78.4c4.2.1 7.7-3.2 7.8-7.4 0-4.1 3.3-7.4 7.4-7.4H302c4.1 0 7.4 3.3 7.4 7.4v163.6c0 4.1-3.3 7.5-7.4 7.5z"/><path class="st0" d="M233.4 228.8c-3.4-3.1-8.7-3.1-12.1 0l-28.2 26.4-11.1-10.5c-3.4-3.1-8.7-3.1-12.1 0-3.1 2.8-3.4 7.7-.5 10.8.2.2.3.4.5.5l17.1 16c1.6 1.5 3.8 2.4 6.1 2.4 2.2 0 4.4-.8 6.1-2.3l34.3-32c3.1-2.8 3.4-7.7.5-10.8-.2-.2-.4-.4-.6-.5zM285.8 241.3h-31.3c-4.3 0-7.8 4.1-7.8 9.2s3.5 9.2 7.8 9.2h31.3c4.3 0 7.8-4.1 7.8-9.2s-3.4-9.2-7.8-9.2z"/></g></g></svg>