<svg id="Layer_1" xmlns="http://www.w3.org/2000/svg" viewBox="0 0 447.8 489.9"><style>.st0{fill:#0076a5}</style><title>Asset 2</title><g id="Layer_2"><g id="Layer_1-2"><g id="Layer_2-2"><g id="Capa_1"><path class="st0" d="M91.2 97.3c72.3-65.4 180.5-66.4 253.8-6.7l-58.1 2.2c-7.5.1-13.4 6.3-13.3 13.8s6.3 13.4 13.8 13.3h.5l89.2-3.3c7.3-.3 13-6.2 13-13.5v-1.6l-3.3-88.2C386.4 5.7 380 0 372.6.4c-7.2.4-12.8 6.3-12.8 13.5v.3l2.1 55.3C266.7-7.8 126.9 6.8 49.6 102 5.9 155.8-10.1 227 6.3 294.4c1.5 6.1 6.9 10.3 13.1 10.3 1.1 0 2.2-.1 3.2-.4 7.2-1.8 11.6-9.1 9.9-16.3-16.9-69.6 5.6-142.7 58.7-190.7zM441.5 195.7c-1.5-7.3-8.7-12-15.9-10.5-7.3 1.5-12 8.7-10.5 15.9v.2c.1.2.1.5.2.7 25.4 104.7-39 210.1-143.7 235.5-59.8 14.5-123-.1-170.4-39.4l58.8-5.3c7.4-.8 12.8-7.5 11.9-14.9-.8-7.2-7.2-12.5-14.4-12l-88.9 8c-7.4.7-12.9 7.2-12.2 14.7l8 88.9c.6 6.9 6.4 12.3 13.4 12.3.4 0 .8 0 1.2-.1 7.4-.7 12.9-7.2 12.2-14.7l-4.8-54c36.5 29.5 81.4 46.7 128.3 48.9 3.8.2 7.6.3 11.3.3 122.7-.2 221.9-99.7 221.8-222.4-.1-17.5-2.2-35-6.3-52.1z"/></g></g><path class="st0" d="M295 273.2a51.9 51.9 0 0 0-4.8-12c-2.1-3.7-4.9-7.1-8.1-10-3-2.8-6.1-5.4-9.4-7.8-3.7-2.5-7.5-4.7-11.5-6.7-4.9-2.5-8.7-4.3-11.6-5.5s-6.9-2.8-12.3-4.9c-4.8-1.9-8.3-3.3-10.6-4.3s-5.4-2.4-9.2-4.2c-3-1.4-5.8-3-8.5-4.9-2.1-1.6-4.1-3.3-6-5.2-2-1.8-3.5-4-4.5-6.5-.9-2.4-1.3-5-1.3-7.5 0-7.1 3-12.9 9.1-17.4s13.9-6.7 23.6-6.7c4.4 0 8.8.6 13 1.8 3.9 1 7.7 2.4 11.3 4.1 3.1 1.5 6.1 3.1 8.9 5 2.8 1.8 4.8 3.2 5.9 4.1 1.2.9 1.9 1.6 2.2 1.9 1.1 1 2.6 1.4 4.1 1.1 1.5-.1 2.9-1.1 3.5-2.5l12.3-22.9c1.3-1.9.9-4.5-.8-6-.6-.6-1.4-1.4-2.3-2.2s-2.9-2.4-5.9-4.6c-3.1-2.2-6.3-4.2-9.7-5.9-4.3-2.1-8.7-3.8-13.2-5.3-5.5-1.8-11.1-3-16.8-3.6V107c0-1.3-.4-2.6-1.4-3.6-.9-.9-2.2-1.5-3.5-1.4H217c-1.3 0-2.5.5-3.4 1.5-.9.9-1.5 2.2-1.4 3.5v28.3c-15.9 3.1-28.9 10.1-38.8 21s-14.9 23.5-14.9 38c0 4.1.4 8.2 1.3 12.2.8 3.6 1.8 7 3.2 10.4 1.4 3.3 3.2 6.3 5.4 9.1 2.1 2.7 4.3 5.2 6.6 7.7 2.5 2.5 5.2 4.7 8.1 6.7 3.3 2.3 6.2 4.2 8.6 5.6 2.4 1.4 5.6 3 9.5 4.9 4 1.8 7.1 3.2 9.4 4.2s5.4 2.3 9.4 4c5.5 2.2 9.5 3.9 12.2 5.1s6 2.9 10 5c3.2 1.6 6.2 3.5 8.9 5.9 2 1.9 3.7 4.2 5.1 6.6 1.5 2.5 2.3 5.4 2.3 8.3 0 8.3-3.1 14.6-9.4 19.1-6.3 4.5-13.9 6.9-21.7 6.7-3.8 0-7.6-.4-11.3-1.3-13.2-2.7-25.5-9.3-37-19.6l-.3-.3c-.9-1.1-2.3-1.7-3.6-1.4-1.4.1-2.7.8-3.5 1.9L156 316.2c-1.5 2.1-1.4 4.2.3 6.4.5.6 1.4 1.6 2.7 2.8 2.3 2.1 4.6 4.1 7.1 5.9 3.6 2.8 7.3 5.3 11.3 7.5 4.9 2.8 10.1 5.1 15.4 7 6.3 2.3 12.8 3.9 19.4 4.9v27.4c0 1.3.5 2.6 1.4 3.5.9 1 2.1 1.5 3.4 1.5h20.6c1.3 0 2.6-.5 3.5-1.4.9-1 1.4-2.3 1.4-3.6v-27.5c16.1-2.7 29.2-9.9 39.3-21.4C291.9 317.7 297 304 297 288c0-5-.6-10-2-14.8z"/></g></g></svg>