<svg xmlns="http://www.w3.org/2000/svg" viewBox="0 0 496 496" width="512" height="512"><path data-original="#F0BC5E" class="active-path" data-old_color="#F0BC5E" fill="#009b5d" d="M32 152h80v16H32zM32 272h80v16H32zM32 32h80v16H32z"/><path data-original="#000000" data-old_color="#000000" fill="#1a4334" d="M32 32h16v16H32zM64 32h16v16H64zM96 32h16v16H96zM32 152h16v16H32zM64 152h16v16H64z"/><path d="M344 0H0v88h16v32H0v88h16v32H0v88h216v-16H16v-56h168v-16H32v-32h192v-16H16v-56h296v-16H32V88h280v24h16V88h16V0zm-16 72H16V16h312v56z" data-original="#000000" data-old_color="#000000" fill="#1a4334"/><path data-original="#000000" data-old_color="#000000" fill="#1a4334" d="M96 152h16v16H96zM32 272h16v16H32zM64 272h16v16H64zM96 272h16v16H96z"/><path d="M496 293.856v-59.72l-29.944-9.472a135.087 135.087 0 0 0-10.272-24.832l14.472-27.856-42.224-42.224-27.856 14.472a135.087 135.087 0 0 0-24.832-10.272L365.856 104h-59.72l-9.472 29.944a135.087 135.087 0 0 0-24.832 10.272l-27.856-14.472-42.224 42.224 14.472 27.856a135.087 135.087 0 0 0-10.272 24.832L176 234.144v59.72l29.944 9.472c2.6 8.624 6.04 16.944 10.272 24.832l-14.472 27.856 42.224 42.224 27.976-14.528c11.752 5.808 28.496 11.168 38.048 13.632l2.008-.016v-40.48c-41.384-10.672-72-48.136-72-92.856 0-53.016 42.984-96 96-96s96 42.984 96 96c0 44.712-30.616 82.184-72 92.856v40.08l1.192-.008 8-1.208.808-.168a135.427 135.427 0 0 0 30.168-11.768l27.856 14.472 42.224-42.224-14.472-27.856a134.857 134.857 0 0 0 10.272-24.832L496 293.856z" data-original="#F0BC5E" class="active-path" data-old_color="#F0BC5E" fill="#009b5d"/><path d="M440 264c0-57.344-46.656-104-104-104s-104 46.656-104 104c0 45.376 29.32 85.144 72 98.904V464c0 17.648 14.352 32 32 32s32-14.352 32-32V362.904c42.68-13.76 72-53.528 72-98.904zm-104 24c17.648 0 32-14.352 32-32v-35.328c15.392 9.832 24 24.992 24 42.944 0 22.904-13.736 43.272-35 51.888l-5 2.024V432h-32V317.528l-5-2.024c-21.264-8.616-35-28.984-35-51.888 0-17.952 8.608-33.112 24-42.944V256c0 17.648 14.352 32 32 32zm0 192c-8.824 0-16-7.176-16-16v-16h32v16c0 8.824-7.176 16-16 16zm32-134.072v-17.84c24.472-12.112 40-36.856 40-64.48 0-28.288-16.824-52-45-63.416l-11-4.448V256c0 8.824-7.176 16-16 16s-16-7.176-16-16v-60.256l-11 4.464c-28.176 11.408-45 35.12-45 63.408 0 27.616 15.528 52.368 40 64.48v17.84c-33.416-13.016-56-45.304-56-81.928 0-48.52 39.48-88 88-88s88 39.48 88 88c0 36.616-22.584 68.912-56 81.92z" data-original="#000000" data-old_color="#000000" fill="#1a4334"/></svg>