<svg xmlns="http://www.w3.org/2000/svg" viewBox="0 0 44.95 44.96"><defs><style>.cls-1{fill:#009b55}.cls-2{fill:#1f402f}</style></defs><title>Asset 8</title><g id="Layer_2" data-name="Layer 2"><g id="Layer_1-2" data-name="Layer 1"><path class="cls-1" d="M3.63 11.6h29.73v1.45H3.63zM3.63 15.23h29.73v1.45H3.63zM3.63 18.85h29.73v1.45H3.63zM3.63 22.48h29.73v1.45H3.63zM20.9 39.28l.7-4.89 3.06-1.76 2.9 2.9-1.76 3.06z"/><path class="cls-2" d="M23.82 35.34l-3.09 3.09H5.08v1.45h16.67v-.43l3.1-3.09-1.03-1.02z"/><path class="cls-2" d="M43.75 19.52l.82-.82a1.31 1.31 0 0 0 0-1.85l-1.24-1.24a1.31 1.31 0 0 0-1.85 0L37 20.11V6.53h5.8V4a4 4 0 0 0-4-4H4a4 4 0 0 0-4 4v41h37V26.29l5.75-5.75.26.26a1.33 1.33 0 0 1 0 1.88l-3.62 3.62 1 1L44 23.72a2.79 2.79 0 0 0 0-3.93zm-1.34-2.79l1 1-.72.72-1-1zM41.33 4v1.08H8V4a4 4 0 0 0-.91-2.54h31.7A2.54 2.54 0 0 1 41.33 4zm-5.8 39.52H1.45V4a2.54 2.54 0 0 1 5.08 0v2.53h29v15L24.34 32.75l3.09 3.09 8.1-8.1zm-8.1-11.79l1 1-1 1-1-1zm2.07 0l-1-1 12.2-12.2 1 1z"/><path class="cls-2" d="M3.63 10.15h29.73v1.45H3.63zM3.63 13.78h29.73v1.45H3.63zM3.63 17.4h29.73v1.45H3.63zM3.63 21.03h29.73v1.45H3.63z"/></g></g></svg>