<svg xmlns="http://www.w3.org/2000/svg" viewBox="0 0 805.91 422.41"><defs><style>.cls-1,.cls-10,.cls-11,.cls-2,.cls-3,.cls-5,.cls-6,.cls-8,.cls-9{fill:none;stroke-linecap:round}.cls-1,.cls-10,.cls-2,.cls-4,.cls-5,.cls-6,.cls-8,.cls-9{stroke:#009b55}.cls-1,.cls-10,.cls-11,.cls-2,.cls-3,.cls-4,.cls-5,.cls-6,.cls-8,.cls-9{stroke-miterlimit:10}.cls-1{stroke-width:7.53px}.cls-2,.cls-3{stroke-width:6.22px}.cls-11,.cls-3{stroke:#007655}.cls-4,.cls-7{fill:#009b55}.cls-4{stroke-width:3.01px}.cls-5{stroke-width:1.51px}.cls-6{stroke-width:.79px}.cls-8{stroke-width:1.1px}.cls-9{stroke-width:4.52px}.cls-10{stroke-width:3.14px}.cls-11{stroke-width:4px}.cls-12{font-size:39.66px;fill:#fff;font-family:IRANSansWeb-Medium,IRANSansWeb}</style></defs><title>error</title><g id="Layer_2" data-name="Layer 2"><g id="Layer_1-2" data-name="Layer 1"><path class="cls-1" d="M789.06 127.73a16.39 16.39 0 1 0-18.85-21.25.7.7 0 0 1-1.35-.08 27.5 27.5 0 0 0-53.93-.25.66.66 0 0 1-1.29 0 20.83 20.83 0 0 0-40.93 5.5M672.71 111.68v9.38a6.68 6.68 0 0 1-6.68 6.68H662M652.18 127.73h-7.63M635.04 127.73h-2.73M779.69 127.73h-2.73"/><path class="cls-2" d="M474.93 39.05a13.52 13.52 0 1 0-15.56-17.53.57.57 0 0 1-1.11-.07 22.7 22.7 0 0 0-44.51-.21.55.55 0 0 1-1.07 0 17.19 17.19 0 0 0-33.78 4.54M378.91 25.8v7.74a5.51 5.51 0 0 1-5.51 5.51h-3.35M361.97 39.05h-6.3M347.82 39.05h-2.25M467.2 39.05h-2.26"/><path class="cls-1" d="M31.18 127.73H16.01M6.5 127.73H3.77M186.84 127.73h-2.73M196.21 127.73a16.39 16.39 0 1 0-18.53-22.12 1 1 0 0 1-1.87-.18 27.51 27.51 0 0 0-53.47-.42 1 1 0 0 1-1.89 0 20.84 20.84 0 0 0-39.67.5.75.75 0 0 1-1.45-.07c-1.66-8.62-7-12.12-13.3-12.21a14.34 14.34 0 0 0-14.32 14.37v9.4A10.74 10.74 0 0 1 41 127.73"/><path class="cls-3" d="M429.23 95.43H388.1a22.6 22.6 0 0 0-16 6.62L343 131.13a22.6 22.6 0 0 0-6.62 16v41.13a22.6 22.6 0 0 0 6.62 16l29.08 29.08a22.6 22.6 0 0 0 16 6.62h41.13a22.6 22.6 0 0 0 16-6.62l29.08-29.08a22.6 22.6 0 0 0 6.62-16v-41.14a22.6 22.6 0 0 0-6.62-16L445.21 102a22.6 22.6 0 0 0-15.98-6.57z"/><path class="cls-4" d="M433.37 118h-28.3a15.55 15.55 0 0 0-11 4.56l-20 20a15.55 15.55 0 0 0-4.56 11v28.31a15.55 15.55 0 0 0 4.56 11l20 20a15.55 15.55 0 0 0 11 4.56h28.31a15.55 15.55 0 0 0 11-4.56l20-20a15.55 15.55 0 0 0 4.56-11v-28.34a15.55 15.55 0 0 0-4.56-11l-20-20a15.55 15.55 0 0 0-11.01-4.53z"/><path class="cls-3" d="M408.29 239.93V419.3M640.32 419.3H167.96M136.82 419.3h-24.6M752.57 419.3h-24.61M705.86 419.3h-38.51M91.12 419.3H66.51"/><circle class="cls-5" cx="478.09" cy="311.57" r="5.78"/><circle class="cls-6" cx="686.6" cy="384.17" r="3.01"/><circle class="cls-5" cx="151.14" cy="260.05" r="5.78"/><circle class="cls-7" cx="136.82" cy="390.43" r="3.13"/><circle class="cls-7" cx="515.64" cy="387.3" r="3.13"/><circle class="cls-7" cx="280.09" cy="232.47" r="2.26"/><circle class="cls-8" cx="668.9" cy="255.83" r="4.22"/><circle class="cls-8" cx="607.92" cy="174.01" r="4.22"/><circle class="cls-8" cx="325.04" cy="105.96" r="4.22"/><path class="cls-9" d="M224.08 168.82l-5.79 5.79M230.35 168.82l5.79 5.79M218.29 156.76l5.79 5.79M236.14 156.76l-5.79 5.79"/><path class="cls-10" d="M544.54 238.98h-5.69M547.62 242.06v5.69M547.62 230.21v5.69M556.39 238.98h-5.69M621.22 330.29l-4.03 4.02M625.57 330.29l4.03 4.02M617.19 321.91l4.03 4.02M629.6 321.91l-4.03 4.02M321.14 301.78v15.57M328.93 309.56h-15.57M205.63 332.29h-3.96M192.26 332.29h-3.96M203.09 326.16l-2.79 2.8M193.64 335.62l-2.8 2.8M196.97 323.63v3.95M196.97 337v3.95M190.84 326.16l2.8 2.8M200.3 335.62l2.79 2.8"/><path class="cls-11" d="M422.82 118h-28.31a15.55 15.55 0 0 0-11 4.56l-20 20a15.55 15.55 0 0 0-4.56 11v28.31a15.55 15.55 0 0 0 4.56 11l20 20a15.55 15.55 0 0 0 11 4.56h28.31a15.55 15.55 0 0 0 11-4.56l20-20a15.55 15.55 0 0 0 4.56-11v-28.34a15.55 15.55 0 0 0-4.56-11l-20-20a15.55 15.55 0 0 0-11-4.53z"/><text class="cls-12" transform="translate(375.54 179.91)" id="errorcode"></text></g></g><script type="application/ecmascript"><![CDATA[
			// when used as an object, we'll allow attributes to be changed by params passed in the query string
			var paramList = ['code'];
			var refs = [];
			var href = document.defaultView.location.href;
			if ( -1 != href.indexOf("?") ) {
		    	var paramList = href.split("?")[1].split(/&|;/);
		    	for ( var p = 0, pLen = paramList.length; pLen > p; p++ ) {
		       		var eachParam = paramList[ p ];
		       		var valList = eachParam.split("=");
		       		var name = unescape(valList[0]);
		       		var value = unescape(valList[1]);
		       		refs[name] = value;
		    	}
		}
		// do stuff with the params
		if(refs['code'] != undefined){
		    document.getElementById("errorcode").innerHTML = refs['code'];
		}else{
		    document.getElementById("errorcode").innerHTML = '!';
		}
		]]></script></svg>