<svg xmlns="http://www.w3.org/2000/svg" viewBox="0 0 45.85 45.85"><defs><style>.cls-1{fill:#1f402f}.cls-2{fill:#009b55}.cls-3{fill:#fff}</style></defs><title>Asset 5</title><g id="Layer_2" data-name="Layer 2"><g id="Layer_1-2" data-name="Layer 1"><circle class="cls-1" cx="6.66" cy="37.72" r=".74"/><path class="cls-1" d="M42.71 11.37l2.26.45.29-1.45L41 9.51l-1.71 4.27 1.37.55.85-2.14a21.44 21.44 0 0 1-32 27.42l-.93 1.15a22.91 22.91 0 0 0 34.13-29.39zM36.4 6.25l.93-1.15A22.91 22.91 0 0 0 3.15 34.49L.88 34l-.29 1.48 4.3.86 1.71-4.26-1.37-.55-.86 2.14a21.44 21.44 0 0 1 32-27.42z"/><circle class="cls-1" cx="39.2" cy="8.14" r=".74"/><path class="cls-1" d="M9.61 29.58h.74v1.48H8.87v4.44H28.1V34h-5.91v-1.46h1.48v-1.48h-3v-1.48h1.48V28.1H20v-1.48h1.48v-3h.74v-3h1.48v-1.39h-.74v-1.48h1.48v.74h1.48v-.74h3v-1.48h-1.56v-1.48h.74v-4.44H8.87v3h-.73v4.44h1.47v1.48h-.74v3h-.73v4.44h1.47zm5.18 3V34h-1.48v-1.46zm1.48 0h1.48V34h-1.48zm-1.48-1.48v-1.52h1.48v1.48zm-.74-3v-1.48h1.48v1.48zm1.48-3v-1.43H17v1.48zm.74-3v-1.39h1.48v1.48zm.74-3v-1.35h1.48v1.48zm0-4.44v1.48h-1.48v-1.35zm3 0v1.48h-1.52v-1.35zm1.48 0h1.48v1.48h-1.52zm.74-1.48v-1.35h1.48v1.48zm-1.48 0h-1.52v-1.35h1.48zm-3 0h-1.48v-1.35h1.48zm-3 0h-1.44v-1.35h1.48zm-.74 1.48v1.48h-1.44v-1.35zm1.48 3v1.48h-1.44v-1.39zm-.74 3v1.48h-1.44v-1.43zm-.74 3v1.48h-1.44v-1.47zm-1.48 3v1.44h-1.44v-1.48zm-.74 3h1.48v1.48h-1.44zm-1.48 3h1.48V34h-1.44zM20.71 34h-1.48v-1.46h1.48zm-1.48-3h-1.48v-1.42h1.48zm-.74-3H17v-1.38h1.48zm1.48-3h-1.48v-1.33H20zm.74-3h-1.48v-1.29h1.48zm.74-3H20v-1.25h1.48zm4.44-3h-1.48v-1.21h1.48zm.74-3h-1.49v-1.17h1.48zm-16.28-1.17h1.48v1.48h-1.48zm-.74 3h1.48v1.48H9.61zm1.48 3h1.48v1.48h-1.48zm-.74 3h1.48v1.48h-1.48zm-.74 3h1.48v1.48H9.61z"/><path class="cls-2" d="M30.32 35.5a9.61 9.61 0 1 1 9.61-9.61 9.63 9.63 0 0 1-9.61 9.61z"/><path class="cls-3" d="M35.5 23.67v-.37a3.33 3.33 0 0 0-3.33-3.3h-1.11v-1.51h-1.48V20h-1.11a3.33 3.33 0 0 0 0 6.66h3.7a1.85 1.85 0 0 1 0 3.7h-3.7a1.85 1.85 0 0 1-1.85-1.85v-.41h-1.48v.37a3.33 3.33 0 0 0 3.33 3.33h1.11v1.48h1.48V31.8h1.11a3.33 3.33 0 1 0 0-6.66h-3.7a1.85 1.85 0 1 1 0-3.7h3.7A1.85 1.85 0 0 1 34 23.3v.37z"/></g></g></svg>