<svg xmlns="http://www.w3.org/2000/svg" viewBox="0 0 512 512"><g fill="#009A51"><path d="M256 512c141.2 0 256-114.8 256-256S397.2 0 256 0 0 114.8 0 256s114.8 256 256 256zm0-492.3c130.3 0 236.3 106 236.3 236.3S386.3 492.3 256 492.3 19.7 386.3 19.7 256 125.7 19.7 256 19.7z"/><path d="M256 413.5c5.4 0 9.8-4.4 9.8-9.8V187.1c0-5.4-4.4-9.8-9.8-9.8s-9.8 4.4-9.8 9.8v216.6c0 5.4 4.4 9.8 9.8 9.8zM256 147.7c5.4 0 9.8-4.4 9.8-9.8v-19.7c0-5.4-4.4-9.8-9.8-9.8s-9.8 4.4-9.8 9.8v19.7c0 5.4 4.4 9.8 9.8 9.8z"/></g></svg>