<svg xmlns="http://www.w3.org/2000/svg" width="34.763" height="34.763" viewBox="0 0 34.763 34.763"><path d="M8.799 23.323c-.088-.459-.265-.965-.27-1.474-.017-1.692.674-3.168 1.535-4.574.018-.029.063-.039.095-.06-.044.219-.144.394-.235.567-.635 1.222-1.207 2.466-1.235 3.877-.016.772.135 1.503.786 2.117-.008-.164-.023-.276-.02-.393.018-.547-.004-1.1.068-1.639.184-1.359.676-2.609 1.325-3.822.421-.786.937-1.355 1.8-1.594.129-.035.242-.127.42-.223-.248-.156-.433-.264-.609-.385-.412-.279-.52-.68-.3-1.133.109-.226.203-.474.366-.654.604-.668.916-1.428.846-2.334-.002-.023.004-.045.008-.068.044-.236-.014-.422-.184-.617-.666-.762-.611-1.561.148-2.215.188-.16.18-.275.096-.488-.322-.809-.397-1.645-.096-2.475.252-.691.975-.904 1.511-.445.359.31.622.701.688 1.191.031.234.043.471.062.705h1.358c0-.117.012-.23-.002-.342-.063-.496.121-.92.379-1.32.523-.818 1.733-.99 2.335-.299.565.65.883 1.414.726 2.301-.057.32-.172.629-.264.957.352.217.605.533.562.971-.038.381-.17.75-.248 1.127-.03.154-.084.336-.032.474.153.426.352.838.537 1.254.209.467.437.928.637 1.397.517 1.215 1.024 2.435 1.532 3.654.197.483.422.965.562 1.467.429 1.545.52 3.125.382 4.719-.016.188.016.277.207.354.384.153.582.463.58.886 0 .172-.04.348-.012.512.025.162.078.358.188.461.434.39 1.121.397 1.623.093.6-.365.963-.925 1.363-1.562-1.074-.857-2.209-.992-3.461-.396.137-.143.278-.328.44-.352.483-.061.608-.398.721-.778.065-.229.143-.457.204-.688.452-1.723.145-3.287-1.03-4.641-.304-.353-.692-.632-1.042-.944.819.412 1.486 1.006 1.952 1.791.997 1.682.626 3.393.054 5.1 1.344.094 1.806.256 2.334.822.188-.021.371-.029.547-.068.081-.018.189-.084.214-.152.108-.312.218-.627.276-.949.182-.961-.043-1.889-.312-2.799-.569-1.922-1.515-3.662-2.676-5.291-.728-1.022-1.479-2.037-2.094-3.129-.878-1.562-1.337-3.26-1.303-5.078a9.61 9.61 0 0 0-.146-1.967c-.212-1.134-.593-2.229-1.431-3.058C19.682.151 17.778-.343 15.625.229c-1.069.282-2.032.771-2.639 1.764-.491.804-.683 1.705-.675 2.623.015 1.688.015 3.388.19 5.063.156 1.481-.102 2.75-1.113 3.865-.404.444-.755.944-1.11 1.436-1.484 2.043-2.442 4.35-3.317 6.696-.221.595-.311 1.201-.107 1.845.666-.45 1.339-.593 1.945-.198zm12.876-13.007c.33.166.646.361.942.58.112.084.151.266.188.332 0 .426-.289.619-.58.457-.445-.248-.68-.656-.776-1.145-.033-.173.069-.302.226-.224zm-2.465-5.86c.527-.068 1.085.389 1.244 1.033-.316-.462-.655-.894-1.244-1.033zm.219-2.765c.353.006.475.275.58.543.104.271-.15.312-.291.424-.035.025-.08.041-.123.059-.472.201-.594.121-.59-.393.004-.484.102-.636.424-.633zm-3.796 3.781l-1.02-.826c.375-.035.853.328 1.02.826zm-1.558 26.986c.113.551-.159.973-.647 1.301-.16.107-.307.24-.44.381-.583.609-1.295.732-2.077.541a8.743 8.743 0 0 1-1.205-.383c-1.479-.594-3.011-.979-4.568-1.295a11.265 11.265 0 0 1-1.58-.434c-.73-.259-.963-.683-.811-1.435a9.127 9.127 0 0 0 .055-3.267c-.137-.856.076-1.161.916-1.381.32-.084.639-.181.963-.237.598-.107 1.044-.423 1.396-.906.308-.424.605-.864.969-1.237.644-.662 1.218-.689 1.822-.009.67.759 1.28 1.576 1.846 2.416.949 1.408 1.753 2.914 2.85 4.228.393.47.575 1.034.511 1.717zm17.569-2.181a7.667 7.667 0 0 1-1.027.674c-1.519.869-2.995 1.797-4.266 3.016-.619.596-1.366.791-2.194.781-.237-.016-.479-.014-.718-.045-.874-.113-1.387-.615-1.576-1.473-.154-.709-.104-1.414.047-2.105.416-1.889.436-3.807.457-5.723.013-.869.22-1.131 1.188-1.097.675.022.762.117.689.769-.086.811.514 1.418 1.432 1.506 1.018.1 1.666-.479 2.264-1.17.125-.146.213-.322.324-.482.267-.387.795-.365.979.07.109.262.167.58.135.861-.08.647.183 1.146.62 1.555.489.457 1.005.896 1.55 1.285.625.447.702 1.087.096 1.578zM15.616 12.365c.874.154 1.669-.043 2.403-.549.393-.271.801-.543 1.242-.713.667-.258 1.012-.693 1.062-1.4.044-.582-.064-.799-.621-1.021-.274-.111-.558-.205-.894-.326.46-.158.73-.41.771-.851a1.414 1.414 0 0 0-.367-1.104c-.258-.281-.607-.264-.928-.154-.36.123-.461.461-.489.799-.025.297-.005.597-.005.896-.9-.568-1.842-.514-2.8-.146-.038-.342-.04-.688-.126-1.012-.102-.391-.472-.623-.791-.57-.308.05-.511.357-.526.786-.021.58.248 1.027.662 1.424-.214.183-.416.349-.611.521-.646.565-.697 1.172-.092 1.797.484.498 1.014.955 1.545 1.404.15.124.371.187.565.219zm3.204-5.907c.108.074.239.131.316.23.051.064.022.189.033.289L19.061 7l-.322-.439.081-.103zm-2.263 1.459c.174.025.355.029.518.088.063.023.082.168.121.26l-.1.078c-.193-.096-.386-.188-.578-.284.012-.05.026-.096.039-.142zm-1.334.11c.088-.047.209-.035.314-.051l.038.096c-.082.066-.155.156-.249.191-.083.031-.189.002-.285-.002.059-.08.103-.189.182-.234zm-1.027-1.444l.053-.072c.089.035.229.05.257.109.063.146.072.316.104.477-.041 0-.08 0-.12-.002-.098-.171-.195-.343-.294-.512zm-.964 3.512l.102-.094c.105.073.221.139.316.227 1.055.961 2.236.99 3.463.426.743-.344 1.444-.777 2.171-1.158.151-.08.33-.104.497-.156.017.037.029.072.045.109-.056.064-.1.148-.17.191-1.017.627-2.002 1.33-3.193 1.6-1.101.248-2.109.061-2.943-.758-.116-.108-.194-.258-.288-.387zm8.372 18.993l-.511 4.047c-2.082-.523-4.245-.057-6.375-.062l-.143-1.801c2.609.32 4.996-.268 7.029-2.184zM12.53 26.57c.342.282.681.573 1.002.879.302.289.384.666.335 1.069-.041.343-.36.648-.698.634-.101-.004-.221-.134-.286-.234-.752-1.17-1.493-2.348-2.244-3.518-.172-.269-.369-.521-.556-.779a.9.9 0 0 0 .025-.041c.809.663 1.619 1.322 2.422 1.99z"/></svg>