<svg id="Layer_1" xmlns="http://www.w3.org/2000/svg" viewBox="0 0 90.7 90.7"><style>.st0{fill:#e6e6e6}.st1{fill:#009b55}.st2{fill:#1f402f}</style><title>mablagh_pish_factor</title><g id="Layer_2"><g id="Layer_1-2"><circle class="st0" cx="45.4" cy="45.4" r="45.4"/><path class="st1" d="M44.4 27.4l-8.3-2.3-2 1.7c-.6-1-1-2.1-1-3.3v-1.9c0-1.1.8-1.9 1.9-1.9 1 0 1.9.9 1.9 1.9v.8c0 .2.2.4.4.4s.4-.2.4-.4v-.8c0-1.1.8-1.9 1.9-1.9s1.9.9 1.9 1.9v.8c0 .2.2.4.4.4s.4-.2.4-.4v-.8c0-1.1.8-1.9 1.9-1.9 1 0 1.9.9 1.9 1.9v1.9c0 1.2-.3 2.3-1 3.3l-.7.6z"/><path class="st2" d="M32.5 39.1l-1.5-.8h-2.4V26.7h-5.3v14.7h5.3v-1.6h2.1l1.5.8h.9V39l-.6.1zm-5.4.8h-2.3V28.2h2.3v11.7z"/><path class="st1" d="M39.9 56.2h-.4c-5.1-.2-9.3-4.7-9.4-9.9 0-2.7.9-5.3 2.8-7.2 1.6-1.7 2.5-3.8 2.5-6l3.8-2.5 1.5 1.6V40H46l.9-.9c1.9 1.9 2.9 4.4 2.9 7.1 0 2.8-1.1 5.4-3 7.3-2 1.7-4.4 2.7-6.9 2.7z"/><path class="st2" d="M43.6 44.5v-.4c0-1.5-1.2-2.7-2.6-2.7h-.4v-1.6h-1.5v1.6h-.4c-1.5 0-2.6 1.2-2.6 2.7 0 1.5 1.2 2.7 2.6 2.7H41c.6 0 1.1.5 1.1 1.2s-.5 1.2-1.1 1.2h-2.3c-.6 0-1.1-.5-1.1-1.2v-.4h-1.5v.4c0 1.5 1.2 2.7 2.6 2.7h.4v1.6h1.5v-1.6h.4c1.5 0 2.6-1.2 2.6-2.7 0-1.5-1.2-2.7-2.6-2.7h-2.3c-.6 0-1.1-.5-1.1-1.2s.5-1.2 1.1-1.2H41c.6 0 1.1.5 1.1 1.2v.4h1.5z"/><path class="st2" d="M46.8 30.5c.4-.4.6-1 .6-1.6 0-1.3-1-2.3-2.3-2.3h-2.8l-.5-.6-5.9-1.7-4.6 4h-3.5v1.6h4l4.4-3.8 4.7 1.4 1.6 2c.2.3.3.6.3 1 0 .3-.2.6-.5.9-.5.4-1.2.3-1.6-.1l-1.5-1.6-4.3 3.3.9 1.2 3.2-2.7.6.6c.1.1.2.2.3.2.1.6.3.9.6 1.3-.4.4-.6 1-.6 1.6s.2 1.1.6 1.6c-.4.4-.6 1-.6 1.6 0 1.3 1 2.3 2.3 2.3h3c1.2 0 2.3-1 2.3-2.3 0-.6-.2-1.1-.6-1.6.4-.4.6-1 .6-1.6 0-.6-.2-1.1-.6-1.6.4-.4.6-1 .6-1.6-.1-.5-.3-1-.7-1.5zm-1.7 8.6h-3c-.4 0-.8-.3-.8-.8 0-.4.3-.8.8-.8h3c.4 0 .8.3.8.8 0 .4-.3.8-.8.8zm0-3.1h-3c-.4 0-.8-.3-.8-.8 0-.4.3-.8.8-.8h3c.4 0 .8.3.8.8 0 .4-.3.8-.8.8zm0-3.1h-2.8c.3-.1.6-.2.9-.4.4-.3.7-.7.8-1.1h1.1c.4 0 .8.3.8.8s-.3.7-.8.7zm0-3.1h-.9c-.1-.5-.3-1-.6-1.4l-.2-.2H45c.4 0 .8.3.8.8.1.4-.2.8-.7.8zM64.7 56.1v2.3h-5L57.6 57l-6.4-2.3c-.6-.2-1.3-.2-1.8.1-.6.3-1 .8-1.2 1.4-.3 1.1.2 2.3 1.1 2.8l1.7 1h-2.4l-1-2.5c-.3-.8-1.1-1.4-1.9-1.4-.7 0-1.3.3-1.7.9-.4.6-.5 1.3-.3 1.9l.2.7-1.7-.9c-.5-.3-1.2-.4-1.7-.2-.6.2-1 .6-1.3 1.2-.5 1.1 0 2.4 1 2.9l3.7 1.9 7.7 1.6h10l2.9-.6v2.2H70V56.1h-5.3zM45.3 58c.3-.4.9-.3 1 .1L47 60h-1.4l-.5-1.5c0-.2 0-.4.2-.5zm16.3 6.7H52l-7.4-1.5-3.6-1.9c-.3-.2-.5-.6-.3-.9.1-.2.2-.3.4-.4.2-.1.4 0 .5 0l2.6 1.5h7.2l3-1.5-4.2-2.3c-.3-.2-.5-.6-.4-1 .1-.2.2-.4.4-.5.2-.1.4-.1.6 0l6.1 2.2 2.4 1.6h5.5v4l-3.2.7zm6.9 1.5h-2.3v-8.5h2.3v8.5z"/></g></g></svg>