<svg xmlns="http://www.w3.org/2000/svg" viewBox="0 0 300.16 300.16" width="512" height="512"><path d="M135.556 48.403L82.302 33.899 69.216 44.782a37.252 37.252 0 0 1-6.279-20.735V12.113C62.937 5.437 68.364.01 75.04.01s12.103 5.427 12.103 12.103v4.841c0 1.331 1.089 2.421 2.421 2.421s2.421-1.089 2.421-2.421v-4.841C91.985 5.437 97.412.01 104.088.01s12.103 5.427 12.103 12.103v4.841c0 1.331 1.089 2.421 2.421 2.421s2.421-1.089 2.421-2.421v-4.841c0-6.676 5.427-12.103 12.103-12.103s12.103 5.427 12.103 12.103v11.934a37.24 37.24 0 0 1-6.279 20.735l-3.404 3.621z" data-original="#F9BA48" class="active-path" data-old_color="#F9BA48" fill="#009b55"/><path d="M59.238 121.022l-9.683-4.841H33.889V43.562H0v91.984h33.889v-9.683H47.27l9.683 4.841h5.984v-9.683l-3.699.001zm-35.032 4.842H9.683v-72.62h14.524v72.62h-.001z" data-original="#333333" data-old_color="#333333" fill="#1f402f"/><path d="M106.542 227.55c-.876 0-1.748-.015-2.629-.053-32.679-1.317-59.746-29.014-60.332-61.736-.305-16.877 6.013-32.838 17.782-44.937 10.38-10.675 16.097-23.993 16.097-37.491l24.206-15.545 9.683 9.683v48.393h33.889l5.669-5.829c11.958 11.89 18.537 27.716 18.537 44.579 0 17.293-6.87 33.415-19.346 45.397-11.831 11.366-27.216 17.539-43.556 17.539z" data-original="#F9BA48" class="active-path" data-old_color="#F9BA48" fill="#009b55"/><path d="M130.715 154.911v-2.401c0-9.344-7.601-16.964-16.945-16.964h-2.421v-9.683h-9.683v9.683h-2.421c-9.344 0-16.944 7.601-16.944 16.944 0 9.344 7.601 16.945 16.944 16.945h14.524c4.004 0 7.262 3.258 7.262 7.262s-3.258 7.262-7.262 7.262H99.246c-4.004 0-7.262-3.239-7.262-7.243v-2.44h-9.683v2.44c0 9.344 7.601 16.925 16.944 16.925h2.421v9.683h9.683v-9.683h2.421c9.344 0 16.945-7.601 16.945-16.944 0-9.344-7.601-16.945-16.945-16.945H99.246c-4.004 0-7.262-3.258-7.262-7.262s3.258-7.262 7.262-7.262h14.524c4.004 0 7.262 3.278 7.262 7.281v2.401l9.683.001z" data-original="#333333" data-old_color="#333333" fill="#1f402f"/><path d="M151.145 67.788c2.324-2.576 3.776-5.96 3.776-9.692 0-8.007-6.516-14.534-14.524-14.534h-18.019l-3.37-4.212-37.834-10.82-29.672 24.714H29.048v9.683h25.959l28.428-23.679 29.943 8.559 10.186 12.728a7.86 7.86 0 0 1 1.67 5.935 7.837 7.837 0 0 1-3.103 5.33c-3.123 2.343-7.562 2.028-10.331-.736l-9.77-9.77-27.59 22.073 6.047 7.562 20.822-16.659 3.641 3.645c.533.533 1.128.968 1.714 1.418.353 3.534 1.641 5.611 3.621 7.804-2.324 2.576-3.776 5.955-3.776 9.687s1.457 7.112 3.776 9.683c-2.324 2.576-3.776 5.94-3.776 9.673 0 8.017 6.516 14.524 14.524 14.524h19.365c8.007 0 14.524-6.507 14.524-14.514 0-3.733-1.457-7.102-3.776-9.678 2.324-2.576 3.776-5.945 3.776-9.683 0-3.737-1.457-7.107-3.776-9.683 2.324-2.576 3.776-5.95 3.776-9.683-.001-3.73-1.458-7.1-3.777-9.675zm-10.748 53.234h-19.365a4.849 4.849 0 0 1-4.841-4.841 4.849 4.849 0 0 1 4.841-4.841h19.365a4.849 4.849 0 0 1 4.841 4.841 4.848 4.848 0 0 1-4.841 4.841zm0-19.365h-19.365a4.849 4.849 0 0 1-4.841-4.841 4.849 4.849 0 0 1 4.841-4.841h19.365a4.849 4.849 0 0 1 4.841 4.841 4.848 4.848 0 0 1-4.841 4.841zm0-19.365H122.46a17.384 17.384 0 0 0 5.48-2.74c2.44-1.83 4.241-4.236 5.442-6.942h7.015c2.668 0 4.841 2.174 4.841 4.841s-2.173 4.841-4.841 4.841zm0-19.365h-5.679c-.445-3.05-1.612-5.955-3.597-8.438l-.997-1.244h10.273a4.849 4.849 0 0 1 4.841 4.841 4.848 4.848 0 0 1-4.841 4.841zM266.271 227.531v14.524h-32.422l-13.304-8.869-40.802-14.471a14.82 14.82 0 0 0-11.721.775 14.827 14.827 0 0 0-7.548 9c-2.067 6.821 1.002 14.204 7.296 17.545l10.481 5.567-15.24.048-6.265-15.666a13.414 13.414 0 0 0-12.505-8.453 13.508 13.508 0 0 0-10.932 5.606 13.499 13.499 0 0 0-1.825 12.152l1.467 4.347-10.622-5.805a13.864 13.864 0 0 0-11.072-.978 13.924 13.924 0 0 0-8.25 7.446 13.843 13.843 0 0 0 6.512 18.194l23.897 11.793 49.604 10.089 64.365.092 18.886-3.776v13.459h33.889v-72.619h-33.889zm-125.099 11.256c1.627-2.266 5.548-1.786 6.579.799l4.841 12.098-8.724.029-3.205-9.518a3.74 3.74 0 0 1 .509-3.408zm105.254 41.998h-61.978l-47.319-9.465-23.325-11.508a4.204 4.204 0 0 1-1.975-5.524 4.15 4.15 0 0 1 2.503-2.256 4.108 4.108 0 0 1 3.36.3l16.63 9.087h45.949l19.104-9.552-27.058-14.383a5.294 5.294 0 0 1-2.576-6.187 5.219 5.219 0 0 1 2.663-3.176 5.235 5.235 0 0 1 4.134-.276l39.147 13.735 15.231 10.157h35.356v25.078l-19.846 3.97zm44.051 9.682h-14.524v-53.254h14.524v53.254z" data-original="#333333" data-old_color="#333333" fill="#1f402f"/></svg>