<svg xmlns="http://www.w3.org/2000/svg" viewBox="0 0 222.78 222.78"><defs><style>.cls-1{fill:#009b55}.cls-2{fill:#1f402f}</style></defs><title>Asset 1</title><g id="Layer_2" data-name="Layer 2"><g id="Layer_1-2" data-name="Layer 1"><path class="cls-1" d="M79.05 53.9V115h10.78v-7.2a7.19 7.19 0 0 1 14.37 0v7.2h39.53V53.9z"/><path class="cls-2" d="M204.81 136.54V32.34a18 18 0 0 0-18-18h-48.55a32.3 32.3 0 0 0-53.74 0H35.93a18 18 0 0 0-18 18v104.2H0v18a18 18 0 0 0 18 18h45.4a82.21 82.21 0 0 0 11.3 22.37L82.64 206v16.82h57.49v-17a79.29 79.29 0 0 0 10.47-33.32h54.2a18 18 0 0 0 18-18v-18zM111.39 7.19a25.18 25.18 0 0 1 25.15 25.15V53.9h7.19V43.12h32.34v79.05h7.19V43.12a7.19 7.19 0 0 0-7.19-7.19h-32.34v-3.59a32.11 32.11 0 0 0-1.89-10.78h45a10.79 10.79 0 0 1 10.78 10.78v104.2h-14.37v-7.19h-7.19v7.19h-28a10.63 10.63 0 0 0-12-2.8 10.69 10.69 0 0 0-14.37-7.19 10.6 10.6 0 0 0-14-7.32V107.8a10.78 10.78 0 0 0-21.56 0v28.75h-8.7a11.51 11.51 0 0 0-16.71 0h-14V43.12h75.46V53.9h7.19V32.34a18 18 0 1 0-35.93 0 3.59 3.59 0 0 1-7.19 0 25.18 25.18 0 0 1 25.14-25.15zM86.24 143.73v21.56h-.71l-4.79-21.56zm35.93-107.8H99.95a10.66 10.66 0 0 0 .66-3.59 10.78 10.78 0 1 1 21.56 0zm-97-3.59a10.79 10.79 0 0 1 10.76-10.78h45a32.11 32.11 0 0 0-1.89 10.78 10.66 10.66 0 0 0 .66 3.59h-33a7.19 7.19 0 0 0-7.19 7.19v93.42H25.15zM18 165.29a10.79 10.79 0 0 1-10.81-10.78v-10.78h50.38c0 .27-.08.52-.08.79v1.93a11.54 11.54 0 0 0 .28 2.51l3.51 15.78c0 .19.11.37.15.55zm125.76.61a72.06 72.06 0 0 1-10.3 37.1l-.51.86v11.77H89.83v-11.97l-9.28-13a75.07 75.07 0 0 1-12.26-27.49l-3.51-15.77a4.47 4.47 0 0 1-.1-1v-1.93a4.38 4.38 0 0 1 8.66-1l6.42 28.91h13.66V107.8a3.59 3.59 0 0 1 7.19 0v53.9h7.19v-32.34a3.59 3.59 0 0 1 7.19 0v32.34h7.19v-25.16a3.59 3.59 0 1 1 7.19 0v25.15h7.19v-18a3.59 3.59 0 0 1 7.19 0zm71.86-11.39a10.79 10.79 0 0 1-10.78 10.78h-53.9v-21.56h64.68z"/><path class="cls-2" d="M111.39 64.68a10.75 10.75 0 0 0-3.59 20.9v15h7.2v-15a10.75 10.75 0 0 0-3.59-20.9zm0 14.37a3.59 3.59 0 1 1 3.61-3.59 3.6 3.6 0 0 1-3.61 3.59z"/></g></g></svg>