<svg xmlns="http://www.w3.org/2000/svg" viewBox="0 0 56 56" width="512" height="512"><path d="M28 0C12.561 0 0 12.561 0 28s12.561 28 28 28 28-12.561 28-28S43.439 0 28 0zm0 54C13.663 54 2 42.336 2 28S13.663 2 28 2s26 11.664 26 26-11.663 26-26 26z" data-original="#000000" class="active-path" data-old_color="#000000" fill="#AEACAC"/><path d="M15 17h26a1 1 0 1 0 0-2H15a1 1 0 1 0 0 2zM45 31H11a1 1 0 1 0 0 2h34a1 1 0 1 0 0-2zM45 23H11a1 1 0 1 0 0 2h34a1 1 0 1 0 0-2zM41 39H15a1 1 0 1 0 0 2h26a1 1 0 1 0 0-2z" data-original="#000000" class="active-path" data-old_color="#000000" fill="#AEACAC"/></svg>