<svg xmlns="http://www.w3.org/2000/svg" viewBox="0 0 90.73 90.73"><defs><style>.cls-1{fill:#e6e6e6}.cls-2{fill:#009b55}.cls-3{fill:#1f402f}</style></defs><title>forsat_forosh</title><g id="Layer_2" data-name="Layer 2"><g id="Layer_1-2" data-name="Layer 1"><circle class="cls-1" cx="45.37" cy="45.37" r="45.37"/><path class="cls-2" d="M45.37 27.58a6.53 6.53 0 0 0-3.63 12v1.83H49v-1.87a6.53 6.53 0 0 0-3.63-12zm0 8a1.46 1.46 0 1 1 1.45-1.45 1.45 1.45 0 0 1-1.45 1.44z"/><path class="cls-3" d="M66.69 45.16L60 50.54l-6.29-6.92 13.9-11.85-.94-1.11-14.4 12.24a7.69 7.69 0 0 0-2.57.84 1.52 1.52 0 0 0-.1-.47 1.81 1.81 0 0 0-1-3.35h-2.51v-3.76a2.17 2.17 0 0 0-.72-4.22 2.17 2.17 0 0 0-.73 4.22v3.76H42.1a1.81 1.81 0 0 0-1 3.35 1.79 1.79 0 0 0-.11.47 7.2 7.2 0 0 0-2.57-.84L24.06 30.66l-.94 1.11 14 11.85-6.3 6.92-6.72-5.38-.91 1.14 7.22 5.77A7.4 7.4 0 0 0 32.79 56l1.32 1.11a2.4 2.4 0 0 0 .33 2.24 2.34 2.34 0 0 0 1.63.93h.19v.05a2.39 2.39 0 0 0 .93 1.86 2.3 2.3 0 0 0 1.39.5v.06a2.41 2.41 0 0 0 .92 1.86 2.38 2.38 0 0 0 1.39.5v.06a2.39 2.39 0 0 0 .93 1.83 2.29 2.29 0 0 0 1.44.5 2.47 2.47 0 0 0 1.59-.59 2.35 2.35 0 0 0 3.15-.19 2.45 2.45 0 0 0 .74-1.65 2.37 2.37 0 0 0 2.38-2.31h.05a2.37 2.37 0 0 0 1.64-.66 2.45 2.45 0 0 0 .74-1.65A2.37 2.37 0 0 0 56 58a2.2 2.2 0 0 0 0-.36L58 56a7.46 7.46 0 0 0 2.43-3.91l7.2-5.76zM45.37 33.39a.73.73 0 0 1 .72.73.72.72 0 0 1-.72.72.73.73 0 0 1-.73-.72.73.73 0 0 1 .73-.73zm-1.73 12.34h3.47l-1.73 1.45zm-.81-2.18h5.08a.37.37 0 0 1 0 .73h-5.08a.37.37 0 1 1 0-.73zm-.73-2.18h6.53a.38.38 0 0 1 .37.37.37.37 0 0 1-.37.36H42.1a.36.36 0 0 1-.36-.36.37.37 0 0 1 .36-.37zM31.74 51.63l3.72-4.09 2.91-3.19a5.87 5.87 0 0 1 2.92 1.3l7.88 6.59a1 1 0 0 1 .08 1.42.93.93 0 0 1-1.28.08l-3.57-2.87a.73.73 0 0 0-1 .11 2.83 2.83 0 0 1-2.23 1.09 2.87 2.87 0 0 1-2.85-2.88h-1.48a4.31 4.31 0 0 0 1.87 3.56L35 55.89l-1.24-1a6 6 0 0 1-2.02-3.26zm11 14.24a.94.94 0 0 1-.38-.74 1 1 0 0 1 .31-.71 2.36 2.36 0 0 0 .64 1l.49.45a.93.93 0 0 1-1.08 0zm4.24-.2a.92.92 0 0 1-1.27 0l-1.42-1.3a1 1 0 0 1 0-1.4 1 1 0 0 1 .64-.25.94.94 0 0 1 .63.24l.18.17L47 64.28a.94.94 0 0 1 0 1.39zm2.43-2.3a1 1 0 0 1-1.28 0l-.18-.17-1.25-1.13a.91.91 0 0 1-.31-.69.94.94 0 0 1 1.61-.71L49.37 62a.93.93 0 0 1 .31.7 1 1 0 0 1-.29.67zm2.42-2.31a.93.93 0 0 1-1.27 0l-1.42-1.3a1 1 0 0 1-.31-.7 1 1 0 0 1 .3-.7.92.92 0 0 1 .64-.25.94.94 0 0 1 .63.24l.81.74.61.57a.91.91 0 0 1 .31.69 1 1 0 0 1-.32.71zm2.43-2.31a.93.93 0 0 1-1.27 0l-.19-.17-.68-.58-.57-.53a.93.93 0 0 1-.31-.69 1 1 0 0 1 .3-.71.91.91 0 0 1 .64-.25 1 1 0 0 1 .63.24l1.41 1.31a.93.93 0 0 1 .31.69 1 1 0 0 1-.29.69zm2.74-3.9l-1.76 1.5v-.06L53.79 55a2.38 2.38 0 0 0-4 1.68 2.37 2.37 0 0 0-1.69.65 2.45 2.45 0 0 0-.73 1.67A2.37 2.37 0 0 0 45 61.28a2.41 2.41 0 0 0-1.69.65 1.86 1.86 0 0 0-.33.41.48.48 0 0 0-.16.08l-1 .85-.14.11a.94.94 0 0 1-1.68-.67 1 1 0 0 1 .34-.74l5-4.21-.93-1.12-5 4.21-.15.11a1 1 0 0 1-1.2.06.9.9 0 0 1-.37-.74.91.91 0 0 1 .34-.74l5.1-4.27-.93-1.12-5.1 4.27-.19.16a.94.94 0 0 1-1.35-.16 1 1 0 0 1 .22-1.36l4.38-3.66a4.33 4.33 0 0 0 1 .11 4.23 4.23 0 0 0 2.84-1.1l3.06 2.46a2.38 2.38 0 0 0 3.24-.21 2.43 2.43 0 0 0-.2-3.53l-3.59-3 3-2.47a6 6 0 0 1 2.91-1.3l.05.06L59 51.65a5.9 5.9 0 0 1-2 3.2z"/><path class="cls-3" d="M59.16 46.46a2.18 2.18 0 1 0 2.18-2.18 2.18 2.18 0 0 0-2.18 2.18zm2.9 0a.72.72 0 0 1-.72.72.73.73 0 1 1 .72-.72zM31.58 46.46a2.18 2.18 0 1 0-2.18 2.17 2.18 2.18 0 0 0 2.18-2.17zm-2.91 0a.73.73 0 0 1 .73-.73.73.73 0 1 1-.73.73zM44.64 23.23h1.45v2.9h-1.45z"/><path class="cls-3" transform="rotate(-30 40.646 25.951)" d="M39.92 24.49h1.45v2.9h-1.45z"/><path class="cls-3" transform="rotate(-60 37.195 29.396)" d="M36.47 27.94h1.45v2.9h-1.45z"/><path class="cls-3" d="M34.48 33.39h2.9v1.45h-2.9zM53.35 33.39h2.9v1.45h-2.9z"/><path class="cls-3" transform="rotate(-29.99 53.542 29.406)" d="M52.09 28.67h2.9v1.45h-2.9z"/><path class="cls-3" transform="rotate(-60.01 50.076 25.95)" d="M48.63 25.22h2.9v1.45h-2.9z"/></g></g></svg>