<svg xmlns="http://www.w3.org/2000/svg" viewBox="0 0 53.88 43.45"><defs><style>.cls-1{fill:#009b55}.cls-2{fill:#1f402f}</style></defs><title>Asset 7</title><g id="Layer_2" data-name="Layer 2"><g id="Layer_1-2" data-name="Layer 1"><path class="cls-1" d="M3.48 4.35h20.86v13.9H3.48z"/><path class="cls-2" d="M51.27 0H2.61A2.61 2.61 0 0 0 0 2.61v32.15a2.61 2.61 0 0 0 2.61 2.61h14.77v4.35H13v1.74h27.84v-1.75H36.5v-4.34h14.77a2.61 2.61 0 0 0 2.61-2.61V2.61A2.61 2.61 0 0 0 51.27 0zM2.61 1.74h48.66a.87.87 0 0 1 .87.87v26.94H1.74V2.61a.87.87 0 0 1 .87-.87zm32.15 40H19.12v-4.37h15.64zm16.51-6.08H2.61a.87.87 0 0 1-.87-.87v-3.5h50.4v3.48a.87.87 0 0 1-.87.87zm0 0"/><path class="cls-2" d="M30.52 20.86H33V21a2.6 2.6 0 1 0 3.32 3.32h7.27A2.6 2.6 0 1 0 46.93 21v-.16h2.52l1-10.43h-18.3v1.74h16.42l-.7 7H32.05L30.31 5.21h-3.37V7h1.84zm13.09 1.74h-7.27a2.61 2.61 0 0 0-1.58-1.6v-.16h10.43V21a2.61 2.61 0 0 0-1.58 1.58zm-9.72 1.74a.87.87 0 1 1 .87-.87.87.87 0 0 1-.87.87zm12.17 0a.87.87 0 1 1 .87-.87.87.87 0 0 1-.87.87zm0 0"/><path class="cls-2" d="M33.02 14.77h13.9v1.74h-13.9zM3.48 20.86h20.86v1.74H3.48zM3.48 25.2h20.86v1.74H3.48z"/></g></g></svg>