<svg xmlns="http://www.w3.org/2000/svg" viewBox="0 0 496 496" width="512" height="512"><path d="M176 236H64v-96h112v96zM304 236H192v-96h112v96zM432 236H320v-96h112v96z" data-original="#F9BA48" class="active-path" data-old_color="#000000" fill="#009b55"/><g><path d="M464 44H32C14.352 44 0 58.352 0 76v288c0 17.648 14.352 32 32 32h144v40h-56v16h256v-16h-56v-40h144c17.648 0 32-14.352 32-32V76c0-17.648-14.352-32-32-32zM304 436H192v-40h112v40zm176-72c0 8.824-7.176 16-16 16H32c-8.824 0-16-7.176-16-16V76c0-8.824 7.176-16 16-16h432c8.824 0 16 7.176 16 16v288z" data-original="#333333" data-old_color="#333333" fill="#1f402f"/><path d="M32 364h432V76H32v288zM48 92h400v256H48V92z" data-original="#333333" data-old_color="#333333" fill="#1f402f"/><circle cx="72" cy="116" r="8" data-original="#333333" data-old_color="#333333" fill="#1f402f"/><circle cx="96" cy="116" r="8" data-original="#333333" data-old_color="#333333" fill="#1f402f"/><circle cx="120" cy="116" r="8" data-original="#333333" data-old_color="#333333" fill="#1f402f"/><path data-original="#333333" data-old_color="#333333" fill="#1f402f" d="M64 252h240v16H64zM64 284h240v16H64zM64 316h240v16H64zM328 252h104v16H328zM328 284h104v16H328zM328 316h104v16H328z"/></g></svg>