<svg id="Capa_1" xmlns="http://www.w3.org/2000/svg" viewBox="0 0 512 512"><style>.st0{fill:#009b55}.st1{fill:#1f402f}</style><path class="st0" d="M487.2 330.3h-375l69.5-69.5V140.4c0-13.7 11.1-24.8 24.8-24.8h280.8c13.7 0 24.8 11.1 24.8 24.8v165.2c-.1 13.6-11.2 24.7-24.9 24.7z"/><path class="st1" d="M429.4 214.7c-9.1 0-16.5-7.4-16.5-16.5s7.4-16.5 16.5-16.5 16.5 7.4 16.5 16.5h16.5c0-18.2-14.8-33-33-33s-33 14.8-33 33 14.8 33 33 33c9.1 0 16.5 7.4 16.5 16.5s-7.4 16.5-16.5 16.5-16.5-7.4-16.5-16.5h-16.5c0 18.2 14.8 33 33 33s33-14.8 33-33-14.8-33-33-33zM264.3 181.7c9.1 0 16.5 7.4 16.5 16.5h16.5c0-18.2-14.8-33-33-33s-33 14.8-33 33 14.8 33 33 33c9.1 0 16.5 7.4 16.5 16.5s-7.4 16.5-16.5 16.5-16.5-7.4-16.5-16.5h-16.5c0 18.2 14.8 33 33 33s33-14.8 33-33-14.8-33-33-33c-9.1 0-16.5-7.4-16.5-16.5-.1-9.1 7.3-16.5 16.5-16.5zM346.8 205.4l-10-40.2h-23v107.3h16.5v-65l16.5 66 16.6-66v65h16.5V165.2h-23z"/><path class="st1" d="M256 0H41.3C18.5 0 0 18.5 0 41.3v429.4C0 493.5 18.5 512 41.3 512H256c22.8 0 41.3-18.5 41.3-41.3V346.8h-16.5v82.6H16.5V82.6h264.3v33h16.5V41.3C297.3 18.5 278.8 0 256 0zm24.8 445.9v24.8c0 13.7-11.1 24.8-24.8 24.8H41.3c-13.7 0-24.8-11.1-24.8-24.8v-24.8h264.3zM16.5 66.1V41.3c0-13.7 11.1-24.8 24.8-24.8H256c13.7 0 24.8 11.1 24.8 24.8v24.8H16.5z"/><path class="st1" d="M115.6 462.5h66.1V479h-66.1zM247.7 346.8h16.5v16.5h-16.5zM214.7 346.8h16.5v16.5h-16.5zM181.7 346.8h16.5v16.5h-16.5zM148.6 346.8h16.5v16.5h-16.5z"/></svg>