<svg xmlns="http://www.w3.org/2000/svg" viewBox="0 0 496 496" width="512" height="512"><path data-original="#FFA64D" class="active-path" data-old_color="#FFA64D" fill="#009b55" d="M216 232v120h64V232h47.832l.168-8-80-64-80 64v8zM152 368h192v128H152z"/><g><path d="M438.272 157.44A134.97 134.97 0 0 0 440 136C440 61.008 378.992 0 304 0c-43.568 0-84.104 20.712-109.728 55.728C180.712 50.592 166.528 48 152 48 85.832 48 32 101.832 32 168c0 8.728 1.008 17.552 3 26.32C13.544 207.232 0 230.776 0 256c0 39.704 32.304 72 72 72h144v-16H72c-30.88 0-56-25.128-56-56 0-18.568 8.992-35.368 23.888-45.744 5.784 15.392 14.552 29.632 26.376 41.704l11.432-11.2c-12.912-13.184-21.76-29.28-26.248-46.728C49.192 185.36 48 176.616 48 168c0-57.344 46.656-104 104-104 11.456 0 22.656 1.936 33.432 5.632C174.144 89.648 168 112.248 168 136h16c0-23.992 7.008-46.712 19.92-66.136C226.264 36.144 263.656 16 304 16c66.168 0 120 53.832 120 120 0 5.768-.592 11.584-1.456 17.408C417.8 152.584 412.976 152 408 152c-19.224 0-37.48 6.088-52.808 17.6l9.608 12.8c12.536-9.424 27.472-14.4 43.2-14.4 6.888 0 13.512 1.072 19.824 2.888C458.584 179.696 480 207.968 480 240c0 39.704-32.304 72-72 72H280v16h128c48.52 0 88-39.48 88-88 0-37.024-23.392-69.984-57.728-82.56zM176 392h144v16H176zM176 424h144v16H176zM304 456h16v16h-16zM176 456h112v16H176z" data-original="#333333" data-old_color="#333333" fill="#1f402f"/></g></svg>