<svg xmlns="http://www.w3.org/2000/svg" viewBox="0 0 25.28 32.86"><defs><style>.cls-1{fill:#1f402f}</style></defs><title>User</title><g id="Layer_2" data-name="Layer 2"><g id="Layer_1-2" data-name="Layer 1"><path class="cls-1" d="M20 17l-.91 1.42a9.67 9.67 0 0 1 4.46 8.16v4.62H13.12l6.14-10.53-1.46-.85-5.17 8.86-5.16-8.88-1.47.85 6.14 10.53H1.68v-4.62a9.67 9.67 0 0 1 4.46-8.16L5.23 17A11.36 11.36 0 0 0 0 26.56v6.3h25.28v-6.3A11.35 11.35 0 0 0 20 17zm0 0"/><path class="cls-1" d="M3.29 9.3a9.3 9.3 0 1 0 9.3-9.3 9.31 9.31 0 0 0-9.3 9.3zm16.92 0a7.62 7.62 0 1 1-7.62-7.62 7.63 7.63 0 0 1 7.62 7.62zm0 0"/></g></g></svg>