<svg id="Layer_1" xmlns="http://www.w3.org/2000/svg" viewBox="0 0 496 496"><style>.st0{fill:#009b55}.st1{fill:#1f402f}</style><path class="st0" d="M96 320h304v144H96V320z"/><path class="st1" d="M132.7 0L48 84.7V496h400V0H132.7zM128 27.3V80H75.3L128 27.3zM432 480H64V96h80V16h288v464z"/><path class="st1" d="M96 320h32v16H96v-16zM144 320h256v16H144v-16zM96 352h304v16H96v-16zM96 384h64v16H96v-16zM176 384h224v16H176v-16zM304 416h96v16h-96v-16zM96 416h192v16H96v-16zM96 448h272v16H96v-16zM384 448h16v16h-16v-16z"/><circle class="st0" cx="248" cy="181.7" r="106.5"/><path class="st1" d="M261.9 112.5h-27.8l-27.5 88H192v16h9.6l-9.3 29.6 15.3 4.8 10.8-34.4h59.2l10.7 34.4 15.3-4.8-9.3-29.6h9.6v-16h-14.6l-27.4-88zm-38.5 88l22.5-72h4.2l22.5 72h-49.2z"/></svg>